<svg  width="100" height="100" viewBox="0 0 110 119" fill="none" xmlns="http://www.w3.org/2000/svg">
<g class="sun" clip-path="url(#clip0_17_3)">
<path fill-rule="evenodd" clip-rule="evenodd" d="M55.4607 0.0631701C56.5801 0.293092 57.4447 1.18555 57.7225 2.39792L57.7803 2.65005L57.789 8.86885C57.7947 12.8974 57.7882 15.19 57.7707 15.3783C57.7024 16.1135 57.4564 16.6859 56.981 17.2161C56.1389 18.1551 54.8602 18.4131 53.7748 17.863C52.9766 17.4584 52.4071 16.6855 52.2009 15.727C52.145 15.4666 52.1447 15.4372 52.1356 9.34834C52.1296 5.34697 52.136 3.10527 52.1539 2.86698C52.2566 1.50526 53.0713 0.454403 54.2958 0.104086C54.573 0.0247821 55.1714 0.00377186 55.4607 0.0631701ZM92.1977 16.5855C93.2854 16.7209 94.2007 17.516 94.5511 18.6298C94.6491 18.9415 94.6953 19.263 94.6949 19.6314C94.6943 20.2226 94.5587 20.7326 94.2638 21.2527C94.1292 21.49 93.811 21.8429 90.1433 25.8211C87.9572 28.1922 86.0664 30.23 85.9415 30.3494C85.3711 30.8945 84.7724 31.1437 84.0336 31.1435C83.2805 31.1432 82.6543 30.8759 82.1143 30.324C81.5912 29.7893 81.3166 29.1845 81.2351 28.3875C81.1655 27.706 81.3462 26.956 81.7211 26.3708C81.8179 26.2198 83.0469 24.8735 86.0268 21.6541C89.9532 17.4121 90.2103 17.1404 90.4252 17.0053C90.9658 16.6654 91.6113 16.5125 92.1977 16.5855ZM18.3911 16.6442C18.9361 16.7158 19.4065 16.9213 19.8222 17.2697C19.9034 17.3378 21.8083 19.3854 24.0553 21.82C26.8482 24.8461 28.1769 26.3053 28.2548 26.4319C28.4165 26.6947 28.5887 27.1059 28.658 27.3945C28.7491 27.7742 28.7609 28.363 28.6853 28.7596C28.4666 29.9076 27.6797 30.8024 26.6222 31.1057C26.4008 31.1692 26.3007 31.1809 25.9587 31.1832C25.719 31.1848 25.4906 31.1706 25.3947 31.1482C24.9906 31.0535 24.6049 30.8738 24.2832 30.6304C24.1698 30.5447 22.6195 28.8878 19.9942 26.0466C16.7937 22.5829 15.8559 21.5519 15.7613 21.3931C15.3978 20.783 15.265 20.2614 15.2899 19.5421C15.3059 19.0794 15.3709 18.7785 15.5373 18.3969C15.6958 18.0336 15.8451 17.8029 16.1006 17.5264C16.5163 17.0766 17.0059 16.7932 17.5499 16.6876C17.8473 16.6299 18.1594 16.6138 18.3911 16.6442ZM56.3859 24.7386C56.4598 24.7443 56.7377 24.7631 57.0036 24.7803C60.9565 25.0366 64.7975 26.0811 68.4843 27.9025C69.0723 28.193 70.3106 28.8846 70.9147 29.2598C73.1841 30.6695 75.1816 32.2678 77.0488 34.1682C80.3455 37.5235 82.9265 41.5491 84.7047 46.109C85.3626 47.7964 85.9592 49.8062 86.3541 51.6665C86.8822 54.1542 87.1308 56.4063 87.1666 59.0261C87.2167 62.688 86.7885 66.0343 85.8182 69.5635C85.4647 70.8493 84.8661 72.5988 84.4172 73.6577C84.3799 73.7456 84.2778 73.9876 84.1903 74.1953C83.9716 74.7143 83.3383 76.0498 83.0602 76.5782C81.3856 79.7603 79.4415 82.4393 77.0065 84.9197C75.1553 86.8054 73.0709 88.4638 70.8073 89.8519C65.0767 93.3661 58.3477 94.8867 51.7533 94.1576C45.5311 93.4696 39.7363 90.9041 34.8747 86.685C33.8826 85.824 33.0812 85.0365 32.0672 83.926C31.1337 82.9036 30.4083 82.0133 29.6203 80.9227C26.885 77.1369 24.8657 72.6754 23.8003 68.0637C22.9429 64.3528 22.6519 60.5982 22.9253 56.774C23.2431 52.3288 24.3611 47.9632 26.1999 43.9876C27.488 41.2027 29.0407 38.7291 31.0155 36.3159C31.5062 35.7163 32.9078 34.1945 33.4782 33.6421C37.4278 29.8172 42.0941 27.126 47.1509 25.7566C49.0492 25.2426 50.669 24.9687 52.9484 24.7765C53.3015 24.7468 56.0936 24.716 56.3859 24.7386ZM107.703 56.5576C108.78 56.789 109.617 57.6334 109.91 58.7822C110.013 59.1849 110.029 59.7309 109.95 60.1427C109.919 60.3093 109.857 60.5446 109.814 60.6658C109.59 61.2928 109.126 61.8761 108.585 62.2111C108.326 62.3717 107.85 62.5455 107.559 62.5857C107.399 62.6077 105.57 62.6147 101.476 62.6088L95.6218 62.6004L95.3935 62.5314C94.355 62.2176 93.6125 61.4284 93.3385 60.3473C93.2516 60.0044 93.2225 59.4815 93.2705 59.1259C93.4463 57.8251 94.383 56.7816 95.5783 56.5551C95.9028 56.4936 107.417 56.496 107.703 56.5576ZM14.4421 56.5555C15.5123 56.7656 16.3856 57.643 16.6718 58.7957C16.736 59.0542 16.7434 59.1342 16.7428 59.5637C16.7422 59.9554 16.7319 60.0833 16.6868 60.2621C16.536 60.8598 16.2898 61.3319 15.9254 61.7216C15.5667 62.1053 15.1358 62.3688 14.5942 62.5357L14.384 62.6005L8.52947 62.6089C4.43181 62.6147 2.60647 62.6078 2.44671 62.5857C2.15613 62.5455 1.67998 62.3717 1.42061 62.2111C0.879475 61.8761 0.415678 61.2928 0.191811 60.6658C0.148573 60.5446 0.0871279 60.3093 0.0553042 60.1427C-0.0233824 59.7309 -0.00726467 59.1849 0.0954038 58.7822C0.390384 57.6253 1.23628 56.7787 2.31914 56.5564C2.50633 56.518 3.26884 56.5128 8.39144 56.515C13.0738 56.5171 14.2883 56.5252 14.4421 56.5555ZM26.5092 87.9386C27.5468 88.1745 28.3797 89.0014 28.6682 90.0822C28.8988 90.9463 28.7697 91.8559 28.3058 92.6338C28.2233 92.7723 27.0965 94.0109 24.0816 97.2774C21.8201 99.7274 19.9095 101.783 19.8356 101.845C19.5123 102.116 19.1504 102.306 18.748 102.416C18.4339 102.501 17.6885 102.495 17.3783 102.403C16.7765 102.226 16.2013 101.81 15.8509 101.298C15.4683 100.74 15.2836 100.138 15.2836 99.4483C15.2836 98.7499 15.4752 98.1335 15.8616 97.5885C15.9409 97.4766 17.8464 95.3961 20.096 92.9652C24.3983 88.3161 24.3088 88.4079 24.7664 88.1748C25.1538 87.9776 25.3959 87.9204 25.8915 87.9091C26.1962 87.9021 26.3892 87.9113 26.5092 87.9386ZM84.4781 87.9686C84.8811 88.0478 85.2301 88.1994 85.5912 88.4521C85.8144 88.6083 93.8902 97.3239 94.1347 97.6723C94.5098 98.207 94.6952 98.814 94.6952 99.5065C94.6952 101.2 93.4605 102.541 91.8985 102.543C91.2507 102.544 90.6991 102.348 90.1961 101.939C89.9023 101.7 81.8234 92.9442 81.6774 92.7065C81.3716 92.2084 81.2221 91.7209 81.1955 91.1346C81.156 90.2653 81.4117 89.5063 81.9523 88.8882C82.5104 88.2501 83.2293 87.9201 84.0423 87.9287C84.1778 87.9302 84.374 87.9481 84.4781 87.9686ZM55.4101 100.932C55.9918 101.03 56.4838 101.301 56.9322 101.771C57.4146 102.276 57.6978 102.906 57.7692 103.633C57.8043 103.99 57.8042 115.958 57.7691 116.29C57.6941 116.998 57.4259 117.609 56.9684 118.113C56.6105 118.507 56.1735 118.776 55.6214 118.941C55.3237 119.03 54.5976 119.028 54.2958 118.939C53.762 118.78 53.3216 118.509 52.9665 118.122C52.482 117.593 52.2123 116.947 52.1539 116.173C52.136 115.935 52.1296 113.693 52.1356 109.692C52.1447 103.603 52.145 103.574 52.2009 103.313C52.3276 102.724 52.5592 102.256 52.9288 101.841C53.5895 101.099 54.4764 100.774 55.4101 100.932Z" fill="#FFE23D"/>
<path fill-rule="evenodd" clip-rule="evenodd" d="M56.8941 0.864527C56.4517 0.409799 55.9089 0.131551 55.3024 0.048469C55.0745 0.0172587 54.6198 0.0394023 54.3833 0.0932502C53.2742 0.345693 52.4111 1.304 52.198 2.51963C52.1609 2.73107 52.1562 3.47913 52.1565 9.09729C52.1569 15.1727 52.159 15.4473 52.2071 15.6979C52.3863 16.6328 52.9362 17.401 53.7272 17.8214C54.0629 17.9998 54.3249 18.0807 54.7014 18.1221C55.1992 18.177 55.6891 18.0849 56.1475 17.8502C56.9091 17.4603 57.4221 16.8084 57.6809 15.9014L57.7556 15.6398V9.08683V2.53384L57.6809 2.2723C57.5163 1.69546 57.2649 1.2457 56.8941 0.864527ZM57.7992 56.513L56.4212 56.5043C54.6151 56.493 54.5497 56.4971 54.1044 56.6491C53.1407 56.978 52.415 57.8491 52.1942 58.9422C52.1318 59.2507 52.1323 59.872 52.1951 60.1885C52.3115 60.7752 52.5585 61.2698 52.9484 61.6975C53.2259 62.0019 53.4832 62.1967 53.8197 62.3574C54.2489 62.5624 54.4147 62.5971 54.9626 62.5971C55.3775 62.5971 55.4761 62.5881 55.6584 62.5334C56.4407 62.2989 57.0504 61.7875 57.4321 61.0458C57.5795 60.7593 57.66 60.5355 57.7339 60.2068C57.7705 60.0437 57.7789 59.7457 57.7882 58.2636L57.7992 56.513ZM107.693 56.5715C107.583 56.5521 107.474 56.5325 107.452 56.5278C107.332 56.5024 95.8684 56.517 95.7023 56.5428C95.2461 56.6136 94.893 56.756 94.5174 57.0207C93.8931 57.4607 93.4591 58.1621 93.2947 58.9971C93.275 59.0974 93.2614 59.3504 93.2628 59.5928C93.2649 59.949 93.2761 60.0591 93.3357 60.3048C93.6427 61.5698 94.6083 62.4589 95.8129 62.5856C96.1823 62.6245 107.051 62.6244 107.43 62.5856C108.107 62.516 108.647 62.2466 109.14 61.731C110.168 60.6559 110.283 58.9525 109.411 57.7085C108.999 57.1213 108.339 56.6842 107.693 56.5715ZM15.228 56.8616C14.9489 56.7064 14.5957 56.5833 14.3181 56.5444C14.0587 56.5081 2.75086 56.5056 2.48427 56.5418C1.54632 56.6691 0.756018 57.2655 0.325605 58.171C-0.244133 59.3697 -0.0274945 60.797 0.86596 61.731C1.35916 62.2466 1.89834 62.516 2.57596 62.5856C2.9681 62.6258 13.7955 62.6258 14.1876 62.5856C14.5049 62.553 14.8594 62.4534 15.1152 62.3249C15.8457 61.9581 16.4526 61.1848 16.65 60.3695C16.9918 58.9573 16.4084 57.518 15.228 56.8616ZM56.8817 101.719C56.4342 101.27 55.8355 100.978 55.2446 100.918C54.8436 100.878 54.3485 100.942 54.0182 101.076C53.2209 101.401 52.6202 102.046 52.3264 102.892C52.3048 102.955 52.2859 103.003 52.2694 103.053C52.1485 103.418 52.1562 103.833 52.1562 109.969C52.1562 115.563 52.1609 116.309 52.198 116.521C52.4108 117.735 53.28 118.7 54.3799 118.945C55.2995 119.15 56.2203 118.868 56.8941 118.176C57.2649 117.795 57.5163 117.345 57.6809 116.768L57.7556 116.507V109.954V103.401L57.68 103.139C57.5171 102.575 57.2348 102.072 56.8817 101.719Z" fill="#FFC53D"/>
<path d="M24.7111 68.6203C24.7339 68.6269 27.7733 68.7305 31.4653 68.8504C37.732 69.0539 34.3332 83.8511 51.7131 84.4244C76.994 85.2584 84.5847 70.5988 85.0985 70.6112C85.3612 70.6175 85.4993 70.6313 85.4883 70.6501C85.4789 70.6661 85.4695 70.689 85.4674 70.7009C85.4654 70.7129 85.4612 70.726 85.4583 70.73C85.4553 70.734 85.4485 70.7629 85.4431 70.7941C85.4377 70.8254 85.4213 70.8777 85.4067 70.9104C85.3921 70.943 85.3548 71.0482 85.3237 71.1441C85.2926 71.24 85.2595 71.3381 85.2502 71.3621C85.2409 71.386 85.2313 71.4122 85.2288 71.4202C85.2263 71.4282 85.2101 71.4715 85.1929 71.5165C85.1757 71.5615 85.1616 71.6149 85.1616 71.6352C85.1616 71.6554 85.1525 71.6818 85.1414 71.6938C85.1303 71.7058 85.1207 71.7243 85.12 71.735C85.1162 71.7902 84.9384 72.2922 84.897 72.3646C84.8879 72.3806 84.8792 72.4002 84.8777 72.4082C84.8762 72.4162 84.8658 72.4489 84.8546 72.4809C84.8434 72.5128 84.8216 72.5782 84.8061 72.6262C84.778 72.7133 84.6398 73.0657 84.5398 73.3054C84.5106 73.3753 84.4624 73.4995 84.4326 73.5813C84.4028 73.663 84.3374 73.8185 84.2872 73.9267C84.237 74.0349 84.1957 74.1298 84.1955 74.1376C84.1952 74.1455 84.1225 74.3173 84.0338 74.5195C83.9451 74.7216 83.8725 74.8981 83.8725 74.9117C83.8725 74.9253 83.8604 74.9364 83.8456 74.9364C83.8309 74.9364 83.8218 74.9462 83.8254 74.9582C83.8318 74.9788 83.4805 75.7358 83.3636 75.9535C83.3336 76.0094 83.271 76.1337 83.2246 76.2296C83.1781 76.3255 83.0443 76.5841 82.9272 76.8042C82.0831 78.3911 81.1521 79.8698 80.1148 81.2712C78.8727 82.9493 77.4884 84.4997 75.9688 85.9145C73.9828 87.7637 71.8524 89.3059 69.5183 90.5841C64.0259 93.592 57.9154 94.813 51.7131 94.1422C47.0877 93.6419 42.5726 92.0278 38.5539 89.4379C33.2993 86.0515 28.9886 81.046 26.2672 75.1706C25.9097 74.3988 25.7809 74.1061 25.5696 73.5851C25.4144 73.2027 25.0084 72.1377 24.9934 72.074C24.9839 72.0334 24.9521 71.944 24.9106 71.8415C24.8913 71.7936 24.8268 71.604 24.7675 71.4202C24.7081 71.2364 24.6168 70.9588 24.5645 70.8035C24.5123 70.6481 24.4642 70.4912 24.4576 70.4547C24.451 70.4183 24.4271 70.333 24.4044 70.265C24.3817 70.1971 24.3702 70.1415 24.3787 70.1415C24.3872 70.1415 24.3822 70.1252 24.3675 70.1052C24.3464 70.0766 24.1891 69.5635 24.1603 69.4296C24.1569 69.4136 24.1463 69.3809 24.1369 69.3569C24.1274 69.333 24.1154 69.2872 24.11 69.2552C24.1047 69.2232 24.0928 69.1775 24.0836 69.1535C24.0744 69.1295 24.0614 69.0772 24.0546 69.0373C24.0478 68.9973 24.0235 68.8992 24.0004 68.8193C23.9341 68.5891 23.9168 68.601 24.3138 68.6047C24.5095 68.6066 24.6883 68.6136 24.7111 68.6203Z" fill="#FFC53D"/>
</g>
</svg>
