<svg width="100" height="100" viewBox="0 0 110 119" fill="none" xmlns="http://www.w3.org/2000/svg">
<g clip-path="url(#clip0_17_3)">

<g class="cloud1">
    <path fill-rule="evenodd" clip-rule="evenodd" d="M19.2134 -10.0975C21.0908 -9.99578 22.4786 -9.78468 24.0359 -9.36403C25.9427 -8.84897 27.5554 -8.19747 29.1723 -7.28907L29.6661 -7.01164L44.4968 -7.01129L59.3275 -7.01094L59.2192 -6.92326C58.1984 -6.09671 56.93 -4.86936 55.9917 -3.80012C54.729 -2.36106 53.6263 -0.770941 52.6664 0.995191C52.3098 1.65146 51.6342 3.07096 51.6342 3.16411C51.6342 3.17906 51.7496 3.21623 51.8906 3.24671C52.7455 3.43155 53.9968 3.79445 54.9913 4.14599C57.1632 4.91376 59.492 6.16083 61.4366 7.59742L61.8983 7.93849H80.7004H99.5025L99.5218 8.02652C99.5324 8.07496 99.5527 8.16498 99.567 8.22661C99.5813 8.28823 99.6494 8.65558 99.7183 9.04294C100.089 11.1272 100.197 13.1606 100.06 15.4936C99.8929 18.3528 99.178 21.3635 98.0133 24.1148C95.7895 29.3678 91.8038 33.8351 86.8984 36.5729C83.4995 38.4699 79.651 39.5732 76.0041 39.6961C75.5169 39.7125 73.8846 39.7263 72.3769 39.7267L69.6355 39.7275L69.2712 40.4558C68.8306 41.3367 68.5552 41.8441 68.2072 42.4166C67.3413 43.8411 66.4343 45.0924 65.4721 46.1899C64.9901 46.7398 63.8364 47.9124 63.3213 48.3762C60.665 50.7676 57.5895 52.5583 54.2919 53.6335C52.2843 54.2881 49.9692 54.7194 47.9973 54.8061C47.066 54.8471 -8.26718 54.8448 -8.45145 54.8038C-8.52838 54.7867 -8.80814 54.7437 -9.07313 54.7083C-9.33812 54.6728 -9.80286 54.6012 -10.1058 54.549C-15.4206 53.6341 -20.1966 50.5571 -23.3616 46.0089C-24.6858 44.1061 -25.7628 41.8473 -26.3538 39.7335C-26.9973 37.4323 -27.2351 35.5169 -27.1853 33.0368C-27.1318 30.3741 -26.5014 27.5464 -25.4011 25.0335C-24.9449 23.9916 -24.2118 22.6344 -23.6911 21.8676C-22.8016 20.5576 -22.0219 19.6027 -21.022 18.5986C-18.6979 16.2648 -16.1171 14.6487 -13.0424 13.6016C-10.396 12.7003 -7.48925 12.3776 -4.58683 12.6627C-4.29911 12.691 -4.05522 12.7054 -4.04487 12.6947C-4.03449 12.684 -4.01428 12.3838 -3.99995 12.0276C-3.89641 9.45345 -3.3912 6.95363 -2.50388 4.62513C-2.16245 3.72918 -2.02117 3.39781 -1.69168 2.72035C-0.579362 0.433393 0.63842 -1.31596 2.46427 -3.24972C3.17156 -3.99876 3.75846 -4.53421 4.71986 -5.30755C6.79466 -6.97643 9.28046 -8.29543 11.9397 -9.13856C12.3079 -9.25528 13.6282 -9.59216 14.069 -9.68183C14.7685 -9.82412 16.0402 -9.99424 16.8199 -10.0498C17.3024 -10.0842 18.8792 -10.1156 19.2134 -10.0975Z" fill="#B9E3F8"/>
    <path fill-rule="evenodd" clip-rule="evenodd" d="M19.5316 -12.7188C20.4537 -12.6616 21.6266 -12.5261 22.3137 -12.3974C22.5445 -12.3541 22.839 -12.2989 22.9682 -12.2746C23.2973 -12.2128 24.6619 -11.8432 25.2194 -11.6648C26.5047 -11.2537 27.876 -10.6572 29.1011 -9.97641L29.634 -9.68029L44.4731 -9.66428L59.3122 -9.64828L58.9116 -9.31304C57.972 -8.52644 56.6353 -7.20276 55.8074 -6.23888C54.5325 -4.75472 53.3993 -3.06459 52.4227 -1.1907C52.1731 -0.71162 51.6943 0.31232 51.6449 0.472961C51.625 0.537724 51.6427 0.546495 51.9279 0.61209C52.9636 0.850396 54.2095 1.21365 55.0933 1.535C57.3193 2.34423 59.5672 3.55842 61.5262 5.0096L61.8991 5.28585H80.7094H99.5196L99.647 5.96613C99.9883 7.78991 100.117 9.13453 100.117 10.8754C100.117 13.7878 99.8103 15.9641 99.0163 18.677C98.3061 21.1036 97.1048 23.658 95.6633 25.8063C93.557 28.9453 90.8149 31.5659 87.6059 33.5067C87.0417 33.848 85.7474 34.5316 85.1502 34.8037C82.7056 35.918 80.2781 36.5972 77.6055 36.9147C76.8328 37.0065 76.0276 37.0419 74.7033 37.0424C74.0693 37.0427 72.666 37.0524 71.5848 37.0642L69.6189 37.0855L69.3378 37.6644C68.7708 38.832 68.4081 39.4755 67.696 40.5773C66.6349 42.2192 65.7301 43.3363 64.2582 44.8221C63.0159 46.0761 61.6932 47.1559 60.2172 48.1208C56.6429 50.4576 52.8195 51.7511 48.3777 52.1261C47.703 52.1831 -8.38378 52.1874 -8.49378 52.1305C-8.53481 52.1092 -8.76424 52.0686 -9.00359 52.0402C-12.9131 51.5761 -16.6701 49.9309 -19.6868 47.362C-20.4584 46.705 -21.5557 45.6039 -22.1542 44.8861L-26.3366 36.9974C-26.7128 35.6582 -27.0847 32.9452 -27.0847 32.9452C-27.0847 32.9452 -27.1386 29.628 -27.0839 29.1036C-27.0174 28.4667 -26.8662 27.394 -26.7815 26.9587C-26.6656 26.3631 -26.359 25.1546 -26.1778 24.5795C-25.6434 22.8833 -24.9153 21.2819 -23.9815 19.7487C-23.8558 19.5423 -23.753 19.3586 -23.753 19.3405C-23.753 19.3224 -23.7411 19.3076 -23.7265 19.3076C-23.7119 19.3076 -23.6354 19.2076 -23.5564 19.0853C-23.412 18.8616 -22.6808 17.8608 -22.4441 17.5629C-21.8621 16.8302 -20.8787 15.8013 -20.0448 15.0526C-18.3895 13.5662 -16.2939 12.2538 -14.2324 11.4122C-12.5026 10.7062 -10.6563 10.2399 -8.80154 10.0409C-7.63352 9.91559 -6.1566 9.88949 -5.14916 9.97647C-4.84143 10.003 -4.4548 10.0338 -4.28999 10.0449L-3.99034 10.0651L-3.971 9.62023C-3.84641 6.75775 -3.42172 4.56286 -2.52214 2.13255C-1.5401 -0.520503 -0.117943 -2.93913 1.65671 -4.97436C2.11579 -5.50085 2.95417 -6.3774 3.39637 -6.79325C3.77768 -7.15183 4.73009 -7.94812 5.25896 -8.3505C6.63235 -9.39541 8.46268 -10.4301 10.1545 -11.1181C11.2882 -11.5791 11.9616 -11.799 13.1439 -12.0941C14.2831 -12.3785 15.0546 -12.51 16.4543 -12.6585C16.8961 -12.7053 19.0635 -12.7478 19.5316 -12.7188Z" fill="#EBF9FF"/>
</g>
<g class="cloud2">
    <path fill-rule="evenodd" clip-rule="evenodd" d="M19.2134 -10.0975C21.0908 -9.99578 22.4786 -9.78468 24.0359 -9.36403C25.9427 -8.84897 27.5554 -8.19747 29.1723 -7.28907L29.6661 -7.01164L44.4968 -7.01129L59.3275 -7.01094L59.2192 -6.92326C58.1984 -6.09671 56.93 -4.86936 55.9917 -3.80012C54.729 -2.36106 53.6263 -0.770941 52.6664 0.995191C52.3098 1.65146 51.6342 3.07096 51.6342 3.16411C51.6342 3.17906 51.7496 3.21623 51.8906 3.24671C52.7455 3.43155 53.9968 3.79445 54.9913 4.14599C57.1632 4.91376 59.492 6.16083 61.4366 7.59742L61.8983 7.93849H80.7004H99.5025L99.5218 8.02652C99.5324 8.07496 99.5527 8.16498 99.567 8.22661C99.5813 8.28823 99.6494 8.65558 99.7183 9.04294C100.089 11.1272 100.197 13.1606 100.06 15.4936C99.8929 18.3528 99.178 21.3635 98.0133 24.1148C95.7895 29.3678 91.8038 33.8351 86.8984 36.5729C83.4995 38.4699 79.651 39.5732 76.0041 39.6961C75.5169 39.7125 73.8846 39.7263 72.3769 39.7267L69.6355 39.7275L69.2712 40.4558C68.8306 41.3367 68.5552 41.8441 68.2072 42.4166C67.3413 43.8411 66.4343 45.0924 65.4721 46.1899C64.9901 46.7398 63.8364 47.9124 63.3213 48.3762C60.665 50.7676 57.5895 52.5583 54.2919 53.6335C52.2843 54.2881 49.9692 54.7194 47.9973 54.8061C47.066 54.8471 -8.26718 54.8448 -8.45145 54.8038C-8.52838 54.7867 -8.80814 54.7437 -9.07313 54.7083C-9.33812 54.6728 -9.80286 54.6012 -10.1058 54.549C-15.4206 53.6341 -20.1966 50.5571 -23.3616 46.0089C-24.6858 44.1061 -25.7628 41.8473 -26.3538 39.7335C-26.9973 37.4323 -27.2351 35.5169 -27.1853 33.0368C-27.1318 30.3741 -26.5014 27.5464 -25.4011 25.0335C-24.9449 23.9916 -24.2118 22.6344 -23.6911 21.8676C-22.8016 20.5576 -22.0219 19.6027 -21.022 18.5986C-18.6979 16.2648 -16.1171 14.6487 -13.0424 13.6016C-10.396 12.7003 -7.48925 12.3776 -4.58683 12.6627C-4.29911 12.691 -4.05522 12.7054 -4.04487 12.6947C-4.03449 12.684 -4.01428 12.3838 -3.99995 12.0276C-3.89641 9.45345 -3.3912 6.95363 -2.50388 4.62513C-2.16245 3.72918 -2.02117 3.39781 -1.69168 2.72035C-0.579362 0.433393 0.63842 -1.31596 2.46427 -3.24972C3.17156 -3.99876 3.75846 -4.53421 4.71986 -5.30755C6.79466 -6.97643 9.28046 -8.29543 11.9397 -9.13856C12.3079 -9.25528 13.6282 -9.59216 14.069 -9.68183C14.7685 -9.82412 16.0402 -9.99424 16.8199 -10.0498C17.3024 -10.0842 18.8792 -10.1156 19.2134 -10.0975Z" fill="#B9E3F8"/>
    <path fill-rule="evenodd" clip-rule="evenodd" d="M19.5316 -12.7188C20.4537 -12.6616 21.6266 -12.5261 22.3137 -12.3974C22.5445 -12.3541 22.839 -12.2989 22.9682 -12.2746C23.2973 -12.2128 24.6619 -11.8432 25.2194 -11.6648C26.5047 -11.2537 27.876 -10.6572 29.1011 -9.97641L29.634 -9.68029L44.4731 -9.66428L59.3122 -9.64828L58.9116 -9.31304C57.972 -8.52644 56.6353 -7.20276 55.8074 -6.23888C54.5325 -4.75472 53.3993 -3.06459 52.4227 -1.1907C52.1731 -0.71162 51.6943 0.31232 51.6449 0.472961C51.625 0.537724 51.6427 0.546495 51.9279 0.61209C52.9636 0.850396 54.2095 1.21365 55.0933 1.535C57.3193 2.34423 59.5672 3.55842 61.5262 5.0096L61.8991 5.28585H80.7094H99.5196L99.647 5.96613C99.9883 7.78991 100.117 9.13453 100.117 10.8754C100.117 13.7878 99.8103 15.9641 99.0163 18.677C98.3061 21.1036 97.1048 23.658 95.6633 25.8063C93.557 28.9453 90.8149 31.5659 87.6059 33.5067C87.0417 33.848 85.7474 34.5316 85.1502 34.8037C82.7056 35.918 80.2781 36.5972 77.6055 36.9147C76.8328 37.0065 76.0276 37.0419 74.7033 37.0424C74.0693 37.0427 72.666 37.0524 71.5848 37.0642L69.6189 37.0855L69.3378 37.6644C68.7708 38.832 68.4081 39.4755 67.696 40.5773C66.6349 42.2192 65.7301 43.3363 64.2582 44.8221C63.0159 46.0761 61.6932 47.1559 60.2172 48.1208C56.6429 50.4576 52.8195 51.7511 48.3777 52.1261C47.703 52.1831 -8.38378 52.1874 -8.49378 52.1305C-8.53481 52.1092 -8.76424 52.0686 -9.00359 52.0402C-12.9131 51.5761 -16.6701 49.9309 -19.6868 47.362C-20.4584 46.705 -21.5557 45.6039 -22.1542 44.8861L-26.3366 36.9974C-26.7128 35.6582 -27.0847 32.9452 -27.0847 32.9452C-27.0847 32.9452 -27.1386 29.628 -27.0839 29.1036C-27.0174 28.4667 -26.8662 27.394 -26.7815 26.9587C-26.6656 26.3631 -26.359 25.1546 -26.1778 24.5795C-25.6434 22.8833 -24.9153 21.2819 -23.9815 19.7487C-23.8558 19.5423 -23.753 19.3586 -23.753 19.3405C-23.753 19.3224 -23.7411 19.3076 -23.7265 19.3076C-23.7119 19.3076 -23.6354 19.2076 -23.5564 19.0853C-23.412 18.8616 -22.6808 17.8608 -22.4441 17.5629C-21.8621 16.8302 -20.8787 15.8013 -20.0448 15.0526C-18.3895 13.5662 -16.2939 12.2538 -14.2324 11.4122C-12.5026 10.7062 -10.6563 10.2399 -8.80154 10.0409C-7.63352 9.91559 -6.1566 9.88949 -5.14916 9.97647C-4.84143 10.003 -4.4548 10.0338 -4.28999 10.0449L-3.99034 10.0651L-3.971 9.62023C-3.84641 6.75775 -3.42172 4.56286 -2.52214 2.13255C-1.5401 -0.520503 -0.117943 -2.93913 1.65671 -4.97436C2.11579 -5.50085 2.95417 -6.3774 3.39637 -6.79325C3.77768 -7.15183 4.73009 -7.94812 5.25896 -8.3505C6.63235 -9.39541 8.46268 -10.4301 10.1545 -11.1181C11.2882 -11.5791 11.9616 -11.799 13.1439 -12.0941C14.2831 -12.3785 15.0546 -12.51 16.4543 -12.6585C16.8961 -12.7053 19.0635 -12.7478 19.5316 -12.7188Z" fill="#EBF9FF"/>
</g>

<g class="cloud3">
    <path fill-rule="evenodd" clip-rule="evenodd" d="M79.342 81.8331C80.5034 81.8949 81.3619 82.0232 82.3252 82.2788C83.5048 82.5918 84.5024 82.9878 85.5026 83.5398L85.8081 83.7084L94.9825 83.7087L104.157 83.7089L104.09 83.7622C103.458 84.2645 102.674 85.0104 102.093 85.6602C101.312 86.5348 100.63 87.5012 100.036 88.5745C99.8156 88.9734 99.3977 89.8361 99.3977 89.8927C99.3977 89.9018 99.4691 89.9244 99.5563 89.9429C100.085 90.0552 100.859 90.2758 101.474 90.4894C102.818 90.956 104.259 91.7139 105.462 92.587L105.747 92.7943H117.378H129.009L129.021 92.8478C129.028 92.8772 129.04 92.9319 129.049 92.9694C129.058 93.0068 129.1 93.2301 129.143 93.4655C129.372 94.7322 129.439 95.968 129.354 97.3858C129.251 99.1235 128.809 100.953 128.088 102.625C126.712 105.818 124.247 108.533 121.212 110.197C119.11 111.349 116.729 112.02 114.473 112.095C114.172 112.105 113.162 112.113 112.229 112.113L110.533 112.114L110.308 112.556C110.036 113.092 109.865 113.4 109.65 113.748C109.114 114.614 108.553 115.374 107.958 116.041C107.66 116.375 106.946 117.088 106.627 117.37C104.984 118.823 103.082 119.912 101.042 120.565C99.7999 120.963 98.3678 121.225 97.1479 121.278C96.5718 121.303 62.3423 121.301 62.2283 121.276C62.1807 121.266 62.0077 121.24 61.8437 121.218C61.6798 121.197 61.3923 121.153 61.2049 121.121C57.9172 120.565 54.9627 118.695 53.0048 115.931C52.1857 114.775 51.5194 113.402 51.1538 112.117C50.7557 110.719 50.6086 109.555 50.6395 108.048C50.6725 106.429 51.0625 104.711 51.7432 103.184C52.0254 102.55 52.4788 101.726 52.801 101.26C53.3512 100.463 53.8335 99.8831 54.4521 99.2729C55.8898 97.8545 57.4863 96.8723 59.3883 96.236C61.0254 95.6882 62.8235 95.4921 64.619 95.6654C64.797 95.6826 64.9479 95.6913 64.9543 95.6848C64.9607 95.6783 64.9732 95.4959 64.982 95.2794C65.0461 93.715 65.3586 92.1957 65.9075 90.7806C66.1187 90.2361 66.2061 90.0347 66.41 89.623C67.098 88.2331 67.8514 87.17 68.9809 85.9947C69.4184 85.5395 69.7815 85.2141 70.3762 84.7441C71.6597 83.7299 73.1974 82.9282 74.8425 82.4158C75.0702 82.3449 75.887 82.1402 76.1596 82.0857C76.5924 81.9992 77.379 81.8958 77.8614 81.862C78.1598 81.8411 79.1353 81.822 79.342 81.8331Z" fill="#B9E3F8"/>
    <path fill-rule="evenodd" clip-rule="evenodd" d="M79.5389 80.2399C80.1092 80.2746 80.8348 80.357 81.2598 80.4352C81.4026 80.4615 81.5848 80.4951 81.6648 80.5098C81.8683 80.5474 82.7125 80.772 83.0573 80.8804C83.8524 81.1303 84.7008 81.4928 85.4586 81.9066L85.7882 82.0865L94.9678 82.0962L104.147 82.106L103.9 82.3097C103.318 82.7878 102.491 83.5922 101.979 84.178C101.191 85.08 100.49 86.1072 99.8855 87.246C99.7311 87.5372 99.4349 88.1594 99.4043 88.2571C99.392 88.2964 99.403 88.3018 99.5794 88.3416C100.22 88.4865 100.991 88.7072 101.538 88.9025C102.915 89.3943 104.305 90.1322 105.517 91.0142L105.748 91.1821H117.384H129.02L129.099 91.5955C129.31 92.7039 129.39 93.5211 129.39 94.5791C129.39 96.3491 129.2 97.6717 128.709 99.3204C128.269 100.795 127.526 102.348 126.634 103.653C125.331 105.561 123.635 107.154 121.65 108.333C121.301 108.54 120.5 108.956 120.131 109.121C118.619 109.798 117.117 110.211 115.464 110.404C114.986 110.46 114.488 110.482 113.668 110.482C113.276 110.482 112.408 110.488 111.739 110.495L110.523 110.508L110.349 110.86C109.999 111.569 109.774 111.961 109.334 112.63C108.677 113.628 108.118 114.307 107.207 115.21C106.439 115.972 105.62 116.628 104.707 117.215C102.496 118.635 100.131 119.421 97.3832 119.649C96.9659 119.683 62.2702 119.686 62.2021 119.652C62.1768 119.639 62.0348 119.614 61.8868 119.597C59.4683 119.315 57.1442 118.315 55.2781 116.754C54.8007 116.354 54.1219 115.685 53.7517 115.249L51.1644 110.455C50.9317 109.641 50.7017 107.992 50.7017 107.992C50.7017 107.992 50.6683 105.976 50.7022 105.657C50.7433 105.27 50.8368 104.618 50.8892 104.354C50.9609 103.992 51.1506 103.257 51.2627 102.908C51.5933 101.877 52.0437 100.904 52.6213 99.9717C52.6991 99.8463 52.7627 99.7347 52.7627 99.7237C52.7627 99.7127 52.7701 99.7037 52.7791 99.7037C52.7881 99.7037 52.8354 99.6429 52.8843 99.5686C52.9736 99.4326 53.426 98.8244 53.5724 98.6433C53.9324 98.1981 54.5408 97.5727 55.0566 97.1177C56.0806 96.2144 57.3769 95.4168 58.6522 94.9053C59.7222 94.4762 60.8644 94.1929 62.0118 94.0719C62.7343 93.9958 63.6479 93.9799 64.2711 94.0328C64.4615 94.0489 64.7007 94.0676 64.8026 94.0743L64.988 94.0866L65 93.8163C65.077 92.0766 65.3398 90.7427 65.8962 89.2657C66.5037 87.6533 67.3835 86.1834 68.4813 84.9465C68.7653 84.6265 69.2839 84.0938 69.5575 83.8411C69.7933 83.6232 70.3825 83.1392 70.7097 82.8947C71.5593 82.2597 72.6915 81.6308 73.7381 81.2127C74.4394 80.9325 74.856 80.7989 75.5873 80.6196C76.292 80.4467 76.7694 80.3668 77.6352 80.2766C77.9085 80.2481 79.2492 80.2223 79.5389 80.2399Z" fill="#EBF9FF"/>
</g>
<g class="sun">
<path fill-rule="evenodd" clip-rule="evenodd" d="M55.4607 0.0631701C56.5801 0.293092 57.4447 1.18555 57.7225 2.39792L57.7803 2.65005L57.789 8.86885C57.7947 12.8974 57.7882 15.19 57.7707 15.3783C57.7024 16.1135 57.4564 16.6859 56.981 17.2161C56.1389 18.1551 54.8602 18.4131 53.7748 17.863C52.9766 17.4584 52.4071 16.6855 52.2009 15.727C52.145 15.4666 52.1447 15.4372 52.1356 9.34834C52.1296 5.34697 52.136 3.10527 52.1539 2.86698C52.2566 1.50526 53.0713 0.454403 54.2958 0.104086C54.573 0.0247821 55.1714 0.00377186 55.4607 0.0631701ZM92.1977 16.5855C93.2854 16.7209 94.2007 17.516 94.5511 18.6298C94.6491 18.9415 94.6953 19.263 94.6949 19.6314C94.6943 20.2226 94.5587 20.7326 94.2638 21.2527C94.1292 21.49 93.811 21.8429 90.1433 25.8211C87.9572 28.1922 86.0664 30.23 85.9415 30.3494C85.3711 30.8945 84.7724 31.1437 84.0336 31.1435C83.2805 31.1432 82.6543 30.8759 82.1143 30.324C81.5912 29.7893 81.3166 29.1845 81.2351 28.3875C81.1655 27.706 81.3462 26.956 81.7211 26.3708C81.8179 26.2198 83.0469 24.8735 86.0268 21.6541C89.9532 17.4121 90.2103 17.1404 90.4252 17.0053C90.9658 16.6654 91.6113 16.5125 92.1977 16.5855ZM18.3911 16.6442C18.9361 16.7158 19.4065 16.9213 19.8222 17.2697C19.9034 17.3378 21.8083 19.3854 24.0553 21.82C26.8482 24.8461 28.1769 26.3053 28.2548 26.4319C28.4165 26.6947 28.5887 27.1059 28.658 27.3945C28.7491 27.7742 28.7609 28.363 28.6853 28.7596C28.4666 29.9076 27.6797 30.8024 26.6222 31.1057C26.4008 31.1692 26.3007 31.1809 25.9587 31.1832C25.719 31.1848 25.4906 31.1706 25.3947 31.1482C24.9906 31.0535 24.6049 30.8738 24.2832 30.6304C24.1698 30.5447 22.6195 28.8878 19.9942 26.0466C16.7937 22.5829 15.8559 21.5519 15.7613 21.3931C15.3978 20.783 15.265 20.2614 15.2899 19.5421C15.3059 19.0794 15.3709 18.7785 15.5373 18.3969C15.6958 18.0336 15.8451 17.8029 16.1006 17.5264C16.5163 17.0766 17.0059 16.7932 17.5499 16.6876C17.8473 16.6299 18.1594 16.6138 18.3911 16.6442ZM56.3859 24.7386C56.4598 24.7443 56.7377 24.7631 57.0036 24.7803C60.9565 25.0366 64.7975 26.0811 68.4843 27.9025C69.0723 28.193 70.3106 28.8846 70.9147 29.2598C73.1841 30.6695 75.1816 32.2678 77.0488 34.1682C80.3455 37.5235 82.9265 41.5491 84.7047 46.109C85.3626 47.7964 85.9592 49.8062 86.3541 51.6665C86.8822 54.1542 87.1308 56.4063 87.1666 59.0261C87.2167 62.688 86.7885 66.0343 85.8182 69.5635C85.4647 70.8493 84.8661 72.5988 84.4172 73.6577C84.3799 73.7456 84.2778 73.9876 84.1903 74.1953C83.9716 74.7143 83.3383 76.0498 83.0602 76.5782C81.3856 79.7603 79.4415 82.4393 77.0065 84.9197C75.1553 86.8054 73.0709 88.4638 70.8073 89.8519C65.0767 93.3661 58.3477 94.8867 51.7533 94.1576C45.5311 93.4696 39.7363 90.9041 34.8747 86.685C33.8826 85.824 33.0812 85.0365 32.0672 83.926C31.1337 82.9036 30.4083 82.0133 29.6203 80.9227C26.885 77.1369 24.8657 72.6754 23.8003 68.0637C22.9429 64.3528 22.6519 60.5982 22.9253 56.774C23.2431 52.3288 24.3611 47.9632 26.1999 43.9876C27.488 41.2027 29.0407 38.7291 31.0155 36.3159C31.5062 35.7163 32.9078 34.1945 33.4782 33.6421C37.4278 29.8172 42.0941 27.126 47.1509 25.7566C49.0492 25.2426 50.669 24.9687 52.9484 24.7765C53.3015 24.7468 56.0936 24.716 56.3859 24.7386ZM107.703 56.5576C108.78 56.789 109.617 57.6334 109.91 58.7822C110.013 59.1849 110.029 59.7309 109.95 60.1427C109.919 60.3093 109.857 60.5446 109.814 60.6658C109.59 61.2928 109.126 61.8761 108.585 62.2111C108.326 62.3717 107.85 62.5455 107.559 62.5857C107.399 62.6077 105.57 62.6147 101.476 62.6088L95.6218 62.6004L95.3935 62.5314C94.355 62.2176 93.6125 61.4284 93.3385 60.3473C93.2516 60.0044 93.2225 59.4815 93.2705 59.1259C93.4463 57.8251 94.383 56.7816 95.5783 56.5551C95.9028 56.4936 107.417 56.496 107.703 56.5576ZM14.4421 56.5555C15.5123 56.7656 16.3856 57.643 16.6718 58.7957C16.736 59.0542 16.7434 59.1342 16.7428 59.5637C16.7422 59.9554 16.7319 60.0833 16.6868 60.2621C16.536 60.8598 16.2898 61.3319 15.9254 61.7216C15.5667 62.1053 15.1358 62.3688 14.5942 62.5357L14.384 62.6005L8.52947 62.6089C4.43181 62.6147 2.60647 62.6078 2.44671 62.5857C2.15613 62.5455 1.67998 62.3717 1.42061 62.2111C0.879475 61.8761 0.415678 61.2928 0.191811 60.6658C0.148573 60.5446 0.0871279 60.3093 0.0553042 60.1427C-0.0233824 59.7309 -0.00726467 59.1849 0.0954038 58.7822C0.390384 57.6253 1.23628 56.7787 2.31914 56.5564C2.50633 56.518 3.26884 56.5128 8.39144 56.515C13.0738 56.5171 14.2883 56.5252 14.4421 56.5555ZM26.5092 87.9386C27.5468 88.1745 28.3797 89.0014 28.6682 90.0822C28.8988 90.9463 28.7697 91.8559 28.3058 92.6338C28.2233 92.7723 27.0965 94.0109 24.0816 97.2774C21.8201 99.7274 19.9095 101.783 19.8356 101.845C19.5123 102.116 19.1504 102.306 18.748 102.416C18.4339 102.501 17.6885 102.495 17.3783 102.403C16.7765 102.226 16.2013 101.81 15.8509 101.298C15.4683 100.74 15.2836 100.138 15.2836 99.4483C15.2836 98.7499 15.4752 98.1335 15.8616 97.5885C15.9409 97.4766 17.8464 95.3961 20.096 92.9652C24.3983 88.3161 24.3088 88.4079 24.7664 88.1748C25.1538 87.9776 25.3959 87.9204 25.8915 87.9091C26.1962 87.9021 26.3892 87.9113 26.5092 87.9386ZM84.4781 87.9686C84.8811 88.0478 85.2301 88.1994 85.5912 88.4521C85.8144 88.6083 93.8902 97.3239 94.1347 97.6723C94.5098 98.207 94.6952 98.814 94.6952 99.5065C94.6952 101.2 93.4605 102.541 91.8985 102.543C91.2507 102.544 90.6991 102.348 90.1961 101.939C89.9023 101.7 81.8234 92.9442 81.6774 92.7065C81.3716 92.2084 81.2221 91.7209 81.1955 91.1346C81.156 90.2653 81.4117 89.5063 81.9523 88.8882C82.5104 88.2501 83.2293 87.9201 84.0423 87.9287C84.1778 87.9302 84.374 87.9481 84.4781 87.9686ZM55.4101 100.932C55.9918 101.03 56.4838 101.301 56.9322 101.771C57.4146 102.276 57.6978 102.906 57.7692 103.633C57.8043 103.99 57.8042 115.958 57.7691 116.29C57.6941 116.998 57.4259 117.609 56.9684 118.113C56.6105 118.507 56.1735 118.776 55.6214 118.941C55.3237 119.03 54.5976 119.028 54.2958 118.939C53.762 118.78 53.3216 118.509 52.9665 118.122C52.482 117.593 52.2123 116.947 52.1539 116.173C52.136 115.935 52.1296 113.693 52.1356 109.692C52.1447 103.603 52.145 103.574 52.2009 103.313C52.3276 102.724 52.5592 102.256 52.9288 101.841C53.5895 101.099 54.4764 100.774 55.4101 100.932Z" fill="#FFE23D"/>
<path fill-rule="evenodd" clip-rule="evenodd" d="M56.8941 0.864527C56.4517 0.409799 55.9089 0.131551 55.3024 0.048469C55.0745 0.0172587 54.6198 0.0394023 54.3833 0.0932502C53.2742 0.345693 52.4111 1.304 52.198 2.51963C52.1609 2.73107 52.1562 3.47913 52.1565 9.09729C52.1569 15.1727 52.159 15.4473 52.2071 15.6979C52.3863 16.6328 52.9362 17.401 53.7272 17.8214C54.0629 17.9998 54.3249 18.0807 54.7014 18.1221C55.1992 18.177 55.6891 18.0849 56.1475 17.8502C56.9091 17.4603 57.4221 16.8084 57.6809 15.9014L57.7556 15.6398V9.08683V2.53384L57.6809 2.2723C57.5163 1.69546 57.2649 1.2457 56.8941 0.864527ZM57.7992 56.513L56.4212 56.5043C54.6151 56.493 54.5497 56.4971 54.1044 56.6491C53.1407 56.978 52.415 57.8491 52.1942 58.9422C52.1318 59.2507 52.1323 59.872 52.1951 60.1885C52.3115 60.7752 52.5585 61.2698 52.9484 61.6975C53.2259 62.0019 53.4832 62.1967 53.8197 62.3574C54.2489 62.5624 54.4147 62.5971 54.9626 62.5971C55.3775 62.5971 55.4761 62.5881 55.6584 62.5334C56.4407 62.2989 57.0504 61.7875 57.4321 61.0458C57.5795 60.7593 57.66 60.5355 57.7339 60.2068C57.7705 60.0437 57.7789 59.7457 57.7882 58.2636L57.7992 56.513ZM107.693 56.5715C107.583 56.5521 107.474 56.5325 107.452 56.5278C107.332 56.5024 95.8684 56.517 95.7023 56.5428C95.2461 56.6136 94.893 56.756 94.5174 57.0207C93.8931 57.4607 93.4591 58.1621 93.2947 58.9971C93.275 59.0974 93.2614 59.3504 93.2628 59.5928C93.2649 59.949 93.2761 60.0591 93.3357 60.3048C93.6427 61.5698 94.6083 62.4589 95.8129 62.5856C96.1823 62.6245 107.051 62.6244 107.43 62.5856C108.107 62.516 108.647 62.2466 109.14 61.731C110.168 60.6559 110.283 58.9525 109.411 57.7085C108.999 57.1213 108.339 56.6842 107.693 56.5715ZM15.228 56.8616C14.9489 56.7064 14.5957 56.5833 14.3181 56.5444C14.0587 56.5081 2.75086 56.5056 2.48427 56.5418C1.54632 56.6691 0.756018 57.2655 0.325605 58.171C-0.244133 59.3697 -0.0274945 60.797 0.86596 61.731C1.35916 62.2466 1.89834 62.516 2.57596 62.5856C2.9681 62.6258 13.7955 62.6258 14.1876 62.5856C14.5049 62.553 14.8594 62.4534 15.1152 62.3249C15.8457 61.9581 16.4526 61.1848 16.65 60.3695C16.9918 58.9573 16.4084 57.518 15.228 56.8616ZM56.8817 101.719C56.4342 101.27 55.8355 100.978 55.2446 100.918C54.8436 100.878 54.3485 100.942 54.0182 101.076C53.2209 101.401 52.6202 102.046 52.3264 102.892C52.3048 102.955 52.2859 103.003 52.2694 103.053C52.1485 103.418 52.1562 103.833 52.1562 109.969C52.1562 115.563 52.1609 116.309 52.198 116.521C52.4108 117.735 53.28 118.7 54.3799 118.945C55.2995 119.15 56.2203 118.868 56.8941 118.176C57.2649 117.795 57.5163 117.345 57.6809 116.768L57.7556 116.507V109.954V103.401L57.68 103.139C57.5171 102.575 57.2348 102.072 56.8817 101.719Z" fill="#FFC53D"/>
<path d="M24.7111 68.6203C24.7339 68.6269 27.7733 68.7305 31.4653 68.8504C37.732 69.0539 34.3332 83.8511 51.7131 84.4244C76.994 85.2584 84.5847 70.5988 85.0985 70.6112C85.3612 70.6175 85.4993 70.6313 85.4883 70.6501C85.4789 70.6661 85.4695 70.689 85.4674 70.7009C85.4654 70.7129 85.4612 70.726 85.4583 70.73C85.4553 70.734 85.4485 70.7629 85.4431 70.7941C85.4377 70.8254 85.4213 70.8777 85.4067 70.9104C85.3921 70.943 85.3548 71.0482 85.3237 71.1441C85.2926 71.24 85.2595 71.3381 85.2502 71.3621C85.2409 71.386 85.2313 71.4122 85.2288 71.4202C85.2263 71.4282 85.2101 71.4715 85.1929 71.5165C85.1757 71.5615 85.1616 71.6149 85.1616 71.6352C85.1616 71.6554 85.1525 71.6818 85.1414 71.6938C85.1303 71.7058 85.1207 71.7243 85.12 71.735C85.1162 71.7902 84.9384 72.2922 84.897 72.3646C84.8879 72.3806 84.8792 72.4002 84.8777 72.4082C84.8762 72.4162 84.8658 72.4489 84.8546 72.4809C84.8434 72.5128 84.8216 72.5782 84.8061 72.6262C84.778 72.7133 84.6398 73.0657 84.5398 73.3054C84.5106 73.3753 84.4624 73.4995 84.4326 73.5813C84.4028 73.663 84.3374 73.8185 84.2872 73.9267C84.237 74.0349 84.1957 74.1298 84.1955 74.1376C84.1952 74.1455 84.1225 74.3173 84.0338 74.5195C83.9451 74.7216 83.8725 74.8981 83.8725 74.9117C83.8725 74.9253 83.8604 74.9364 83.8456 74.9364C83.8309 74.9364 83.8218 74.9462 83.8254 74.9582C83.8318 74.9788 83.4805 75.7358 83.3636 75.9535C83.3336 76.0094 83.271 76.1337 83.2246 76.2296C83.1781 76.3255 83.0443 76.5841 82.9272 76.8042C82.0831 78.3911 81.1521 79.8698 80.1148 81.2712C78.8727 82.9493 77.4884 84.4997 75.9688 85.9145C73.9828 87.7637 71.8524 89.3059 69.5183 90.5841C64.0259 93.592 57.9154 94.813 51.7131 94.1422C47.0877 93.6419 42.5726 92.0278 38.5539 89.4379C33.2993 86.0515 28.9886 81.046 26.2672 75.1706C25.9097 74.3988 25.7809 74.1061 25.5696 73.5851C25.4144 73.2027 25.0084 72.1377 24.9934 72.074C24.9839 72.0334 24.9521 71.944 24.9106 71.8415C24.8913 71.7936 24.8268 71.604 24.7675 71.4202C24.7081 71.2364 24.6168 70.9588 24.5645 70.8035C24.5123 70.6481 24.4642 70.4912 24.4576 70.4547C24.451 70.4183 24.4271 70.333 24.4044 70.265C24.3817 70.1971 24.3702 70.1415 24.3787 70.1415C24.3872 70.1415 24.3822 70.1252 24.3675 70.1052C24.3464 70.0766 24.1891 69.5635 24.1603 69.4296C24.1569 69.4136 24.1463 69.3809 24.1369 69.3569C24.1274 69.333 24.1154 69.2872 24.11 69.2552C24.1047 69.2232 24.0928 69.1775 24.0836 69.1535C24.0744 69.1295 24.0614 69.0772 24.0546 69.0373C24.0478 68.9973 24.0235 68.8992 24.0004 68.8193C23.9341 68.5891 23.9168 68.601 24.3138 68.6047C24.5095 68.6066 24.6883 68.6136 24.7111 68.6203Z" fill="#FFC53D"/>
</g>
</g>

</svg>
