<svg width="100" height="100" viewBox="0 0 110 119" fill="none" xmlns="http://www.w3.org/2000/svg">
<path fill-rule="evenodd" clip-rule="evenodd" d="M41.7065 54.5989C42.8679 54.6607 43.7264 54.789 44.6898 55.0447C45.8693 55.3577 46.8669 55.7536 47.8671 56.3057L48.1726 56.4743L57.347 56.4745L66.5214 56.4747L66.4544 56.528C65.8229 57.0304 65.0383 57.7763 64.4578 58.4261C63.6767 59.3007 62.9946 60.2671 62.4008 61.3404C62.1801 61.7392 61.7622 62.6019 61.7622 62.6586C61.7622 62.6676 61.8336 62.6902 61.9208 62.7087C62.4497 62.8211 63.2238 63.0416 63.8389 63.2553C65.1825 63.7219 66.6232 64.4798 67.8261 65.3529L68.1117 65.5601H79.7428H91.3739L91.3858 65.6136C91.3924 65.6431 91.405 65.6978 91.4138 65.7352C91.4227 65.7727 91.4648 65.9959 91.5074 66.2314C91.7368 67.498 91.8035 68.7338 91.719 70.1517C91.6154 71.8893 91.1732 73.7191 90.4527 75.3912C89.077 78.5836 86.6115 81.2986 83.5769 82.9625C81.4743 84.1154 79.0936 84.7859 76.8376 84.8606C76.5362 84.8705 75.5265 84.8789 74.5938 84.8792L72.898 84.8797L72.6726 85.3223C72.4 85.8576 72.2297 86.166 72.0144 86.5139C71.4788 87.3797 70.9177 88.1401 70.3225 88.8071C70.0243 89.1413 69.3106 89.854 68.9919 90.1358C67.3488 91.5892 65.4462 92.6774 63.4063 93.3309C62.1644 93.7287 60.7323 93.9908 59.5124 94.0436C58.9363 94.0685 24.7068 94.0671 24.5928 94.0421C24.5452 94.0317 24.3722 94.0056 24.2082 93.9841C24.0443 93.9626 23.7568 93.919 23.5694 93.8873C20.2817 93.3312 17.3272 91.4612 15.3693 88.6971C14.5502 87.5407 13.8839 86.168 13.5183 84.8833C13.1202 83.4848 12.9732 82.3207 13.004 80.8134C13.037 79.1952 13.427 77.4767 14.1077 75.9495C14.3899 75.3163 14.8433 74.4915 15.1655 74.0254C15.7157 73.2293 16.198 72.6489 16.8166 72.0387C18.2543 70.6204 19.8508 69.6382 21.7528 69.0018C23.3899 68.4541 25.188 68.258 26.9835 68.4313C27.1615 68.4484 27.3124 68.4572 27.3188 68.4507C27.3252 68.4442 27.3377 68.2617 27.3465 68.0452C27.4106 66.4808 27.7231 64.9616 28.272 63.5465C28.4832 63.002 28.5706 62.8006 28.7745 62.3889C29.4626 60.999 30.2159 59.9358 31.3454 58.7606C31.7829 58.3054 32.146 57.98 32.7407 57.51C34.0242 56.4957 35.5619 55.6941 37.207 55.1817C37.4347 55.1108 38.2515 54.906 38.5241 54.8515C38.9569 54.7651 39.7435 54.6617 40.2259 54.6279C40.5243 54.607 41.4998 54.5879 41.7065 54.5989Z" fill="#B9E3F8"/>
<path fill-rule="evenodd" clip-rule="evenodd" d="M41.9034 53.0058C42.4738 53.0405 43.1993 53.1229 43.6243 53.2011C43.7671 53.2274 43.9493 53.2609 44.0293 53.2757C44.2328 53.3133 45.077 53.5379 45.4218 53.6463C46.2169 53.8962 47.0653 54.2587 47.8231 54.6724L48.1527 54.8524L57.3323 54.8621L66.5119 54.8718L66.2641 55.0756C65.6828 55.5536 64.8559 56.3581 64.3438 56.9439C63.5551 57.8459 62.8542 58.873 62.25 60.0119C62.0956 60.303 61.7994 60.9253 61.7688 61.0229C61.7565 61.0623 61.7675 61.0676 61.9439 61.1075C62.5846 61.2523 63.3554 61.4731 63.9021 61.6684C65.2791 62.1602 66.6697 62.8981 67.8815 63.7801L68.1122 63.9479H79.7483H91.3845L91.4633 64.3614C91.6744 65.4698 91.7541 66.2869 91.7542 67.345C91.7542 69.1149 91.5643 70.4375 91.0731 72.0863C90.6338 73.561 89.8906 75.1134 88.9989 76.4191C87.696 78.3268 85.9997 79.9195 84.0146 81.099C83.6656 81.3063 82.8649 81.7218 82.4955 81.8872C80.9832 82.5644 79.4816 82.9771 77.8283 83.1701C77.3502 83.2259 76.8521 83.2474 76.033 83.2477C75.6407 83.2479 74.7726 83.2538 74.1038 83.261L72.8877 83.2739L72.7138 83.6257C72.363 84.3353 72.1387 84.7264 71.6982 85.3961C71.0418 86.3939 70.4821 87.0728 69.5715 87.9758C68.803 88.7379 67.9848 89.3941 67.0717 89.9806C64.8607 91.4007 62.4954 92.1868 59.7477 92.4147C59.3304 92.4494 24.6347 92.452 24.5666 92.4174C24.5413 92.4045 24.3993 92.3798 24.2513 92.3625C21.8328 92.0805 19.5087 91.0806 17.6426 89.5194C17.1652 89.1201 16.4865 88.4509 16.1162 88.0147L13.5289 83.2204C13.2962 82.4065 13.0662 80.7577 13.0662 80.7577C13.0662 80.7577 13.0328 78.7417 13.0667 78.423C13.1078 78.0359 13.2013 77.384 13.2537 77.1195C13.3254 76.7575 13.5151 76.023 13.6272 75.6735C13.9578 74.6427 14.4082 73.6694 14.9858 72.7376C15.0636 72.6122 15.1272 72.5006 15.1272 72.4895C15.1272 72.4786 15.1346 72.4695 15.1436 72.4695C15.1526 72.4695 15.1999 72.4087 15.2488 72.3344C15.3381 72.1985 15.7905 71.5902 15.9369 71.4092C16.2969 70.9639 16.9053 70.3386 17.4211 69.8836C18.4451 68.9803 19.7414 68.1826 21.0167 67.6712C22.0867 67.2421 23.2289 66.9587 24.3763 66.8378C25.0988 66.7616 26.0124 66.7458 26.6356 66.7986C26.826 66.8148 27.0652 66.8335 27.1671 66.8402L27.3525 66.8525L27.3645 66.5821C27.4415 64.8425 27.7043 63.5085 28.2607 62.0315C28.8682 60.4192 29.748 58.9493 30.8458 57.7124C31.1298 57.3924 31.6484 56.8597 31.922 56.607C32.1579 56.389 32.747 55.9051 33.0742 55.6606C33.9238 55.0255 35.056 54.3967 36.1026 53.9786C36.8039 53.6984 37.2205 53.5648 37.9518 53.3854C38.6566 53.2126 39.1339 53.1327 39.9997 53.0424C40.273 53.014 41.6137 52.9881 41.9034 53.0058Z" fill="#EBF9FF"/>
<path fill-rule="evenodd" clip-rule="evenodd" d="M36.9832 26.1349C38.2366 26.2175 39.1632 26.3888 40.203 26.7302C41.4761 27.1482 42.5529 27.677 43.6324 28.4143L43.9621 28.6394L53.864 28.6397L63.766 28.64L63.6937 28.7112C63.0121 29.382 62.1653 30.3781 61.5389 31.2459C60.6957 32.4139 59.9595 33.7044 59.3187 35.1379C59.0805 35.6705 58.6294 36.8226 58.6294 36.8982C58.6294 36.9103 58.7065 36.9405 58.8007 36.9652C59.3715 37.1152 60.2069 37.4098 60.8709 37.6951C62.321 38.3182 63.8759 39.3303 65.1742 40.4963L65.4825 40.7731H78.036H90.5896L90.6025 40.8446C90.6095 40.8839 90.6231 40.9569 90.6327 41.007C90.6422 41.057 90.6877 41.3551 90.7337 41.6695C90.9813 43.3611 91.0532 45.0114 90.962 46.9049C90.8502 49.2255 90.3729 51.669 89.5953 53.902C88.1105 58.1654 85.4494 61.7911 82.1742 64.0131C79.9049 65.5528 77.3354 66.4482 74.9005 66.5479C74.5752 66.5613 73.4854 66.5724 72.4787 66.5728L70.6484 66.5734L70.4051 67.1645C70.1109 67.8795 69.9271 68.2913 69.6947 68.7559C69.1166 69.9121 68.5111 70.9276 67.8686 71.8184C67.5467 72.2647 66.7765 73.2164 66.4326 73.5928C64.6591 75.5337 62.6057 76.987 60.4039 77.8597C59.0635 78.391 57.5178 78.741 56.2012 78.8114C55.5794 78.8447 18.6352 78.8428 18.5122 78.8095C18.4609 78.7956 18.2741 78.7607 18.0971 78.732C17.9202 78.7032 17.6099 78.6451 17.4076 78.6027C13.8592 77.8601 10.6703 75.3628 8.55718 71.6715C7.67309 70.1271 6.95401 68.2939 6.55938 66.5783C6.12977 64.7106 5.97101 63.1561 6.00426 61.1432C6.03996 58.9821 6.46084 56.6871 7.19549 54.6476C7.50009 53.802 7.98951 52.7005 8.33717 52.0781C8.93111 51.0149 9.45165 50.2399 10.1192 49.425C11.671 47.5309 13.3941 46.2192 15.447 45.3693C17.2139 44.6379 19.1546 44.376 21.0925 44.6074C21.2846 44.6303 21.4474 44.642 21.4543 44.6333C21.4613 44.6246 21.4748 44.381 21.4843 44.0918C21.5535 42.0027 21.8908 39.9738 22.4832 38.084C22.7112 37.3568 22.8055 37.0878 23.0255 36.538C23.7682 34.6819 24.5812 33.2621 25.8003 31.6926C26.2725 31.0847 26.6644 30.6501 27.3063 30.0225C28.6916 28.668 30.3512 27.5975 32.1268 26.9132C32.3726 26.8185 33.2541 26.545 33.5484 26.4723C34.0155 26.3568 34.8645 26.2187 35.3851 26.1736C35.7072 26.1457 36.76 26.1202 36.9832 26.1349Z" fill="#B9E3F8"/>
<path fill-rule="evenodd" clip-rule="evenodd" d="M44.14 39.0077C44.7557 39.0541 45.5388 39.1641 45.9975 39.2686C46.1516 39.3037 46.3483 39.3485 46.4346 39.3682C46.6543 39.4183 47.5654 39.7184 47.9376 39.8631C48.7957 40.1968 49.7113 40.6809 50.5293 41.2334L50.8851 41.4738L60.7926 41.4868L70.7002 41.4998L70.4328 41.7718C69.8054 42.4103 68.913 43.4846 68.3602 44.2669C67.509 45.4714 66.7524 46.8432 66.1004 48.364C65.9337 48.7528 65.614 49.5839 65.581 49.7143C65.5677 49.7668 65.5796 49.7739 65.77 49.8272C66.4615 50.0206 67.2934 50.3154 67.8835 50.5762C69.3696 51.233 70.8705 52.2185 72.1784 53.3963L72.4274 53.6205H84.9865H97.5455L97.6305 54.1726C97.8584 55.6528 97.9444 56.7441 97.9444 58.157C97.9445 60.5207 97.7395 62.287 97.2094 64.4888C96.7352 66.4583 95.9331 68.5315 94.9707 70.2751C93.5644 72.8227 91.7336 74.9497 89.591 76.5248C89.2144 76.8018 88.3502 77.3566 87.9515 77.5775C86.3192 78.4818 84.6985 79.0331 82.9141 79.2908C82.3982 79.3653 81.8606 79.3941 80.9764 79.3944C80.5531 79.3947 79.6161 79.4026 78.8942 79.4121L77.5817 79.4294L77.394 79.8993C77.0154 80.8469 76.7733 81.3691 76.2978 82.2634C75.5894 83.596 74.9853 84.5026 74.0025 85.7085C73.1731 86.7263 72.29 87.6026 71.3045 88.3858C68.9181 90.2824 66.3652 91.3322 63.3996 91.6365C62.9492 91.6828 25.5018 91.6862 25.4284 91.6401C25.401 91.6228 25.2478 91.5898 25.088 91.5668C22.4777 91.1901 19.9693 89.8549 17.9552 87.7699C17.44 87.2367 16.7073 86.343 16.3078 85.7605L13.5153 79.3579C13.2641 78.271 13.0158 76.0691 13.0158 76.0691C13.0158 76.0691 12.9798 73.3768 13.0163 72.9512C13.0607 72.4343 13.1617 71.5636 13.2182 71.2104C13.2956 70.727 13.5004 69.7462 13.6213 69.2794C13.9781 67.9028 14.4643 66.603 15.0877 65.3587C15.1716 65.1911 15.2403 65.0421 15.2403 65.0274C15.2403 65.0127 15.2482 65.0007 15.258 65.0007C15.2677 65.0007 15.3188 64.9195 15.3715 64.8202C15.4679 64.6387 15.9562 63.8264 16.1142 63.5846C16.5028 62.99 17.1594 62.1549 17.7161 61.5472C18.8213 60.3409 20.2205 59.2757 21.5969 58.5927C22.7518 58.0197 23.9845 57.6413 25.2229 57.4797C26.0027 57.378 26.9888 57.3568 27.6615 57.4274C27.8669 57.449 28.1251 57.474 28.2351 57.4829L28.4352 57.4993L28.4481 57.1383C28.5313 54.8151 28.8148 53.0337 29.4154 51.0612C30.0711 48.908 31.0206 46.945 32.2055 45.2932C32.512 44.8659 33.0718 44.1544 33.367 43.8169C33.6216 43.5259 34.2575 42.8796 34.6106 42.553C35.5276 41.705 36.7497 40.8652 37.8792 40.3068C38.6361 39.9327 39.0858 39.7542 39.8751 39.5147C40.6357 39.2839 41.1509 39.1772 42.0854 39.0566C42.3803 39.0186 43.8274 38.9842 44.14 39.0077Z" fill="#EBF9FF"/>
<rect x="8" y="82" width="99" height="20" rx="10" fill="#B9E3F8"/>
<rect x="8" y="79" width="94" height="8" rx="4" fill="#EBF9FF"/>
</svg>
