<svg width="100" height="100" viewBox="0 0 110 119" fill="none" xmlns="http://www.w3.org/2000/svg">
<g class="cloud1">
<path fill-rule="evenodd" clip-rule="evenodd" d="M40.7065 20.5989C41.8679 20.6607 42.7264 20.789 43.6898 21.0447C44.8693 21.3577 45.8669 21.7536 46.8671 22.3057L47.1726 22.4743L56.347 22.4745L65.5214 22.4747L65.4544 22.528C64.8229 23.0304 64.0383 23.7763 63.4578 24.4261C62.6767 25.3007 61.9946 26.2671 61.4008 27.3404C61.1801 27.7392 60.7622 28.6019 60.7622 28.6586C60.7622 28.6676 60.8336 28.6902 60.9208 28.7087C61.4497 28.8211 62.2238 29.0416 62.8389 29.2553C64.1825 29.7219 65.6232 30.4798 66.8261 31.3529L67.1117 31.5601H78.7428H90.3739L90.3858 31.6136C90.3924 31.6431 90.405 31.6978 90.4138 31.7352C90.4227 31.7727 90.4648 31.9959 90.5074 32.2314C90.7368 33.498 90.8035 34.7338 90.719 36.1517C90.6154 37.8893 90.1732 39.7191 89.4527 41.3912C88.077 44.5836 85.6115 47.2986 82.5769 48.9625C80.4743 50.1154 78.0936 50.7859 75.8376 50.8606C75.5362 50.8705 74.5265 50.8789 73.5938 50.8792L71.898 50.8797L71.6726 51.3223C71.4 51.8576 71.2297 52.166 71.0144 52.5139C70.4788 53.3797 69.9177 54.1401 69.3225 54.8071C69.0243 55.1413 68.3106 55.854 67.9919 56.1358C66.3488 57.5892 64.4462 58.6774 62.4063 59.3309C61.1644 59.7287 59.7323 59.9908 58.5124 60.0436C57.9363 60.0685 23.7068 60.0671 23.5928 60.0421C23.5452 60.0317 23.3722 60.0056 23.2082 59.9841C23.0443 59.9626 22.7568 59.919 22.5694 59.8873C19.2817 59.3312 16.3272 57.4612 14.3693 54.6971C13.5502 53.5407 12.8839 52.168 12.5183 50.8833C12.1202 49.4848 11.9732 48.3207 12.004 46.8134C12.037 45.1952 12.427 43.4767 13.1077 41.9495C13.3899 41.3163 13.8433 40.4915 14.1655 40.0254C14.7157 39.2293 15.198 38.6489 15.8166 38.0387C17.2543 36.6204 18.8508 35.6382 20.7528 35.0018C22.3899 34.4541 24.188 34.258 25.9835 34.4313C26.1615 34.4484 26.3124 34.4572 26.3188 34.4507C26.3252 34.4442 26.3377 34.2617 26.3465 34.0452C26.4106 32.4808 26.7231 30.9616 27.272 29.5465C27.4832 29.002 27.5706 28.8006 27.7745 28.3889C28.4626 26.999 29.2159 25.9358 30.3454 24.7606C30.7829 24.3054 31.146 23.98 31.7407 23.51C33.0242 22.4957 34.5619 21.6941 36.207 21.1817C36.4347 21.1108 37.2515 20.906 37.5241 20.8515C37.9569 20.7651 38.7435 20.6617 39.2259 20.6279C39.5243 20.607 40.4998 20.5879 40.7065 20.5989Z" fill="#B9E3F8"/>
<path fill-rule="evenodd" clip-rule="evenodd" d="M40.9034 19.0058C41.4738 19.0405 42.1993 19.1229 42.6243 19.2011C42.7671 19.2274 42.9493 19.2609 43.0293 19.2757C43.2328 19.3133 44.077 19.5379 44.4218 19.6463C45.2169 19.8962 46.0653 20.2587 46.8231 20.6724L47.1527 20.8524L56.3323 20.8621L65.5119 20.8718L65.2641 21.0756C64.6828 21.5536 63.8559 22.3581 63.3438 22.9439C62.5551 23.8459 61.8542 24.873 61.25 26.0119C61.0956 26.303 60.7994 26.9253 60.7688 27.0229C60.7565 27.0623 60.7675 27.0676 60.9439 27.1075C61.5846 27.2523 62.3554 27.4731 62.9021 27.6684C64.2791 28.1602 65.6697 28.8981 66.8815 29.7801L67.1122 29.9479H78.7483H90.3845L90.4633 30.3614C90.6744 31.4698 90.7541 32.2869 90.7542 33.345C90.7542 35.1149 90.5643 36.4375 90.0731 38.0863C89.6338 39.561 88.8906 41.1134 87.9989 42.4191C86.696 44.3268 84.9997 45.9195 83.0146 47.099C82.6656 47.3063 81.8649 47.7218 81.4955 47.8872C79.9832 48.5644 78.4816 48.9771 76.8283 49.1701C76.3502 49.2259 75.8521 49.2474 75.033 49.2477C74.6407 49.2479 73.7726 49.2538 73.1038 49.261L71.8877 49.2739L71.7138 49.6257C71.363 50.3353 71.1387 50.7264 70.6982 51.3961C70.0418 52.3939 69.4821 53.0728 68.5715 53.9758C67.803 54.7379 66.9848 55.3941 66.0717 55.9806C63.8607 57.4007 61.4954 58.1868 58.7477 58.4147C58.3304 58.4494 23.6347 58.452 23.5666 58.4174C23.5413 58.4045 23.3993 58.3798 23.2513 58.3625C20.8328 58.0805 18.5087 57.0806 16.6426 55.5194C16.1652 55.1201 15.4865 54.4509 15.1162 54.0147L12.5289 49.2204C12.2962 48.4065 12.0662 46.7577 12.0662 46.7577C12.0662 46.7577 12.0328 44.7417 12.0667 44.423C12.1078 44.0359 12.2013 43.384 12.2537 43.1195C12.3254 42.7575 12.5151 42.023 12.6272 41.6735C12.9578 40.6427 13.4082 39.6694 13.9858 38.7376C14.0636 38.6122 14.1272 38.5006 14.1272 38.4895C14.1272 38.4786 14.1346 38.4695 14.1436 38.4695C14.1526 38.4695 14.1999 38.4087 14.2488 38.3344C14.3381 38.1985 14.7905 37.5902 14.9369 37.4092C15.2969 36.9639 15.9053 36.3386 16.4211 35.8836C17.4451 34.9803 18.7414 34.1826 20.0167 33.6712C21.0867 33.2421 22.2289 32.9587 23.3763 32.8378C24.0988 32.7616 25.0124 32.7458 25.6356 32.7986C25.826 32.8148 26.0652 32.8335 26.1671 32.8402L26.3525 32.8525L26.3645 32.5821C26.4415 30.8425 26.7043 29.5085 27.2607 28.0315C27.8682 26.4192 28.748 24.9493 29.8458 23.7124C30.1298 23.3924 30.6484 22.8597 30.922 22.607C31.1579 22.389 31.747 21.9051 32.0742 21.6606C32.9238 21.0255 34.056 20.3967 35.1026 19.9786C35.8039 19.6984 36.2205 19.5648 36.9518 19.3854C37.6566 19.2126 38.1339 19.1327 38.9997 19.0424C39.273 19.014 40.6137 18.9881 40.9034 19.0058Z" fill="#EBF9FF"/>
</g>
<path fill-rule="evenodd" clip-rule="evenodd" d="M38.9832 0.00430014C40.2366 0.0868456 41.1632 0.258172 42.203 0.599578C43.4761 1.01761 44.5529 1.54637 45.6324 2.28364L45.9621 2.5088L55.864 2.50909L65.766 2.50937L65.6937 2.58054C65.0121 3.25137 64.1653 4.24751 63.5389 5.11531C62.6957 6.28326 61.9595 7.57383 61.3187 9.00724C61.0805 9.53987 60.6294 10.692 60.6294 10.7676C60.6294 10.7797 60.7065 10.8099 60.8007 10.8346C61.3715 10.9846 62.2069 11.2792 62.8709 11.5645C64.321 12.1876 65.8759 13.1997 67.1742 14.3657L67.4825 14.6425H80.036H92.5896L92.6025 14.7139C92.6095 14.7533 92.6231 14.8263 92.6327 14.8763C92.6422 14.9264 92.6877 15.2245 92.7337 15.5389C92.9813 17.2305 93.0532 18.8808 92.962 20.7743C92.8502 23.0948 92.3729 25.5384 91.5953 27.7714C90.1105 32.0348 87.4494 35.6605 84.1742 37.8825C81.9049 39.4221 79.3354 40.3176 76.9005 40.4173C76.5752 40.4306 75.4854 40.4418 74.4787 40.4422L72.6484 40.4428L72.4051 41.0339C72.1109 41.7489 71.9271 42.1606 71.6947 42.6253C71.1166 43.7815 70.5111 44.797 69.8686 45.6878C69.5467 46.134 68.7765 47.0858 68.4326 47.4622C66.6591 49.403 64.6057 50.8564 62.4039 51.7291C61.0635 52.2603 59.5178 52.6104 58.2012 52.6808C57.5794 52.714 20.6352 52.7122 20.5122 52.6789C20.4609 52.665 20.2741 52.6301 20.0971 52.6014C19.9202 52.5726 19.6099 52.5144 19.4076 52.4721C15.8592 51.7295 12.6703 49.2322 10.5572 45.5409C9.67309 43.9965 8.95401 42.1633 8.55938 40.4477C8.12977 38.58 7.97101 37.0255 8.00426 35.0125C8.03996 32.8514 8.46084 30.5565 9.19549 28.517C9.50009 27.6714 9.98951 26.5699 10.3372 25.9475C10.9311 24.8843 11.4517 24.1093 12.1192 23.2944C13.671 21.4003 15.3941 20.0885 17.447 19.2387C19.2139 18.5073 21.1546 18.2453 23.0925 18.4767C23.2846 18.4997 23.4474 18.5113 23.4543 18.5027C23.4613 18.494 23.4748 18.2504 23.4843 17.9612C23.5535 15.8721 23.8908 13.8432 24.4832 11.9533C24.7112 11.2262 24.8055 10.9572 25.0255 10.4074C25.7682 8.55128 26.5812 7.13148 27.8003 5.56202C28.2725 4.95409 28.6644 4.51951 29.3063 3.89186C30.6916 2.53738 32.3512 1.46686 34.1268 0.782571C34.3726 0.68784 35.2541 0.414429 35.5484 0.341653C36.0155 0.226162 36.8645 0.0880928 37.3851 0.0430136C37.7072 0.0151087 38.76 -0.0104058 38.9832 0.00430014Z" fill="#B9E3F8"/>
<g class="cloud3 cloud2">
<path fill-rule="evenodd" clip-rule="evenodd" d="M46.14 12.8771C46.7557 12.9235 47.5388 13.0335 47.9975 13.1379C48.1516 13.173 48.3483 13.2179 48.4346 13.2376C48.6543 13.2877 49.5654 13.5877 49.9376 13.7325C50.7957 14.0662 51.7113 14.5503 52.5293 15.1028L52.8851 15.3432L62.7926 15.3562L72.7002 15.3691L72.4328 15.6412C71.8054 16.2796 70.913 17.3539 70.3602 18.1362C69.509 19.3408 68.7524 20.7125 68.1004 22.2334C67.9337 22.6222 67.614 23.4533 67.581 23.5837C67.5677 23.6362 67.5796 23.6433 67.77 23.6966C68.4615 23.89 69.2934 24.1848 69.8835 24.4456C71.3696 25.1024 72.8705 26.0878 74.1784 27.2656L74.4274 27.4898H86.9865H99.5455L99.6305 28.042C99.8584 29.5222 99.9444 30.6135 99.9444 32.0264C99.9445 34.3901 99.7395 36.1564 99.2094 38.3582C98.7352 40.3277 97.9331 42.4009 96.9707 44.1444C95.5644 46.6921 93.7336 48.8191 91.591 50.3942C91.2144 50.6712 90.3502 51.226 89.9515 51.4469C88.3192 52.3512 86.6985 52.9024 84.9141 53.1601C84.3982 53.2347 83.8606 53.2634 82.9764 53.2638C82.5531 53.264 81.6161 53.272 80.8942 53.2815L79.5817 53.2988L79.394 53.7686C79.0154 54.7162 78.7733 55.2385 78.2978 56.1328C77.5894 57.4653 76.9853 58.372 76.0025 59.5779C75.1731 60.5956 74.29 61.472 73.3045 62.2552C70.9181 64.1518 68.3652 65.2015 65.3996 65.5059C64.9492 65.5522 27.5018 65.5556 27.4284 65.5095C27.401 65.4922 27.2478 65.4592 27.088 65.4362C24.4777 65.0595 21.9693 63.7243 19.9552 61.6393C19.44 61.1061 18.7073 60.2124 18.3078 59.6298L15.5153 53.2273C15.2641 52.1404 15.0158 49.9385 15.0158 49.9385C15.0158 49.9385 14.9798 47.2462 15.0163 46.8206C15.0607 46.3037 15.1617 45.433 15.2182 45.0798C15.2956 44.5964 15.5004 43.6155 15.6213 43.1488C15.9781 41.7722 16.4643 40.4724 17.0877 39.228C17.1716 39.0605 17.2403 38.9115 17.2403 38.8968C17.2403 38.8821 17.2482 38.8701 17.258 38.8701C17.2677 38.8701 17.3188 38.7889 17.3715 38.6896C17.4679 38.5081 17.9562 37.6958 18.1142 37.454C18.5028 36.8594 19.1594 36.0243 19.7161 35.4166C20.8213 34.2103 22.2205 33.1451 23.5969 32.4621C24.7518 31.889 25.9845 31.5106 27.2229 31.3491C28.0027 31.2474 28.9888 31.2262 29.6615 31.2968C29.8669 31.3183 30.1251 31.3433 30.2351 31.3523L30.4352 31.3687L30.4481 31.0077C30.5313 28.6845 30.8148 26.9031 31.4154 24.9306C32.0711 22.7773 33.0206 20.8144 34.2055 19.1625C34.512 18.7352 35.0718 18.0238 35.367 17.6863C35.6216 17.3953 36.2575 16.749 36.6106 16.4224C37.5276 15.5744 38.7497 14.7346 39.8792 14.1762C40.6361 13.8021 41.0858 13.6236 41.8751 13.3841C42.6357 13.1533 43.1509 13.0465 44.0854 12.926C44.3803 12.888 45.8274 12.8535 46.14 12.8771Z" fill="#EBF9FF"/>
</g>
<rect x="7" y="48" width="99" height="20" rx="10" fill="#B9E3F8"/>
<rect x="7" y="45" width="94" height="8" rx="4" fill="#EBF9FF"/>
<g class="precipitation">
    <path fill-rule="evenodd" clip-rule="evenodd" d="M88.6371 85.8251C81.6576 91.827 79.6577 97.6595 85.1788 95.9116C89.0377 94.6899 94.7835 85.8251 91.6788 85.8251C91.1694 85.8251 90.7958 83.9686 88.6371 85.8251Z" fill="#CAEFFF"/>
    <path fill-rule="evenodd" clip-rule="evenodd" d="M46.6371 74.8251C39.6576 80.827 37.6577 86.6595 43.1788 84.9116C47.0377 83.6899 52.7835 74.8251 49.6788 74.8251C49.1694 74.8251 48.7958 72.9686 46.6371 74.8251Z" fill="#B9E3F8"/>
    <path fill-rule="evenodd" clip-rule="evenodd" d="M32.9101 74.8085C25.6435 80.6894 23.5614 86.4043 29.3096 84.6916C33.3272 83.4946 39.3093 74.8085 36.0769 74.8085C35.5465 74.8085 35.1576 72.9894 32.9101 74.8085Z" fill="#CAEFFF"/>
    <path fill-rule="evenodd" clip-rule="evenodd" d="M21.6371 85.8251C14.6576 91.827 12.6577 97.6595 18.1788 95.9116C22.0377 94.6899 27.7835 85.8251 24.6788 85.8251C24.1694 85.8251 23.7958 83.9686 21.6371 85.8251Z" fill="#B9E3F8"/>
    <path fill-rule="evenodd" clip-rule="evenodd" d="M32.9101 74.8085C25.6435 80.6894 23.5614 86.4043 29.3096 84.6916C33.3272 83.4946 39.3093 74.8085 36.0769 74.8085C35.5465 74.8085 35.1576 72.9894 32.9101 74.8085Z" fill="#CAEFFF"/>
    <path fill-rule="evenodd" clip-rule="evenodd" d="M88.6371 85.8251C81.6576 91.827 79.6577 97.6595 85.1788 95.9116C89.0377 94.6899 94.7835 85.8251 91.6788 85.8251C91.1694 85.8251 90.7958 83.9686 88.6371 85.8251Z" fill="#CAEFFF"/>
    <path fill-rule="evenodd" clip-rule="evenodd" d="M46.6371 74.8251C39.6576 80.827 37.6577 86.6595 43.1788 84.9116C47.0377 83.6899 52.7835 74.8251 49.6788 74.8251C49.1694 74.8251 48.7958 72.9686 46.6371 74.8251Z" fill="#B9E3F8"/>
    <path fill-rule="evenodd" clip-rule="evenodd" d="M59.9101 82.8085C52.6435 88.6894 50.5614 94.4043 56.3096 92.6916C60.3272 91.4946 66.3093 82.8085 63.0769 82.8085C62.5465 82.8085 62.1576 80.9894 59.9101 82.8085Z" fill="#CAEFFF"/>
    <path fill-rule="evenodd" clip-rule="evenodd" d="M83.6371 71.8251C76.6576 77.827 74.6577 83.6595 80.1788 81.9116C84.0377 80.6899 89.7835 71.8251 86.6788 71.8251C86.1694 71.8251 85.7958 69.9686 83.6371 71.8251Z" fill="#CAEFFF"/>
    <path fill-rule="evenodd" clip-rule="evenodd" d="M65.6463 99.8709C58.7372 105.954 56.8055 111.809 62.3059 109.997C66.1503 108.73 71.7923 99.7992 68.6878 99.8354C68.1784 99.8414 67.7832 97.9894 65.6463 99.8709Z" fill="#B9E3F8"/>
</g>
</svg>
