<svg width="100" height="100" viewBox="0 0 110 119" fill="none" xmlns="http://www.w3.org/2000/svg">
<g clip-path="url(#clip0_27_44)">
<g class="cloud1">
<path fill-rule="evenodd" clip-rule="evenodd" d="M40.7065 20.5989C41.8679 20.6607 42.7264 20.789 43.6898 21.0447C44.8693 21.3577 45.8669 21.7536 46.8671 22.3057L47.1726 22.4743L56.347 22.4745L65.5214 22.4747L65.4544 22.528C64.8229 23.0304 64.0383 23.7763 63.4578 24.4261C62.6767 25.3007 61.9946 26.2671 61.4008 27.3404C61.1801 27.7392 60.7622 28.6019 60.7622 28.6586C60.7622 28.6676 60.8336 28.6902 60.9208 28.7087C61.4497 28.8211 62.2238 29.0416 62.8389 29.2553C64.1825 29.7219 65.6232 30.4798 66.8261 31.3529L67.1117 31.5601H78.7428H90.3739L90.3858 31.6136C90.3924 31.6431 90.405 31.6978 90.4138 31.7352C90.4227 31.7727 90.4648 31.9959 90.5074 32.2314C90.7368 33.498 90.8035 34.7338 90.719 36.1517C90.6154 37.8893 90.1732 39.7191 89.4527 41.3912C88.077 44.5836 85.6115 47.2986 82.5769 48.9625C80.4743 50.1154 78.0936 50.7859 75.8376 50.8606C75.5362 50.8705 74.5265 50.8789 73.5938 50.8792L71.898 50.8797L71.6726 51.3223C71.4 51.8576 71.2297 52.166 71.0144 52.5139C70.4788 53.3797 69.9177 54.1401 69.3225 54.8071C69.0243 55.1413 68.3106 55.854 67.9919 56.1358C66.3488 57.5892 64.4462 58.6774 62.4063 59.3309C61.1644 59.7287 59.7323 59.9908 58.5124 60.0436C57.9363 60.0685 23.7068 60.0671 23.5928 60.0421C23.5452 60.0317 23.3722 60.0056 23.2082 59.9841C23.0443 59.9626 22.7568 59.919 22.5694 59.8873C19.2817 59.3312 16.3272 57.4612 14.3693 54.6971C13.5502 53.5407 12.8839 52.168 12.5183 50.8833C12.1202 49.4848 11.9732 48.3207 12.004 46.8134C12.037 45.1952 12.427 43.4767 13.1077 41.9495C13.3899 41.3163 13.8433 40.4915 14.1655 40.0254C14.7157 39.2293 15.198 38.6489 15.8166 38.0387C17.2543 36.6204 18.8508 35.6382 20.7528 35.0018C22.3899 34.4541 24.188 34.258 25.9835 34.4313C26.1615 34.4484 26.3124 34.4572 26.3188 34.4507C26.3252 34.4442 26.3377 34.2617 26.3465 34.0452C26.4106 32.4808 26.7231 30.9616 27.272 29.5465C27.4832 29.002 27.5706 28.8006 27.7745 28.3889C28.4626 26.999 29.2159 25.9358 30.3454 24.7606C30.7829 24.3054 31.146 23.98 31.7407 23.51C33.0242 22.4957 34.5619 21.6941 36.207 21.1817C36.4347 21.1108 37.2515 20.906 37.5241 20.8515C37.9569 20.7651 38.7435 20.6617 39.2259 20.6279C39.5243 20.607 40.4998 20.5879 40.7065 20.5989Z" fill="#B9E3F8"/>
<path fill-rule="evenodd" clip-rule="evenodd" d="M40.9034 19.0058C41.4738 19.0405 42.1993 19.1229 42.6243 19.2011C42.7671 19.2274 42.9493 19.2609 43.0293 19.2757C43.2328 19.3133 44.077 19.5379 44.4218 19.6463C45.2169 19.8962 46.0653 20.2587 46.8231 20.6724L47.1527 20.8524L56.3323 20.8621L65.5119 20.8718L65.2641 21.0756C64.6828 21.5536 63.8559 22.3581 63.3438 22.9439C62.5551 23.8459 61.8542 24.873 61.25 26.0119C61.0956 26.303 60.7994 26.9253 60.7688 27.0229C60.7565 27.0623 60.7675 27.0676 60.9439 27.1075C61.5846 27.2523 62.3554 27.4731 62.9021 27.6684C64.2791 28.1602 65.6697 28.8981 66.8815 29.7801L67.1122 29.9479H78.7483H90.3845L90.4633 30.3614C90.6744 31.4698 90.7541 32.2869 90.7542 33.345C90.7542 35.1149 90.5643 36.4375 90.0731 38.0863C89.6338 39.561 88.8906 41.1134 87.9989 42.4191C86.696 44.3268 84.9997 45.9195 83.0146 47.099C82.6656 47.3063 81.8649 47.7218 81.4955 47.8872C79.9832 48.5644 78.4816 48.9771 76.8283 49.1701C76.3502 49.2259 75.8521 49.2474 75.033 49.2477C74.6407 49.2479 73.7726 49.2538 73.1038 49.261L71.8877 49.2739L71.7138 49.6257C71.363 50.3353 71.1387 50.7264 70.6982 51.3961C70.0418 52.3939 69.4821 53.0728 68.5715 53.9758C67.803 54.7379 66.9848 55.3941 66.0717 55.9806C63.8607 57.4007 61.4954 58.1868 58.7477 58.4147C58.3304 58.4494 23.6347 58.452 23.5666 58.4174C23.5413 58.4045 23.3993 58.3798 23.2513 58.3625C20.8328 58.0805 18.5087 57.0806 16.6426 55.5194C16.1652 55.1201 15.4865 54.4509 15.1162 54.0147L12.5289 49.2204C12.2962 48.4065 12.0662 46.7577 12.0662 46.7577C12.0662 46.7577 12.0328 44.7417 12.0667 44.423C12.1078 44.0359 12.2013 43.384 12.2537 43.1195C12.3254 42.7575 12.5151 42.023 12.6272 41.6735C12.9578 40.6427 13.4082 39.6694 13.9858 38.7376C14.0636 38.6122 14.1272 38.5006 14.1272 38.4895C14.1272 38.4786 14.1346 38.4695 14.1436 38.4695C14.1526 38.4695 14.1999 38.4087 14.2488 38.3344C14.3381 38.1985 14.7905 37.5902 14.9369 37.4092C15.2969 36.9639 15.9053 36.3386 16.4211 35.8836C17.4451 34.9803 18.7414 34.1826 20.0167 33.6712C21.0867 33.2421 22.2289 32.9587 23.3763 32.8378C24.0988 32.7616 25.0124 32.7458 25.6356 32.7986C25.826 32.8148 26.0652 32.8335 26.1671 32.8402L26.3525 32.8525L26.3645 32.5821C26.4415 30.8425 26.7043 29.5085 27.2607 28.0315C27.8682 26.4192 28.748 24.9493 29.8458 23.7124C30.1298 23.3924 30.6484 22.8597 30.922 22.607C31.1579 22.389 31.747 21.9051 32.0742 21.6606C32.9238 21.0255 34.056 20.3967 35.1026 19.9786C35.8039 19.6984 36.2205 19.5648 36.9518 19.3854C37.6566 19.2126 38.1339 19.1327 38.9997 19.0424C39.273 19.014 40.6137 18.9881 40.9034 19.0058Z" fill="#EBF9FF"/>
</g>
<path fill-rule="evenodd" clip-rule="evenodd" d="M38.9832 0.00430014C40.2366 0.0868456 41.1632 0.258172 42.203 0.599578C43.4761 1.01761 44.5529 1.54637 45.6324 2.28364L45.9621 2.5088L55.864 2.50909L65.766 2.50937L65.6937 2.58054C65.0121 3.25137 64.1653 4.24751 63.5389 5.11531C62.6957 6.28326 61.9595 7.57383 61.3187 9.00724C61.0805 9.53987 60.6294 10.692 60.6294 10.7676C60.6294 10.7797 60.7065 10.8099 60.8007 10.8346C61.3715 10.9846 62.2069 11.2792 62.8709 11.5645C64.321 12.1876 65.8759 13.1997 67.1742 14.3657L67.4825 14.6425H80.036H92.5896L92.6025 14.7139C92.6095 14.7533 92.6231 14.8263 92.6327 14.8763C92.6422 14.9264 92.6877 15.2245 92.7337 15.5389C92.9813 17.2305 93.0532 18.8808 92.962 20.7743C92.8502 23.0948 92.3729 25.5384 91.5953 27.7714C90.1105 32.0348 87.4494 35.6605 84.1742 37.8825C81.9049 39.4221 79.3354 40.3176 76.9005 40.4173C76.5752 40.4306 75.4854 40.4418 74.4787 40.4422L72.6484 40.4428L72.4051 41.0339C72.1109 41.7489 71.9271 42.1606 71.6947 42.6253C71.1166 43.7815 70.5111 44.797 69.8686 45.6878C69.5467 46.134 68.7765 47.0858 68.4326 47.4622C66.6591 49.403 64.6057 50.8564 62.4039 51.7291C61.0635 52.2603 59.5178 52.6104 58.2012 52.6808C57.5794 52.714 20.6352 52.7122 20.5122 52.6789C20.4609 52.665 20.2741 52.6301 20.0971 52.6014C19.9202 52.5726 19.6099 52.5144 19.4076 52.4721C15.8592 51.7295 12.6703 49.2322 10.5572 45.5409C9.67309 43.9965 8.95401 42.1633 8.55938 40.4477C8.12977 38.58 7.97101 37.0255 8.00426 35.0125C8.03996 32.8514 8.46084 30.5565 9.19549 28.517C9.50009 27.6714 9.98951 26.5699 10.3372 25.9475C10.9311 24.8843 11.4517 24.1093 12.1192 23.2944C13.671 21.4003 15.3941 20.0885 17.447 19.2387C19.2139 18.5073 21.1546 18.2453 23.0925 18.4767C23.2846 18.4997 23.4474 18.5113 23.4543 18.5027C23.4613 18.494 23.4748 18.2504 23.4843 17.9612C23.5535 15.8721 23.8908 13.8432 24.4832 11.9533C24.7112 11.2262 24.8055 10.9572 25.0255 10.4074C25.7682 8.55128 26.5812 7.13148 27.8003 5.56202C28.2725 4.95409 28.6644 4.51951 29.3063 3.89186C30.6916 2.53738 32.3512 1.46686 34.1268 0.782571C34.3726 0.68784 35.2541 0.414429 35.5484 0.341653C36.0155 0.226162 36.8645 0.0880928 37.3851 0.0430136C37.7072 0.0151087 38.76 -0.0104058 38.9832 0.00430014Z" fill="#B9E3F8"/>
<g class="cloud3 cloud2">
<path fill-rule="evenodd" clip-rule="evenodd" d="M46.14 12.8771C46.7557 12.9235 47.5388 13.0335 47.9975 13.1379C48.1516 13.173 48.3483 13.2179 48.4346 13.2376C48.6543 13.2877 49.5654 13.5877 49.9376 13.7325C50.7957 14.0662 51.7113 14.5503 52.5293 15.1028L52.8851 15.3432L62.7926 15.3562L72.7002 15.3691L72.4328 15.6412C71.8054 16.2796 70.913 17.3539 70.3602 18.1362C69.509 19.3408 68.7524 20.7125 68.1004 22.2334C67.9337 22.6222 67.614 23.4533 67.581 23.5837C67.5677 23.6362 67.5796 23.6433 67.77 23.6966C68.4615 23.89 69.2934 24.1848 69.8835 24.4456C71.3696 25.1024 72.8705 26.0878 74.1784 27.2656L74.4274 27.4898H86.9865H99.5455L99.6305 28.042C99.8584 29.5222 99.9444 30.6135 99.9444 32.0264C99.9445 34.3901 99.7395 36.1564 99.2094 38.3582C98.7352 40.3277 97.9331 42.4009 96.9707 44.1444C95.5644 46.6921 93.7336 48.8191 91.591 50.3942C91.2144 50.6712 90.3502 51.226 89.9515 51.4469C88.3192 52.3512 86.6985 52.9024 84.9141 53.1601C84.3982 53.2347 83.8606 53.2634 82.9764 53.2638C82.5531 53.264 81.6161 53.272 80.8942 53.2815L79.5817 53.2988L79.394 53.7686C79.0154 54.7162 78.7733 55.2385 78.2978 56.1328C77.5894 57.4653 76.9853 58.372 76.0025 59.5779C75.1731 60.5956 74.29 61.472 73.3045 62.2552C70.9181 64.1518 68.3652 65.2015 65.3996 65.5059C64.9492 65.5522 27.5018 65.5556 27.4284 65.5095C27.401 65.4922 27.2478 65.4592 27.088 65.4362C24.4777 65.0595 21.9693 63.7243 19.9552 61.6393C19.44 61.1061 18.7073 60.2124 18.3078 59.6298L15.5153 53.2273C15.2641 52.1404 15.0158 49.9385 15.0158 49.9385C15.0158 49.9385 14.9798 47.2462 15.0163 46.8206C15.0607 46.3037 15.1617 45.433 15.2182 45.0798C15.2956 44.5964 15.5004 43.6155 15.6213 43.1488C15.9781 41.7722 16.4643 40.4724 17.0877 39.228C17.1716 39.0605 17.2403 38.9115 17.2403 38.8968C17.2403 38.8821 17.2482 38.8701 17.258 38.8701C17.2677 38.8701 17.3188 38.7889 17.3715 38.6896C17.4679 38.5081 17.9562 37.6958 18.1142 37.454C18.5028 36.8594 19.1594 36.0243 19.7161 35.4166C20.8213 34.2103 22.2205 33.1451 23.5969 32.4621C24.7518 31.889 25.9845 31.5106 27.2229 31.3491C28.0027 31.2474 28.9888 31.2262 29.6615 31.2968C29.8669 31.3183 30.1251 31.3433 30.2351 31.3523L30.4352 31.3687L30.4481 31.0077C30.5313 28.6845 30.8148 26.9031 31.4154 24.9306C32.0711 22.7773 33.0206 20.8144 34.2055 19.1625C34.512 18.7352 35.0718 18.0238 35.367 17.6863C35.6216 17.3953 36.2575 16.749 36.6106 16.4224C37.5276 15.5744 38.7497 14.7346 39.8792 14.1762C40.6361 13.8021 41.0858 13.6236 41.8751 13.3841C42.6357 13.1533 43.1509 13.0465 44.0854 12.926C44.3803 12.888 45.8274 12.8535 46.14 12.8771Z" fill="#EBF9FF"/>
</g>
<rect x="7" y="48" width="99" height="20" rx="10" fill="#B9E3F8"/>
<rect x="7" y="45" width="94" height="8" rx="4" fill="#EBF9FF"/>]
<g class="precipitation">
<path fill-rule="evenodd" clip-rule="evenodd" d="M24.6371 82.8251C17.6576 88.827 15.6577 94.6595 21.1788 92.9116C25.0377 91.6899 30.7835 82.8251 27.6788 82.8251C27.1694 82.8251 26.7958 80.9686 24.6371 82.8251Z" fill="#CAEFFF"/>
<path fill-rule="evenodd" clip-rule="evenodd" d="M88.6371 85.8251C81.6576 91.827 79.6577 97.6595 85.1788 95.9116C89.0377 94.6899 94.7835 85.8251 91.6788 85.8251C91.1694 85.8251 90.7958 83.9686 88.6371 85.8251Z" fill="#CAEFFF"/>
<path d="M36.9592 90.8487C37.9905 90.9079 37.4651 90.199 36.7652 89.7936C36.0656 89.3884 36.6452 88.3776 37.3654 88.8629C38.086 89.3475 38.6376 90.4753 39.1114 90.3455C39.49 90.2421 40.1212 90.07 40.3585 90.005C40.3513 89.8205 40.3715 89.6317 40.4216 89.4442C40.4717 89.2567 40.5483 89.0829 40.6465 88.9268C40.4732 88.7524 40.0121 88.288 39.7354 88.0095C39.3893 87.6613 38.3488 88.3635 37.4825 88.4245C36.6164 88.4856 36.6181 87.3203 37.4265 87.3179C38.2353 87.3156 39.0441 86.9635 38.1208 86.5001C37.1974 86.0377 36.5049 85.1087 36.9689 84.6404C37.433 84.1721 38.3544 84.8688 38.8153 85.7994C39.2751 86.7293 39.6232 85.913 39.6247 85.0978C39.6263 84.2822 40.7807 84.2788 40.7216 85.1525C40.6629 86.0263 39.9678 87.0773 40.3137 87.4252C40.591 87.7044 41.0523 88.1689 41.2254 88.3433C41.5384 88.1425 41.9096 88.0365 42.2931 88.0508C42.3569 87.8121 42.5272 87.1746 42.6293 86.7922C42.7569 86.3146 41.6383 85.7598 41.1558 85.0339C40.6741 84.3082 41.6751 83.7222 42.0786 84.427C42.4817 85.1322 43.1848 85.661 43.1247 84.621C43.0646 83.5815 43.5186 82.5085 44.1512 82.6774C44.7832 82.8462 44.6419 84.0028 44.0714 84.8738C43.5007 85.7454 44.3737 85.6376 45.0745 85.2272C45.7757 84.8175 46.3513 85.8246 45.5718 86.2134C44.7919 86.6021 43.5454 86.5252 43.4179 87.0028C43.3157 87.3851 43.1454 88.0227 43.0816 88.2614C43.4212 88.4402 43.6904 88.7172 43.8613 89.0474C44.0983 88.9825 44.7298 88.8099 45.1094 88.7062C45.5827 88.5771 45.505 87.3196 45.8891 86.5327C46.2735 85.746 47.2727 86.3246 46.8671 87.0323C46.4622 87.7398 46.3559 88.6207 47.2189 88.044C48.0824 87.4673 49.2285 87.3228 49.3972 87.9602C49.5659 88.5975 48.5024 89.0574 47.4715 88.9978C46.4405 88.9392 46.966 89.6477 47.6657 90.053C48.3648 90.458 47.7857 91.4691 47.0654 90.9842C46.3449 90.4994 45.7929 89.3717 45.3195 89.5011C44.9406 89.6044 44.3093 89.7771 44.0726 89.842C44.0796 90.0262 44.0591 90.2149 44.009 90.4024C43.959 90.5899 43.8826 90.7637 43.7846 90.9201C43.9573 91.0947 44.4186 91.5586 44.6955 91.8371C45.0412 92.1858 46.0821 91.4834 46.9483 91.4226C47.8145 91.3611 47.8123 92.5261 47.0044 92.5287C46.1958 92.5311 45.3864 92.8835 46.3099 93.3464C47.2332 93.8088 47.9258 94.7378 47.4617 95.2061C46.9976 95.6747 46.0762 94.9777 45.6153 94.0472C45.1548 93.117 44.8077 93.9336 44.8059 94.7488C44.8046 95.5644 43.6499 95.5677 43.709 94.6941C43.7684 93.8208 44.4627 92.77 44.117 92.4213C43.8397 92.1422 43.3783 91.6777 43.2052 91.5035C42.8924 91.7044 42.521 91.8101 42.1376 91.7957C42.0738 92.0345 41.9035 92.672 41.8013 93.0544C41.6738 93.5319 42.7926 94.0869 43.2748 94.8127C43.7565 95.5384 42.7555 96.1244 42.352 95.4195C41.9492 94.7144 41.2461 94.1856 41.3062 95.2256C41.3664 96.2654 40.9122 97.3381 40.2802 97.1693C39.6476 97.0004 39.7891 95.8441 40.3595 94.9728C40.9302 94.1012 40.0572 94.209 39.3561 94.6193C38.6549 95.029 38.0794 94.022 38.8588 93.6331C39.639 93.2445 40.8853 93.3213 41.0128 92.8438C41.1149 92.4614 41.2852 91.8239 41.349 91.5851C41.0095 91.4063 40.7405 91.1296 40.5693 90.7994C40.3324 90.8641 39.7008 91.0366 39.3213 91.1403C38.8478 91.2702 38.9263 92.5274 38.5415 93.3138C38.1572 94.1006 37.1582 93.522 37.5635 92.8143C37.9687 92.1068 38.0747 91.2258 37.2118 91.8025C36.3482 92.3793 35.2021 92.5239 35.0334 91.8864C34.8647 91.249 35.9283 90.7891 36.9592 90.8487ZM41.9415 90.95C42.5024 91.0998 43.0803 90.762 43.2318 90.1948C43.3833 89.6279 43.0508 89.0468 42.4899 88.897C41.9282 88.747 41.3505 89.0849 41.1991 89.6518C41.0476 90.219 41.3798 90.7999 41.9415 90.95Z" fill="#CAEFFF"/>
<path d="M60.9592 80.8487C61.9905 80.9079 61.4651 80.199 60.7652 79.7936C60.0656 79.3884 60.6452 78.3776 61.3654 78.8629C62.086 79.3475 62.6376 80.4753 63.1114 80.3455C63.49 80.2421 64.1212 80.07 64.3585 80.005C64.3513 79.8205 64.3715 79.6317 64.4216 79.4442C64.4717 79.2567 64.5483 79.0829 64.6465 78.9268C64.4732 78.7524 64.0121 78.288 63.7354 78.0095C63.3893 77.6613 62.3488 78.3635 61.4825 78.4245C60.6164 78.4856 60.6181 77.3203 61.4265 77.3179C62.2353 77.3156 63.0441 76.9635 62.1208 76.5001C61.1974 76.0377 60.5049 75.1087 60.9689 74.6404C61.433 74.1721 62.3544 74.8688 62.8153 75.7994C63.2751 76.7293 63.6232 75.913 63.6247 75.0978C63.6263 74.2822 64.7807 74.2788 64.7216 75.1525C64.6629 76.0263 63.9678 77.0773 64.3137 77.4252C64.591 77.7044 65.0523 78.1689 65.2254 78.3433C65.5384 78.1425 65.9096 78.0365 66.2931 78.0508C66.3569 77.8121 66.5272 77.1746 66.6293 76.7922C66.7569 76.3146 65.6383 75.7598 65.1558 75.0339C64.6741 74.3082 65.6751 73.7222 66.0786 74.427C66.4817 75.1322 67.1848 75.661 67.1247 74.621C67.0646 73.5815 67.5186 72.5085 68.1512 72.6774C68.7832 72.8462 68.6419 74.0028 68.0714 74.8738C67.5007 75.7454 68.3737 75.6376 69.0745 75.2272C69.7757 74.8175 70.3513 75.8246 69.5718 76.2134C68.7919 76.6021 67.5454 76.5252 67.4179 77.0028C67.3157 77.3851 67.1454 78.0227 67.0816 78.2614C67.4212 78.4402 67.6904 78.7172 67.8613 79.0474C68.0983 78.9825 68.7298 78.8099 69.1094 78.7062C69.5827 78.5771 69.505 77.3196 69.8891 76.5327C70.2735 75.746 71.2727 76.3246 70.8671 77.0323C70.4622 77.7398 70.3559 78.6207 71.2189 78.044C72.0824 77.4673 73.2285 77.3228 73.3972 77.9602C73.5659 78.5975 72.5024 79.0574 71.4715 78.9978C70.4405 78.9392 70.966 79.6477 71.6657 80.053C72.3648 80.458 71.7857 81.4691 71.0654 80.9842C70.3449 80.4994 69.7929 79.3717 69.3195 79.5011C68.9406 79.6044 68.3093 79.7771 68.0726 79.842C68.0796 80.0262 68.0591 80.2149 68.009 80.4024C67.959 80.5899 67.8826 80.7637 67.7846 80.9201C67.9573 81.0947 68.4186 81.5586 68.6955 81.8371C69.0412 82.1858 70.0821 81.4834 70.9483 81.4226C71.8145 81.3611 71.8123 82.5261 71.0044 82.5287C70.1958 82.5311 69.3864 82.8835 70.3099 83.3464C71.2332 83.8088 71.9258 84.7378 71.4617 85.2061C70.9976 85.6747 70.0762 84.9777 69.6153 84.0472C69.1548 83.117 68.8077 83.9336 68.8059 84.7488C68.8046 85.5644 67.6499 85.5677 67.709 84.6941C67.7684 83.8208 68.4627 82.77 68.117 82.4213C67.8397 82.1422 67.3783 81.6777 67.2052 81.5035C66.8924 81.7044 66.521 81.8101 66.1376 81.7957C66.0738 82.0345 65.9035 82.672 65.8013 83.0544C65.6738 83.5319 66.7926 84.0869 67.2748 84.8127C67.7565 85.5384 66.7555 86.1244 66.352 85.4195C65.9492 84.7144 65.2461 84.1856 65.3062 85.2256C65.3664 86.2654 64.9122 87.3381 64.2802 87.1693C63.6476 87.0004 63.7891 85.8441 64.3595 84.9728C64.9302 84.1012 64.0572 84.209 63.3561 84.6193C62.6549 85.029 62.0794 84.022 62.8588 83.6331C63.639 83.2445 64.8853 83.3213 65.0128 82.8438C65.1149 82.4614 65.2852 81.8239 65.349 81.5851C65.0095 81.4063 64.7405 81.1296 64.5693 80.7994C64.3324 80.8641 63.7008 81.0366 63.3213 81.1403C62.8478 81.2702 62.9263 82.5274 62.5415 83.3138C62.1572 84.1006 61.1582 83.522 61.5635 82.8143C61.9687 82.1068 62.0747 81.2258 61.2118 81.8025C60.3482 82.3793 59.2021 82.5239 59.0334 81.8864C58.8647 81.249 59.9283 80.7891 60.9592 80.8487ZM65.9415 80.95C66.5024 81.0998 67.0803 80.762 67.2318 80.1948C67.3833 79.6279 67.0508 79.0468 66.4899 78.897C65.9282 78.747 65.3505 79.0849 65.1991 79.6518C65.0476 80.219 65.3798 80.7999 65.9415 80.95Z" fill="#CAEFFF"/>
</g>
</g>
</svg>
