<svg width="100" height="100" viewBox="0 0 110 119" fill="none" xmlns="http://www.w3.org/2000/svg">
<g clip-path="url(#clip0_27_44)">
<g class="cloud1">
<path fill-rule="evenodd" clip-rule="evenodd" d="M40.7065 20.5989C41.8679 20.6607 42.7264 20.789 43.6898 21.0447C44.8693 21.3577 45.8669 21.7536 46.8671 22.3057L47.1726 22.4743L56.347 22.4745L65.5214 22.4747L65.4544 22.528C64.8229 23.0304 64.0383 23.7763 63.4578 24.4261C62.6767 25.3007 61.9946 26.2671 61.4008 27.3404C61.1801 27.7392 60.7622 28.6019 60.7622 28.6586C60.7622 28.6676 60.8336 28.6902 60.9208 28.7087C61.4497 28.8211 62.2238 29.0416 62.8389 29.2553C64.1825 29.7219 65.6232 30.4798 66.8261 31.3529L67.1117 31.5601H78.7428H90.3739L90.3858 31.6136C90.3924 31.6431 90.405 31.6978 90.4138 31.7352C90.4227 31.7727 90.4648 31.9959 90.5074 32.2314C90.7368 33.498 90.8035 34.7338 90.719 36.1517C90.6154 37.8893 90.1732 39.7191 89.4527 41.3912C88.077 44.5836 85.6115 47.2986 82.5769 48.9625C80.4743 50.1154 78.0936 50.7859 75.8376 50.8606C75.5362 50.8705 74.5265 50.8789 73.5938 50.8792L71.898 50.8797L71.6726 51.3223C71.4 51.8576 71.2297 52.166 71.0144 52.5139C70.4788 53.3797 69.9177 54.1401 69.3225 54.8071C69.0243 55.1413 68.3106 55.854 67.9919 56.1358C66.3488 57.5892 64.4462 58.6774 62.4063 59.3309C61.1644 59.7287 59.7323 59.9908 58.5124 60.0436C57.9363 60.0685 23.7068 60.0671 23.5928 60.0421C23.5452 60.0317 23.3722 60.0056 23.2082 59.9841C23.0443 59.9626 22.7568 59.919 22.5694 59.8873C19.2817 59.3312 16.3272 57.4612 14.3693 54.6971C13.5502 53.5407 12.8839 52.168 12.5183 50.8833C12.1202 49.4848 11.9732 48.3207 12.004 46.8134C12.037 45.1952 12.427 43.4767 13.1077 41.9495C13.3899 41.3163 13.8433 40.4915 14.1655 40.0254C14.7157 39.2293 15.198 38.6489 15.8166 38.0387C17.2543 36.6204 18.8508 35.6382 20.7528 35.0018C22.3899 34.4541 24.188 34.258 25.9835 34.4313C26.1615 34.4484 26.3124 34.4572 26.3188 34.4507C26.3252 34.4442 26.3377 34.2617 26.3465 34.0452C26.4106 32.4808 26.7231 30.9616 27.272 29.5465C27.4832 29.002 27.5706 28.8006 27.7745 28.3889C28.4626 26.999 29.2159 25.9358 30.3454 24.7606C30.7829 24.3054 31.146 23.98 31.7407 23.51C33.0242 22.4957 34.5619 21.6941 36.207 21.1817C36.4347 21.1108 37.2515 20.906 37.5241 20.8515C37.9569 20.7651 38.7435 20.6617 39.2259 20.6279C39.5243 20.607 40.4998 20.5879 40.7065 20.5989Z" fill="#B9E3F8"/>
<path fill-rule="evenodd" clip-rule="evenodd" d="M40.9034 19.0058C41.4738 19.0405 42.1993 19.1229 42.6243 19.2011C42.7671 19.2274 42.9493 19.2609 43.0293 19.2757C43.2328 19.3133 44.077 19.5379 44.4218 19.6463C45.2169 19.8962 46.0653 20.2587 46.8231 20.6724L47.1527 20.8524L56.3323 20.8621L65.5119 20.8718L65.2641 21.0756C64.6828 21.5536 63.8559 22.3581 63.3438 22.9439C62.5551 23.8459 61.8542 24.873 61.25 26.0119C61.0956 26.303 60.7994 26.9253 60.7688 27.0229C60.7565 27.0623 60.7675 27.0676 60.9439 27.1075C61.5846 27.2523 62.3554 27.4731 62.9021 27.6684C64.2791 28.1602 65.6697 28.8981 66.8815 29.7801L67.1122 29.9479H78.7483H90.3845L90.4633 30.3614C90.6744 31.4698 90.7541 32.2869 90.7542 33.345C90.7542 35.1149 90.5643 36.4375 90.0731 38.0863C89.6338 39.561 88.8906 41.1134 87.9989 42.4191C86.696 44.3268 84.9997 45.9195 83.0146 47.099C82.6656 47.3063 81.8649 47.7218 81.4955 47.8872C79.9832 48.5644 78.4816 48.9771 76.8283 49.1701C76.3502 49.2259 75.8521 49.2474 75.033 49.2477C74.6407 49.2479 73.7726 49.2538 73.1038 49.261L71.8877 49.2739L71.7138 49.6257C71.363 50.3353 71.1387 50.7264 70.6982 51.3961C70.0418 52.3939 69.4821 53.0728 68.5715 53.9758C67.803 54.7379 66.9848 55.3941 66.0717 55.9806C63.8607 57.4007 61.4954 58.1868 58.7477 58.4147C58.3304 58.4494 23.6347 58.452 23.5666 58.4174C23.5413 58.4045 23.3993 58.3798 23.2513 58.3625C20.8328 58.0805 18.5087 57.0806 16.6426 55.5194C16.1652 55.1201 15.4865 54.4509 15.1162 54.0147L12.5289 49.2204C12.2962 48.4065 12.0662 46.7577 12.0662 46.7577C12.0662 46.7577 12.0328 44.7417 12.0667 44.423C12.1078 44.0359 12.2013 43.384 12.2537 43.1195C12.3254 42.7575 12.5151 42.023 12.6272 41.6735C12.9578 40.6427 13.4082 39.6694 13.9858 38.7376C14.0636 38.6122 14.1272 38.5006 14.1272 38.4895C14.1272 38.4786 14.1346 38.4695 14.1436 38.4695C14.1526 38.4695 14.1999 38.4087 14.2488 38.3344C14.3381 38.1985 14.7905 37.5902 14.9369 37.4092C15.2969 36.9639 15.9053 36.3386 16.4211 35.8836C17.4451 34.9803 18.7414 34.1826 20.0167 33.6712C21.0867 33.2421 22.2289 32.9587 23.3763 32.8378C24.0988 32.7616 25.0124 32.7458 25.6356 32.7986C25.826 32.8148 26.0652 32.8335 26.1671 32.8402L26.3525 32.8525L26.3645 32.5821C26.4415 30.8425 26.7043 29.5085 27.2607 28.0315C27.8682 26.4192 28.748 24.9493 29.8458 23.7124C30.1298 23.3924 30.6484 22.8597 30.922 22.607C31.1579 22.389 31.747 21.9051 32.0742 21.6606C32.9238 21.0255 34.056 20.3967 35.1026 19.9786C35.8039 19.6984 36.2205 19.5648 36.9518 19.3854C37.6566 19.2126 38.1339 19.1327 38.9997 19.0424C39.273 19.014 40.6137 18.9881 40.9034 19.0058Z" fill="#EBF9FF"/>
</g>
<path fill-rule="evenodd" clip-rule="evenodd" d="M38.9832 0.00430014C40.2366 0.0868456 41.1632 0.258172 42.203 0.599578C43.4761 1.01761 44.5529 1.54637 45.6324 2.28364L45.9621 2.5088L55.864 2.50909L65.766 2.50937L65.6937 2.58054C65.0121 3.25137 64.1653 4.24751 63.5389 5.11531C62.6957 6.28326 61.9595 7.57383 61.3187 9.00724C61.0805 9.53987 60.6294 10.692 60.6294 10.7676C60.6294 10.7797 60.7065 10.8099 60.8007 10.8346C61.3715 10.9846 62.2069 11.2792 62.8709 11.5645C64.321 12.1876 65.8759 13.1997 67.1742 14.3657L67.4825 14.6425H80.036H92.5896L92.6025 14.7139C92.6095 14.7533 92.6231 14.8263 92.6327 14.8763C92.6422 14.9264 92.6877 15.2245 92.7337 15.5389C92.9813 17.2305 93.0532 18.8808 92.962 20.7743C92.8502 23.0948 92.3729 25.5384 91.5953 27.7714C90.1105 32.0348 87.4494 35.6605 84.1742 37.8825C81.9049 39.4221 79.3354 40.3176 76.9005 40.4173C76.5752 40.4306 75.4854 40.4418 74.4787 40.4422L72.6484 40.4428L72.4051 41.0339C72.1109 41.7489 71.9271 42.1606 71.6947 42.6253C71.1166 43.7815 70.5111 44.797 69.8686 45.6878C69.5467 46.134 68.7765 47.0858 68.4326 47.4622C66.6591 49.403 64.6057 50.8564 62.4039 51.7291C61.0635 52.2603 59.5178 52.6104 58.2012 52.6808C57.5794 52.714 20.6352 52.7122 20.5122 52.6789C20.4609 52.665 20.2741 52.6301 20.0971 52.6014C19.9202 52.5726 19.6099 52.5144 19.4076 52.4721C15.8592 51.7295 12.6703 49.2322 10.5572 45.5409C9.67309 43.9965 8.95401 42.1633 8.55938 40.4477C8.12977 38.58 7.97101 37.0255 8.00426 35.0125C8.03996 32.8514 8.46084 30.5565 9.19549 28.517C9.50009 27.6714 9.98951 26.5699 10.3372 25.9475C10.9311 24.8843 11.4517 24.1093 12.1192 23.2944C13.671 21.4003 15.3941 20.0885 17.447 19.2387C19.2139 18.5073 21.1546 18.2453 23.0925 18.4767C23.2846 18.4997 23.4474 18.5113 23.4543 18.5027C23.4613 18.494 23.4748 18.2504 23.4843 17.9612C23.5535 15.8721 23.8908 13.8432 24.4832 11.9533C24.7112 11.2262 24.8055 10.9572 25.0255 10.4074C25.7682 8.55128 26.5812 7.13148 27.8003 5.56202C28.2725 4.95409 28.6644 4.51951 29.3063 3.89186C30.6916 2.53738 32.3512 1.46686 34.1268 0.782571C34.3726 0.68784 35.2541 0.414429 35.5484 0.341653C36.0155 0.226162 36.8645 0.0880928 37.3851 0.0430136C37.7072 0.0151087 38.76 -0.0104058 38.9832 0.00430014Z" fill="#B9E3F8"/>
<g class="cloud3 cloud2">
<path fill-rule="evenodd" clip-rule="evenodd" d="M46.14 12.8771C46.7557 12.9235 47.5388 13.0335 47.9975 13.1379C48.1516 13.173 48.3483 13.2179 48.4346 13.2376C48.6543 13.2877 49.5654 13.5877 49.9376 13.7325C50.7957 14.0662 51.7113 14.5503 52.5293 15.1028L52.8851 15.3432L62.7926 15.3562L72.7002 15.3691L72.4328 15.6412C71.8054 16.2796 70.913 17.3539 70.3602 18.1362C69.509 19.3408 68.7524 20.7125 68.1004 22.2334C67.9337 22.6222 67.614 23.4533 67.581 23.5837C67.5677 23.6362 67.5796 23.6433 67.77 23.6966C68.4615 23.89 69.2934 24.1848 69.8835 24.4456C71.3696 25.1024 72.8705 26.0878 74.1784 27.2656L74.4274 27.4898H86.9865H99.5455L99.6305 28.042C99.8584 29.5222 99.9444 30.6135 99.9444 32.0264C99.9445 34.3901 99.7395 36.1564 99.2094 38.3582C98.7352 40.3277 97.9331 42.4009 96.9707 44.1444C95.5644 46.6921 93.7336 48.8191 91.591 50.3942C91.2144 50.6712 90.3502 51.226 89.9515 51.4469C88.3192 52.3512 86.6985 52.9024 84.9141 53.1601C84.3982 53.2347 83.8606 53.2634 82.9764 53.2638C82.5531 53.264 81.6161 53.272 80.8942 53.2815L79.5817 53.2988L79.394 53.7686C79.0154 54.7162 78.7733 55.2385 78.2978 56.1328C77.5894 57.4653 76.9853 58.372 76.0025 59.5779C75.1731 60.5956 74.29 61.472 73.3045 62.2552C70.9181 64.1518 68.3652 65.2015 65.3996 65.5059C64.9492 65.5522 27.5018 65.5556 27.4284 65.5095C27.401 65.4922 27.2478 65.4592 27.088 65.4362C24.4777 65.0595 21.9693 63.7243 19.9552 61.6393C19.44 61.1061 18.7073 60.2124 18.3078 59.6298L15.5153 53.2273C15.2641 52.1404 15.0158 49.9385 15.0158 49.9385C15.0158 49.9385 14.9798 47.2462 15.0163 46.8206C15.0607 46.3037 15.1617 45.433 15.2182 45.0798C15.2956 44.5964 15.5004 43.6155 15.6213 43.1488C15.9781 41.7722 16.4643 40.4724 17.0877 39.228C17.1716 39.0605 17.2403 38.9115 17.2403 38.8968C17.2403 38.8821 17.2482 38.8701 17.258 38.8701C17.2677 38.8701 17.3188 38.7889 17.3715 38.6896C17.4679 38.5081 17.9562 37.6958 18.1142 37.454C18.5028 36.8594 19.1594 36.0243 19.7161 35.4166C20.8213 34.2103 22.2205 33.1451 23.5969 32.4621C24.7518 31.889 25.9845 31.5106 27.2229 31.3491C28.0027 31.2474 28.9888 31.2262 29.6615 31.2968C29.8669 31.3183 30.1251 31.3433 30.2351 31.3523L30.4352 31.3687L30.4481 31.0077C30.5313 28.6845 30.8148 26.9031 31.4154 24.9306C32.0711 22.7773 33.0206 20.8144 34.2055 19.1625C34.512 18.7352 35.0718 18.0238 35.367 17.6863C35.6216 17.3953 36.2575 16.749 36.6106 16.4224C37.5276 15.5744 38.7497 14.7346 39.8792 14.1762C40.6361 13.8021 41.0858 13.6236 41.8751 13.3841C42.6357 13.1533 43.1509 13.0465 44.0854 12.926C44.3803 12.888 45.8274 12.8535 46.14 12.8771Z" fill="#EBF9FF"/>
</g>
<rect x="7" y="48" width="99" height="20" rx="10" fill="#B9E3F8"/>
<rect x="7" y="45" width="94" height="8" rx="4" fill="#EBF9FF"/>
    <g class="precipitation">
    <path d="M8.95917 76.8487C9.99047 76.9079 9.46515 76.199 8.76516 75.7936C8.06565 75.3884 8.6452 74.3776 9.36536 74.8629C10.086 75.3475 10.6376 76.4753 11.1114 76.3455C11.49 76.2421 12.1212 76.07 12.3585 76.005C12.3513 75.8205 12.3715 75.6317 12.4216 75.4442C12.4717 75.2567 12.5483 75.0829 12.6465 74.9268C12.4732 74.7524 12.0121 74.288 11.7354 74.0095C11.3893 73.6613 10.3488 74.3635 9.48246 74.4245C8.61639 74.4856 8.6181 73.3203 9.42647 73.3179C10.2354 73.3156 11.0441 72.9635 10.1208 72.5001C9.19743 72.0377 8.50489 71.1087 8.96894 70.6404C9.433 70.1721 10.3544 70.8688 10.8154 71.7994C11.2751 72.7293 11.6232 71.913 11.6247 71.0978C11.6263 70.2822 12.7807 70.2788 12.7216 71.1525C12.6629 72.0263 11.9678 73.0773 12.3137 73.4252C12.591 73.7044 13.0523 74.1689 13.2254 74.3433C13.5384 74.1425 13.9096 74.0365 14.2931 74.0508C14.3569 73.8121 14.5272 73.1746 14.6293 72.7922C14.7569 72.3146 13.6383 71.7598 13.1559 71.0339C12.6741 70.3082 13.6752 69.7222 14.0787 70.427C14.4818 71.1322 15.1848 71.661 15.1247 70.621C15.0647 69.5815 15.5187 68.5085 16.1512 68.6774C16.7832 68.8462 16.6419 70.0028 16.0714 70.8738C15.5007 71.7454 16.3737 71.6376 17.0746 71.2272C17.7757 70.8175 18.3513 71.8246 17.5718 72.2134C16.7919 72.6021 15.5454 72.5252 15.4179 73.0028C15.3157 73.3851 15.1454 74.0227 15.0817 74.2614C15.4212 74.4402 15.6904 74.7172 15.8613 75.0474C16.0983 74.9825 16.7298 74.8099 17.1094 74.7062C17.5827 74.5771 17.505 73.3196 17.8891 72.5327C18.2735 71.746 19.2727 72.3246 18.8672 73.0323C18.4622 73.7398 18.3559 74.6207 19.2189 74.044C20.0824 73.4673 21.2285 73.3228 21.3972 73.9602C21.5659 74.5975 20.5024 75.0574 19.4715 74.9978C18.4405 74.9392 18.966 75.6477 19.6658 76.053C20.3648 76.458 19.7857 77.4691 19.0654 76.9842C18.3449 76.4994 17.7929 75.3717 17.3195 75.5011C16.9406 75.6044 16.3093 75.7771 16.0726 75.842C16.0796 76.0262 16.0591 76.2149 16.0091 76.4024C15.959 76.5899 15.8826 76.7637 15.7846 76.9201C15.9573 77.0947 16.4186 77.5586 16.6955 77.8371C17.0412 78.1858 18.0821 77.4834 18.9483 77.4226C19.8146 77.3611 19.8123 78.5261 19.0045 78.5287C18.1958 78.5311 17.3865 78.8835 18.3099 79.3464C19.2332 79.8088 19.9258 80.7378 19.4617 81.2061C18.9976 81.6747 18.0762 80.9777 17.6153 80.0472C17.1548 79.117 16.8077 79.9336 16.8059 80.7488C16.8046 81.5644 15.6499 81.5677 15.7091 80.6941C15.7684 79.8208 16.4627 78.77 16.117 78.4213C15.8397 78.1422 15.3783 77.6777 15.2052 77.5035C14.8924 77.7044 14.521 77.8101 14.1376 77.7957C14.0738 78.0345 13.9035 78.672 13.8014 79.0544C13.6738 79.5319 14.7926 80.0869 15.2748 80.8127C15.7566 81.5384 14.7555 82.1244 14.352 81.4195C13.9492 80.7144 13.2461 80.1856 13.3063 81.2256C13.3664 82.2654 12.9122 83.3381 12.2802 83.1693C11.6476 83.0004 11.7891 81.8441 12.3595 80.9728C12.9302 80.1012 12.0572 80.209 11.3561 80.6193C10.6549 81.029 10.0794 80.022 10.8588 79.6331C11.639 79.2445 12.8853 79.3213 13.0128 78.8438C13.115 78.4614 13.2852 77.8239 13.349 77.5851C13.0095 77.4063 12.7405 77.1296 12.5693 76.7994C12.3324 76.8641 11.7008 77.0366 11.3213 77.1403C10.8478 77.2702 10.9263 78.5274 10.5415 79.3138C10.1572 80.1006 9.15821 79.522 9.56349 78.8143C9.9687 78.1068 10.0747 77.2258 9.21179 77.8025C8.34823 78.3793 7.20206 78.5239 7.03339 77.8864C6.86472 77.249 7.92826 76.7891 8.95917 76.8487ZM13.9415 76.95C14.5024 77.0998 15.0803 76.762 15.2318 76.1948C15.3833 75.6279 15.0508 75.0468 14.4899 74.897C13.9282 74.747 13.3505 75.0849 13.1991 75.6518C13.0476 76.219 13.3798 76.7999 13.9415 76.95Z" fill="#CAEFFF"/>
    <path d="M33.9592 79.8487C34.9905 79.9079 34.4651 79.199 33.7652 78.7936C33.0656 78.3884 33.6452 77.3776 34.3654 77.8629C35.086 78.3475 35.6376 79.4753 36.1114 79.3455C36.49 79.2421 37.1212 79.07 37.3585 79.005C37.3513 78.8205 37.3715 78.6317 37.4216 78.4442C37.4717 78.2567 37.5483 78.0829 37.6465 77.9268C37.4732 77.7524 37.0121 77.288 36.7354 77.0095C36.3893 76.6613 35.3488 77.3635 34.4825 77.4245C33.6164 77.4856 33.6181 76.3203 34.4265 76.3179C35.2353 76.3156 36.0441 75.9635 35.1208 75.5001C34.1974 75.0377 33.5049 74.1087 33.9689 73.6404C34.433 73.1721 35.3544 73.8688 35.8153 74.7994C36.2751 75.7293 36.6232 74.913 36.6247 74.0978C36.6263 73.2822 37.7807 73.2788 37.7216 74.1525C37.6629 75.0263 36.9678 76.0773 37.3137 76.4252C37.591 76.7044 38.0523 77.1689 38.2254 77.3433C38.5384 77.1425 38.9096 77.0365 39.2931 77.0508C39.3569 76.8121 39.5272 76.1746 39.6293 75.7922C39.7569 75.3146 38.6383 74.7598 38.1558 74.0339C37.6741 73.3082 38.6751 72.7222 39.0786 73.427C39.4817 74.1322 40.1848 74.661 40.1247 73.621C40.0646 72.5815 40.5186 71.5085 41.1512 71.6774C41.7832 71.8462 41.6419 73.0028 41.0714 73.8738C40.5007 74.7454 41.3737 74.6376 42.0745 74.2272C42.7757 73.8175 43.3513 74.8246 42.5718 75.2134C41.7919 75.6021 40.5454 75.5252 40.4179 76.0028C40.3157 76.3851 40.1454 77.0227 40.0816 77.2614C40.4212 77.4402 40.6904 77.7172 40.8613 78.0474C41.0983 77.9825 41.7298 77.8099 42.1094 77.7062C42.5827 77.5771 42.505 76.3196 42.8891 75.5327C43.2735 74.746 44.2727 75.3246 43.8671 76.0323C43.4622 76.7398 43.3559 77.6207 44.2189 77.044C45.0824 76.4673 46.2285 76.3228 46.3972 76.9602C46.5659 77.5975 45.5024 78.0574 44.4715 77.9978C43.4405 77.9392 43.966 78.6477 44.6657 79.053C45.3648 79.458 44.7857 80.4691 44.0654 79.9842C43.3449 79.4994 42.7929 78.3717 42.3195 78.5011C41.9406 78.6044 41.3093 78.7771 41.0726 78.842C41.0796 79.0262 41.0591 79.2149 41.009 79.4024C40.959 79.5899 40.8826 79.7637 40.7846 79.9201C40.9573 80.0947 41.4186 80.5586 41.6955 80.8371C42.0412 81.1858 43.0821 80.4834 43.9483 80.4226C44.8145 80.3611 44.8123 81.5261 44.0044 81.5287C43.1958 81.5311 42.3864 81.8835 43.3099 82.3464C44.2332 82.8088 44.9258 83.7378 44.4617 84.2061C43.9976 84.6747 43.0762 83.9777 42.6153 83.0472C42.1548 82.117 41.8077 82.9336 41.8059 83.7488C41.8046 84.5644 40.6499 84.5677 40.709 83.6941C40.7684 82.8208 41.4627 81.77 41.117 81.4213C40.8397 81.1422 40.3783 80.6777 40.2052 80.5035C39.8924 80.7044 39.521 80.8101 39.1376 80.7957C39.0738 81.0345 38.9035 81.672 38.8013 82.0544C38.6738 82.5319 39.7926 83.0869 40.2748 83.8127C40.7565 84.5384 39.7555 85.1244 39.352 84.4195C38.9492 83.7144 38.2461 83.1856 38.3062 84.2256C38.3664 85.2654 37.9122 86.3381 37.2802 86.1693C36.6476 86.0004 36.7891 84.8441 37.3595 83.9728C37.9302 83.1012 37.0572 83.209 36.3561 83.6193C35.6549 84.029 35.0794 83.022 35.8588 82.6331C36.639 82.2445 37.8853 82.3213 38.0128 81.8438C38.1149 81.4614 38.2852 80.8239 38.349 80.5851C38.0095 80.4063 37.7405 80.1296 37.5693 79.7994C37.3324 79.8641 36.7008 80.0366 36.3213 80.1403C35.8478 80.2702 35.9263 81.5274 35.5415 82.3138C35.1572 83.1006 34.1582 82.522 34.5635 81.8143C34.9687 81.1068 35.0747 80.2258 34.2118 80.8025C33.3482 81.3793 32.2021 81.5239 32.0334 80.8864C31.8647 80.249 32.9283 79.7891 33.9592 79.8487ZM38.9415 79.95C39.5024 80.0998 40.0803 79.762 40.2318 79.1948C40.3833 78.6279 40.0508 78.0468 39.4899 77.897C38.9282 77.747 38.3505 78.0849 38.1991 78.6518C38.0476 79.219 38.3798 79.7999 38.9415 79.95Z" fill="#CAEFFF"/>
    <path d="M76.9592 77.8487C77.9905 77.9079 77.4651 77.199 76.7652 76.7936C76.0656 76.3884 76.6452 75.3776 77.3654 75.8629C78.086 76.3475 78.6376 77.4753 79.1114 77.3455C79.49 77.2421 80.1212 77.07 80.3585 77.005C80.3513 76.8205 80.3715 76.6317 80.4216 76.4442C80.4717 76.2567 80.5483 76.0829 80.6465 75.9268C80.4732 75.7524 80.0121 75.288 79.7354 75.0095C79.3893 74.6613 78.3488 75.3635 77.4825 75.4245C76.6164 75.4856 76.6181 74.3203 77.4265 74.3179C78.2353 74.3156 79.0441 73.9635 78.1208 73.5001C77.1974 73.0377 76.5049 72.1087 76.9689 71.6404C77.433 71.1721 78.3544 71.8688 78.8153 72.7994C79.2751 73.7293 79.6232 72.913 79.6247 72.0978C79.6263 71.2822 80.7807 71.2788 80.7216 72.1525C80.6629 73.0263 79.9678 74.0773 80.3137 74.4252C80.591 74.7044 81.0523 75.1689 81.2254 75.3433C81.5384 75.1425 81.9096 75.0365 82.2931 75.0508C82.3569 74.8121 82.5272 74.1746 82.6293 73.7922C82.7569 73.3146 81.6383 72.7598 81.1558 72.0339C80.6741 71.3082 81.6751 70.7222 82.0786 71.427C82.4817 72.1322 83.1848 72.661 83.1247 71.621C83.0646 70.5815 83.5186 69.5085 84.1512 69.6774C84.7832 69.8462 84.6419 71.0028 84.0714 71.8738C83.5007 72.7454 84.3737 72.6376 85.0745 72.2272C85.7757 71.8175 86.3513 72.8246 85.5718 73.2134C84.7919 73.6021 83.5454 73.5252 83.4179 74.0028C83.3157 74.3851 83.1454 75.0227 83.0816 75.2614C83.4212 75.4402 83.6904 75.7172 83.8613 76.0474C84.0983 75.9825 84.7298 75.8099 85.1094 75.7062C85.5827 75.5771 85.505 74.3196 85.8891 73.5327C86.2735 72.746 87.2727 73.3246 86.8671 74.0323C86.4622 74.7398 86.3559 75.6207 87.2189 75.044C88.0824 74.4673 89.2285 74.3228 89.3972 74.9602C89.5659 75.5975 88.5024 76.0574 87.4715 75.9978C86.4405 75.9392 86.966 76.6477 87.6657 77.053C88.3648 77.458 87.7857 78.4691 87.0654 77.9842C86.3449 77.4994 85.7929 76.3717 85.3195 76.5011C84.9406 76.6044 84.3093 76.7771 84.0726 76.842C84.0796 77.0262 84.0591 77.2149 84.009 77.4024C83.959 77.5899 83.8826 77.7637 83.7846 77.9201C83.9573 78.0947 84.4186 78.5586 84.6955 78.8371C85.0412 79.1858 86.0821 78.4834 86.9483 78.4226C87.8145 78.3611 87.8123 79.5261 87.0044 79.5287C86.1958 79.5311 85.3864 79.8835 86.3099 80.3464C87.2332 80.8088 87.9258 81.7378 87.4617 82.2061C86.9976 82.6747 86.0762 81.9777 85.6153 81.0472C85.1548 80.117 84.8077 80.9336 84.8059 81.7488C84.8046 82.5644 83.6499 82.5677 83.709 81.6941C83.7684 80.8208 84.4627 79.77 84.117 79.4213C83.8397 79.1422 83.3783 78.6777 83.2052 78.5035C82.8924 78.7044 82.521 78.8101 82.1376 78.7957C82.0738 79.0345 81.9035 79.672 81.8013 80.0544C81.6738 80.5319 82.7926 81.0869 83.2748 81.8127C83.7565 82.5384 82.7555 83.1244 82.352 82.4195C81.9492 81.7144 81.2461 81.1856 81.3062 82.2256C81.3664 83.2654 80.9122 84.3381 80.2802 84.1693C79.6476 84.0004 79.7891 82.8441 80.3595 81.9728C80.9302 81.1012 80.0572 81.209 79.3561 81.6193C78.6549 82.029 78.0794 81.022 78.8588 80.6331C79.639 80.2445 80.8853 80.3213 81.0128 79.8438C81.1149 79.4614 81.2852 78.8239 81.349 78.5851C81.0095 78.4063 80.7405 78.1296 80.5693 77.7994C80.3324 77.8641 79.7008 78.0366 79.3213 78.1403C78.8478 78.2702 78.9263 79.5274 78.5415 80.3138C78.1572 81.1006 77.1582 80.522 77.5635 79.8143C77.9687 79.1068 78.0747 78.2258 77.2118 78.8025C76.3482 79.3793 75.2021 79.5239 75.0334 78.8864C74.8647 78.249 75.9283 77.7891 76.9592 77.8487ZM81.9415 77.95C82.5024 78.0998 83.0803 77.762 83.2318 77.1948C83.3833 76.6279 83.0508 76.0468 82.4899 75.897C81.9282 75.747 81.3505 76.0849 81.1991 76.6518C81.0476 77.219 81.3798 77.7999 81.9415 77.95Z" fill="#CAEFFF"/>
    <path d="M40.9592 97.8487C41.9905 97.9079 41.4651 97.199 40.7652 96.7936C40.0656 96.3884 40.6452 95.3776 41.3654 95.8629C42.086 96.3475 42.6376 97.4753 43.1114 97.3455C43.49 97.2421 44.1212 97.07 44.3585 97.005C44.3513 96.8205 44.3715 96.6317 44.4216 96.4442C44.4717 96.2567 44.5483 96.0829 44.6465 95.9268C44.4732 95.7524 44.0121 95.288 43.7354 95.0095C43.3893 94.6613 42.3488 95.3635 41.4825 95.4245C40.6164 95.4856 40.6181 94.3203 41.4265 94.3179C42.2353 94.3156 43.0441 93.9635 42.1208 93.5001C41.1974 93.0377 40.5049 92.1087 40.9689 91.6404C41.433 91.1721 42.3544 91.8688 42.8153 92.7994C43.2751 93.7293 43.6232 92.913 43.6247 92.0978C43.6263 91.2822 44.7807 91.2788 44.7216 92.1525C44.6629 93.0263 43.9678 94.0773 44.3137 94.4252C44.591 94.7044 45.0523 95.1689 45.2254 95.3433C45.5384 95.1425 45.9096 95.0365 46.2931 95.0508C46.3569 94.8121 46.5272 94.1746 46.6293 93.7922C46.7569 93.3146 45.6383 92.7598 45.1558 92.0339C44.6741 91.3082 45.6751 90.7222 46.0786 91.427C46.4817 92.1322 47.1848 92.661 47.1247 91.621C47.0646 90.5815 47.5186 89.5085 48.1512 89.6774C48.7832 89.8462 48.6419 91.0028 48.0714 91.8738C47.5007 92.7454 48.3737 92.6376 49.0745 92.2272C49.7757 91.8175 50.3513 92.8246 49.5718 93.2134C48.7919 93.6021 47.5454 93.5252 47.4179 94.0028C47.3157 94.3851 47.1454 95.0227 47.0816 95.2614C47.4212 95.4402 47.6904 95.7172 47.8613 96.0474C48.0983 95.9825 48.7298 95.8099 49.1094 95.7062C49.5827 95.5771 49.505 94.3196 49.8891 93.5327C50.2735 92.746 51.2727 93.3246 50.8671 94.0323C50.4622 94.7398 50.3559 95.6207 51.2189 95.044C52.0824 94.4673 53.2285 94.3228 53.3972 94.9602C53.5659 95.5975 52.5024 96.0574 51.4715 95.9978C50.4405 95.9392 50.966 96.6477 51.6657 97.053C52.3648 97.458 51.7857 98.4691 51.0654 97.9842C50.3449 97.4994 49.7929 96.3717 49.3195 96.5011C48.9406 96.6044 48.3093 96.7771 48.0726 96.842C48.0796 97.0262 48.0591 97.2149 48.009 97.4024C47.959 97.5899 47.8826 97.7637 47.7846 97.9201C47.9573 98.0947 48.4186 98.5586 48.6955 98.8371C49.0412 99.1858 50.0821 98.4834 50.9483 98.4226C51.8145 98.3611 51.8123 99.5261 51.0044 99.5287C50.1958 99.5311 49.3864 99.8835 50.3099 100.346C51.2332 100.809 51.9258 101.738 51.4617 102.206C50.9976 102.675 50.0762 101.978 49.6153 101.047C49.1548 100.117 48.8077 100.934 48.8059 101.749C48.8046 102.564 47.6499 102.568 47.709 101.694C47.7684 100.821 48.4627 99.77 48.117 99.4213C47.8397 99.1422 47.3783 98.6777 47.2052 98.5035C46.8924 98.7044 46.521 98.8101 46.1376 98.7957C46.0738 99.0345 45.9035 99.672 45.8013 100.054C45.6738 100.532 46.7926 101.087 47.2748 101.813C47.7565 102.538 46.7555 103.124 46.352 102.42C45.9492 101.714 45.2461 101.186 45.3062 102.226C45.3664 103.265 44.9122 104.338 44.2802 104.169C43.6476 104 43.7891 102.844 44.3595 101.973C44.9302 101.101 44.0572 101.209 43.3561 101.619C42.6549 102.029 42.0794 101.022 42.8588 100.633C43.639 100.244 44.8853 100.321 45.0128 99.8438C45.1149 99.4614 45.2852 98.8239 45.349 98.5851C45.0095 98.4063 44.7405 98.1296 44.5693 97.7994C44.3324 97.8641 43.7008 98.0366 43.3213 98.1403C42.8478 98.2702 42.9263 99.5274 42.5415 100.314C42.1572 101.101 41.1582 100.522 41.5635 99.8143C41.9687 99.1068 42.0747 98.2258 41.2118 98.8025C40.3482 99.3793 39.2021 99.5239 39.0334 98.8864C38.8647 98.249 39.9283 97.7891 40.9592 97.8487ZM45.9415 97.95C46.5024 98.0998 47.0803 97.762 47.2318 97.1948C47.3833 96.6279 47.0508 96.0468 46.4899 95.897C45.9282 95.747 45.3505 96.0849 45.1991 96.6518C45.0476 97.219 45.3798 97.7999 45.9415 97.95Z" fill="#CAEFFF"/>
    <path fill-rule="evenodd" clip-rule="evenodd" d="M24.6371 82.8251C17.6576 88.827 15.6577 94.6595 21.1788 92.9116C25.0377 91.6899 30.7835 82.8251 27.6788 82.8251C27.1694 82.8251 26.7958 80.9686 24.6371 82.8251Z" fill="#CAEFFF"/>
    <path fill-rule="evenodd" clip-rule="evenodd" d="M88.6371 85.8251C81.6576 91.827 79.6577 97.6595 85.1788 95.9116C89.0377 94.6899 94.7835 85.8251 91.6788 85.8251C91.1694 85.8251 90.7958 83.9686 88.6371 85.8251Z" fill="#CAEFFF"/>
    <path fill-rule="evenodd" clip-rule="evenodd" d="M58.8199 71.9422C51.7353 77.8199 49.6327 83.6161 55.1839 81.9661C59.0638 80.8128 64.9653 72.0509 61.8611 71.996C61.3517 71.987 61.0111 70.1242 58.8199 71.9422Z" fill="#B9E3F8"/>
    <path fill-rule="evenodd" clip-rule="evenodd" d="M69.9394 93.0194C62.7867 98.814 60.6167 104.585 66.1867 103C70.0798 101.892 76.0831 93.1997 72.9798 93.1086C72.4705 93.0937 72.1516 91.2271 69.9394 93.0194Z" fill="#B9E3F8"/>
    <path fill-rule="evenodd" clip-rule="evenodd" d="M103.206 72.0108C95.7701 77.676 93.5212 83.3274 99.3172 81.7841C103.368 80.7054 109.602 72.1985 106.371 72.1037C105.841 72.0881 105.506 70.2585 103.206 72.0108Z" fill="#B9E3F8"/>
    </g>
</g>
</svg>
