<svg width="100" height="100" viewBox="0 0 110 119" fill="none" xmlns="http://www.w3.org/2000/svg">
<g clip-path="url(#clip0_37_148)">
<g mask="url(#mask0_37_148)">
<path fill-rule="evenodd" clip-rule="evenodd" d="M44.7065 44.5989C45.8679 44.6607 46.7264 44.789 47.6898 45.0447C48.8693 45.3577 49.8669 45.7536 50.8671 46.3057L51.1726 46.4743L60.347 46.4745L69.5214 46.4747L69.4544 46.528C68.8229 47.0304 68.0383 47.7763 67.4578 48.4261C66.6767 49.3007 65.9946 50.2671 65.4008 51.3404C65.1801 51.7392 64.7622 52.6019 64.7622 52.6586C64.7622 52.6676 64.8336 52.6902 64.9208 52.7087C65.4497 52.8211 66.2238 53.0416 66.8389 53.2553C68.1825 53.7219 69.6232 54.4798 70.8261 55.3529L71.1117 55.5601H82.7428H94.374L94.386 55.6136C94.392 55.6431 94.405 55.6978 94.414 55.7352C94.423 55.7727 94.465 55.9959 94.507 56.2314C94.737 57.498 94.803 58.7338 94.719 60.1517C94.615 61.8893 94.173 63.7191 93.453 65.3912C92.077 68.5836 89.611 71.2986 86.577 72.9625C84.4743 74.1154 82.0936 74.7859 79.8376 74.8606C79.5362 74.8705 78.5265 74.8789 77.5938 74.8792L75.898 74.8797L75.6726 75.3223C75.4 75.8576 75.2297 76.166 75.0144 76.5139C74.4788 77.3797 73.9177 78.1401 73.3225 78.8071C73.0243 79.1413 72.3106 79.854 71.9919 80.1358C70.3488 81.5892 68.4462 82.6774 66.4063 83.3309C65.1644 83.7287 63.7323 83.9908 62.5124 84.0436C61.9363 84.0685 27.7068 84.0671 27.5928 84.0421C27.5452 84.0317 27.3722 84.0056 27.2082 83.9841C27.0443 83.9626 26.7568 83.919 26.5694 83.8873C23.2817 83.3312 20.3272 81.4612 18.3693 78.6971C17.5502 77.5407 16.8839 76.168 16.5183 74.8833C16.1202 73.4848 15.9732 72.3207 16.004 70.8134C16.037 69.1952 16.427 67.4767 17.1077 65.9495C17.3899 65.3163 17.8433 64.4915 18.1655 64.0254C18.7157 63.2293 19.198 62.6489 19.8166 62.0387C21.2543 60.6204 22.8508 59.6382 24.7528 59.0018C26.3899 58.4541 28.188 58.258 29.9835 58.4313C30.1615 58.4484 30.3124 58.4572 30.3188 58.4507C30.3252 58.4442 30.3377 58.2617 30.3466 58.0452C30.4106 56.4808 30.7231 54.9616 31.272 53.5465C31.4832 53.002 31.5706 52.8006 31.7745 52.3889C32.4625 50.999 33.2159 49.9358 34.3454 48.7606C34.7829 48.3054 35.146 47.98 35.7407 47.51C37.0242 46.4957 38.5619 45.6941 40.207 45.1817C40.4347 45.1108 41.2515 44.906 41.5241 44.8515C41.9569 44.7651 42.7435 44.6617 43.2259 44.6279C43.5243 44.607 44.4998 44.5879 44.7065 44.5989Z" fill="#B9E3F8"/>
<path fill-rule="evenodd" clip-rule="evenodd" d="M44.9034 43.0058C45.4738 43.0405 46.1993 43.1229 46.6243 43.2011C46.7671 43.2274 46.9493 43.2609 47.0293 43.2757C47.2328 43.3133 48.077 43.5379 48.4218 43.6463C49.2169 43.8962 50.0653 44.2587 50.8231 44.6724L51.1527 44.8524L60.3323 44.8621L69.5119 44.8718L69.2641 45.0756C68.6828 45.5536 67.8559 46.3581 67.3438 46.9439C66.5551 47.8459 65.8542 48.873 65.25 50.0119C65.0956 50.303 64.7994 50.9253 64.7688 51.0229C64.7565 51.0623 64.7675 51.0676 64.9439 51.1075C65.5846 51.2523 66.3554 51.4731 66.9021 51.6684C68.2791 52.1602 69.6697 52.8981 70.8815 53.7801L71.1122 53.9479H82.7483H94.384L94.463 54.3614C94.674 55.4698 94.754 56.2869 94.754 57.345C94.754 59.1149 94.564 60.4375 94.073 62.0863C93.634 63.561 92.891 65.1134 91.999 66.4191C90.696 68.3268 89 69.9195 87.015 71.099C86.666 71.3063 85.865 71.7218 85.495 71.8872C83.9832 72.5644 82.4816 72.9771 80.8283 73.1701C80.3502 73.2259 79.8521 73.2474 79.033 73.2477C78.6407 73.2479 77.7726 73.2538 77.1038 73.261L75.8877 73.2739L75.7138 73.6257C75.363 74.3353 75.1387 74.7264 74.6982 75.3961C74.0418 76.3939 73.4821 77.0728 72.5715 77.9758C71.803 78.7379 70.9848 79.3941 70.0717 79.9806C67.8607 81.4007 65.4954 82.1868 62.7477 82.4147C62.3304 82.4494 27.6347 82.4519 27.5666 82.4174C27.5413 82.4045 27.3993 82.3798 27.2513 82.3625C24.8328 82.0805 22.5087 81.0806 20.6426 79.5194C20.1652 79.1201 19.4864 78.4509 19.1162 78.0147L16.5289 73.2204C16.2962 72.4065 16.0662 70.7577 16.0662 70.7577C16.0662 70.7577 16.0328 68.7417 16.0667 68.423C16.1078 68.0359 16.2013 67.384 16.2537 67.1195C16.3254 66.7574 16.5151 66.023 16.6272 65.6735C16.9578 64.6427 17.4082 63.6694 17.9858 62.7376C18.0636 62.6122 18.1272 62.5006 18.1272 62.4895C18.1272 62.4786 18.1346 62.4695 18.1436 62.4695C18.1526 62.4695 18.1999 62.4087 18.2488 62.3344C18.3381 62.1985 18.7905 61.5902 18.9369 61.4092C19.2969 60.9639 19.9053 60.3386 20.4211 59.8836C21.4451 58.9803 22.7414 58.1826 24.0167 57.6712C25.0867 57.2421 26.2289 56.9587 27.3763 56.8378C28.0988 56.7616 29.0124 56.7458 29.6356 56.7986C29.826 56.8148 30.0652 56.8335 30.1671 56.8402L30.3525 56.8525L30.3645 56.5821C30.4415 54.8425 30.7043 53.5085 31.2607 52.0315C31.8682 50.4192 32.748 48.9493 33.8458 47.7124C34.1298 47.3924 34.6484 46.8597 34.922 46.607C35.1579 46.389 35.747 45.9051 36.0742 45.6606C36.9238 45.0255 38.056 44.3967 39.1026 43.9786C39.8039 43.6984 40.2205 43.5648 40.9518 43.3854C41.6566 43.2126 42.1339 43.1327 42.9997 43.0424C43.273 43.014 44.6137 42.9881 44.9034 43.0058Z" fill="#EBF9FF"/>
<path fill-rule="evenodd" clip-rule="evenodd" d="M13.2254 51.3954C13.9627 51.4493 14.5078 51.5613 15.1194 51.7844C15.8683 52.0576 16.5017 52.4031 17.1367 52.885L17.3306 53.0321L23.1553 53.0323L28.98 53.0325L28.9375 53.079C28.5366 53.5174 28.0384 54.1684 27.6699 54.7355C27.174 55.4988 26.7409 56.3422 26.3639 57.2789C26.2238 57.627 25.9585 58.3799 25.9585 58.4293C25.9585 58.4372 26.0038 58.4569 26.0592 58.4731C26.395 58.5712 26.8864 58.7636 27.277 58.9501C28.13 59.3573 29.0447 60.0188 29.8084 60.7807L29.9897 60.9616H37.3741H44.7586L44.7662 61.0083C44.7703 61.034 44.7783 61.0817 44.7839 61.1144C44.7895 61.1471 44.8163 61.342 44.8434 61.5474C44.989 62.6529 45.0313 63.7314 44.9777 64.9688C44.9119 66.4853 44.6311 68.0822 44.1737 69.5415C43.3003 72.3277 41.735 74.6971 39.8084 76.1492C38.4735 77.1554 36.962 77.7406 35.5297 77.8058C35.3383 77.8145 34.6973 77.8218 34.1051 77.822L33.0285 77.8224L32.8854 78.2087C32.7123 78.676 32.6042 78.945 32.4675 79.2487C32.1274 80.0043 31.7712 80.6679 31.3933 81.2501C31.204 81.5417 30.7509 82.1637 30.5486 82.4097C29.5053 83.678 28.2975 84.6278 27.0023 85.1981C26.2138 85.5453 25.3046 85.7741 24.5301 85.8201C24.1644 85.8418 2.43251 85.8406 2.36011 85.8188C2.32991 85.8098 2.22001 85.787 2.11601 85.7682C2.01191 85.7494 1.82941 85.7114 1.71041 85.6837C-0.376993 85.1984 -2.25269 83.5664 -3.49579 81.1541C-4.01579 80.1448 -4.43879 78.9468 -4.67089 77.8256C-4.92369 76.6051 -5.01703 75.5891 -4.99749 74.2737C-4.97649 72.8614 -4.72889 71.3616 -4.29679 70.0288C-4.11759 69.4761 -3.82969 68.7563 -3.62519 68.3496C-3.27579 67.6547 -2.96959 67.1483 -2.57689 66.6157C-1.66409 65.3779 -0.650492 64.5207 0.557008 63.9653C1.59641 63.4873 2.73801 63.3161 3.87791 63.4673C3.99091 63.4823 4.08671 63.49 4.09081 63.4843C4.09491 63.4786 4.10281 63.3194 4.10841 63.1304C4.14911 61.7651 4.34751 60.4393 4.69601 59.2042C4.83011 58.729 4.88561 58.5533 5.01501 58.1939C5.45191 56.9809 5.93011 56.0531 6.64721 55.0274C6.92501 54.6301 7.15551 54.3461 7.53311 53.936C8.34801 53.0508 9.32431 52.3512 10.3687 51.904C10.5133 51.8421 11.0318 51.6634 11.2049 51.6159C11.4797 51.5404 11.9791 51.4501 12.2854 51.4207C12.4748 51.4025 13.0941 51.3858 13.2254 51.3954Z" fill="#B9E3F8"/>
<path fill-rule="evenodd" clip-rule="evenodd" d="M13.3504 50.005C13.7125 50.0354 14.1732 50.1072 14.443 50.1755C14.5336 50.1984 14.6493 50.2277 14.7001 50.2406C14.8293 50.2734 15.3653 50.4695 15.5842 50.564C16.089 50.7821 16.6276 51.0985 17.1087 51.4596L17.318 51.6166L23.146 51.6251L28.974 51.6336L28.8167 51.8114C28.4476 52.2286 27.9227 52.9307 27.5975 53.442C27.0968 54.2292 26.6518 55.1256 26.2682 56.1195C26.1701 56.3736 25.9821 56.9167 25.9627 57.0019C25.9549 57.0362 25.9619 57.0409 26.0739 57.0757C26.4806 57.2021 26.97 57.3948 27.3171 57.5652C28.1913 57.9944 29.0742 58.6384 29.8435 59.4081L29.99 59.5546H37.3777H44.7653L44.8153 59.9155C44.9494 60.8828 45 61.596 45 62.5193C45.0001 64.064 44.8795 65.2183 44.5676 66.6573C44.2887 67.9443 43.8169 69.2992 43.2507 70.4386C42.4235 72.1035 41.3466 73.4935 40.0862 74.5229C39.8647 74.7039 39.3563 75.0665 39.1218 75.2108C38.1617 75.8018 37.2083 76.1621 36.1586 76.3305C35.8551 76.3792 35.5389 76.398 35.0188 76.3982C34.7698 76.3984 34.2186 76.4036 33.794 76.4098L33.0219 76.4211L32.9115 76.7281C32.6888 77.3474 32.5464 77.6887 32.2667 78.2731C31.85 79.144 31.4946 79.7365 30.9165 80.5245C30.4286 81.1897 29.9091 81.7624 29.3294 82.2742C27.9257 83.5136 26.424 84.1997 24.6795 84.3986C24.4146 84.4288 2.38672 84.4311 2.34352 84.4009C2.32742 84.3896 2.23732 84.3681 2.14332 84.353C0.607817 84.1069 -0.867682 83.2343 -2.05248 81.8717C-2.35548 81.5232 -2.78648 80.9392 -3.02148 80.5585L-4.66418 76.3744C-4.81188 75.664 -4.95798 74.2251 -4.95798 74.2251C-4.95798 74.2251 -4.97918 72.4657 -4.95768 72.1875C-4.93158 71.8497 -4.87218 71.2807 -4.83888 71.0499C-4.79338 70.7339 -4.67298 70.093 -4.60178 69.7879C-4.39188 68.8883 -4.10598 68.0389 -3.73918 67.2257C-3.68988 67.1162 -3.64948 67.0188 -3.64948 67.0092C-3.64948 66.9996 -3.64478 66.9917 -3.63908 66.9917C-3.63328 66.9917 -3.60328 66.9387 -3.57228 66.8738C-3.51558 66.7552 -3.22838 66.2243 -3.13538 66.0663C-2.90678 65.6777 -2.52058 65.132 -2.19308 64.7349C-1.54298 63.9465 -0.719982 63.2504 0.0897179 62.8041C0.769018 62.4296 1.49422 62.1823 2.22262 62.0767C2.68142 62.0102 3.26142 61.9964 3.65712 62.0425C3.77802 62.0566 3.92982 62.0729 3.99452 62.0788L4.11222 62.0895L4.11982 61.8536C4.16872 60.3353 4.33552 59.1712 4.68882 57.8821C5.07452 56.475 5.63312 55.1921 6.33012 54.1127C6.51042 53.8334 6.83962 53.3685 7.01332 53.1479C7.16312 52.9577 7.53712 52.5354 7.74482 52.322C8.28422 51.7677 9.00312 51.2189 9.66752 50.854C10.1128 50.6095 10.3773 50.4929 10.8416 50.3364C11.289 50.1855 11.592 50.1158 12.1418 50.037C12.3153 50.0122 13.1665 49.9896 13.3504 50.005Z" fill="#EBF9FF"/>
<path fill-rule="evenodd" clip-rule="evenodd" d="M40.7065 30.5989C41.8679 30.6607 42.7264 30.789 43.6898 31.0447C44.8693 31.3577 45.8669 31.7536 46.8671 32.3057L47.1726 32.4743L56.347 32.4745L65.5214 32.4747L65.4544 32.528C64.8229 33.0304 64.0383 33.7763 63.4578 34.4261C62.6767 35.3007 61.9946 36.2671 61.4008 37.3404C61.1801 37.7392 60.7622 38.6019 60.7622 38.6586C60.7622 38.6676 60.8336 38.6902 60.9208 38.7087C61.4497 38.8211 62.2238 39.0416 62.8389 39.2553C64.1825 39.7219 65.6232 40.4798 66.8261 41.3529L67.1117 41.5601H78.7428H90.374L90.386 41.6136C90.392 41.6431 90.405 41.6978 90.414 41.7352C90.423 41.7727 90.465 41.9959 90.507 42.2314C90.737 43.498 90.803 44.7338 90.719 46.1517C90.615 47.8893 90.173 49.7191 89.453 51.3912C88.077 54.5836 85.611 57.2986 82.5769 58.9625C80.4743 60.1154 78.0936 60.7859 75.8376 60.8606C75.5362 60.8705 74.5265 60.8789 73.5938 60.8792L71.898 60.8797L71.6726 61.3223C71.4 61.8576 71.2297 62.166 71.0144 62.5139C70.4788 63.3797 69.9177 64.1401 69.3225 64.8071C69.0243 65.1413 68.3106 65.854 67.9919 66.1358C66.3488 67.5892 64.4462 68.6774 62.4063 69.3309C61.1644 69.7287 59.7323 69.9908 58.5124 70.0436C57.9363 70.0685 23.7068 70.0671 23.5928 70.0421C23.5452 70.0317 23.3722 70.0056 23.2082 69.9841C23.0443 69.9626 22.7568 69.919 22.5694 69.8873C19.2817 69.3312 16.3272 67.4612 14.3693 64.6971C13.5502 63.5407 12.8839 62.168 12.5183 60.8833C12.1202 59.4848 11.9732 58.3207 12.004 56.8134C12.037 55.1952 12.427 53.4767 13.1077 51.9495C13.3899 51.3163 13.8433 50.4915 14.1655 50.0254C14.7157 49.2293 15.198 48.6489 15.8166 48.0387C17.2543 46.6204 18.8508 45.6382 20.7528 45.0018C22.3899 44.4541 24.188 44.258 25.9835 44.4313C26.1615 44.4484 26.3124 44.4572 26.3188 44.4507C26.3252 44.4442 26.3377 44.2617 26.3466 44.0452C26.4106 42.4808 26.7231 40.9616 27.272 39.5465C27.4832 39.002 27.5706 38.8006 27.7745 38.3889C28.4625 36.999 29.2159 35.9358 30.3454 34.7606C30.7829 34.3054 31.146 33.98 31.7407 33.51C33.0242 32.4957 34.5619 31.6941 36.207 31.1817C36.4347 31.1108 37.2515 30.906 37.5241 30.8515C37.9569 30.7651 38.7435 30.6617 39.2259 30.6279C39.5243 30.607 40.4998 30.5879 40.7065 30.5989Z" fill="#B9E3F8"/>
<path fill-rule="evenodd" clip-rule="evenodd" d="M40.9034 29.0058C41.4738 29.0405 42.1993 29.1229 42.6243 29.2011C42.7671 29.2274 42.9493 29.2609 43.0293 29.2757C43.2328 29.3133 44.077 29.5379 44.4218 29.6463C45.2169 29.8962 46.0653 30.2587 46.8231 30.6724L47.1527 30.8524L56.3323 30.8621L65.5119 30.8718L65.2641 31.0756C64.6828 31.5536 63.8559 32.3581 63.3438 32.9439C62.5551 33.8459 61.8542 34.873 61.25 36.0119C61.0956 36.303 60.7994 36.9253 60.7688 37.0229C60.7565 37.0623 60.7675 37.0676 60.9439 37.1075C61.5846 37.2523 62.3554 37.4731 62.9021 37.6684C64.2791 38.1602 65.6697 38.8981 66.8815 39.7801L67.1122 39.9479H78.7483H90.384L90.463 40.3614C90.674 41.4698 90.754 42.2869 90.754 43.345C90.754 45.1149 90.564 46.4375 90.073 48.0863C89.634 49.561 88.891 51.1134 87.999 52.4191C86.696 54.3268 84.9997 55.9195 83.0146 57.099C82.6656 57.3063 81.8649 57.7218 81.4955 57.8872C79.9832 58.5644 78.4816 58.9771 76.8283 59.1701C76.3502 59.2259 75.8521 59.2474 75.033 59.2477C74.6407 59.2479 73.7726 59.2538 73.1038 59.261L71.8877 59.2739L71.7138 59.6257C71.363 60.3353 71.1387 60.7264 70.6982 61.3961C70.0418 62.3939 69.4821 63.0728 68.5715 63.9758C67.803 64.7379 66.9848 65.3941 66.0717 65.9806C63.8607 67.4007 61.4954 68.1868 58.7477 68.4147C58.3304 68.4494 23.6347 68.4519 23.5666 68.4174C23.5413 68.4045 23.3993 68.3798 23.2513 68.3625C20.8328 68.0805 18.5087 67.0806 16.6426 65.5194C16.1652 65.1201 15.4864 64.4509 15.1162 64.0147L12.5289 59.2204C12.2962 58.4065 12.0662 56.7577 12.0662 56.7577C12.0662 56.7577 12.0328 54.7417 12.0667 54.423C12.1078 54.0359 12.2013 53.384 12.2537 53.1195C12.3254 52.7574 12.5151 52.023 12.6272 51.6735C12.9578 50.6427 13.4082 49.6694 13.9858 48.7376C14.0636 48.6122 14.1272 48.5006 14.1272 48.4895C14.1272 48.4786 14.1346 48.4695 14.1436 48.4695C14.1526 48.4695 14.1999 48.4087 14.2488 48.3344C14.3381 48.1985 14.7905 47.5902 14.9369 47.4092C15.2969 46.9639 15.9053 46.3386 16.4211 45.8836C17.4451 44.9803 18.7414 44.1826 20.0167 43.6712C21.0867 43.2421 22.2289 42.9587 23.3763 42.8378C24.0988 42.7616 25.0124 42.7458 25.6356 42.7986C25.826 42.8148 26.0652 42.8335 26.1671 42.8402L26.3525 42.8525L26.3645 42.5821C26.4415 40.8425 26.7043 39.5085 27.2607 38.0315C27.8682 36.4192 28.748 34.9493 29.8458 33.7124C30.1298 33.3924 30.6484 32.8597 30.922 32.607C31.1579 32.389 31.747 31.9051 32.0742 31.6606C32.9238 31.0255 34.056 30.3967 35.1026 29.9786C35.8039 29.6984 36.2205 29.5648 36.9518 29.3854C37.6566 29.2126 38.1339 29.1327 38.9997 29.0424C39.273 29.014 40.6137 28.9881 40.9034 29.0058Z" fill="#EBF9FF"/>
<path fill-rule="evenodd" clip-rule="evenodd" d="M29.7065 16.5989C30.8679 16.6607 31.7264 16.789 32.6898 17.0447C33.8693 17.3577 34.8669 17.7536 35.8671 18.3057L36.1726 18.4743L45.347 18.4745L54.5214 18.4747L54.4544 18.528C53.8229 19.0304 53.0383 19.7763 52.4578 20.4261C51.6767 21.3007 50.9946 22.2671 50.4008 23.3404C50.1801 23.7392 49.7622 24.6019 49.7622 24.6586C49.7622 24.6676 49.8336 24.6902 49.9208 24.7087C50.4497 24.8211 51.2238 25.0416 51.8389 25.2553C53.1825 25.7219 54.6232 26.4798 55.8261 27.3529L56.1117 27.5601H67.7428H79.3739L79.3858 27.6136C79.3924 27.6431 79.405 27.6978 79.4138 27.7352C79.4227 27.7727 79.4648 27.9959 79.5074 28.2314C79.7368 29.498 79.8035 30.7338 79.719 32.1517C79.6154 33.8893 79.1732 35.7191 78.4527 37.3912C77.077 40.5836 74.6115 43.2986 71.5769 44.9625C69.4743 46.1154 67.0936 46.7859 64.8376 46.8606C64.5362 46.8705 63.5265 46.8789 62.5938 46.8792L60.898 46.8797L60.6726 47.3223C60.4 47.8576 60.2297 48.166 60.0144 48.5139C59.4788 49.3797 58.9177 50.1401 58.3225 50.8071C58.0243 51.1413 57.3106 51.854 56.9919 52.1358C55.3488 53.5892 53.4462 54.6774 51.4063 55.3309C50.1644 55.7287 48.7323 55.9908 47.5124 56.0436C46.9363 56.0685 12.7068 56.0671 12.5928 56.0421C12.5452 56.0317 12.3722 56.0056 12.2082 55.9841C12.0443 55.9626 11.7568 55.919 11.5694 55.8873C8.28172 55.3312 5.32722 53.4612 3.36932 50.6971C2.55022 49.5407 1.88392 48.168 1.51832 46.8833C1.12022 45.4848 0.973216 44.3207 1.00402 42.8134C1.03702 41.1952 1.42702 39.4767 2.10772 37.9495C2.38992 37.3163 2.84332 36.4915 3.16552 36.0254C3.71572 35.2293 4.19802 34.6489 4.81662 34.0387C6.25432 32.6204 7.85082 31.6382 9.75282 31.0018C11.3899 30.4541 13.188 30.258 14.9835 30.4313C15.1615 30.4484 15.3124 30.4572 15.3188 30.4507C15.3252 30.4442 15.3377 30.2617 15.3466 30.0452C15.4106 28.4808 15.7231 26.9616 16.272 25.5465C16.4832 25.002 16.5706 24.8006 16.7745 24.3889C17.4625 22.999 18.2159 21.9358 19.3454 20.7606C19.7829 20.3054 20.146 19.98 20.7407 19.51C22.0242 18.4957 23.5619 17.6941 25.207 17.1817C25.4347 17.1108 26.2515 16.906 26.5241 16.8515C26.9569 16.7651 27.7435 16.6617 28.2259 16.6279C28.5243 16.607 29.4998 16.5879 29.7065 16.5989Z" fill="#B9E3F8"/>
<path fill-rule="evenodd" clip-rule="evenodd" d="M29.9034 15.0058C30.4738 15.0405 31.1993 15.1229 31.6243 15.2011C31.7671 15.2274 31.9493 15.2609 32.0293 15.2757C32.2328 15.3133 33.077 15.5379 33.4218 15.6463C34.2169 15.8962 35.0653 16.2587 35.8231 16.6724L36.1527 16.8524L45.3323 16.8621L54.5119 16.8718L54.2641 17.0756C53.6828 17.5536 52.8559 18.3581 52.3438 18.9439C51.5551 19.8459 50.8542 20.873 50.25 22.0119C50.0956 22.303 49.7994 22.9253 49.7688 23.0229C49.7565 23.0623 49.7675 23.0676 49.9439 23.1075C50.5846 23.2523 51.3554 23.4731 51.9021 23.6684C53.2791 24.1602 54.6697 24.8981 55.8815 25.7801L56.1122 25.9479H67.7483H79.3845L79.4633 26.3614C79.6744 27.4698 79.7541 28.2869 79.7542 29.345C79.7542 31.1149 79.5643 32.4375 79.0731 34.0863C78.6338 35.561 77.8906 37.1134 76.9989 38.4191C75.696 40.3268 73.9997 41.9195 72.0146 43.099C71.6656 43.3063 70.8649 43.7218 70.4955 43.8872C68.9832 44.5644 67.4816 44.9771 65.8283 45.1701C65.3502 45.2259 64.8521 45.2474 64.033 45.2477C63.6407 45.2479 62.7726 45.2538 62.1038 45.261L60.8877 45.2739L60.7138 45.6257C60.363 46.3353 60.1387 46.7264 59.6982 47.3961C59.0418 48.3939 58.4821 49.0728 57.5715 49.9758C56.803 50.7379 55.9848 51.3941 55.0717 51.9806C52.8607 53.4007 50.4954 54.1868 47.7477 54.4147C47.3304 54.4494 12.6347 54.4519 12.5666 54.4174C12.5413 54.4045 12.3993 54.3798 12.2513 54.3625C9.83281 54.0805 7.50871 53.0806 5.64261 51.5194C5.16521 51.1201 4.48641 50.4509 4.11621 50.0147L1.52891 45.2204C1.29621 44.4065 1.06621 42.7577 1.06621 42.7577C1.06621 42.7577 1.03281 40.7417 1.06671 40.423C1.10781 40.0359 1.20131 39.384 1.25371 39.1195C1.32541 38.7574 1.51511 38.023 1.62721 37.6735C1.95781 36.6427 2.40821 35.6694 2.98581 34.7376C3.06361 34.6122 3.12721 34.5006 3.12721 34.4895C3.12721 34.4786 3.13461 34.4695 3.14361 34.4695C3.15261 34.4695 3.19991 34.4087 3.24881 34.3344C3.33811 34.1985 3.79051 33.5902 3.93691 33.4092C4.29691 32.9639 4.90531 32.3386 5.42111 31.8836C6.44511 30.9803 7.74141 30.1826 9.01671 29.6712C10.0867 29.2421 11.2289 28.9587 12.3763 28.8378C13.0988 28.7616 14.0124 28.7458 14.6356 28.7986C14.826 28.8148 15.0652 28.8335 15.1671 28.8402L15.3525 28.8525L15.3645 28.5821C15.4415 26.8425 15.7043 25.5085 16.2607 24.0315C16.8682 22.4192 17.748 20.9493 18.8458 19.7124C19.1298 19.3924 19.6484 18.8597 19.922 18.607C20.1579 18.389 20.747 17.9051 21.0742 17.6606C21.9238 17.0255 23.056 16.3967 24.1026 15.9786C24.8039 15.6984 25.2205 15.5648 25.9518 15.3854C26.6566 15.2126 27.1339 15.1327 27.9997 15.0424C28.273 15.014 29.6137 14.9881 29.9034 15.0058Z" fill="#EBF9FF"/>
<path fill-rule="evenodd" clip-rule="evenodd" d="M69.7257 5.04562C71.2114 5.12472 72.3098 5.28882 73.5423 5.61592C75.0514 6.01642 76.3277 6.52292 77.6073 7.22922L77.9981 7.44492L89.735 7.44522L101.473 7.44552L101.387 7.51362C100.579 8.15632 99.575 9.11062 98.833 9.94192C97.833 11.0608 96.961 12.2972 96.201 13.6703C95.919 14.1806 95.384 15.2843 95.384 15.3567C95.384 15.3683 95.475 15.3972 95.587 15.4209C96.264 15.5646 97.254 15.8468 98.041 16.1201C99.76 16.7171 101.603 17.6867 103.142 18.8037L103.507 19.0689H118.387H133.268L133.283 19.1373C133.291 19.175 133.307 19.245 133.319 19.2929C133.33 19.3408 133.384 19.6264 133.438 19.9276C133.732 21.5481 133.817 23.1291 133.709 24.9431C133.577 27.1661 133.011 29.507 132.089 31.6462C130.329 35.7305 127.175 39.2039 123.293 41.3326C120.603 42.8075 117.557 43.6653 114.671 43.7609C114.285 43.7736 112.993 43.7843 111.8 43.7847L109.631 43.7853L109.342 44.3516C108.993 45.0365 108.776 45.431 108.5 45.8761C107.815 46.9837 107.097 47.9566 106.336 48.8099C105.954 49.2374 105.041 50.1492 104.633 50.5098C102.531 52.3691 100.097 53.7614 97.487 54.5974C95.898 55.1064 94.066 55.4417 92.506 55.5091C91.769 55.541 47.9771 55.5392 47.8313 55.5073C47.7704 55.494 47.549 55.4606 47.3393 55.4331C47.1295 55.4055 46.7617 55.3498 46.522 55.3092C42.3158 54.5978 38.536 52.2054 36.0312 48.6692C34.9832 47.1897 34.1308 45.4335 33.6631 43.79C33.1538 42.0008 32.9656 40.5115 33.0051 38.5832C33.0474 36.5128 33.5463 34.3143 34.4171 32.3605C34.7781 31.5504 35.3583 30.4952 35.7704 29.8989C36.4744 28.8804 37.0914 28.1379 37.8827 27.3573C39.7221 25.5427 41.7646 24.2861 44.1979 23.472C46.2923 22.7713 48.5928 22.5204 50.8898 22.742C51.1175 22.764 51.3105 22.7752 51.3187 22.7669C51.3269 22.7586 51.3429 22.5252 51.3543 22.2482C51.4362 20.2468 51.836 18.3031 52.5383 16.4927C52.8085 15.7961 52.9203 15.5384 53.1811 15.0117C54.0614 13.2335 55.0251 11.8734 56.4701 10.3699C57.0299 9.78752 57.4944 9.37122 58.2552 8.76992C59.8973 7.47232 61.8646 6.44672 63.9692 5.79122C64.2605 5.70042 65.3055 5.43852 65.6543 5.36882C66.2079 5.25822 67.2143 5.12592 67.8314 5.08272C68.2133 5.05602 69.4612 5.03152 69.7257 5.04562Z" fill="#B9E3F8"/>
<path fill-rule="evenodd" clip-rule="evenodd" d="M69.9775 3.00739C70.7073 3.05179 71.6355 3.15719 72.1793 3.25729C72.3619 3.29089 72.595 3.33379 72.6973 3.35269C72.9577 3.40079 74.0377 3.68819 74.4789 3.82679C75.4961 4.14649 76.5814 4.61029 77.5509 5.13959L77.9727 5.36989L89.717 5.38229L101.46 5.39469L101.143 5.65539C100.4 6.26699 99.342 7.29619 98.687 8.04559C97.678 9.19959 96.781 10.5137 96.008 11.9706C95.81 12.3431 95.432 13.1393 95.392 13.2642C95.377 13.3145 95.391 13.3213 95.616 13.3723C96.436 13.5576 97.422 13.8401 98.122 14.0899C99.883 14.7191 101.662 15.6631 103.213 16.7915L103.508 17.0062H118.395H133.281L133.382 17.5352C133.652 18.9532 133.754 19.9987 133.754 21.3522C133.754 23.6166 133.511 25.3087 132.883 27.418C132.321 29.3048 131.37 31.2908 130.229 32.9612C128.562 35.4018 126.392 37.4394 123.853 38.9484C123.406 39.2137 122.382 39.7452 121.909 39.9569C119.974 40.8232 118.053 41.3513 115.938 41.5981C115.326 41.6695 114.689 41.6971 113.641 41.6975C113.139 41.6977 112.029 41.7053 111.173 41.7144L109.617 41.7309L109.395 42.1811C108.946 43.0889 108.659 43.5892 108.096 44.4459C107.256 45.7225 106.54 46.591 105.375 47.7462C104.392 48.7213 103.345 49.5608 102.177 50.3111C99.348 52.128 96.322 53.1337 92.807 53.4253C92.273 53.4696 47.8848 53.4729 47.7978 53.4286C47.7653 53.4121 47.5837 53.3805 47.3943 53.3584C44.3002 52.9976 41.3269 51.7185 38.9395 49.7211C38.3288 49.2102 37.4604 48.3541 36.9868 47.796L33.6767 41.6625C33.379 40.6212 33.0847 38.5118 33.0847 38.5118C33.0847 38.5118 33.042 35.9327 33.0853 35.5249C33.1379 35.0297 33.2576 34.1956 33.3246 33.8572C33.4163 33.3941 33.659 32.4545 33.8024 32.0074C34.2254 30.6886 34.8016 29.4434 35.5405 28.2513C35.64 28.0908 35.7214 27.948 35.7214 27.934C35.7214 27.9199 35.7309 27.9084 35.7424 27.9084C35.754 27.9084 35.8145 27.8306 35.877 27.7355C35.9913 27.5616 36.57 26.7834 36.7573 26.5518C37.2179 25.9822 37.9962 25.1822 38.6561 24.6C39.9662 23.4444 41.6246 22.4239 43.2562 21.7696C44.6251 21.2206 46.0863 20.8581 47.5542 20.7034C48.4786 20.6059 49.6475 20.5857 50.4448 20.6533C50.6883 20.6739 50.9943 20.6979 51.1247 20.7065L51.3619 20.7222L51.3772 20.3763C51.4758 18.1507 51.8119 16.4441 52.5238 14.5545C53.301 12.4917 54.4266 10.6112 55.831 9.02879C56.1944 8.61939 56.8579 7.93789 57.2078 7.61459C57.5096 7.33579 58.2634 6.71659 58.6819 6.40379C59.7688 5.59139 61.2174 4.78679 62.5563 4.25189C63.4535 3.89349 63.9865 3.72249 64.9221 3.49309C65.8237 3.27199 66.4344 3.16969 67.5421 3.05429C67.8917 3.01789 69.607 2.98479 69.9775 3.00739Z" fill="#EBF9FF"/>
</g>
<path fill-rule="evenodd" clip-rule="evenodd" d="M6.93936 109.019C-0.213263 114.814 -2.38332 120.585 3.18671 119C7.07978 117.892 13.0831 109.2 9.97976 109.109C9.47052 109.094 9.15159 107.227 6.93936 109.019Z" fill="#B9E3F8"/>
<path fill-rule="evenodd" clip-rule="evenodd" d="M61.8199 108.942C54.7353 114.82 52.6327 120.616 58.1839 118.966C62.0638 117.813 67.9653 109.051 64.8611 108.996C64.3517 108.987 64.0111 107.124 61.8199 108.942Z" fill="#B9E3F8"/>
<path d="M31.9592 94.8487C32.9905 94.9079 32.4651 94.199 31.7652 93.7936C31.0656 93.3884 31.6452 92.3776 32.3654 92.8629C33.086 93.3475 33.6376 94.4753 34.1114 94.3455C34.49 94.2421 35.1212 94.07 35.3585 94.005C35.3513 93.8205 35.3715 93.6317 35.4216 93.4442C35.4717 93.2567 35.5483 93.0829 35.6465 92.9268C35.4732 92.7524 35.0121 92.288 34.7354 92.0095C34.3893 91.6613 33.3488 92.3635 32.4825 92.4245C31.6164 92.4856 31.6181 91.3203 32.4265 91.3179C33.2353 91.3156 34.0441 90.9635 33.1208 90.5001C32.1974 90.0377 31.5049 89.1087 31.9689 88.6404C32.433 88.1721 33.3544 88.8688 33.8153 89.7994C34.2751 90.7293 34.6232 89.913 34.6247 89.0978C34.6263 88.2822 35.7807 88.2788 35.7216 89.1525C35.6629 90.0263 34.9678 91.0773 35.3137 91.4252C35.591 91.7044 36.0523 92.1689 36.2254 92.3433C36.5384 92.1425 36.9096 92.0365 37.2931 92.0508C37.3569 91.8121 37.5272 91.1746 37.6293 90.7922C37.7569 90.3146 36.6383 89.7598 36.1558 89.0339C35.6741 88.3082 36.6751 87.7222 37.0786 88.427C37.4817 89.1322 38.1848 89.661 38.1247 88.621C38.0646 87.5815 38.5186 86.5085 39.1512 86.6774C39.7832 86.8462 39.6419 88.0028 39.0714 88.8738C38.5007 89.7454 39.3737 89.6376 40.0745 89.2272C40.7757 88.8175 41.3513 89.8246 40.5718 90.2134C39.7919 90.6021 38.5454 90.5252 38.4179 91.0028C38.3157 91.3851 38.1454 92.0227 38.0816 92.2614C38.4212 92.4402 38.6904 92.7172 38.8613 93.0474C39.0983 92.9825 39.7298 92.8099 40.1094 92.7062C40.5827 92.5771 40.505 91.3196 40.8891 90.5327C41.2735 89.746 42.2727 90.3246 41.8671 91.0323C41.4622 91.7398 41.3559 92.6207 42.2189 92.044C43.0824 91.4673 44.2285 91.3228 44.3972 91.9602C44.5659 92.5975 43.5024 93.0574 42.4715 92.9978C41.4405 92.9392 41.966 93.6477 42.6657 94.053C43.3648 94.458 42.7857 95.4691 42.0654 94.9842C41.3449 94.4994 40.7929 93.3717 40.3195 93.5011C39.9406 93.6044 39.3093 93.7771 39.0726 93.842C39.0796 94.0262 39.0591 94.2149 39.009 94.4024C38.959 94.5899 38.8826 94.7637 38.7846 94.9201C38.9573 95.0947 39.4186 95.5586 39.6955 95.8371C40.0412 96.1858 41.0821 95.4834 41.9483 95.4226C42.8145 95.3611 42.8123 96.5261 42.0044 96.5287C41.1958 96.5311 40.3864 96.8835 41.3099 97.3464C42.2332 97.8088 42.9258 98.7378 42.4617 99.2061C41.9976 99.6747 41.0762 98.9777 40.6153 98.0472C40.1548 97.117 39.8077 97.9336 39.8059 98.7488C39.8046 99.5644 38.6499 99.5677 38.709 98.6941C38.7684 97.8208 39.4627 96.77 39.117 96.4213C38.8397 96.1422 38.3783 95.6777 38.2052 95.5035C37.8924 95.7044 37.521 95.8101 37.1376 95.7957C37.0738 96.0345 36.9035 96.672 36.8013 97.0544C36.6738 97.5319 37.7926 98.0869 38.2748 98.8127C38.7565 99.5384 37.7555 100.124 37.352 99.4195C36.9492 98.7144 36.2461 98.1856 36.3062 99.2256C36.3664 100.265 35.9122 101.338 35.2802 101.169C34.6476 101 34.7891 99.8441 35.3595 98.9728C35.9302 98.1012 35.0572 98.209 34.3561 98.6193C33.6549 99.029 33.0794 98.022 33.8588 97.6331C34.639 97.2445 35.8853 97.3213 36.0128 96.8438C36.1149 96.4614 36.2852 95.8239 36.349 95.5851C36.0095 95.4063 35.7405 95.1296 35.5693 94.7994C35.3324 94.8641 34.7008 95.0366 34.3213 95.1403C33.8478 95.2702 33.9263 96.5274 33.5415 97.3138C33.1572 98.1006 32.1582 97.522 32.5635 96.8143C32.9687 96.1068 33.0747 95.2258 32.2118 95.8025C31.3482 96.3793 30.2021 96.5239 30.0334 95.8864C29.8647 95.249 30.9283 94.7891 31.9592 94.8487ZM36.9415 94.95C37.5024 95.0998 38.0803 94.762 38.2318 94.1948C38.3833 93.6279 38.0508 93.0468 37.4899 92.897C36.9282 92.747 36.3505 93.0849 36.1991 93.6518C36.0476 94.219 36.3798 94.7999 36.9415 94.95Z" fill="#CAEFFF"/>
<path d="M85.0052 103.187C85.7994 102.526 84.9316 102.367 84.1433 102.548C83.3555 102.729 83.0892 101.595 83.9468 101.458C84.8042 101.321 85.9772 101.768 86.2348 101.35C86.441 101.016 86.7849 100.46 86.9139 100.25C86.7828 100.12 86.6687 99.9684 86.5773 99.7972C86.486 99.626 86.4234 99.4467 86.3886 99.2656C86.1429 99.2564 85.4889 99.2317 85.0966 99.217C84.606 99.1986 84.3248 100.422 83.7332 101.058C83.1419 101.694 82.3479 100.841 82.937 100.287C83.5267 99.7335 83.8775 98.9242 82.8863 99.2157C81.8959 99.5079 80.7557 99.3015 80.7753 98.6426C80.7948 97.9836 81.9438 97.8639 82.9158 98.2295C83.8865 98.5954 83.5838 97.7612 83.0285 97.1643C82.4731 96.5671 83.3145 95.7768 83.8676 96.4557C84.421 97.1344 84.6303 98.377 85.1206 98.3952C85.5138 98.41 86.168 98.4347 86.4135 98.444C86.5052 98.0836 86.7042 97.7528 86.9943 97.5015C86.8779 97.2835 86.5673 96.7013 86.381 96.3521C86.1483 95.916 84.9521 96.2739 84.104 96.0726C83.2566 95.871 83.5884 94.7595 84.3643 94.9993C85.1403 95.2396 86.015 95.1463 85.2612 94.4272C84.5079 93.7084 84.1074 92.6142 84.6851 92.306C85.2622 91.998 85.9483 92.9398 86.1258 93.9659C86.3034 94.9923 86.868 94.3177 87.1001 93.5395C87.333 92.7615 88.441 93.1048 88.1367 93.9209C87.8319 94.7373 86.8684 95.5318 87.101 95.9679C87.2874 96.3171 87.598 96.8993 87.7143 97.1173C88.0845 97.0162 88.4703 97.035 88.8206 97.1596C88.9495 96.9505 89.2933 96.3934 89.5 96.0585C89.7578 95.6411 88.8428 94.775 88.5865 93.9378C88.3305 93.1004 89.4558 92.8414 89.6423 93.6354C89.8291 94.4289 90.3527 95.1453 90.5899 94.1348C90.8273 93.1239 91.5665 92.2362 92.1248 92.5868C92.6831 92.9375 92.2196 93.9995 91.4254 94.6595C90.6319 95.3203 91.4995 95.4795 92.2876 95.2982C93.0749 95.1172 93.3417 96.2513 92.4843 96.3885C91.6268 96.5259 90.4538 96.0785 90.1961 96.4961C89.9896 96.8302 89.6461 97.3872 89.5173 97.5963C89.6482 97.7261 89.762 97.878 89.8534 98.0492C89.9447 98.2204 90.0075 98.3996 90.0426 98.5808C90.2881 98.5905 90.9418 98.6148 91.3343 98.6293C91.8249 98.6483 92.1063 97.4245 92.698 96.7889C93.2891 96.1527 94.0826 97.0058 93.4939 97.559C92.9045 98.1126 92.5534 98.9226 93.5443 98.6307C94.5348 98.3385 95.675 98.5448 95.6554 99.2039C95.6359 99.8631 94.4868 99.9825 93.5149 99.6169C92.5435 99.2513 92.8471 100.085 93.4022 100.682C93.9578 101.279 93.1161 102.07 92.5631 101.391C92.0105 100.712 91.8007 99.4701 91.3101 99.4512C90.9169 99.4364 90.2627 99.4117 90.0173 99.4026C89.9258 99.7629 89.7265 100.094 89.4364 100.345C89.5528 100.563 89.8634 101.145 90.0497 101.494C90.2824 101.93 91.4788 101.572 92.3266 101.774C93.1741 101.975 92.8423 103.087 92.0663 102.847C91.2906 102.607 90.4159 102.7 91.1697 103.419C91.9233 104.138 92.3234 105.232 91.7462 105.54C91.1686 105.848 90.4829 104.907 90.3051 103.88C90.1274 102.854 89.5629 103.529 89.3305 104.307C89.0976 105.085 87.9897 104.742 88.294 103.925C88.5989 103.109 89.5623 102.315 89.3296 101.879C89.1433 101.529 88.8327 100.947 88.7163 100.729C88.3461 100.83 87.9607 100.812 87.6102 100.687C87.4812 100.896 87.1373 101.453 86.9307 101.788C86.6732 102.206 87.5887 103.071 87.8441 103.909C88.1002 104.746 86.9751 105.005 86.7884 104.211C86.6017 103.417 86.0779 102.701 85.8408 103.712C85.6032 104.723 84.8642 105.61 84.3058 105.26C83.7476 104.909 84.211 103.847 85.0052 103.187ZM88.7159 99.8605C89.2281 99.5872 89.42 98.9458 89.1436 98.4279C88.8674 97.9102 88.2278 97.7124 87.7156 97.9857C87.2027 98.2594 87.011 98.9006 87.2873 99.4184C87.5636 99.9363 88.203 100.134 88.7159 99.8605Z" fill="#CAEFFF"/>
</g>
</svg>
