<svg width="100" height="100" viewBox="0 0 110 119" fill="none" xmlns="http://www.w3.org/2000/svg">
<g clip-path="url(#clip0_33_96)">
<g mask="url(#mask0_33_96)">
<path fill-rule="evenodd" clip-rule="evenodd" d="M44.7065 44.5989C45.8679 44.6607 46.7264 44.789 47.6898 45.0447C48.8693 45.3577 49.8669 45.7536 50.8671 46.3057L51.1726 46.4743L60.347 46.4745L69.5214 46.4747L69.4544 46.528C68.8229 47.0304 68.0383 47.7763 67.4578 48.4261C66.6767 49.3007 65.9946 50.2671 65.4008 51.3404C65.1801 51.7392 64.7622 52.6019 64.7622 52.6586C64.7622 52.6676 64.8336 52.6902 64.9208 52.7087C65.4497 52.8211 66.2238 53.0416 66.8389 53.2553C68.1825 53.7219 69.6232 54.4798 70.8261 55.3529L71.1117 55.5601H82.7428H94.374L94.386 55.6136C94.392 55.6431 94.405 55.6978 94.414 55.7352C94.423 55.7727 94.465 55.9959 94.507 56.2314C94.737 57.498 94.803 58.7338 94.719 60.1517C94.615 61.8893 94.173 63.7191 93.453 65.3912C92.077 68.5836 89.611 71.2986 86.577 72.9625C84.4743 74.1154 82.0936 74.7859 79.8376 74.8606C79.5362 74.8705 78.5265 74.8789 77.5938 74.8792L75.898 74.8797L75.6726 75.3223C75.4 75.8576 75.2297 76.166 75.0144 76.5139C74.4788 77.3797 73.9177 78.1401 73.3225 78.8071C73.0243 79.1413 72.3106 79.854 71.9919 80.1358C70.3488 81.5892 68.4462 82.6774 66.4063 83.3309C65.1644 83.7287 63.7323 83.9908 62.5124 84.0436C61.9363 84.0685 27.7068 84.0671 27.5928 84.0421C27.5452 84.0317 27.3722 84.0056 27.2082 83.9841C27.0443 83.9626 26.7568 83.919 26.5694 83.8873C23.2817 83.3312 20.3272 81.4612 18.3693 78.6971C17.5502 77.5407 16.8839 76.168 16.5183 74.8833C16.1202 73.4848 15.9732 72.3207 16.004 70.8134C16.037 69.1952 16.427 67.4767 17.1077 65.9495C17.3899 65.3163 17.8433 64.4915 18.1655 64.0254C18.7157 63.2293 19.198 62.6489 19.8166 62.0387C21.2543 60.6204 22.8508 59.6382 24.7528 59.0018C26.3899 58.4541 28.188 58.258 29.9835 58.4313C30.1615 58.4484 30.3124 58.4572 30.3188 58.4507C30.3252 58.4442 30.3377 58.2617 30.3466 58.0452C30.4106 56.4808 30.7231 54.9616 31.272 53.5465C31.4832 53.002 31.5706 52.8006 31.7745 52.3889C32.4625 50.999 33.2159 49.9358 34.3454 48.7606C34.7829 48.3054 35.146 47.98 35.7407 47.51C37.0242 46.4957 38.5619 45.6941 40.207 45.1817C40.4347 45.1108 41.2515 44.906 41.5241 44.8515C41.9569 44.7651 42.7435 44.6617 43.2259 44.6279C43.5243 44.607 44.4998 44.5879 44.7065 44.5989Z" fill="#B9E3F8"/>
<path fill-rule="evenodd" clip-rule="evenodd" d="M44.9034 43.0058C45.4738 43.0405 46.1993 43.1229 46.6243 43.2011C46.7671 43.2274 46.9493 43.2609 47.0293 43.2757C47.2328 43.3133 48.077 43.5379 48.4218 43.6463C49.2169 43.8962 50.0653 44.2587 50.8231 44.6724L51.1527 44.8524L60.3323 44.8621L69.5119 44.8718L69.2641 45.0756C68.6828 45.5536 67.8559 46.3581 67.3438 46.9439C66.5551 47.8459 65.8542 48.873 65.25 50.0119C65.0956 50.303 64.7994 50.9253 64.7688 51.0229C64.7565 51.0623 64.7675 51.0676 64.9439 51.1075C65.5846 51.2523 66.3554 51.4731 66.9021 51.6684C68.2791 52.1602 69.6697 52.8981 70.8815 53.7801L71.1122 53.9479H82.7483H94.384L94.463 54.3614C94.674 55.4698 94.754 56.2869 94.754 57.345C94.754 59.1149 94.564 60.4375 94.073 62.0863C93.634 63.561 92.891 65.1134 91.999 66.4191C90.696 68.3268 89 69.9195 87.015 71.099C86.666 71.3063 85.865 71.7218 85.495 71.8872C83.9832 72.5644 82.4816 72.9771 80.8283 73.1701C80.3502 73.2259 79.8521 73.2474 79.033 73.2477C78.6407 73.2479 77.7726 73.2538 77.1038 73.261L75.8877 73.2739L75.7138 73.6257C75.363 74.3353 75.1387 74.7264 74.6982 75.3961C74.0418 76.3939 73.4821 77.0728 72.5715 77.9758C71.803 78.7379 70.9848 79.3941 70.0717 79.9806C67.8607 81.4007 65.4954 82.1868 62.7477 82.4147C62.3304 82.4494 27.6347 82.4519 27.5666 82.4174C27.5413 82.4045 27.3993 82.3798 27.2513 82.3625C24.8328 82.0805 22.5087 81.0806 20.6426 79.5194C20.1652 79.1201 19.4864 78.4509 19.1162 78.0147L16.5289 73.2204C16.2962 72.4065 16.0662 70.7577 16.0662 70.7577C16.0662 70.7577 16.0328 68.7417 16.0667 68.423C16.1078 68.0359 16.2013 67.384 16.2537 67.1195C16.3254 66.7574 16.5151 66.023 16.6272 65.6735C16.9578 64.6427 17.4082 63.6694 17.9858 62.7376C18.0636 62.6122 18.1272 62.5006 18.1272 62.4895C18.1272 62.4786 18.1346 62.4695 18.1436 62.4695C18.1526 62.4695 18.1999 62.4087 18.2488 62.3344C18.3381 62.1985 18.7905 61.5902 18.9369 61.4092C19.2969 60.9639 19.9053 60.3386 20.4211 59.8836C21.4451 58.9803 22.7414 58.1826 24.0167 57.6712C25.0867 57.2421 26.2289 56.9587 27.3763 56.8378C28.0988 56.7616 29.0124 56.7458 29.6356 56.7986C29.826 56.8148 30.0652 56.8335 30.1671 56.8402L30.3525 56.8525L30.3645 56.5821C30.4415 54.8425 30.7043 53.5085 31.2607 52.0315C31.8682 50.4192 32.748 48.9493 33.8458 47.7124C34.1298 47.3924 34.6484 46.8597 34.922 46.607C35.1579 46.389 35.747 45.9051 36.0742 45.6606C36.9238 45.0255 38.056 44.3967 39.1026 43.9786C39.8039 43.6984 40.2205 43.5648 40.9518 43.3854C41.6566 43.2126 42.1339 43.1327 42.9997 43.0424C43.273 43.014 44.6137 42.9881 44.9034 43.0058Z" fill="#EBF9FF"/>
<path fill-rule="evenodd" clip-rule="evenodd" d="M13.2254 51.3954C13.9627 51.4493 14.5078 51.5613 15.1194 51.7844C15.8683 52.0576 16.5017 52.4031 17.1367 52.885L17.3306 53.0321L23.1553 53.0323L28.98 53.0325L28.9375 53.079C28.5366 53.5174 28.0384 54.1684 27.6699 54.7355C27.174 55.4988 26.7409 56.3422 26.3639 57.2789C26.2238 57.627 25.9585 58.3799 25.9585 58.4293C25.9585 58.4372 26.0038 58.4569 26.0592 58.4731C26.395 58.5712 26.8864 58.7636 27.277 58.9501C28.13 59.3573 29.0447 60.0188 29.8084 60.7807L29.9897 60.9616H37.3741H44.7586L44.7662 61.0083C44.7703 61.034 44.7783 61.0817 44.7839 61.1144C44.7895 61.1471 44.8163 61.342 44.8434 61.5474C44.989 62.6529 45.0313 63.7314 44.9777 64.9688C44.9119 66.4853 44.6311 68.0822 44.1737 69.5415C43.3003 72.3277 41.735 74.6971 39.8084 76.1492C38.4735 77.1554 36.962 77.7406 35.5297 77.8058C35.3383 77.8145 34.6973 77.8218 34.1051 77.822L33.0285 77.8224L32.8854 78.2087C32.7123 78.676 32.6042 78.945 32.4675 79.2487C32.1274 80.0043 31.7712 80.6679 31.3933 81.2501C31.204 81.5417 30.7509 82.1637 30.5486 82.4097C29.5053 83.678 28.2975 84.6278 27.0023 85.1981C26.2138 85.5453 25.3046 85.7741 24.5301 85.8201C24.1644 85.8418 2.43251 85.8406 2.36011 85.8188C2.32991 85.8098 2.22001 85.787 2.11601 85.7682C2.01191 85.7494 1.82941 85.7114 1.71041 85.6837C-0.376993 85.1984 -2.25269 83.5664 -3.49579 81.1541C-4.01579 80.1448 -4.43879 78.9468 -4.67089 77.8256C-4.92369 76.6051 -5.01703 75.5891 -4.99749 74.2737C-4.97649 72.8614 -4.72889 71.3616 -4.29679 70.0288C-4.11759 69.4761 -3.82969 68.7563 -3.62519 68.3496C-3.27579 67.6547 -2.96959 67.1483 -2.57689 66.6157C-1.66409 65.3779 -0.650492 64.5207 0.557008 63.9653C1.59641 63.4873 2.73801 63.3161 3.87791 63.4673C3.99091 63.4823 4.08671 63.49 4.09081 63.4843C4.09491 63.4786 4.10281 63.3194 4.10841 63.1304C4.14911 61.7651 4.34751 60.4393 4.69601 59.2042C4.83011 58.729 4.88561 58.5533 5.01501 58.1939C5.45191 56.9809 5.93011 56.0531 6.64721 55.0274C6.92501 54.6301 7.15551 54.3461 7.53311 53.936C8.34801 53.0508 9.32431 52.3512 10.3687 51.904C10.5133 51.8421 11.0318 51.6634 11.2049 51.6159C11.4797 51.5404 11.9791 51.4501 12.2854 51.4207C12.4748 51.4025 13.0941 51.3858 13.2254 51.3954Z" fill="#B9E3F8"/>
<path fill-rule="evenodd" clip-rule="evenodd" d="M13.3504 50.005C13.7125 50.0354 14.1732 50.1072 14.443 50.1755C14.5336 50.1984 14.6493 50.2277 14.7001 50.2406C14.8293 50.2734 15.3653 50.4695 15.5842 50.564C16.089 50.7821 16.6276 51.0985 17.1087 51.4596L17.318 51.6166L23.146 51.6251L28.974 51.6336L28.8167 51.8114C28.4476 52.2286 27.9227 52.9307 27.5975 53.442C27.0968 54.2292 26.6518 55.1256 26.2682 56.1195C26.1701 56.3736 25.9821 56.9167 25.9627 57.0019C25.9549 57.0362 25.9619 57.0409 26.0739 57.0757C26.4806 57.2021 26.97 57.3948 27.3171 57.5652C28.1913 57.9944 29.0742 58.6384 29.8435 59.4081L29.99 59.5546H37.3777H44.7653L44.8153 59.9155C44.9494 60.8828 45 61.596 45 62.5193C45.0001 64.064 44.8795 65.2183 44.5676 66.6573C44.2887 67.9443 43.8169 69.2992 43.2507 70.4386C42.4235 72.1035 41.3466 73.4935 40.0862 74.5229C39.8647 74.7039 39.3563 75.0665 39.1218 75.2108C38.1617 75.8018 37.2083 76.1621 36.1586 76.3305C35.8551 76.3792 35.5389 76.398 35.0188 76.3982C34.7698 76.3984 34.2186 76.4036 33.794 76.4098L33.0219 76.4211L32.9115 76.7281C32.6888 77.3474 32.5464 77.6887 32.2667 78.2731C31.85 79.144 31.4946 79.7365 30.9165 80.5245C30.4286 81.1897 29.9091 81.7624 29.3294 82.2742C27.9257 83.5136 26.424 84.1997 24.6795 84.3986C24.4146 84.4288 2.3867 84.4311 2.3435 84.4009C2.3274 84.3896 2.2373 84.3681 2.1433 84.353C0.607802 84.1069 -0.867697 83.2343 -2.0525 81.8717C-2.3555 81.5232 -2.7865 80.9392 -3.0215 80.5585L-4.6642 76.3744C-4.8119 75.664 -4.958 74.2251 -4.958 74.2251C-4.958 74.2251 -4.9792 72.4657 -4.9577 72.1875C-4.9316 71.8497 -4.8722 71.2807 -4.8389 71.0499C-4.7934 70.7339 -4.673 70.093 -4.6018 69.7879C-4.3919 68.8883 -4.106 68.0389 -3.7392 67.2257C-3.6899 67.1162 -3.6495 67.0188 -3.6495 67.0092C-3.6495 66.9996 -3.6448 66.9917 -3.6391 66.9917C-3.6333 66.9917 -3.6033 66.9387 -3.5723 66.8738C-3.5156 66.7552 -3.2284 66.2243 -3.1354 66.0663C-2.9068 65.6777 -2.5206 65.132 -2.1931 64.7349C-1.543 63.9465 -0.719997 63.2504 0.0897026 62.8041C0.769003 62.4296 1.4942 62.1823 2.2226 62.0767C2.6814 62.0102 3.2614 61.9964 3.6571 62.0425C3.778 62.0566 3.9298 62.0729 3.9945 62.0788L4.1122 62.0895L4.1198 61.8536C4.1687 60.3353 4.3355 59.1712 4.6888 57.8821C5.0745 56.475 5.6331 55.1921 6.3301 54.1127C6.5104 53.8334 6.8396 53.3685 7.0133 53.1479C7.1631 52.9577 7.5371 52.5354 7.7448 52.322C8.2842 51.7677 9.0031 51.2189 9.6675 50.854C10.1128 50.6095 10.3773 50.4929 10.8416 50.3364C11.289 50.1855 11.592 50.1158 12.1418 50.037C12.3153 50.0122 13.1665 49.9896 13.3504 50.005Z" fill="#EBF9FF"/>
<path fill-rule="evenodd" clip-rule="evenodd" d="M40.7065 30.5989C41.8679 30.6607 42.7264 30.789 43.6898 31.0447C44.8693 31.3577 45.8669 31.7536 46.8671 32.3057L47.1726 32.4743L56.347 32.4745L65.5214 32.4747L65.4544 32.528C64.8229 33.0304 64.0383 33.7763 63.4578 34.4261C62.6767 35.3007 61.9946 36.2671 61.4008 37.3404C61.1801 37.7392 60.7622 38.6019 60.7622 38.6586C60.7622 38.6676 60.8336 38.6902 60.9208 38.7087C61.4497 38.8211 62.2238 39.0416 62.8389 39.2553C64.1825 39.7219 65.6232 40.4798 66.8261 41.3529L67.1117 41.5601H78.7428H90.374L90.386 41.6136C90.392 41.6431 90.405 41.6978 90.414 41.7352C90.423 41.7727 90.465 41.9959 90.507 42.2314C90.737 43.498 90.803 44.7338 90.719 46.1517C90.615 47.8893 90.173 49.7191 89.453 51.3912C88.077 54.5836 85.611 57.2986 82.5769 58.9625C80.4743 60.1154 78.0936 60.7859 75.8376 60.8606C75.5362 60.8705 74.5265 60.8789 73.5938 60.8792L71.898 60.8797L71.6726 61.3223C71.4 61.8576 71.2297 62.166 71.0144 62.5139C70.4788 63.3797 69.9177 64.1401 69.3225 64.8071C69.0243 65.1413 68.3106 65.854 67.9919 66.1358C66.3488 67.5892 64.4462 68.6774 62.4063 69.3309C61.1644 69.7287 59.7323 69.9908 58.5124 70.0436C57.9363 70.0685 23.7068 70.0671 23.5928 70.0421C23.5452 70.0317 23.3722 70.0056 23.2082 69.9841C23.0443 69.9626 22.7568 69.919 22.5694 69.8873C19.2817 69.3312 16.3272 67.4612 14.3693 64.6971C13.5502 63.5407 12.8839 62.168 12.5183 60.8833C12.1202 59.4848 11.9732 58.3207 12.004 56.8134C12.037 55.1952 12.427 53.4767 13.1077 51.9495C13.3899 51.3163 13.8433 50.4915 14.1655 50.0254C14.7157 49.2293 15.198 48.6489 15.8166 48.0387C17.2543 46.6204 18.8508 45.6382 20.7528 45.0018C22.3899 44.4541 24.188 44.258 25.9835 44.4313C26.1615 44.4484 26.3124 44.4572 26.3188 44.4507C26.3252 44.4442 26.3377 44.2617 26.3466 44.0452C26.4106 42.4808 26.7231 40.9616 27.272 39.5465C27.4832 39.002 27.5706 38.8006 27.7745 38.3889C28.4625 36.999 29.2159 35.9358 30.3454 34.7606C30.7829 34.3054 31.146 33.98 31.7407 33.51C33.0242 32.4957 34.5619 31.6941 36.207 31.1817C36.4347 31.1108 37.2515 30.906 37.5241 30.8515C37.9569 30.7651 38.7435 30.6617 39.2259 30.6279C39.5243 30.607 40.4998 30.5879 40.7065 30.5989Z" fill="#B9E3F8"/>
<path fill-rule="evenodd" clip-rule="evenodd" d="M40.9034 29.0058C41.4738 29.0405 42.1993 29.1229 42.6243 29.2011C42.7671 29.2274 42.9493 29.2609 43.0293 29.2757C43.2328 29.3133 44.077 29.5379 44.4218 29.6463C45.2169 29.8962 46.0653 30.2587 46.8231 30.6724L47.1527 30.8524L56.3323 30.8621L65.5119 30.8718L65.2641 31.0756C64.6828 31.5536 63.8559 32.3581 63.3438 32.9439C62.5551 33.8459 61.8542 34.873 61.25 36.0119C61.0956 36.303 60.7994 36.9253 60.7688 37.0229C60.7565 37.0623 60.7675 37.0676 60.9439 37.1075C61.5846 37.2523 62.3554 37.4731 62.9021 37.6684C64.2791 38.1602 65.6697 38.8981 66.8815 39.7801L67.1122 39.9479H78.7483H90.384L90.463 40.3614C90.674 41.4698 90.754 42.2869 90.754 43.345C90.754 45.1149 90.564 46.4375 90.073 48.0863C89.634 49.561 88.891 51.1134 87.999 52.4191C86.696 54.3268 84.9997 55.9195 83.0146 57.099C82.6656 57.3063 81.8649 57.7218 81.4955 57.8872C79.9832 58.5644 78.4816 58.9771 76.8283 59.1701C76.3502 59.2259 75.8521 59.2474 75.033 59.2477C74.6407 59.2479 73.7726 59.2538 73.1038 59.261L71.8877 59.2739L71.7138 59.6257C71.363 60.3353 71.1387 60.7264 70.6982 61.3961C70.0418 62.3939 69.4821 63.0728 68.5715 63.9758C67.803 64.7379 66.9848 65.3941 66.0717 65.9806C63.8607 67.4007 61.4954 68.1868 58.7477 68.4147C58.3304 68.4494 23.6347 68.4519 23.5666 68.4174C23.5413 68.4045 23.3993 68.3798 23.2513 68.3625C20.8328 68.0805 18.5087 67.0806 16.6426 65.5194C16.1652 65.1201 15.4864 64.4509 15.1162 64.0147L12.5289 59.2204C12.2962 58.4065 12.0662 56.7577 12.0662 56.7577C12.0662 56.7577 12.0328 54.7417 12.0667 54.423C12.1078 54.0359 12.2013 53.384 12.2537 53.1195C12.3254 52.7574 12.5151 52.023 12.6272 51.6735C12.9578 50.6427 13.4082 49.6694 13.9858 48.7376C14.0636 48.6122 14.1272 48.5006 14.1272 48.4895C14.1272 48.4786 14.1346 48.4695 14.1436 48.4695C14.1526 48.4695 14.1999 48.4087 14.2488 48.3344C14.3381 48.1985 14.7905 47.5902 14.9369 47.4092C15.2969 46.9639 15.9053 46.3386 16.4211 45.8836C17.4451 44.9803 18.7414 44.1826 20.0167 43.6712C21.0867 43.2421 22.2289 42.9587 23.3763 42.8378C24.0988 42.7616 25.0124 42.7458 25.6356 42.7986C25.826 42.8148 26.0652 42.8335 26.1671 42.8402L26.3525 42.8525L26.3645 42.5821C26.4415 40.8425 26.7043 39.5085 27.2607 38.0315C27.8682 36.4192 28.748 34.9493 29.8458 33.7124C30.1298 33.3924 30.6484 32.8597 30.922 32.607C31.1579 32.389 31.747 31.9051 32.0742 31.6606C32.9238 31.0255 34.056 30.3967 35.1026 29.9786C35.8039 29.6984 36.2205 29.5648 36.9518 29.3854C37.6566 29.2126 38.1339 29.1327 38.9997 29.0424C39.273 29.014 40.6137 28.9881 40.9034 29.0058Z" fill="#EBF9FF"/>
<path fill-rule="evenodd" clip-rule="evenodd" d="M29.7065 16.5989C30.8679 16.6607 31.7264 16.789 32.6898 17.0447C33.8693 17.3577 34.8669 17.7536 35.8671 18.3057L36.1726 18.4743L45.347 18.4745L54.5214 18.4747L54.4544 18.528C53.8229 19.0304 53.0383 19.7763 52.4578 20.4261C51.6767 21.3007 50.9946 22.2671 50.4008 23.3404C50.1801 23.7392 49.7622 24.6019 49.7622 24.6586C49.7622 24.6676 49.8336 24.6902 49.9208 24.7087C50.4497 24.8211 51.2238 25.0416 51.8389 25.2553C53.1825 25.7219 54.6232 26.4798 55.8261 27.3529L56.1117 27.5601H67.7428H79.3739L79.3858 27.6136C79.3924 27.6431 79.405 27.6978 79.4138 27.7352C79.4227 27.7727 79.4648 27.9959 79.5074 28.2314C79.7368 29.498 79.8035 30.7338 79.719 32.1517C79.6154 33.8893 79.1732 35.7191 78.4527 37.3912C77.077 40.5836 74.6115 43.2986 71.5769 44.9625C69.4743 46.1154 67.0936 46.7859 64.8376 46.8606C64.5362 46.8705 63.5265 46.8789 62.5938 46.8792L60.898 46.8797L60.6726 47.3223C60.4 47.8576 60.2297 48.166 60.0144 48.5139C59.4788 49.3797 58.9177 50.1401 58.3225 50.8071C58.0243 51.1413 57.3106 51.854 56.9919 52.1358C55.3488 53.5892 53.4462 54.6774 51.4063 55.3309C50.1644 55.7287 48.7323 55.9908 47.5124 56.0436C46.9363 56.0685 12.7068 56.0671 12.5928 56.0421C12.5452 56.0317 12.3722 56.0056 12.2082 55.9841C12.0443 55.9626 11.7568 55.919 11.5694 55.8873C8.2817 55.3312 5.3272 53.4612 3.3693 50.6971C2.5502 49.5407 1.8839 48.168 1.5183 46.8833C1.1202 45.4848 0.973201 44.3207 1.004 42.8134C1.037 41.1952 1.427 39.4767 2.1077 37.9495C2.3899 37.3163 2.8433 36.4915 3.1655 36.0254C3.7157 35.2293 4.198 34.6489 4.8166 34.0387C6.2543 32.6204 7.8508 31.6382 9.7528 31.0018C11.3899 30.4541 13.188 30.258 14.9835 30.4313C15.1615 30.4484 15.3124 30.4572 15.3188 30.4507C15.3252 30.4442 15.3377 30.2617 15.3466 30.0452C15.4106 28.4808 15.7231 26.9616 16.272 25.5465C16.4832 25.002 16.5706 24.8006 16.7745 24.3889C17.4625 22.999 18.2159 21.9358 19.3454 20.7606C19.7829 20.3054 20.146 19.98 20.7407 19.51C22.0242 18.4957 23.5619 17.6941 25.207 17.1817C25.4347 17.1108 26.2515 16.906 26.5241 16.8515C26.9569 16.7651 27.7435 16.6617 28.2259 16.6279C28.5243 16.607 29.4998 16.5879 29.7065 16.5989Z" fill="#B9E3F8"/>
<path fill-rule="evenodd" clip-rule="evenodd" d="M29.9034 15.0058C30.4738 15.0405 31.1993 15.1229 31.6243 15.2011C31.7671 15.2274 31.9493 15.2609 32.0293 15.2757C32.2328 15.3133 33.077 15.5379 33.4218 15.6463C34.2169 15.8962 35.0653 16.2587 35.8231 16.6724L36.1527 16.8524L45.3323 16.8621L54.5119 16.8718L54.2641 17.0756C53.6828 17.5536 52.8559 18.3581 52.3438 18.9439C51.5551 19.8459 50.8542 20.873 50.25 22.0119C50.0956 22.303 49.7994 22.9253 49.7688 23.0229C49.7565 23.0623 49.7675 23.0676 49.9439 23.1075C50.5846 23.2523 51.3554 23.4731 51.9021 23.6684C53.2791 24.1602 54.6697 24.8981 55.8815 25.7801L56.1122 25.9479H67.7483H79.3845L79.4633 26.3614C79.6744 27.4698 79.7541 28.2869 79.7542 29.345C79.7542 31.1149 79.5643 32.4375 79.0731 34.0863C78.6338 35.561 77.8906 37.1134 76.9989 38.4191C75.696 40.3268 73.9997 41.9195 72.0146 43.099C71.6656 43.3063 70.8649 43.7218 70.4955 43.8872C68.9832 44.5644 67.4816 44.9771 65.8283 45.1701C65.3502 45.2259 64.8521 45.2474 64.033 45.2477C63.6407 45.2479 62.7726 45.2538 62.1038 45.261L60.8877 45.2739L60.7138 45.6257C60.363 46.3353 60.1387 46.7264 59.6982 47.3961C59.0418 48.3939 58.4821 49.0728 57.5715 49.9758C56.803 50.7379 55.9848 51.3941 55.0717 51.9806C52.8607 53.4007 50.4954 54.1868 47.7477 54.4147C47.3304 54.4494 12.6347 54.4519 12.5666 54.4174C12.5413 54.4045 12.3993 54.3798 12.2513 54.3625C9.83281 54.0805 7.50871 53.0806 5.64261 51.5194C5.16521 51.1201 4.48641 50.4509 4.11621 50.0147L1.52891 45.2204C1.29621 44.4065 1.06621 42.7577 1.06621 42.7577C1.06621 42.7577 1.03281 40.7417 1.06671 40.423C1.10781 40.0359 1.20131 39.384 1.25371 39.1195C1.32541 38.7574 1.51511 38.023 1.62721 37.6735C1.95781 36.6427 2.40821 35.6694 2.98581 34.7376C3.06361 34.6122 3.12721 34.5006 3.12721 34.4895C3.12721 34.4786 3.13461 34.4695 3.14361 34.4695C3.15261 34.4695 3.19991 34.4087 3.24881 34.3344C3.33811 34.1985 3.79051 33.5902 3.93691 33.4092C4.29691 32.9639 4.90531 32.3386 5.42111 31.8836C6.44511 30.9803 7.74141 30.1826 9.01671 29.6712C10.0867 29.2421 11.2289 28.9587 12.3763 28.8378C13.0988 28.7616 14.0124 28.7458 14.6356 28.7986C14.826 28.8148 15.0652 28.8335 15.1671 28.8402L15.3525 28.8525L15.3645 28.5821C15.4415 26.8425 15.7043 25.5085 16.2607 24.0315C16.8682 22.4192 17.748 20.9493 18.8458 19.7124C19.1298 19.3924 19.6484 18.8597 19.922 18.607C20.1579 18.389 20.747 17.9051 21.0742 17.6606C21.9238 17.0255 23.056 16.3967 24.1026 15.9786C24.8039 15.6984 25.2205 15.5648 25.9518 15.3854C26.6566 15.2126 27.1339 15.1327 27.9997 15.0424C28.273 15.014 29.6137 14.9881 29.9034 15.0058Z" fill="#EBF9FF"/>
<path fill-rule="evenodd" clip-rule="evenodd" d="M69.7257 5.04562C71.2114 5.12472 72.3098 5.28882 73.5423 5.61592C75.0514 6.01642 76.3277 6.52292 77.6073 7.22922L77.9981 7.44492L89.735 7.44522L101.473 7.44552L101.387 7.51362C100.579 8.15632 99.575 9.11062 98.833 9.94192C97.833 11.0608 96.961 12.2972 96.201 13.6703C95.919 14.1806 95.384 15.2843 95.384 15.3567C95.384 15.3683 95.475 15.3972 95.587 15.4209C96.264 15.5646 97.254 15.8468 98.041 16.1201C99.76 16.7171 101.603 17.6867 103.142 18.8037L103.507 19.0689H118.387H133.268L133.283 19.1373C133.291 19.175 133.307 19.245 133.319 19.2929C133.33 19.3408 133.384 19.6264 133.438 19.9276C133.732 21.5481 133.817 23.1291 133.709 24.9431C133.577 27.1661 133.011 29.507 132.089 31.6462C130.329 35.7305 127.175 39.2039 123.293 41.3326C120.603 42.8075 117.557 43.6653 114.671 43.7609C114.285 43.7736 112.993 43.7843 111.8 43.7847L109.631 43.7853L109.342 44.3516C108.993 45.0365 108.776 45.431 108.5 45.8761C107.815 46.9837 107.097 47.9566 106.336 48.8099C105.954 49.2374 105.041 50.1492 104.633 50.5098C102.531 52.3691 100.097 53.7614 97.487 54.5974C95.898 55.1064 94.066 55.4417 92.506 55.5091C91.769 55.541 47.9771 55.5392 47.8313 55.5073C47.7704 55.494 47.549 55.4606 47.3393 55.4331C47.1295 55.4055 46.7617 55.3498 46.522 55.3092C42.3158 54.5978 38.536 52.2054 36.0312 48.6692C34.9832 47.1897 34.1308 45.4335 33.6631 43.79C33.1538 42.0008 32.9656 40.5115 33.0051 38.5832C33.0474 36.5128 33.5463 34.3143 34.4171 32.3605C34.7781 31.5504 35.3583 30.4952 35.7704 29.8989C36.4744 28.8804 37.0914 28.1379 37.8827 27.3573C39.7221 25.5427 41.7646 24.2861 44.1979 23.472C46.2923 22.7713 48.5928 22.5204 50.8898 22.742C51.1175 22.764 51.3105 22.7752 51.3187 22.7669C51.3269 22.7586 51.3429 22.5252 51.3543 22.2482C51.4362 20.2468 51.836 18.3031 52.5383 16.4927C52.8085 15.7961 52.9203 15.5384 53.1811 15.0117C54.0614 13.2335 55.0251 11.8734 56.4701 10.3699C57.0299 9.78752 57.4944 9.37122 58.2552 8.76992C59.8973 7.47232 61.8646 6.44672 63.9692 5.79122C64.2605 5.70042 65.3055 5.43852 65.6543 5.36882C66.2079 5.25822 67.2143 5.12592 67.8314 5.08272C68.2133 5.05602 69.4612 5.03152 69.7257 5.04562Z" fill="#B9E3F8"/>
<path fill-rule="evenodd" clip-rule="evenodd" d="M69.9775 3.00739C70.7073 3.05179 71.6355 3.15719 72.1793 3.25729C72.3619 3.29089 72.595 3.33379 72.6973 3.35269C72.9577 3.40079 74.0377 3.68819 74.4789 3.82679C75.4961 4.14649 76.5814 4.61029 77.5509 5.13959L77.9727 5.36989L89.717 5.38229L101.46 5.39469L101.143 5.65539C100.4 6.26699 99.342 7.29619 98.687 8.04559C97.678 9.19959 96.781 10.5137 96.008 11.9706C95.81 12.3431 95.432 13.1393 95.392 13.2642C95.377 13.3145 95.391 13.3213 95.616 13.3723C96.436 13.5576 97.422 13.8401 98.122 14.0899C99.883 14.7191 101.662 15.6631 103.213 16.7915L103.508 17.0062H118.395H133.281L133.382 17.5352C133.652 18.9532 133.754 19.9987 133.754 21.3522C133.754 23.6166 133.511 25.3087 132.883 27.418C132.321 29.3048 131.37 31.2908 130.229 32.9612C128.562 35.4018 126.392 37.4394 123.853 38.9484C123.406 39.2137 122.382 39.7452 121.909 39.9569C119.974 40.8232 118.053 41.3513 115.938 41.5981C115.326 41.6695 114.689 41.6971 113.641 41.6975C113.139 41.6977 112.029 41.7053 111.173 41.7144L109.617 41.7309L109.395 42.1811C108.946 43.0889 108.659 43.5892 108.096 44.4459C107.256 45.7225 106.54 46.591 105.375 47.7462C104.392 48.7213 103.345 49.5608 102.177 50.3111C99.348 52.128 96.322 53.1337 92.807 53.4253C92.273 53.4696 47.8848 53.4729 47.7978 53.4286C47.7653 53.4121 47.5837 53.3805 47.3943 53.3584C44.3002 52.9976 41.3269 51.7185 38.9395 49.7211C38.3288 49.2102 37.4604 48.3541 36.9868 47.796L33.6767 41.6625C33.379 40.6212 33.0847 38.5118 33.0847 38.5118C33.0847 38.5118 33.042 35.9327 33.0853 35.5249C33.1379 35.0297 33.2576 34.1956 33.3246 33.8572C33.4163 33.3941 33.659 32.4545 33.8024 32.0074C34.2254 30.6886 34.8016 29.4434 35.5405 28.2513C35.64 28.0908 35.7214 27.948 35.7214 27.934C35.7214 27.9199 35.7309 27.9084 35.7424 27.9084C35.754 27.9084 35.8145 27.8306 35.877 27.7355C35.9913 27.5616 36.57 26.7834 36.7573 26.5518C37.2179 25.9822 37.9962 25.1822 38.6561 24.6C39.9662 23.4444 41.6246 22.4239 43.2562 21.7696C44.6251 21.2206 46.0863 20.8581 47.5542 20.7034C48.4786 20.6059 49.6475 20.5857 50.4448 20.6533C50.6883 20.6739 50.9943 20.6979 51.1247 20.7065L51.3619 20.7222L51.3772 20.3763C51.4758 18.1507 51.8119 16.4441 52.5238 14.5545C53.301 12.4917 54.4266 10.6112 55.831 9.02879C56.1944 8.61939 56.8579 7.93789 57.2078 7.61459C57.5096 7.33579 58.2634 6.71659 58.6819 6.40379C59.7688 5.59139 61.2174 4.78679 62.5563 4.25189C63.4535 3.89349 63.9865 3.72249 64.9221 3.49309C65.8237 3.27199 66.4344 3.16969 67.5421 3.05429C67.8917 3.01789 69.607 2.98479 69.9775 3.00739Z" fill="#EBF9FF"/>
</g>
<path fill-rule="evenodd" clip-rule="evenodd" d="M6.93936 109.019C-0.213263 114.814 -2.38332 120.585 3.18671 119C7.07978 117.892 13.0831 109.2 9.97976 109.109C9.47052 109.094 9.15159 107.227 6.93936 109.019Z" fill="#B9E3F8"/>
<path fill-rule="evenodd" clip-rule="evenodd" d="M43.8199 104.942C36.7353 110.82 34.6328 116.616 40.1839 114.966C44.0638 113.813 49.9653 105.051 46.8611 104.996C46.3517 104.987 46.0111 103.124 43.8199 104.942Z" fill="#B9E3F8"/>
<path fill-rule="evenodd" clip-rule="evenodd" d="M95.206 79.0108C87.7701 84.676 85.5212 90.3274 91.3172 88.7841C95.3682 87.7054 101.602 79.1985 98.3715 79.1037C97.8413 79.0881 97.5059 77.2585 95.206 79.0108Z" fill="#CAEFFF"/>
<path fill-rule="evenodd" clip-rule="evenodd" d="M23.8199 88.9422C16.7353 94.8199 14.6328 100.616 20.1839 98.9661C24.0638 97.8128 29.9653 89.0509 26.8611 88.996C26.3517 88.987 26.0111 87.1242 23.8199 88.9422Z" fill="#B9E3F8"/>
<path fill-rule="evenodd" clip-rule="evenodd" d="M81.206 91.0108C73.7701 96.676 71.5212 102.327 77.3172 100.784C81.3682 99.7054 87.6025 91.1985 84.3715 91.1037C83.8413 91.0881 83.5059 89.2585 81.206 91.0108Z" fill="#B9E3F8"/>
<path fill-rule="evenodd" clip-rule="evenodd" d="M9.93936 95.0194C2.78674 100.814 0.616683 106.585 6.18671 105C10.0798 103.892 16.0831 95.1997 12.9798 95.1086C12.4705 95.0937 12.1516 93.2271 9.93936 95.0194Z" fill="#B9E3F8"/>
<path fill-rule="evenodd" clip-rule="evenodd" d="M84.206 76.0108C76.7701 81.676 74.5212 87.3274 80.3172 85.7841C84.3682 84.7054 90.6025 76.1985 87.3715 76.1037C86.8413 76.0881 86.5059 74.2585 84.206 76.0108Z" fill="#B9E3F8"/>
<path fill-rule="evenodd" clip-rule="evenodd" d="M56.3172 94.1037C48.8812 99.7689 46.6324 105.42 52.4283 103.877C56.4793 102.798 62.7136 94.2914 59.4826 94.1966C58.9524 94.181 58.6171 92.3513 56.3172 94.1037Z" fill="#B9E3F8"/>
<path fill-rule="evenodd" clip-rule="evenodd" d="M70.206 103.011C62.7701 108.676 60.5212 114.327 66.3172 112.784C70.3682 111.705 76.6025 103.198 73.3715 103.104C72.8413 103.088 72.5059 101.258 70.206 103.011Z" fill="#CAEFFF"/>
<path fill-rule="evenodd" clip-rule="evenodd" d="M54.8199 106.942C47.7353 112.82 45.6328 118.616 51.1839 116.966C55.0638 115.813 60.9653 107.051 57.8611 106.996C57.3517 106.987 57.0111 105.124 54.8199 106.942Z" fill="#B9E3F8"/>
<path d="M80.774 109.505C81.7761 109.756 81.3924 108.962 80.7804 108.433C80.1689 107.904 80.927 107.019 81.5439 107.63C82.1613 108.241 82.4927 109.452 82.9823 109.413C83.3737 109.382 84.0259 109.331 84.2711 109.311C84.2985 109.129 84.3536 108.947 84.4378 108.772C84.522 108.597 84.6297 108.441 84.7554 108.306C84.6176 108.102 84.2513 107.56 84.0315 107.234C83.7566 106.828 82.6032 107.323 81.7407 107.222C80.8785 107.12 81.0977 105.975 81.8923 106.124C82.6874 106.273 83.5477 106.078 82.7271 105.45C81.9063 104.824 81.3994 103.782 81.9428 103.408C82.4861 103.035 83.2613 103.891 83.5403 104.891C83.8183 105.891 84.3127 105.154 84.4665 104.353C84.6203 103.552 85.755 103.765 85.5338 104.612C85.3131 105.459 84.4339 106.362 84.7088 106.768C84.929 107.095 85.2955 107.637 85.433 107.841C85.778 107.702 86.1625 107.667 86.5366 107.753C86.6438 107.53 86.9301 106.935 87.1019 106.579C87.3163 106.134 86.321 105.38 85.9826 104.576C85.6448 103.774 86.7376 103.385 87.0025 104.152C87.2668 104.921 87.8587 105.571 87.9939 104.538C88.129 103.506 88.7754 102.537 89.3652 102.821C89.9546 103.104 89.5999 104.214 88.8767 104.964C88.1533 105.713 89.0312 105.77 89.7963 105.498C90.5616 105.226 90.939 106.323 90.1007 106.56C89.2619 106.796 88.0517 106.488 87.8372 106.933C87.6655 107.29 87.3791 107.884 87.2719 108.107C87.5721 108.346 87.7848 108.668 87.8911 109.024C88.136 109.005 88.7887 108.953 89.1809 108.922C89.67 108.884 89.8285 107.634 90.3528 106.933C90.8773 106.231 91.7509 106.987 91.2203 107.606C90.6904 108.225 90.4215 109.071 91.377 108.666C92.333 108.26 93.4859 108.332 93.5327 108.99C93.5794 109.648 92.4487 109.901 91.4471 109.65C90.4452 109.4 90.8292 110.194 91.4409 110.723C92.052 111.251 91.2944 112.136 90.6773 111.525C90.0599 110.915 89.7282 109.704 89.239 109.742C88.8474 109.773 88.195 109.825 87.9503 109.845C87.9228 110.027 87.8675 110.208 87.7833 110.383C87.6991 110.558 87.5916 110.715 87.4661 110.85C87.6032 111.054 87.9698 111.596 88.1898 111.921C88.4643 112.328 89.618 111.832 90.4804 111.934C91.3429 112.036 91.1232 113.18 90.329 113.031C89.5342 112.883 88.6732 113.078 89.494 113.705C90.3148 114.332 90.8217 115.374 90.2783 115.747C89.7349 116.121 88.9598 115.264 88.6808 114.264C88.4021 113.264 87.9086 114.001 87.7546 114.802C87.601 115.603 86.466 115.391 86.6873 114.543C86.9086 113.697 87.7869 112.794 87.5124 112.387C87.2921 112.061 86.9256 111.518 86.788 111.315C86.4432 111.454 86.0586 111.488 85.6845 111.403C85.5773 111.625 85.291 112.22 85.1192 112.576C84.9048 113.022 85.9003 113.776 86.2385 114.579C86.5763 115.382 85.4834 115.771 85.2186 115.003C84.9545 114.235 84.3626 113.584 84.2275 114.617C84.0925 115.65 83.446 116.619 82.8565 116.335C82.2667 116.051 82.6216 114.941 83.3446 114.192C84.068 113.442 83.1902 113.385 82.4248 113.657C81.6595 113.929 81.2821 112.832 82.1204 112.596C82.9594 112.359 84.1694 112.668 84.3839 112.222C84.5556 111.866 84.842 111.271 84.9492 111.049C84.649 110.809 84.4364 110.487 84.3299 110.131C84.0851 110.15 83.4324 110.202 83.0402 110.233C82.5508 110.272 82.3932 111.522 81.8683 112.223C81.3438 112.924 80.4705 112.169 81.0007 111.549C81.5309 110.93 81.7996 110.084 80.8441 110.49C79.8881 110.895 78.735 110.823 78.6884 110.165C78.6417 109.508 79.7724 109.254 80.774 109.505ZM85.6498 110.535C86.1729 110.787 86.8038 110.563 87.0585 110.034C87.3131 109.505 87.0949 108.873 86.5719 108.621C86.0481 108.368 85.4175 108.593 85.1629 109.121C84.9081 109.65 85.1261 110.283 85.6498 110.535Z" fill="#CAEFFF"/>
<path d="M92.774 97.5055C93.7761 97.7562 93.3924 96.9616 92.7804 96.4327C92.1689 95.904 92.927 95.0191 93.5439 95.6304C94.1613 96.241 94.4927 97.452 94.9823 97.4129C95.3737 97.382 96.0259 97.3308 96.2711 97.3112C96.2985 97.1286 96.3536 96.9469 96.4378 96.7721C96.522 96.5972 96.6297 96.4408 96.7554 96.3058C96.6176 96.1021 96.2513 95.5597 96.0315 95.2345C95.7566 94.8278 94.6032 95.3234 93.7407 95.2216C92.8785 95.1199 93.0977 93.9754 93.8923 94.124C94.6874 94.2727 95.5477 94.0778 94.7271 93.4501C93.9063 92.8235 93.3994 91.7815 93.9428 91.4081C94.4861 91.0347 95.2613 91.8912 95.5403 92.8915C95.8183 93.8909 96.3127 93.1539 96.4665 92.3533C96.6203 91.5524 97.755 91.7646 97.5338 92.6118C97.3131 93.4593 96.4339 94.3621 96.7088 94.7685C96.929 95.0945 97.2955 95.637 97.433 95.8406C97.778 95.7018 98.1625 95.667 98.5366 95.7526C98.6438 95.53 98.9301 94.9355 99.1019 94.5789C99.3163 94.1336 98.321 93.3796 97.9826 92.5764C97.6448 91.7735 98.7376 91.3848 99.0025 92.1525C99.2668 92.9206 99.8587 93.5713 99.9939 92.5384C100.129 91.5059 100.775 90.5365 101.365 90.8206C101.955 91.1045 101.6 92.2143 100.877 92.9635C100.153 93.7132 101.031 93.7703 101.796 93.498C102.562 93.2264 102.939 94.3232 102.101 94.5597C101.262 94.7959 100.052 94.4877 99.8372 94.933C99.6655 95.2896 99.3791 95.8841 99.2719 96.1068C99.5721 96.3458 99.7848 96.6682 99.8911 97.0244C100.136 97.005 100.789 96.9533 101.181 96.9223C101.67 96.8839 101.828 95.6339 102.353 94.9326C102.877 94.2315 103.751 94.9865 103.22 95.606C102.69 96.2254 102.421 97.0711 103.377 96.6656C104.333 96.2602 105.486 96.3323 105.533 96.99C105.579 97.6476 104.449 97.9009 103.447 97.6498C102.445 97.3997 102.829 98.1939 103.441 98.7227C104.052 99.2511 103.294 100.136 102.677 99.5255C102.06 98.9146 101.728 97.7038 101.239 97.7424C100.847 97.7732 100.195 97.825 99.9503 97.8445C99.9228 98.0268 99.8675 98.2084 99.7833 98.3833C99.6991 98.5581 99.5916 98.7146 99.4661 98.8499C99.6032 99.0537 99.9698 99.5956 100.19 99.9209C100.464 100.328 101.618 99.8323 102.48 99.9343C103.343 100.036 103.123 101.18 102.329 101.031C101.534 100.883 100.673 101.078 101.494 101.705C102.315 102.332 102.822 103.374 102.278 103.747C101.735 104.121 100.96 103.264 100.681 102.264C100.402 101.264 99.9086 102.001 99.7546 102.802C99.601 103.603 98.466 103.391 98.6873 102.543C98.9086 101.697 99.7869 100.794 99.5124 100.387C99.2921 100.061 98.9256 99.5183 98.788 99.3149C98.4432 99.4539 98.0586 99.4883 97.6845 99.4027C97.5773 99.6253 97.291 100.22 97.1192 100.576C96.9048 101.022 97.9003 101.776 98.2385 102.579C98.5763 103.382 97.4834 103.771 97.2186 103.003C96.9545 102.235 96.3626 101.584 96.2275 102.617C96.0925 103.65 95.446 104.619 94.8565 104.335C94.2667 104.051 94.6216 102.941 95.3446 102.192C96.068 101.442 95.1902 101.385 94.4248 101.657C93.6595 101.929 93.2821 100.832 94.1204 100.596C94.9594 100.359 96.1694 100.668 96.3839 100.222C96.5556 99.8657 96.842 99.2711 96.9492 99.0485C96.649 98.8095 96.4364 98.4874 96.3299 98.1311C96.0851 98.1503 95.4324 98.2019 95.0402 98.233C94.5508 98.2721 94.3932 99.5219 93.8683 100.223C93.3438 100.924 92.4705 100.169 93.0007 99.5492C93.5309 98.9299 93.7996 98.0842 92.8441 98.4896C91.8881 98.895 90.735 98.8231 90.6884 98.1653C90.6417 97.5077 91.7724 97.2544 92.774 97.5055ZM97.6498 98.5351C98.1729 98.7871 98.8038 98.5631 99.0585 98.0342C99.3131 97.5055 99.0949 96.8726 98.5719 96.6207C98.0481 96.3684 97.4175 96.5925 97.1629 97.1212C96.9081 97.6501 97.1261 98.2829 97.6498 98.5351Z" fill="#CAEFFF"/>
<path d="M95.9288 70.6048C96.9309 70.8555 96.5472 70.061 95.9352 69.5321C95.3237 69.0034 96.0818 68.1185 96.6987 68.7297C97.3161 69.3404 97.6475 70.5514 98.1371 70.5123C98.5285 70.4814 99.1807 70.4302 99.426 70.4106C99.4533 70.228 99.5084 70.0463 99.5926 69.8714C99.6768 69.6966 99.7845 69.5402 99.9102 69.4052C99.7724 69.2014 99.4062 68.6591 99.1863 68.3338C98.9114 67.9271 97.7581 68.4227 96.8955 68.3209C96.0333 68.2192 96.2525 67.0748 97.0471 67.2233C97.8422 67.3721 98.7025 67.1772 97.8819 66.5495C97.0612 65.9229 96.5542 64.8809 97.0976 64.5075C97.6409 64.1341 98.4161 64.9905 98.6951 65.9908C98.9732 66.9903 99.4676 66.2533 99.6213 65.4526C99.7751 64.6517 100.91 64.864 100.689 65.7112C100.468 66.5587 99.5887 67.4615 99.8636 67.8678C100.084 68.1939 100.45 68.7363 100.588 68.94C100.933 68.8011 101.317 68.7663 101.691 68.852C101.799 68.6294 102.085 68.0348 102.257 67.6782C102.471 67.2329 101.476 66.479 101.137 65.6758C100.8 64.8729 101.892 64.4842 102.157 65.2519C102.422 66.02 103.014 66.6707 103.149 65.6377C103.284 64.6053 103.93 63.6359 104.52 63.92C105.109 64.2039 104.755 65.3137 104.032 66.0629C103.308 66.8125 104.186 66.8697 104.951 66.5974C105.716 66.3258 106.094 67.4226 105.255 67.659C104.417 67.8953 103.206 67.587 102.992 68.0324C102.82 68.389 102.534 68.9835 102.427 69.2061C102.727 69.4452 102.94 69.7676 103.046 70.1238C103.291 70.1043 103.944 70.0527 104.336 70.0217C104.825 69.9832 104.983 68.7333 105.508 68.032C106.032 67.3308 106.906 68.0859 106.375 68.7054C105.845 69.3248 105.576 70.1704 106.532 69.765C107.488 69.3596 108.641 69.4317 108.687 70.0893C108.734 70.7469 107.604 71.0002 106.602 70.7491C105.6 70.4991 105.984 71.2932 106.596 71.822C107.207 72.3505 106.449 73.2356 105.832 72.6248C105.215 72.014 104.883 70.8031 104.394 70.8418C104.002 70.8726 103.35 70.9243 103.105 70.9439C103.078 71.1262 103.022 71.3078 102.938 71.4826C102.854 71.6575 102.746 71.814 102.621 71.9493C102.758 72.1531 103.125 72.6949 103.345 73.0203C103.619 73.4274 104.773 72.9316 105.635 73.0337C106.498 73.1349 106.278 74.2791 105.484 74.1308C104.689 73.9821 103.828 74.1773 104.649 74.8045C105.47 75.4311 105.977 76.4731 105.433 76.8465C104.89 77.2202 104.115 76.3634 103.836 75.3632C103.557 74.3634 103.063 75.1008 102.909 75.9014C102.756 76.7023 101.621 76.49 101.842 75.6428C102.063 74.7959 102.942 73.8932 102.667 73.4862C102.447 73.1601 102.08 72.6177 101.943 72.4143C101.598 72.5532 101.213 72.5877 100.839 72.502C100.732 72.7247 100.446 73.3192 100.274 73.6758C100.06 74.1211 101.055 74.8751 101.393 75.6782C101.731 76.4811 100.638 76.8699 100.373 76.1021C100.109 75.3341 99.5174 74.6834 99.3823 75.7164C99.2473 76.7491 98.6008 77.7182 98.0113 77.4343C97.4215 77.1502 97.7764 76.0407 98.4994 75.2912C99.2228 74.5415 98.345 74.4844 97.5796 74.7566C96.8143 75.0282 96.4369 73.9314 97.2752 73.6949C98.1142 73.4588 99.3242 73.7669 99.5387 73.3216C99.7104 72.965 99.9968 72.3705 100.104 72.1479C99.8038 71.9088 99.5912 71.5868 99.4847 71.2304C99.2399 71.2497 98.5872 71.3013 98.195 71.3323C97.7056 71.3715 97.548 72.6212 97.0231 73.322C96.4986 74.0231 95.6253 73.2682 96.1555 72.6486C96.6857 72.0293 96.9544 71.1836 95.9989 71.589C95.0429 71.9944 93.8899 71.9225 93.8432 71.2646C93.7965 70.607 94.9272 70.3538 95.9288 70.6048ZM100.805 71.6345C101.328 71.8864 101.959 71.6624 102.213 71.1335C102.468 70.6048 102.25 69.9719 101.727 69.72C101.203 69.4678 100.572 69.6919 100.318 70.2206C100.063 70.7495 100.281 71.3823 100.805 71.6345Z" fill="#CAEFFF"/>
<path d="M62.0351 90.6147C62.9732 91.0472 62.7437 90.1951 62.2406 89.5618C61.7379 88.9287 62.6472 88.2 63.1398 88.9152C63.6331 89.6299 63.7338 90.8814 64.2222 90.9339C64.6124 90.9763 65.2628 91.0471 65.5074 91.0734C65.5682 90.899 65.6561 90.7307 65.7714 90.5745C65.8866 90.4184 66.0215 90.2847 66.17 90.1754C66.0725 89.9496 65.8133 89.3487 65.6577 88.9883C65.4631 88.5375 64.2378 88.8103 63.4092 88.5501C62.5808 88.29 63.0088 87.2062 63.762 87.4997C64.5157 87.7936 65.3972 87.7619 64.7074 86.9927C64.0173 86.2245 63.7128 85.1065 64.316 84.8405C64.9193 84.5745 65.5218 85.5601 65.6103 86.5948C65.6978 87.6285 66.3205 86.9961 66.6202 86.238C66.9201 85.4796 67.9958 85.8989 67.621 86.6903C67.2467 87.482 66.2152 88.2058 66.4097 88.6562C66.5656 89.0174 66.825 89.6185 66.9223 89.8442C67.2871 89.7718 67.6713 89.809 68.0229 89.9627C68.1697 89.7638 68.5614 89.2328 68.7964 88.9144C69.0899 88.5166 68.2519 87.5909 68.0686 86.7388C67.8858 85.8872 69.0318 85.7082 69.1494 86.5117C69.2665 87.3156 69.7273 88.0649 70.0519 87.075C70.3764 86.0857 71.1916 85.2532 71.7184 85.6419C72.2449 86.0303 71.6901 87.0549 70.8404 87.6568C69.9904 88.259 70.8423 88.4782 71.6447 88.3527C72.4472 88.228 72.6143 89.3759 71.7466 89.4525C70.8785 89.5288 69.7466 89.0012 69.4532 89.3989C69.2182 89.7174 68.8264 90.2484 68.6797 90.4472C68.9303 90.7379 69.0794 91.0942 69.1177 91.4639C69.362 91.4903 70.0129 91.5608 70.404 91.6032C70.8917 91.6562 71.2796 90.4575 71.925 89.8658C72.5706 89.2742 73.2888 90.1784 72.6524 90.6886C72.0167 91.1988 71.5954 91.9798 72.6095 91.7589C73.6242 91.5381 74.7437 91.8231 74.6675 92.4779C74.5913 93.1328 73.4332 93.1717 72.4956 92.7389C71.5576 92.3071 71.7874 93.1587 72.2903 93.792C72.7926 94.4247 71.8837 95.1537 71.3908 94.439C70.8977 93.7241 70.7966 92.4727 70.3087 92.4198C69.9183 92.3773 69.2676 92.307 69.0235 92.2808C68.9627 92.4548 68.8746 92.6229 68.7593 92.7791C68.6441 92.9353 68.5094 93.0691 68.361 93.1787C68.4579 93.4044 68.7174 94.005 68.8732 94.3655C69.0673 94.8165 70.293 94.5437 71.1214 94.8041C71.9501 95.0638 71.5217 96.1473 70.7689 95.854C70.0155 95.5603 69.1333 95.5922 69.8233 96.3609C70.5134 97.1291 70.818 98.2471 70.2147 98.5131C69.6113 98.7793 69.0089 97.7935 68.9205 96.7588C68.8323 95.7247 68.2104 96.3576 67.9105 97.1156C67.6108 97.8741 66.5349 97.4547 66.9097 96.6633C67.2845 95.8723 68.3151 95.1484 68.121 94.6975C67.9651 94.3362 67.7057 93.7351 67.6083 93.5097C67.2437 93.5822 66.8594 93.5446 66.5078 93.3909C66.3611 93.5898 65.9693 94.1208 65.7343 94.4393C65.4409 94.837 66.279 95.7628 66.4622 96.6148C66.6449 97.4665 65.4989 97.6455 65.3813 96.8419C65.2644 96.0382 64.8037 95.2888 64.479 96.2787C64.1545 97.2684 63.3393 98.1005 62.8129 97.7121C62.286 97.3234 62.8408 96.2991 63.6905 95.697C64.5405 95.0947 63.6886 94.8755 62.886 95.0008C62.0835 95.1255 61.9164 93.9777 62.7841 93.9011C63.6524 93.8249 64.7841 94.3524 65.0775 93.9547C65.3125 93.6362 65.7043 93.1052 65.851 92.9064C65.6004 92.6157 65.4513 92.2598 65.4129 91.8899C65.1687 91.8633 64.5179 91.7928 64.1267 91.7504C63.6385 91.698 63.2516 92.8968 62.6057 93.4878C61.9601 94.0793 61.2421 93.1753 61.8783 92.665C62.5142 92.1549 62.9353 91.3738 61.9212 91.5947C60.9065 91.8155 59.7869 91.5307 59.8632 90.8756C59.9394 90.2208 61.0975 90.182 62.0351 90.6147ZM66.6348 92.5321C67.102 92.8768 67.7635 92.7738 68.112 92.3015C68.4604 91.8293 68.3636 91.1669 67.8964 90.8222C67.4286 90.477 66.7673 90.5801 66.4189 91.0523C66.0704 91.5247 66.167 92.1869 66.6348 92.5321Z" fill="#CAEFFF"/>
<path d="M41.6876 97.8209C41.6482 96.7887 40.9926 97.3792 40.6558 98.1146C40.3191 98.8496 39.2576 98.369 39.6721 97.6059C40.0858 96.8424 41.1559 96.1857 40.9816 95.7265C40.8425 95.3594 40.611 94.7475 40.5237 94.5175C40.3407 94.5422 40.1508 94.5401 39.9594 94.5081C39.768 94.4762 39.5877 94.4165 39.423 94.3336C39.2659 94.5227 38.8475 95.026 38.5967 95.328C38.283 95.7057 39.0812 96.6745 39.2245 97.5311C39.3679 98.3874 38.2078 98.4968 38.1283 97.6923C38.0489 96.8873 37.6213 96.1158 37.248 97.0791C36.8758 98.0423 36.017 98.8203 35.5066 98.403C34.9962 97.9857 35.6019 97.002 36.4843 96.4545C37.3662 95.9082 36.5204 95.6395 35.7087 95.7157C34.8968 95.7918 34.7833 94.643 35.6586 94.6186C36.534 94.5937 37.6466 95.1855 37.96 94.808C38.2114 94.5054 38.6298 94.0019 38.7869 93.8129C38.5572 93.5205 38.4163 93.1611 38.394 92.7779C38.1503 92.7372 37.4994 92.6285 37.109 92.5632C36.6215 92.4818 36.1758 93.6482 35.4992 94.1976C34.8227 94.7463 34.144 93.8057 34.8071 93.3369C35.4708 92.8684 35.9301 92.1181 34.9005 92.2771C33.8715 92.4359 32.7601 92.0863 32.868 91.4405C32.9758 90.7953 34.1406 90.8257 35.062 91.3106C35.9839 91.7956 35.7935 90.9368 35.3182 90.2783C34.8435 89.6194 35.7911 88.9505 36.2524 89.6893C36.7137 90.4287 36.756 91.6768 37.2435 91.7582C37.6339 91.8235 38.2848 91.9322 38.5285 91.9729C38.6741 91.6179 38.9242 91.3235 39.2365 91.1219C39.1494 90.8922 38.9174 90.28 38.778 89.9121C38.6044 89.4532 37.36 89.6504 36.5401 89.3431C35.7203 89.0354 36.2011 87.9856 36.9441 88.3218C37.687 88.6575 38.5741 88.6794 37.9178 87.8753C37.2613 87.0707 37.0083 85.9436 37.6266 85.7148C38.245 85.4861 38.8042 86.501 38.8431 87.5329C38.883 88.5647 39.5382 87.9741 39.8749 87.2389C40.2115 86.5045 41.2731 86.9846 40.8592 87.7478C40.4452 88.5113 39.3753 89.1682 39.5492 89.6271C39.6882 89.9945 39.9202 90.6064 40.0074 90.8359C40.1901 90.8113 40.3799 90.8137 40.5714 90.8457C40.7628 90.8777 40.9431 90.9371 41.1081 91.0198C41.2654 90.8312 41.6832 90.3278 41.9341 90.0256C42.2482 89.6482 41.4498 88.6791 41.3067 87.8226C41.1629 86.9661 42.3229 86.8573 42.4024 87.6613C42.4819 88.466 42.9099 89.2381 43.2827 88.2747C43.6549 87.3115 44.5137 86.5335 45.0241 86.9509C45.5348 87.3682 44.9288 88.3518 44.0464 88.8993C43.1644 89.4464 44.0103 89.7141 44.822 89.6382C45.634 89.5618 45.7474 90.7109 44.8721 90.7353C43.9971 90.7594 42.8849 90.1685 42.5708 90.5458C42.3193 90.8484 41.9009 91.352 41.7441 91.5409C41.9739 91.8331 42.1144 92.1928 42.1367 92.5759C42.3805 92.6166 43.0313 92.7253 43.4217 92.7906C43.9092 92.872 44.355 91.7054 45.0315 91.1562C45.708 90.6075 46.3867 91.5481 45.7236 92.017C45.06 92.4852 44.6007 93.2354 45.6302 93.0765C46.6595 92.9174 47.7707 93.2673 47.6629 93.9126C47.555 94.5583 46.3905 94.5277 45.4687 94.043C44.5468 93.5579 44.7373 94.4167 45.2125 95.0755C45.6872 95.7345 44.7396 96.4034 44.2782 95.6645C43.817 94.925 43.7747 93.677 43.2872 93.5956C42.8968 93.5304 42.2459 93.4216 42.0022 93.3809C41.8566 93.7359 41.6068 94.0301 41.2944 94.2319C41.3813 94.4616 41.6133 95.0738 41.7527 95.4418C41.9271 95.9007 43.1711 95.7027 43.9906 96.0108C44.8104 96.3184 44.3297 97.368 43.5866 97.032C42.8437 96.6961 41.9566 96.6745 42.6129 97.4786C43.2694 98.2832 43.5226 99.4104 42.9041 99.639C42.2857 99.8677 41.7265 98.8528 41.6876 97.8209ZM41.3135 92.8517C41.4092 92.279 41.0178 91.7359 40.4387 91.6392C39.86 91.5424 39.3133 91.9288 39.2176 92.5015C39.1218 93.0749 39.5132 93.6177 40.092 93.7144C40.671 93.8112 41.2177 93.4251 41.3135 92.8517Z" fill="#CAEFFF"/>
<path d="M17.9307 110.518C18.9286 110.785 18.5578 109.985 17.9544 109.446C17.3515 108.907 18.1238 108.035 18.7307 108.656C19.3382 109.277 19.65 110.493 20.1402 110.462C20.532 110.437 21.1849 110.396 21.4305 110.381C21.4608 110.199 21.5188 110.018 21.6059 109.844C21.6929 109.671 21.8031 109.516 21.9309 109.383C21.7965 109.177 21.439 108.629 21.2245 108.3C20.9561 107.889 19.7949 108.366 18.9342 108.25C18.0737 108.135 18.3114 106.994 19.1035 107.155C19.8961 107.317 20.7594 107.136 19.9491 106.495C19.1385 105.855 18.6485 104.805 19.1978 104.441C19.7471 104.076 20.5083 104.945 20.7712 105.95C21.033 106.953 21.5393 106.225 21.7059 105.427C21.8726 104.628 23.0038 104.859 22.769 105.702C22.5345 106.546 21.6409 107.435 21.9091 107.845C22.1241 108.175 22.4818 108.723 22.616 108.929C22.9632 108.796 23.3482 108.767 23.7208 108.859C23.8316 108.638 24.1275 108.048 24.305 107.694C24.5266 107.253 23.5436 106.483 23.2182 105.674C22.8935 104.866 23.9924 104.495 24.2448 105.267C24.4967 106.039 25.0781 106.699 25.2298 105.669C25.3816 104.638 26.0436 103.68 26.6288 103.973C27.2135 104.267 26.8409 105.371 26.1057 106.108C25.3703 106.846 26.2471 106.917 27.0165 106.657C27.7862 106.398 28.1458 107.501 27.3037 107.724C26.4612 107.946 25.2562 107.619 25.0345 108.06C24.8571 108.414 24.5612 109.004 24.4503 109.225C24.7466 109.469 24.9541 109.794 25.0546 110.152C25.2998 110.137 25.9532 110.096 26.3459 110.071C26.8356 110.041 27.0142 108.793 27.5497 108.101C28.0855 107.408 28.9468 108.177 28.4063 108.788C27.8665 109.399 27.5839 110.24 28.5458 109.85C29.5083 109.46 30.6599 109.551 30.696 110.209C30.7322 110.867 29.5975 111.102 28.6 110.835C27.6023 110.569 27.9734 111.369 28.5765 111.908C29.179 112.446 28.4072 113.319 27.8 112.698C27.1926 112.077 26.8805 110.861 26.3907 110.892C25.9987 110.917 25.3456 110.958 25.1006 110.973C25.0702 111.155 25.0119 111.336 24.9248 111.509C24.8378 111.683 24.7278 111.838 24.6002 111.971C24.734 112.177 25.0917 112.724 25.3065 113.053C25.5744 113.465 26.7359 112.988 27.5965 113.104C28.4573 113.219 28.2191 114.359 27.4275 114.198C26.6351 114.037 25.7711 114.218 26.5817 114.858C27.3922 115.498 27.8823 116.548 27.3329 116.913C26.7835 117.278 26.0224 116.408 25.7596 115.404C25.497 114.4 24.9917 115.129 24.8248 115.927C24.6583 116.725 23.5269 116.495 23.7618 115.651C23.9968 114.808 24.8895 113.92 24.6216 113.508C24.4066 113.179 24.0489 112.63 23.9146 112.425C23.5677 112.558 23.1826 112.586 22.8099 112.495C22.6991 112.716 22.4032 113.305 22.2257 113.659C22.0041 114.101 22.9873 114.871 23.3125 115.679C23.6373 116.488 22.5383 116.859 22.2859 116.087C22.0343 115.315 21.4529 114.654 21.3011 115.685C21.1494 116.715 20.4874 117.674 19.9026 117.381C19.3174 117.087 19.6902 115.983 20.4252 115.246C21.1606 114.508 20.2839 114.436 19.5142 114.696C18.7446 114.955 18.385 113.853 19.227 113.63C20.0697 113.407 21.2746 113.735 21.4962 113.293C21.6737 112.939 21.9696 112.35 22.0804 112.129C21.7841 111.885 21.5767 111.559 21.476 111.201C21.2309 111.217 20.5775 111.258 20.1848 111.282C19.6948 111.314 19.5171 112.561 18.981 113.253C18.4452 113.945 17.5841 113.177 18.1244 112.566C18.6645 111.955 18.9468 111.114 17.9849 111.504C17.0224 111.893 15.8707 111.803 15.8347 111.144C15.7986 110.486 16.9332 110.251 17.9307 110.518ZM22.7892 111.627C23.3082 111.887 23.9426 111.673 24.2058 111.149C24.4689 110.624 24.261 109.988 23.7421 109.727C23.2225 109.467 22.5883 109.681 22.3252 110.205C22.0619 110.73 22.2696 111.366 22.7892 111.627Z" fill="#CAEFFF"/>
</g>
</svg>
