<svg width="110" height="119" viewBox="0 0 110 119" fill="none" xmlns="http://www.w3.org/2000/svg">
<g clip-path="url(#clip0_33_96)">
<path fill-rule="evenodd" clip-rule="evenodd" d="M44.7065 44.5989C45.8679 44.6607 46.7264 44.789 47.6898 45.0447C48.8693 45.3577 49.8669 45.7536 50.8671 46.3057L51.1726 46.4743L60.347 46.4745L69.5214 46.4747L69.4544 46.528C68.8229 47.0304 68.0383 47.7763 67.4578 48.4261C66.6767 49.3007 65.9946 50.2671 65.4008 51.3404C65.1801 51.7392 64.7622 52.6019 64.7622 52.6586C64.7622 52.6676 64.8336 52.6902 64.9208 52.7087C65.4497 52.8211 66.2238 53.0416 66.8389 53.2553C68.1825 53.7219 69.6232 54.4798 70.8261 55.3529L71.1117 55.5601H82.7428H94.374L94.386 55.6136C94.392 55.6431 94.405 55.6978 94.414 55.7352C94.423 55.7727 94.465 55.9959 94.507 56.2314C94.737 57.498 94.803 58.7338 94.719 60.1517C94.615 61.8893 94.173 63.7191 93.453 65.3912C92.077 68.5836 89.611 71.2986 86.577 72.9625C84.4743 74.1154 82.0936 74.7859 79.8376 74.8606C79.5362 74.8705 78.5265 74.8789 77.5938 74.8792L75.898 74.8797L75.6726 75.3223C75.4 75.8576 75.2297 76.166 75.0144 76.5139C74.4788 77.3797 73.9177 78.1401 73.3225 78.8071C73.0243 79.1413 72.3106 79.854 71.9919 80.1358C70.3488 81.5892 68.4462 82.6774 66.4063 83.3309C65.1644 83.7287 63.7323 83.9908 62.5124 84.0436C61.9363 84.0685 27.7068 84.0671 27.5928 84.0421C27.5452 84.0317 27.3722 84.0056 27.2082 83.9841C27.0443 83.9626 26.7568 83.919 26.5694 83.8873C23.2817 83.3312 20.3272 81.4612 18.3693 78.6971C17.5502 77.5407 16.8839 76.168 16.5183 74.8833C16.1202 73.4848 15.9732 72.3207 16.004 70.8134C16.037 69.1952 16.427 67.4767 17.1077 65.9495C17.3899 65.3163 17.8433 64.4915 18.1655 64.0254C18.7157 63.2293 19.198 62.6489 19.8166 62.0387C21.2543 60.6204 22.8508 59.6382 24.7528 59.0018C26.3899 58.4541 28.188 58.258 29.9835 58.4313C30.1615 58.4484 30.3124 58.4572 30.3188 58.4507C30.3252 58.4442 30.3377 58.2617 30.3466 58.0452C30.4106 56.4808 30.7231 54.9616 31.272 53.5465C31.4832 53.002 31.5706 52.8006 31.7745 52.3889C32.4625 50.999 33.2159 49.9358 34.3454 48.7606C34.7829 48.3054 35.146 47.98 35.7407 47.51C37.0242 46.4957 38.5619 45.6941 40.207 45.1817C40.4347 45.1108 41.2515 44.906 41.5241 44.8515C41.9569 44.7651 42.7435 44.6617 43.2259 44.6279C43.5243 44.607 44.4998 44.5879 44.7065 44.5989Z" fill="#B9E3F8"/>
<path fill-rule="evenodd" clip-rule="evenodd" d="M44.9034 43.0058C45.4738 43.0405 46.1993 43.1229 46.6243 43.2011C46.7671 43.2274 46.9493 43.2609 47.0293 43.2757C47.2328 43.3133 48.077 43.5379 48.4218 43.6463C49.2169 43.8962 50.0653 44.2587 50.8231 44.6724L51.1527 44.8524L60.3323 44.8621L69.5119 44.8718L69.2641 45.0756C68.6828 45.5536 67.8559 46.3581 67.3438 46.9439C66.5551 47.8459 65.8542 48.873 65.25 50.0119C65.0956 50.303 64.7994 50.9253 64.7688 51.0229C64.7565 51.0623 64.7675 51.0676 64.9439 51.1075C65.5846 51.2523 66.3554 51.4731 66.9021 51.6684C68.2791 52.1602 69.6697 52.8981 70.8815 53.7801L71.1122 53.9479H82.7483H94.384L94.463 54.3614C94.674 55.4698 94.754 56.2869 94.754 57.345C94.754 59.1149 94.564 60.4375 94.073 62.0863C93.634 63.561 92.891 65.1134 91.999 66.4191C90.696 68.3268 89 69.9195 87.015 71.099C86.666 71.3063 85.865 71.7218 85.495 71.8872C83.9832 72.5644 82.4816 72.9771 80.8283 73.1701C80.3502 73.2259 79.8521 73.2474 79.033 73.2477C78.6407 73.2479 77.7726 73.2538 77.1038 73.261L75.8877 73.2739L75.7138 73.6257C75.363 74.3353 75.1387 74.7264 74.6982 75.3961C74.0418 76.3939 73.4821 77.0728 72.5715 77.9758C71.803 78.7379 70.9848 79.3941 70.0717 79.9806C67.8607 81.4007 65.4954 82.1868 62.7477 82.4147C62.3304 82.4494 27.6347 82.4519 27.5666 82.4174C27.5413 82.4045 27.3993 82.3798 27.2513 82.3625C24.8328 82.0805 22.5087 81.0806 20.6426 79.5194C20.1652 79.1201 19.4864 78.4509 19.1162 78.0147L16.5289 73.2204C16.2962 72.4065 16.0662 70.7577 16.0662 70.7577C16.0662 70.7577 16.0328 68.7417 16.0667 68.423C16.1078 68.0359 16.2013 67.384 16.2537 67.1195C16.3254 66.7574 16.5151 66.023 16.6272 65.6735C16.9578 64.6427 17.4082 63.6694 17.9858 62.7376C18.0636 62.6122 18.1272 62.5006 18.1272 62.4895C18.1272 62.4786 18.1346 62.4695 18.1436 62.4695C18.1526 62.4695 18.1999 62.4087 18.2488 62.3344C18.3381 62.1985 18.7905 61.5902 18.9369 61.4092C19.2969 60.9639 19.9053 60.3386 20.4211 59.8836C21.4451 58.9803 22.7414 58.1826 24.0167 57.6712C25.0867 57.2421 26.2289 56.9587 27.3763 56.8378C28.0988 56.7616 29.0124 56.7458 29.6356 56.7986C29.826 56.8148 30.0652 56.8335 30.1671 56.8402L30.3525 56.8525L30.3645 56.5821C30.4415 54.8425 30.7043 53.5085 31.2607 52.0315C31.8682 50.4192 32.748 48.9493 33.8458 47.7124C34.1298 47.3924 34.6484 46.8597 34.922 46.607C35.1579 46.389 35.747 45.9051 36.0742 45.6606C36.9238 45.0255 38.056 44.3967 39.1026 43.9786C39.8039 43.6984 40.2205 43.5648 40.9518 43.3854C41.6566 43.2126 42.1339 43.1327 42.9997 43.0424C43.273 43.014 44.6137 42.9881 44.9034 43.0058Z" fill="#EBF9FF"/>
<path fill-rule="evenodd" clip-rule="evenodd" d="M13.2254 51.3954C13.9627 51.4493 14.5078 51.5613 15.1194 51.7844C15.8683 52.0576 16.5017 52.4031 17.1367 52.885L17.3306 53.0321L23.1553 53.0323L28.98 53.0325L28.9375 53.079C28.5366 53.5174 28.0384 54.1684 27.6699 54.7355C27.174 55.4988 26.7409 56.3422 26.3639 57.2789C26.2238 57.627 25.9585 58.3799 25.9585 58.4293C25.9585 58.4372 26.0038 58.4569 26.0592 58.4731C26.395 58.5712 26.8864 58.7636 27.277 58.9501C28.13 59.3573 29.0447 60.0188 29.8084 60.7807L29.9897 60.9616H37.3741H44.7586L44.7662 61.0083C44.7703 61.034 44.7783 61.0817 44.7839 61.1144C44.7895 61.1471 44.8163 61.342 44.8434 61.5474C44.989 62.6529 45.0313 63.7314 44.9777 64.9688C44.9119 66.4853 44.6311 68.0822 44.1737 69.5415C43.3003 72.3277 41.735 74.6971 39.8084 76.1492C38.4735 77.1554 36.962 77.7406 35.5297 77.8058C35.3383 77.8145 34.6973 77.8218 34.1051 77.822L33.0285 77.8224L32.8854 78.2087C32.7123 78.676 32.6042 78.945 32.4675 79.2487C32.1274 80.0043 31.7712 80.6679 31.3933 81.2501C31.204 81.5417 30.7509 82.1637 30.5486 82.4097C29.5053 83.678 28.2975 84.6278 27.0023 85.1981C26.2138 85.5453 25.3046 85.7741 24.5301 85.8201C24.1644 85.8418 2.43251 85.8406 2.36011 85.8188C2.32991 85.8098 2.22001 85.787 2.11601 85.7682C2.01191 85.7494 1.82941 85.7114 1.71041 85.6837C-0.376993 85.1984 -2.25269 83.5664 -3.49579 81.1541C-4.01579 80.1448 -4.43879 78.9468 -4.67089 77.8256C-4.92369 76.6051 -5.01703 75.5891 -4.99749 74.2737C-4.97649 72.8614 -4.72889 71.3616 -4.29679 70.0288C-4.11759 69.4761 -3.82969 68.7563 -3.62519 68.3496C-3.27579 67.6547 -2.96959 67.1483 -2.57689 66.6157C-1.66409 65.3779 -0.650492 64.5207 0.557008 63.9653C1.59641 63.4873 2.73801 63.3161 3.87791 63.4673C3.99091 63.4823 4.08671 63.49 4.09081 63.4843C4.09491 63.4786 4.10281 63.3194 4.10841 63.1304C4.14911 61.7651 4.34751 60.4393 4.69601 59.2042C4.83011 58.729 4.88561 58.5533 5.01501 58.1939C5.45191 56.9809 5.93011 56.0531 6.64721 55.0274C6.92501 54.6301 7.15551 54.3461 7.53311 53.936C8.34801 53.0508 9.32431 52.3512 10.3687 51.904C10.5133 51.8421 11.0318 51.6634 11.2049 51.6159C11.4797 51.5404 11.9791 51.4501 12.2854 51.4207C12.4748 51.4025 13.0941 51.3858 13.2254 51.3954Z" fill="#B9E3F8"/>
<path fill-rule="evenodd" clip-rule="evenodd" d="M13.3504 50.005C13.7125 50.0354 14.1732 50.1072 14.443 50.1755C14.5336 50.1984 14.6493 50.2277 14.7001 50.2406C14.8293 50.2734 15.3653 50.4695 15.5842 50.564C16.089 50.7821 16.6276 51.0985 17.1087 51.4596L17.318 51.6166L23.146 51.6251L28.974 51.6336L28.8167 51.8114C28.4476 52.2286 27.9227 52.9307 27.5975 53.442C27.0968 54.2292 26.6518 55.1256 26.2682 56.1195C26.1701 56.3736 25.9821 56.9167 25.9627 57.0019C25.9549 57.0362 25.9619 57.0409 26.0739 57.0757C26.4806 57.2021 26.97 57.3948 27.3171 57.5652C28.1913 57.9944 29.0742 58.6384 29.8435 59.4081L29.99 59.5546H37.3777H44.7653L44.8153 59.9155C44.9494 60.8828 45 61.596 45 62.5193C45.0001 64.064 44.8795 65.2183 44.5676 66.6573C44.2887 67.9443 43.8169 69.2992 43.2507 70.4386C42.4235 72.1035 41.3466 73.4935 40.0862 74.5229C39.8647 74.7039 39.3563 75.0665 39.1218 75.2108C38.1617 75.8018 37.2083 76.1621 36.1586 76.3305C35.8551 76.3792 35.5389 76.398 35.0188 76.3982C34.7698 76.3984 34.2186 76.4036 33.794 76.4098L33.0219 76.4211L32.9115 76.7281C32.6888 77.3474 32.5464 77.6887 32.2667 78.2731C31.85 79.144 31.4946 79.7365 30.9165 80.5245C30.4286 81.1897 29.9091 81.7624 29.3294 82.2742C27.9257 83.5136 26.424 84.1997 24.6795 84.3986C24.4146 84.4288 2.3867 84.4311 2.3435 84.4009C2.3274 84.3896 2.2373 84.3681 2.1433 84.353C0.607802 84.1069 -0.867697 83.2343 -2.0525 81.8717C-2.3555 81.5232 -2.7865 80.9392 -3.0215 80.5585L-4.6642 76.3744C-4.8119 75.664 -4.958 74.2251 -4.958 74.2251C-4.958 74.2251 -4.9792 72.4657 -4.9577 72.1875C-4.9316 71.8497 -4.8722 71.2807 -4.8389 71.0499C-4.7934 70.7339 -4.673 70.093 -4.6018 69.7879C-4.3919 68.8883 -4.106 68.0389 -3.7392 67.2257C-3.6899 67.1162 -3.6495 67.0188 -3.6495 67.0092C-3.6495 66.9996 -3.6448 66.9917 -3.6391 66.9917C-3.6333 66.9917 -3.6033 66.9387 -3.5723 66.8738C-3.5156 66.7552 -3.2284 66.2243 -3.1354 66.0663C-2.9068 65.6777 -2.5206 65.132 -2.1931 64.7349C-1.543 63.9465 -0.719997 63.2504 0.0897026 62.8041C0.769003 62.4296 1.4942 62.1823 2.2226 62.0767C2.6814 62.0102 3.2614 61.9964 3.6571 62.0425C3.778 62.0566 3.9298 62.0729 3.9945 62.0788L4.1122 62.0895L4.1198 61.8536C4.1687 60.3353 4.3355 59.1712 4.6888 57.8821C5.0745 56.475 5.6331 55.1921 6.3301 54.1127C6.5104 53.8334 6.8396 53.3685 7.0133 53.1479C7.1631 52.9577 7.5371 52.5354 7.7448 52.322C8.2842 51.7677 9.0031 51.2189 9.6675 50.854C10.1128 50.6095 10.3773 50.4929 10.8416 50.3364C11.289 50.1855 11.592 50.1158 12.1418 50.037C12.3153 50.0122 13.1665 49.9896 13.3504 50.005Z" fill="#EBF9FF"/>
<path fill-rule="evenodd" clip-rule="evenodd" d="M40.7065 30.5989C41.8679 30.6607 42.7264 30.789 43.6898 31.0447C44.8693 31.3577 45.8669 31.7536 46.8671 32.3057L47.1726 32.4743L56.347 32.4745L65.5214 32.4747L65.4544 32.528C64.8229 33.0304 64.0383 33.7763 63.4578 34.4261C62.6767 35.3007 61.9946 36.2671 61.4008 37.3404C61.1801 37.7392 60.7622 38.6019 60.7622 38.6586C60.7622 38.6676 60.8336 38.6902 60.9208 38.7087C61.4497 38.8211 62.2238 39.0416 62.8389 39.2553C64.1825 39.7219 65.6232 40.4798 66.8261 41.3529L67.1117 41.5601H78.7428H90.374L90.386 41.6136C90.392 41.6431 90.405 41.6978 90.414 41.7352C90.423 41.7727 90.465 41.9959 90.507 42.2314C90.737 43.498 90.803 44.7338 90.719 46.1517C90.615 47.8893 90.173 49.7191 89.453 51.3912C88.077 54.5836 85.611 57.2986 82.5769 58.9625C80.4743 60.1154 78.0936 60.7859 75.8376 60.8606C75.5362 60.8705 74.5265 60.8789 73.5938 60.8792L71.898 60.8797L71.6726 61.3223C71.4 61.8576 71.2297 62.166 71.0144 62.5139C70.4788 63.3797 69.9177 64.1401 69.3225 64.8071C69.0243 65.1413 68.3106 65.854 67.9919 66.1358C66.3488 67.5892 64.4462 68.6774 62.4063 69.3309C61.1644 69.7287 59.7323 69.9908 58.5124 70.0436C57.9363 70.0685 23.7068 70.0671 23.5928 70.0421C23.5452 70.0317 23.3722 70.0056 23.2082 69.9841C23.0443 69.9626 22.7568 69.919 22.5694 69.8873C19.2817 69.3312 16.3272 67.4612 14.3693 64.6971C13.5502 63.5407 12.8839 62.168 12.5183 60.8833C12.1202 59.4848 11.9732 58.3207 12.004 56.8134C12.037 55.1952 12.427 53.4767 13.1077 51.9495C13.3899 51.3163 13.8433 50.4915 14.1655 50.0254C14.7157 49.2293 15.198 48.6489 15.8166 48.0387C17.2543 46.6204 18.8508 45.6382 20.7528 45.0018C22.3899 44.4541 24.188 44.258 25.9835 44.4313C26.1615 44.4484 26.3124 44.4572 26.3188 44.4507C26.3252 44.4442 26.3377 44.2617 26.3466 44.0452C26.4106 42.4808 26.7231 40.9616 27.272 39.5465C27.4832 39.002 27.5706 38.8006 27.7745 38.3889C28.4625 36.999 29.2159 35.9358 30.3454 34.7606C30.7829 34.3054 31.146 33.98 31.7407 33.51C33.0242 32.4957 34.5619 31.6941 36.207 31.1817C36.4347 31.1108 37.2515 30.906 37.5241 30.8515C37.9569 30.7651 38.7435 30.6617 39.2259 30.6279C39.5243 30.607 40.4998 30.5879 40.7065 30.5989Z" fill="#B9E3F8"/>
<path fill-rule="evenodd" clip-rule="evenodd" d="M40.9034 29.0058C41.4738 29.0405 42.1993 29.1229 42.6243 29.2011C42.7671 29.2274 42.9493 29.2609 43.0293 29.2757C43.2328 29.3133 44.077 29.5379 44.4218 29.6463C45.2169 29.8962 46.0653 30.2587 46.8231 30.6724L47.1527 30.8524L56.3323 30.8621L65.5119 30.8718L65.2641 31.0756C64.6828 31.5536 63.8559 32.3581 63.3438 32.9439C62.5551 33.8459 61.8542 34.873 61.25 36.0119C61.0956 36.303 60.7994 36.9253 60.7688 37.0229C60.7565 37.0623 60.7675 37.0676 60.9439 37.1075C61.5846 37.2523 62.3554 37.4731 62.9021 37.6684C64.2791 38.1602 65.6697 38.8981 66.8815 39.7801L67.1122 39.9479H78.7483H90.384L90.463 40.3614C90.674 41.4698 90.754 42.2869 90.754 43.345C90.754 45.1149 90.564 46.4375 90.073 48.0863C89.634 49.561 88.891 51.1134 87.999 52.4191C86.696 54.3268 84.9997 55.9195 83.0146 57.099C82.6656 57.3063 81.8649 57.7218 81.4955 57.8872C79.9832 58.5644 78.4816 58.9771 76.8283 59.1701C76.3502 59.2259 75.8521 59.2474 75.033 59.2477C74.6407 59.2479 73.7726 59.2538 73.1038 59.261L71.8877 59.2739L71.7138 59.6257C71.363 60.3353 71.1387 60.7264 70.6982 61.3961C70.0418 62.3939 69.4821 63.0728 68.5715 63.9758C67.803 64.7379 66.9848 65.3941 66.0717 65.9806C63.8607 67.4007 61.4954 68.1868 58.7477 68.4147C58.3304 68.4494 23.6347 68.4519 23.5666 68.4174C23.5413 68.4045 23.3993 68.3798 23.2513 68.3625C20.8328 68.0805 18.5087 67.0806 16.6426 65.5194C16.1652 65.1201 15.4864 64.4509 15.1162 64.0147L12.5289 59.2204C12.2962 58.4065 12.0662 56.7577 12.0662 56.7577C12.0662 56.7577 12.0328 54.7417 12.0667 54.423C12.1078 54.0359 12.2013 53.384 12.2537 53.1195C12.3254 52.7574 12.5151 52.023 12.6272 51.6735C12.9578 50.6427 13.4082 49.6694 13.9858 48.7376C14.0636 48.6122 14.1272 48.5006 14.1272 48.4895C14.1272 48.4786 14.1346 48.4695 14.1436 48.4695C14.1526 48.4695 14.1999 48.4087 14.2488 48.3344C14.3381 48.1985 14.7905 47.5902 14.9369 47.4092C15.2969 46.9639 15.9053 46.3386 16.4211 45.8836C17.4451 44.9803 18.7414 44.1826 20.0167 43.6712C21.0867 43.2421 22.2289 42.9587 23.3763 42.8378C24.0988 42.7616 25.0124 42.7458 25.6356 42.7986C25.826 42.8148 26.0652 42.8335 26.1671 42.8402L26.3525 42.8525L26.3645 42.5821C26.4415 40.8425 26.7043 39.5085 27.2607 38.0315C27.8682 36.4192 28.748 34.9493 29.8458 33.7124C30.1298 33.3924 30.6484 32.8597 30.922 32.607C31.1579 32.389 31.747 31.9051 32.0742 31.6606C32.9238 31.0255 34.056 30.3967 35.1026 29.9786C35.8039 29.6984 36.2205 29.5648 36.9518 29.3854C37.6566 29.2126 38.1339 29.1327 38.9997 29.0424C39.273 29.014 40.6137 28.9881 40.9034 29.0058Z" fill="#EBF9FF"/>
<path fill-rule="evenodd" clip-rule="evenodd" d="M29.7065 16.5989C30.8679 16.6607 31.7264 16.789 32.6898 17.0447C33.8693 17.3577 34.8669 17.7536 35.8671 18.3057L36.1726 18.4743L45.347 18.4745L54.5214 18.4747L54.4544 18.528C53.8229 19.0304 53.0383 19.7763 52.4578 20.4261C51.6767 21.3007 50.9946 22.2671 50.4008 23.3404C50.1801 23.7392 49.7622 24.6019 49.7622 24.6586C49.7622 24.6676 49.8336 24.6902 49.9208 24.7087C50.4497 24.8211 51.2238 25.0416 51.8389 25.2553C53.1825 25.7219 54.6232 26.4798 55.8261 27.3529L56.1117 27.5601H67.7428H79.3739L79.3858 27.6136C79.3924 27.6431 79.405 27.6978 79.4138 27.7352C79.4227 27.7727 79.4648 27.9959 79.5074 28.2314C79.7368 29.498 79.8035 30.7338 79.719 32.1517C79.6154 33.8893 79.1732 35.7191 78.4527 37.3912C77.077 40.5836 74.6115 43.2986 71.5769 44.9625C69.4743 46.1154 67.0936 46.7859 64.8376 46.8606C64.5362 46.8705 63.5265 46.8789 62.5938 46.8792L60.898 46.8797L60.6726 47.3223C60.4 47.8576 60.2297 48.166 60.0144 48.5139C59.4788 49.3797 58.9177 50.1401 58.3225 50.8071C58.0243 51.1413 57.3106 51.854 56.9919 52.1358C55.3488 53.5892 53.4462 54.6774 51.4063 55.3309C50.1644 55.7287 48.7323 55.9908 47.5124 56.0436C46.9363 56.0685 12.7068 56.0671 12.5928 56.0421C12.5452 56.0317 12.3722 56.0056 12.2082 55.9841C12.0443 55.9626 11.7568 55.919 11.5694 55.8873C8.2817 55.3312 5.3272 53.4612 3.3693 50.6971C2.5502 49.5407 1.8839 48.168 1.5183 46.8833C1.1202 45.4848 0.973201 44.3207 1.004 42.8134C1.037 41.1952 1.427 39.4767 2.1077 37.9495C2.3899 37.3163 2.8433 36.4915 3.1655 36.0254C3.7157 35.2293 4.198 34.6489 4.8166 34.0387C6.2543 32.6204 7.8508 31.6382 9.7528 31.0018C11.3899 30.4541 13.188 30.258 14.9835 30.4313C15.1615 30.4484 15.3124 30.4572 15.3188 30.4507C15.3252 30.4442 15.3377 30.2617 15.3466 30.0452C15.4106 28.4808 15.7231 26.9616 16.272 25.5465C16.4832 25.002 16.5706 24.8006 16.7745 24.3889C17.4625 22.999 18.2159 21.9358 19.3454 20.7606C19.7829 20.3054 20.146 19.98 20.7407 19.51C22.0242 18.4957 23.5619 17.6941 25.207 17.1817C25.4347 17.1108 26.2515 16.906 26.5241 16.8515C26.9569 16.7651 27.7435 16.6617 28.2259 16.6279C28.5243 16.607 29.4998 16.5879 29.7065 16.5989Z" fill="#B9E3F8"/>
<path fill-rule="evenodd" clip-rule="evenodd" d="M29.9034 15.0058C30.4738 15.0405 31.1993 15.1229 31.6243 15.2011C31.7671 15.2274 31.9493 15.2609 32.0293 15.2757C32.2328 15.3133 33.077 15.5379 33.4218 15.6463C34.2169 15.8962 35.0653 16.2587 35.8231 16.6724L36.1527 16.8524L45.3323 16.8621L54.5119 16.8718L54.2641 17.0756C53.6828 17.5536 52.8559 18.3581 52.3438 18.9439C51.5551 19.8459 50.8542 20.873 50.25 22.0119C50.0956 22.303 49.7994 22.9253 49.7688 23.0229C49.7565 23.0623 49.7675 23.0676 49.9439 23.1075C50.5846 23.2523 51.3554 23.4731 51.9021 23.6684C53.2791 24.1602 54.6697 24.8981 55.8815 25.7801L56.1122 25.9479H67.7483H79.3845L79.4633 26.3614C79.6744 27.4698 79.7541 28.2869 79.7542 29.345C79.7542 31.1149 79.5643 32.4375 79.0731 34.0863C78.6338 35.561 77.8906 37.1134 76.9989 38.4191C75.696 40.3268 73.9997 41.9195 72.0146 43.099C71.6656 43.3063 70.8649 43.7218 70.4955 43.8872C68.9832 44.5644 67.4816 44.9771 65.8283 45.1701C65.3502 45.2259 64.8521 45.2474 64.033 45.2477C63.6407 45.2479 62.7726 45.2538 62.1038 45.261L60.8877 45.2739L60.7138 45.6257C60.363 46.3353 60.1387 46.7264 59.6982 47.3961C59.0418 48.3939 58.4821 49.0728 57.5715 49.9758C56.803 50.7379 55.9848 51.3941 55.0717 51.9806C52.8607 53.4007 50.4954 54.1868 47.7477 54.4147C47.3304 54.4494 12.6347 54.4519 12.5666 54.4174C12.5413 54.4045 12.3993 54.3798 12.2513 54.3625C9.83281 54.0805 7.50871 53.0806 5.64261 51.5194C5.16521 51.1201 4.48641 50.4509 4.11621 50.0147L1.52891 45.2204C1.29621 44.4065 1.06621 42.7577 1.06621 42.7577C1.06621 42.7577 1.03281 40.7417 1.06671 40.423C1.10781 40.0359 1.20131 39.384 1.25371 39.1195C1.32541 38.7574 1.51511 38.023 1.62721 37.6735C1.95781 36.6427 2.40821 35.6694 2.98581 34.7376C3.06361 34.6122 3.12721 34.5006 3.12721 34.4895C3.12721 34.4786 3.13461 34.4695 3.14361 34.4695C3.15261 34.4695 3.19991 34.4087 3.24881 34.3344C3.33811 34.1985 3.79051 33.5902 3.93691 33.4092C4.29691 32.9639 4.90531 32.3386 5.42111 31.8836C6.44511 30.9803 7.74141 30.1826 9.01671 29.6712C10.0867 29.2421 11.2289 28.9587 12.3763 28.8378C13.0988 28.7616 14.0124 28.7458 14.6356 28.7986C14.826 28.8148 15.0652 28.8335 15.1671 28.8402L15.3525 28.8525L15.3645 28.5821C15.4415 26.8425 15.7043 25.5085 16.2607 24.0315C16.8682 22.4192 17.748 20.9493 18.8458 19.7124C19.1298 19.3924 19.6484 18.8597 19.922 18.607C20.1579 18.389 20.747 17.9051 21.0742 17.6606C21.9238 17.0255 23.056 16.3967 24.1026 15.9786C24.8039 15.6984 25.2205 15.5648 25.9518 15.3854C26.6566 15.2126 27.1339 15.1327 27.9997 15.0424C28.273 15.014 29.6137 14.9881 29.9034 15.0058Z" fill="#EBF9FF"/>
<path fill-rule="evenodd" clip-rule="evenodd" d="M69.7257 5.04562C71.2114 5.12472 72.3098 5.28882 73.5423 5.61592C75.0514 6.01642 76.3277 6.52292 77.6073 7.22922L77.9981 7.44492L89.735 7.44522L101.473 7.44552L101.387 7.51362C100.579 8.15632 99.575 9.11062 98.833 9.94192C97.833 11.0608 96.961 12.2972 96.201 13.6703C95.919 14.1806 95.384 15.2843 95.384 15.3567C95.384 15.3683 95.475 15.3972 95.587 15.4209C96.264 15.5646 97.254 15.8468 98.041 16.1201C99.76 16.7171 101.603 17.6867 103.142 18.8037L103.507 19.0689H118.387H133.268L133.283 19.1373C133.291 19.175 133.307 19.245 133.319 19.2929C133.33 19.3408 133.384 19.6264 133.438 19.9276C133.732 21.5481 133.817 23.1291 133.709 24.9431C133.577 27.1661 133.011 29.507 132.089 31.6462C130.329 35.7305 127.175 39.2039 123.293 41.3326C120.603 42.8075 117.557 43.6653 114.671 43.7609C114.285 43.7736 112.993 43.7843 111.8 43.7847L109.631 43.7853L109.342 44.3516C108.993 45.0365 108.776 45.431 108.5 45.8761C107.815 46.9837 107.097 47.9566 106.336 48.8099C105.954 49.2374 105.041 50.1492 104.633 50.5098C102.531 52.3691 100.097 53.7614 97.487 54.5974C95.898 55.1064 94.066 55.4417 92.506 55.5091C91.769 55.541 47.9771 55.5392 47.8313 55.5073C47.7704 55.494 47.549 55.4606 47.3393 55.4331C47.1295 55.4055 46.7617 55.3498 46.522 55.3092C42.3158 54.5978 38.536 52.2054 36.0312 48.6692C34.9832 47.1897 34.1308 45.4335 33.6631 43.79C33.1538 42.0008 32.9656 40.5115 33.0051 38.5832C33.0474 36.5128 33.5463 34.3143 34.4171 32.3605C34.7781 31.5504 35.3583 30.4952 35.7704 29.8989C36.4744 28.8804 37.0914 28.1379 37.8827 27.3573C39.7221 25.5427 41.7646 24.2861 44.1979 23.472C46.2923 22.7713 48.5928 22.5204 50.8898 22.742C51.1175 22.764 51.3105 22.7752 51.3187 22.7669C51.3269 22.7586 51.3429 22.5252 51.3543 22.2482C51.4362 20.2468 51.836 18.3031 52.5383 16.4927C52.8085 15.7961 52.9203 15.5384 53.1811 15.0117C54.0614 13.2335 55.0251 11.8734 56.4701 10.3699C57.0299 9.78752 57.4944 9.37122 58.2552 8.76992C59.8973 7.47232 61.8646 6.44672 63.9692 5.79122C64.2605 5.70042 65.3055 5.43852 65.6543 5.36882C66.2079 5.25822 67.2143 5.12592 67.8314 5.08272C68.2133 5.05602 69.4612 5.03152 69.7257 5.04562Z" fill="#B9E3F8"/>
<path fill-rule="evenodd" clip-rule="evenodd" d="M69.9775 3.00739C70.7073 3.05179 71.6355 3.15719 72.1793 3.25729C72.3619 3.29089 72.595 3.33379 72.6973 3.35269C72.9577 3.40079 74.0377 3.68819 74.4789 3.82679C75.4961 4.14649 76.5814 4.61029 77.5509 5.13959L77.9727 5.36989L89.717 5.38229L101.46 5.39469L101.143 5.65539C100.4 6.26699 99.342 7.29619 98.687 8.04559C97.678 9.19959 96.781 10.5137 96.008 11.9706C95.81 12.3431 95.432 13.1393 95.392 13.2642C95.377 13.3145 95.391 13.3213 95.616 13.3723C96.436 13.5576 97.422 13.8401 98.122 14.0899C99.883 14.7191 101.662 15.6631 103.213 16.7915L103.508 17.0062H118.395H133.281L133.382 17.5352C133.652 18.9532 133.754 19.9987 133.754 21.3522C133.754 23.6166 133.511 25.3087 132.883 27.418C132.321 29.3048 131.37 31.2908 130.229 32.9612C128.562 35.4018 126.392 37.4394 123.853 38.9484C123.406 39.2137 122.382 39.7452 121.909 39.9569C119.974 40.8232 118.053 41.3513 115.938 41.5981C115.326 41.6695 114.689 41.6971 113.641 41.6975C113.139 41.6977 112.029 41.7053 111.173 41.7144L109.617 41.7309L109.395 42.1811C108.946 43.0889 108.659 43.5892 108.096 44.4459C107.256 45.7225 106.54 46.591 105.375 47.7462C104.392 48.7213 103.345 49.5608 102.177 50.3111C99.348 52.128 96.322 53.1337 92.807 53.4253C92.273 53.4696 47.8848 53.4729 47.7978 53.4286C47.7653 53.4121 47.5837 53.3805 47.3943 53.3584C44.3002 52.9976 41.3269 51.7185 38.9395 49.7211C38.3288 49.2102 37.4604 48.3541 36.9868 47.796L33.6767 41.6625C33.379 40.6212 33.0847 38.5118 33.0847 38.5118C33.0847 38.5118 33.042 35.9327 33.0853 35.5249C33.1379 35.0297 33.2576 34.1956 33.3246 33.8572C33.4163 33.3941 33.659 32.4545 33.8024 32.0074C34.2254 30.6886 34.8016 29.4434 35.5405 28.2513C35.64 28.0908 35.7214 27.948 35.7214 27.934C35.7214 27.9199 35.7309 27.9084 35.7424 27.9084C35.754 27.9084 35.8145 27.8306 35.877 27.7355C35.9913 27.5616 36.57 26.7834 36.7573 26.5518C37.2179 25.9822 37.9962 25.1822 38.6561 24.6C39.9662 23.4444 41.6246 22.4239 43.2562 21.7696C44.6251 21.2206 46.0863 20.8581 47.5542 20.7034C48.4786 20.6059 49.6475 20.5857 50.4448 20.6533C50.6883 20.6739 50.9943 20.6979 51.1247 20.7065L51.3619 20.7222L51.3772 20.3763C51.4758 18.1507 51.8119 16.4441 52.5238 14.5545C53.301 12.4917 54.4266 10.6112 55.831 9.02879C56.1944 8.61939 56.8579 7.93789 57.2078 7.61459C57.5096 7.33579 58.2634 6.71659 58.6819 6.40379C59.7688 5.59139 61.2174 4.78679 62.5563 4.25189C63.4535 3.89349 63.9865 3.72249 64.9221 3.49309C65.8237 3.27199 66.4344 3.16969 67.5421 3.05429C67.8917 3.01789 69.607 2.98479 69.9775 3.00739Z" fill="#EBF9FF"/>
<path d="M74.774 98.5055C75.7761 98.7562 75.3924 97.9616 74.7804 97.4327C74.1689 96.904 74.927 96.0191 75.5439 96.6304C76.1613 97.241 76.4927 98.452 76.9823 98.4129C77.3737 98.382 78.0259 98.3308 78.2711 98.3112C78.2985 98.1286 78.3536 97.9469 78.4378 97.7721C78.522 97.5972 78.6297 97.4408 78.7554 97.3058C78.6176 97.1021 78.2513 96.5597 78.0315 96.2345C77.7566 95.8278 76.6032 96.3234 75.7407 96.2216C74.8785 96.1199 75.0977 94.9754 75.8923 95.124C76.6874 95.2727 77.5477 95.0778 76.7271 94.4501C75.9063 93.8235 75.3994 92.7815 75.9428 92.4081C76.4861 92.0347 77.2613 92.8912 77.5403 93.8915C77.8183 94.8909 78.3127 94.1539 78.4665 93.3533C78.6203 92.5524 79.755 92.7646 79.5338 93.6118C79.3131 94.4593 78.4339 95.3621 78.7088 95.7685C78.929 96.0945 79.2955 96.637 79.433 96.8406C79.778 96.7018 80.1625 96.667 80.5366 96.7526C80.6438 96.53 80.9301 95.9355 81.1019 95.5789C81.3163 95.1336 80.321 94.3796 79.9826 93.5764C79.6448 92.7735 80.7376 92.3848 81.0025 93.1525C81.2668 93.9206 81.8587 94.5713 81.9939 93.5384C82.129 92.5059 82.7754 91.5365 83.3652 91.8206C83.9546 92.1045 83.5999 93.2143 82.8767 93.9635C82.1533 94.7132 83.0312 94.7703 83.7963 94.498C84.5616 94.2264 84.939 95.3232 84.1007 95.5597C83.2619 95.7959 82.0517 95.4877 81.8372 95.933C81.6655 96.2896 81.3791 96.8841 81.2719 97.1068C81.5721 97.3458 81.7848 97.6682 81.8911 98.0244C82.136 98.005 82.7887 97.9533 83.1809 97.9223C83.67 97.8839 83.8285 96.6339 84.3528 95.9326C84.8773 95.2315 85.7509 95.9865 85.2203 96.606C84.6904 97.2254 84.4215 98.0711 85.377 97.6656C86.333 97.2602 87.4859 97.3323 87.5327 97.99C87.5794 98.6476 86.4487 98.9009 85.4471 98.6498C84.4452 98.3997 84.8292 99.1939 85.4409 99.7227C86.052 100.251 85.2944 101.136 84.6773 100.525C84.0599 99.9146 83.7282 98.7038 83.239 98.7424C82.8474 98.7732 82.195 98.825 81.9503 98.8445C81.9228 99.0268 81.8675 99.2084 81.7833 99.3833C81.6991 99.5581 81.5916 99.7146 81.4661 99.8499C81.6032 100.054 81.9698 100.596 82.1898 100.921C82.4643 101.328 83.618 100.832 84.4804 100.934C85.3429 101.036 85.1232 102.18 84.329 102.031C83.5342 101.883 82.6732 102.078 83.494 102.705C84.3148 103.332 84.8217 104.374 84.2783 104.747C83.7349 105.121 82.9598 104.264 82.6808 103.264C82.4021 102.264 81.9086 103.001 81.7546 103.802C81.601 104.603 80.466 104.391 80.6873 103.543C80.9086 102.697 81.7869 101.794 81.5124 101.387C81.2921 101.061 80.9256 100.518 80.788 100.315C80.4432 100.454 80.0586 100.488 79.6845 100.403C79.5773 100.625 79.291 101.22 79.1192 101.576C78.9048 102.022 79.9003 102.776 80.2385 103.579C80.5763 104.382 79.4834 104.771 79.2186 104.003C78.9545 103.235 78.3626 102.584 78.2275 103.617C78.0925 104.65 77.446 105.619 76.8565 105.335C76.2667 105.051 76.6216 103.941 77.3446 103.192C78.068 102.442 77.1902 102.385 76.4248 102.657C75.6595 102.929 75.2821 101.832 76.1204 101.596C76.9594 101.359 78.1694 101.668 78.3839 101.222C78.5556 100.866 78.842 100.271 78.9492 100.049C78.649 99.8095 78.4364 99.4874 78.3299 99.1311C78.0851 99.1503 77.4324 99.2019 77.0402 99.233C76.5508 99.2721 76.3932 100.522 75.8683 101.223C75.3438 101.924 74.4705 101.169 75.0007 100.549C75.5309 99.9299 75.7996 99.0842 74.8441 99.4896C73.8881 99.895 72.735 99.8231 72.6884 99.1653C72.6417 98.5077 73.7724 98.2544 74.774 98.5055ZM79.6498 99.5351C80.1729 99.7871 80.8038 99.5631 81.0585 99.0342C81.3131 98.5055 81.0949 97.8726 80.5719 97.6207C80.0481 97.3684 79.4175 97.5925 79.1629 98.1212C78.9081 98.6501 79.1261 99.2829 79.6498 99.5351Z" fill="#CAEFFF"/>
<path d="M98.774 72.5055C99.7761 72.7562 99.3924 71.9616 98.7804 71.4327C98.1689 70.904 98.927 70.0191 99.5439 70.6304C100.161 71.241 100.493 72.452 100.982 72.4129C101.374 72.382 102.026 72.3308 102.271 72.3112C102.299 72.1286 102.354 71.9469 102.438 71.7721C102.522 71.5972 102.63 71.4408 102.755 71.3058C102.618 71.1021 102.251 70.5597 102.032 70.2345C101.757 69.8278 100.603 70.3234 99.7407 70.2216C98.8785 70.1199 99.0977 68.9754 99.8923 69.124C100.687 69.2727 101.548 69.0778 100.727 68.4501C99.9063 67.8235 99.3994 66.7815 99.9428 66.4081C100.486 66.0347 101.261 66.8912 101.54 67.8915C101.818 68.8909 102.313 68.1539 102.466 67.3533C102.62 66.5524 103.755 66.7646 103.534 67.6118C103.313 68.4593 102.434 69.3621 102.709 69.7685C102.929 70.0945 103.296 70.637 103.433 70.8406C103.778 70.7018 104.163 70.667 104.537 70.7526C104.644 70.53 104.93 69.9355 105.102 69.5789C105.316 69.1336 104.321 68.3796 103.983 67.5764C103.645 66.7735 104.738 66.3848 105.002 67.1525C105.267 67.9206 105.859 68.5713 105.994 67.5384C106.129 66.5059 106.775 65.5365 107.365 65.8206C107.955 66.1045 107.6 67.2143 106.877 67.9635C106.153 68.7132 107.031 68.7703 107.796 68.498C108.562 68.2264 108.939 69.3232 108.101 69.5597C107.262 69.7959 106.052 69.4877 105.837 69.933C105.665 70.2896 105.379 70.8841 105.272 71.1068C105.572 71.3458 105.785 71.6682 105.891 72.0244C106.136 72.005 106.789 71.9533 107.181 71.9223C107.67 71.8839 107.828 70.6339 108.353 69.9326C108.877 69.2315 109.751 69.9865 109.22 70.606C108.69 71.2254 108.421 72.0711 109.377 71.6656C110.333 71.2602 111.486 71.3323 111.533 71.99C111.579 72.6476 110.449 72.9009 109.447 72.6498C108.445 72.3997 108.829 73.1939 109.441 73.7227C110.052 74.2511 109.294 75.1363 108.677 74.5255C108.06 73.9146 107.728 72.7038 107.239 72.7424C106.847 72.7732 106.195 72.825 105.95 72.8445C105.923 73.0268 105.867 73.2084 105.783 73.3833C105.699 73.5581 105.592 73.7146 105.466 73.8499C105.603 74.0537 105.97 74.5956 106.19 74.9209C106.464 75.328 107.618 74.8323 108.48 74.9343C109.343 75.0356 109.123 76.1797 108.329 76.0314C107.534 75.8828 106.673 76.0779 107.494 76.7051C108.315 77.3317 108.822 78.3737 108.278 78.7471C107.735 79.1208 106.96 78.2641 106.681 77.2638C106.402 76.264 105.909 77.0015 105.755 77.802C105.601 78.603 104.466 78.3907 104.687 77.5435C104.909 76.6966 105.787 75.7939 105.512 75.3868C105.292 75.0608 104.926 74.5183 104.788 74.3149C104.443 74.4539 104.059 74.4883 103.685 74.4027C103.577 74.6253 103.291 75.2198 103.119 75.5764C102.905 76.0217 103.9 76.7758 104.239 77.5789C104.576 78.3818 103.483 78.7705 103.219 78.0028C102.955 77.2348 102.363 76.5841 102.227 77.617C102.092 78.6497 101.446 79.6188 100.857 79.335C100.267 79.0509 100.622 77.9413 101.345 77.1918C102.068 76.4422 101.19 76.385 100.425 76.6572C99.6595 76.9288 99.2821 75.832 100.12 75.5955C100.959 75.3594 102.169 75.6676 102.384 75.2223C102.556 74.8657 102.842 74.2711 102.949 74.0485C102.649 73.8095 102.436 73.4874 102.33 73.1311C102.085 73.1503 101.432 73.2019 101.04 73.233C100.551 73.2721 100.393 74.5219 99.8683 75.2226C99.3438 75.9238 98.4705 75.1688 99.0007 74.5492C99.5309 73.9299 99.7996 73.0842 98.8441 73.4896C97.8881 73.895 96.735 73.8231 96.6884 73.1653C96.6417 72.5077 97.7724 72.2544 98.774 72.5055ZM103.65 73.5351C104.173 73.7871 104.804 73.5631 105.058 73.0342C105.313 72.5055 105.095 71.8726 104.572 71.6207C104.048 71.3684 103.417 71.5925 103.163 72.1212C102.908 72.6501 103.126 73.2829 103.65 73.5351Z" fill="#CAEFFF"/>
<path d="M9.89093 103.791C9.85156 102.759 9.19591 103.349 8.85913 104.085C8.52244 104.82 7.46095 104.339 7.8754 103.576C8.28913 102.813 9.35923 102.156 9.18489 101.697C9.04584 101.33 8.81434 100.718 8.72698 100.488C8.54403 100.512 8.35414 100.51 8.16273 100.478C7.97132 100.446 7.79105 100.387 7.62632 100.304C7.46919 100.493 7.05082 100.996 6.79999 101.298C6.48634 101.676 7.28455 102.645 7.42785 103.501C7.5712 104.358 6.41111 104.467 6.33163 103.663C6.25221 102.858 5.82467 102.086 5.45133 103.049C5.07909 104.013 4.22031 104.79 3.70994 104.373C3.19954 103.956 3.80522 102.972 4.68763 102.425C5.56955 101.878 4.72374 101.61 3.91206 101.686C3.10008 101.762 2.98667 100.613 3.86196 100.589C4.73737 100.564 5.8499 101.156 6.16328 100.778C6.41476 100.476 6.83316 99.9721 6.99026 99.7831C6.76051 99.4907 6.61962 99.1313 6.59735 98.7482C6.35361 98.7074 5.70275 98.5987 5.31236 98.5335C4.82485 98.452 4.37915 99.6184 3.70252 100.168C3.02605 100.717 2.34737 99.7759 3.01047 99.3071C3.67407 98.8386 4.13341 98.0884 3.10386 98.2473C2.07482 98.4062 0.96339 98.0565 1.07129 97.4107C1.1791 96.7655 2.34387 96.7959 3.26533 97.2808C4.18726 97.7659 3.99678 96.9071 3.52148 96.2485C3.04679 95.5896 3.99443 94.9207 4.45577 95.6595C4.91706 96.3989 4.95932 97.647 5.44683 97.7285C5.83722 97.7937 6.48808 97.9024 6.73182 97.9432C6.87743 97.5881 7.12753 97.2937 7.43986 97.0922C7.35272 96.8624 7.12073 96.2502 6.9813 95.8823C6.80769 95.4234 5.5633 95.6206 4.74341 95.3133C3.92359 95.0056 4.40438 93.9558 5.14745 94.2921C5.89031 94.6277 6.77739 94.6496 6.12108 93.8455C5.46461 93.0409 5.21162 91.9138 5.82996 91.6851C6.44831 91.4564 7.00753 92.4712 7.04639 93.5031C7.08636 94.535 7.7415 93.9443 8.07826 93.2092C8.41487 92.4747 9.47647 92.9548 9.06252 93.718C8.64852 94.4815 7.57866 95.1384 7.75254 95.5973C7.89153 95.9647 8.12356 96.5766 8.21074 96.8061C8.39342 96.7815 8.58324 96.7839 8.77468 96.8159C8.96609 96.8479 9.1464 96.9073 9.3114 96.99C9.46874 96.8014 9.88656 96.298 10.1374 95.9958C10.4516 95.6185 9.65314 94.6493 9.51006 93.7928C9.36623 92.9364 10.5262 92.8275 10.6058 93.6315C10.6852 94.4362 11.1132 95.2083 11.486 94.2449C11.8583 93.2817 12.717 92.5037 13.2274 92.9211C13.7381 93.3384 13.1321 94.3221 12.2497 94.8696C11.3677 95.4166 12.2137 95.6843 13.0253 95.6084C13.8373 95.532 13.9507 96.6811 13.0754 96.7055C12.2004 96.7296 11.0882 96.1387 10.7741 96.516C10.5226 96.8187 10.1042 97.3222 9.94739 97.5112C10.1772 97.8033 10.3178 98.163 10.34 98.5461C10.5838 98.5868 11.2346 98.6955 11.625 98.7608C12.1125 98.8422 12.5583 97.6756 13.2348 97.1264C13.9113 96.5777 14.59 97.5184 13.9269 97.9872C13.2633 98.4554 12.804 99.2056 13.8336 99.0467C14.8628 98.8877 15.974 99.2375 15.8662 99.8828C15.7583 100.529 14.5938 100.498 13.6721 100.013C12.7501 99.5282 12.9406 100.387 13.4158 101.046C13.8905 101.705 12.9429 102.374 12.4815 101.635C12.0203 100.895 11.978 99.6473 11.4905 99.5658C11.1001 99.5006 10.4493 99.3918 10.2055 99.3511C10.0599 99.7062 9.81013 100 9.49775 100.202C9.58466 100.432 9.81662 101.044 9.95605 101.412C10.1304 101.871 11.3744 101.673 12.1939 101.981C13.0138 102.289 12.533 103.338 11.7899 103.002C11.047 102.666 10.16 102.645 10.8162 103.449C11.4727 104.253 11.726 105.381 11.1074 105.609C10.489 105.838 9.92985 104.823 9.89093 103.791ZM9.51681 98.8219C9.61249 98.2492 9.22109 97.7061 8.64207 97.6094C8.06328 97.5127 7.51658 97.899 7.4209 98.4717C7.32509 99.0451 7.71653 99.5879 8.29532 99.6846C8.87435 99.7814 9.421 99.3953 9.51681 98.8219Z" fill="#CAEFFF"/>
<path d="M49.8909 99.7911C49.8516 98.7589 49.1959 99.3494 48.8591 100.085C48.5224 100.82 47.4609 100.339 47.8754 99.5761C48.2891 98.8126 49.3592 98.1559 49.1849 97.6967C49.0458 97.3296 48.8143 96.7177 48.727 96.4877C48.544 96.5125 48.3541 96.5103 48.1627 96.4784C47.9713 96.4464 47.791 96.3867 47.6263 96.3038C47.4692 96.493 47.0508 96.9962 46.8 97.2982C46.4863 97.6759 47.2845 98.6447 47.4278 99.5013C47.5712 100.358 46.4111 100.467 46.3316 99.6625C46.2522 98.8575 45.8247 98.086 45.4513 99.0493C45.0791 100.013 44.2203 100.79 43.7099 100.373C43.1995 99.9559 43.8052 98.9722 44.6876 98.4247C45.5695 97.8784 44.7237 97.6097 43.9121 97.6859C43.1001 97.7621 42.9867 96.6132 43.862 96.5888C44.7374 96.5639 45.8499 97.1557 46.1633 96.7782C46.4147 96.4756 46.8332 95.9721 46.9903 95.7831C46.7605 95.4907 46.6196 95.1313 46.5973 94.7482C46.3536 94.7074 45.7027 94.5987 45.3123 94.5335C44.8248 94.452 44.3791 95.6184 43.7025 96.1678C43.026 96.7165 42.3474 95.7759 43.0105 95.3071C43.6741 94.8386 44.1334 94.0884 43.1039 94.2473C42.0748 94.4062 40.9634 94.0565 41.0713 93.4107C41.1791 92.7655 42.3439 92.7959 43.2653 93.2808C44.1873 93.7659 43.9968 92.9071 43.5215 92.2485C43.0468 91.5896 43.9944 90.9207 44.4558 91.6595C44.9171 92.3989 44.9593 93.647 45.4468 93.7285C45.8372 93.7937 46.4881 93.9024 46.7318 93.9432C46.8774 93.5881 47.1275 93.2937 47.4398 93.0922C47.3527 92.8624 47.1207 92.2502 46.9813 91.8823C46.8077 91.4234 45.5633 91.6206 44.7434 91.3133C43.9236 91.0056 44.4044 89.9558 45.1474 90.2921C45.8903 90.6277 46.7774 90.6496 46.1211 89.8455C45.4646 89.0409 45.2116 87.9138 45.83 87.6851C46.4483 87.4564 47.0075 88.4712 47.0464 89.5031C47.0864 90.535 47.7415 89.9443 48.0783 89.2092C48.4149 88.4747 49.4765 88.9548 49.0625 89.718C48.6485 90.4815 47.5787 91.1384 47.7525 91.5973C47.8915 91.9647 48.1236 92.5766 48.2107 92.8061C48.3934 92.7815 48.5832 92.7839 48.7747 92.8159C48.9661 92.8479 49.1464 92.9073 49.3114 92.99C49.4687 92.8014 49.8866 92.298 50.1374 91.9958C50.4516 91.6185 49.6531 90.6493 49.5101 89.7928C49.3662 88.9364 50.5262 88.8275 50.6058 89.6315C50.6852 90.4362 51.1132 91.2083 51.486 90.2449C51.8583 89.2817 52.717 88.5037 53.2274 88.9211C53.7381 89.3384 53.1321 90.3221 52.2497 90.8696C51.3677 91.4166 52.2136 91.6843 53.0253 91.6084C53.8373 91.532 53.9507 92.6811 53.0754 92.7055C52.2004 92.7296 51.0882 92.1387 50.7741 92.516C50.5226 92.8187 50.1042 93.3222 49.9474 93.5112C50.1772 93.8033 50.3178 94.163 50.34 94.5461C50.5838 94.5868 51.2346 94.6955 51.625 94.7608C52.1125 94.8422 52.5583 93.6756 53.2348 93.1264C53.9113 92.5777 54.59 93.5184 53.9269 93.9872C53.2633 94.4554 52.804 95.2056 53.8336 95.0467C54.8628 94.8877 55.974 95.2375 55.8662 95.8828C55.7583 96.5286 54.5938 96.4979 53.6721 96.0132C52.7501 95.5282 52.9406 96.387 53.4158 97.0457C53.8905 97.7047 52.9429 98.3736 52.4815 97.6347C52.0203 96.8952 51.978 95.6473 51.4905 95.5658C51.1001 95.5006 50.4493 95.3918 50.2055 95.3511C50.0599 95.7062 49.8101 96.0003 49.4977 96.2022C49.5847 96.4318 49.8166 97.044 49.956 97.412C50.1304 97.871 51.3744 97.6729 52.1939 97.981C53.0137 98.2887 52.533 99.3382 51.7899 99.0022C51.047 98.6663 50.1599 98.6447 50.8162 99.4488C51.4727 100.253 51.7259 101.381 51.1074 101.609C50.489 101.838 49.9298 100.823 49.8909 99.7911ZM49.5168 94.8219C49.6125 94.2492 49.2211 93.7061 48.6421 93.6094C48.0633 93.5127 47.5166 93.899 47.4209 94.4717C47.3251 95.0451 47.7165 95.5879 48.2953 95.6846C48.8743 95.7814 49.421 95.3953 49.5168 94.8219Z" fill="#CAEFFF"/>
<path d="M17.9307 110.518C18.9286 110.785 18.5578 109.985 17.9544 109.446C17.3515 108.907 18.1238 108.035 18.7307 108.656C19.3382 109.277 19.65 110.493 20.1402 110.462C20.532 110.437 21.1849 110.396 21.4305 110.381C21.4608 110.199 21.5188 110.018 21.6059 109.844C21.6929 109.671 21.8031 109.516 21.9309 109.383C21.7965 109.177 21.439 108.629 21.2245 108.3C20.9561 107.889 19.7949 108.366 18.9342 108.25C18.0737 108.135 18.3114 106.994 19.1035 107.155C19.8961 107.317 20.7594 107.136 19.9491 106.495C19.1385 105.855 18.6485 104.805 19.1978 104.441C19.7471 104.076 20.5083 104.945 20.7712 105.95C21.033 106.953 21.5393 106.225 21.7059 105.427C21.8726 104.628 23.0038 104.859 22.769 105.702C22.5345 106.546 21.6409 107.435 21.9091 107.845C22.1241 108.175 22.4818 108.723 22.616 108.929C22.9632 108.796 23.3482 108.767 23.7208 108.859C23.8316 108.638 24.1275 108.048 24.305 107.694C24.5266 107.253 23.5436 106.483 23.2182 105.674C22.8935 104.866 23.9924 104.495 24.2448 105.267C24.4967 106.039 25.0781 106.699 25.2298 105.669C25.3816 104.638 26.0436 103.68 26.6288 103.973C27.2135 104.267 26.8409 105.371 26.1057 106.108C25.3703 106.846 26.2471 106.917 27.0165 106.657C27.7862 106.398 28.1458 107.501 27.3037 107.724C26.4612 107.946 25.2562 107.619 25.0345 108.06C24.8571 108.414 24.5612 109.004 24.4503 109.225C24.7466 109.469 24.9541 109.794 25.0546 110.152C25.2998 110.137 25.9532 110.096 26.3459 110.071C26.8356 110.041 27.0142 108.793 27.5497 108.101C28.0855 107.408 28.9468 108.177 28.4063 108.788C27.8665 109.399 27.5839 110.24 28.5458 109.85C29.5083 109.46 30.6599 109.551 30.696 110.209C30.7322 110.867 29.5975 111.102 28.6 110.835C27.6023 110.569 27.9734 111.369 28.5765 111.908C29.179 112.446 28.4072 113.319 27.8 112.698C27.1926 112.077 26.8805 110.861 26.3907 110.892C25.9987 110.917 25.3456 110.958 25.1006 110.973C25.0702 111.155 25.0119 111.336 24.9248 111.509C24.8378 111.683 24.7278 111.838 24.6002 111.971C24.734 112.177 25.0917 112.724 25.3065 113.053C25.5744 113.465 26.7359 112.988 27.5965 113.104C28.4573 113.219 28.2191 114.359 27.4275 114.198C26.6351 114.037 25.7711 114.218 26.5817 114.858C27.3922 115.498 27.8823 116.548 27.3329 116.913C26.7835 117.278 26.0224 116.408 25.7596 115.404C25.497 114.4 24.9917 115.129 24.8248 115.927C24.6583 116.725 23.5269 116.495 23.7618 115.651C23.9968 114.808 24.8895 113.92 24.6216 113.508C24.4066 113.179 24.0489 112.63 23.9146 112.425C23.5677 112.558 23.1826 112.586 22.8099 112.495C22.6991 112.716 22.4032 113.305 22.2257 113.659C22.0041 114.101 22.9873 114.871 23.3125 115.679C23.6373 116.488 22.5383 116.859 22.2859 116.087C22.0343 115.315 21.4529 114.654 21.3011 115.685C21.1494 116.715 20.4874 117.674 19.9026 117.381C19.3174 117.087 19.6902 115.983 20.4252 115.246C21.1606 114.508 20.2839 114.436 19.5142 114.696C18.7446 114.955 18.385 113.853 19.227 113.63C20.0697 113.407 21.2746 113.735 21.4962 113.293C21.6737 112.939 21.9696 112.35 22.0804 112.129C21.7841 111.885 21.5767 111.559 21.476 111.201C21.2309 111.217 20.5775 111.258 20.1848 111.282C19.6948 111.314 19.5171 112.561 18.981 113.253C18.4452 113.945 17.5841 113.177 18.1244 112.566C18.6645 111.955 18.9468 111.114 17.9849 111.504C17.0224 111.893 15.8707 111.803 15.8347 111.144C15.7986 110.486 16.9332 110.251 17.9307 110.518ZM22.7892 111.627C23.3082 111.887 23.9426 111.673 24.2058 111.149C24.4689 110.624 24.261 109.988 23.7421 109.727C23.2225 109.467 22.5883 109.681 22.3252 110.205C22.0619 110.73 22.2696 111.366 22.7892 111.627Z" fill="#CAEFFF"/>
</g>
<defs>
<clipPath id="clip0_33_96">
<rect width="110" height="119" fill="white"/>
</clipPath>
</defs>
</svg>
