<svg width="100" height="100" viewBox="0 0 110 119" fill="none" xmlns="http://www.w3.org/2000/svg">
<g clip-path="url(#clip0_33_96)">
<path fill-rule="evenodd" clip-rule="evenodd" d="M44.7065 44.5989C45.8679 44.6607 46.7264 44.789 47.6898 45.0447C48.8693 45.3577 49.8669 45.7536 50.8671 46.3057L51.1726 46.4743L60.347 46.4745L69.5214 46.4747L69.4544 46.528C68.8229 47.0304 68.0383 47.7763 67.4578 48.4261C66.6767 49.3007 65.9946 50.2671 65.4008 51.3404C65.1801 51.7392 64.7622 52.6019 64.7622 52.6586C64.7622 52.6676 64.8336 52.6902 64.9208 52.7087C65.4497 52.8211 66.2238 53.0416 66.8389 53.2553C68.1825 53.7219 69.6232 54.4798 70.8261 55.3529L71.1117 55.5601H82.7428H94.374L94.386 55.6136C94.392 55.6431 94.405 55.6978 94.414 55.7352C94.423 55.7727 94.465 55.9959 94.507 56.2314C94.737 57.498 94.803 58.7338 94.719 60.1517C94.615 61.8893 94.173 63.7191 93.453 65.3912C92.077 68.5836 89.611 71.2986 86.577 72.9625C84.4743 74.1154 82.0936 74.7859 79.8376 74.8606C79.5362 74.8705 78.5265 74.8789 77.5938 74.8792L75.898 74.8797L75.6726 75.3223C75.4 75.8576 75.2297 76.166 75.0144 76.5139C74.4788 77.3797 73.9177 78.1401 73.3225 78.8071C73.0243 79.1413 72.3106 79.854 71.9919 80.1358C70.3488 81.5892 68.4462 82.6774 66.4063 83.3309C65.1644 83.7287 63.7323 83.9908 62.5124 84.0436C61.9363 84.0685 27.7068 84.0671 27.5928 84.0421C27.5452 84.0317 27.3722 84.0056 27.2082 83.9841C27.0443 83.9626 26.7568 83.919 26.5694 83.8873C23.2817 83.3312 20.3272 81.4612 18.3693 78.6971C17.5502 77.5407 16.8839 76.168 16.5183 74.8833C16.1202 73.4848 15.9732 72.3207 16.004 70.8134C16.037 69.1952 16.427 67.4767 17.1077 65.9495C17.3899 65.3163 17.8433 64.4915 18.1655 64.0254C18.7157 63.2293 19.198 62.6489 19.8166 62.0387C21.2543 60.6204 22.8508 59.6382 24.7528 59.0018C26.3899 58.4541 28.188 58.258 29.9835 58.4313C30.1615 58.4484 30.3124 58.4572 30.3188 58.4507C30.3252 58.4442 30.3377 58.2617 30.3466 58.0452C30.4106 56.4808 30.7231 54.9616 31.272 53.5465C31.4832 53.002 31.5706 52.8006 31.7745 52.3889C32.4625 50.999 33.2159 49.9358 34.3454 48.7606C34.7829 48.3054 35.146 47.98 35.7407 47.51C37.0242 46.4957 38.5619 45.6941 40.207 45.1817C40.4347 45.1108 41.2515 44.906 41.5241 44.8515C41.9569 44.7651 42.7435 44.6617 43.2259 44.6279C43.5243 44.607 44.4998 44.5879 44.7065 44.5989Z" fill="#B9E3F8"/>
<path fill-rule="evenodd" clip-rule="evenodd" d="M44.9034 43.0058C45.4738 43.0405 46.1993 43.1229 46.6243 43.2011C46.7671 43.2274 46.9493 43.2609 47.0293 43.2757C47.2328 43.3133 48.077 43.5379 48.4218 43.6463C49.2169 43.8962 50.0653 44.2587 50.8231 44.6724L51.1527 44.8524L60.3323 44.8621L69.5119 44.8718L69.2641 45.0756C68.6828 45.5536 67.8559 46.3581 67.3438 46.9439C66.5551 47.8459 65.8542 48.873 65.25 50.0119C65.0956 50.303 64.7994 50.9253 64.7688 51.0229C64.7565 51.0623 64.7675 51.0676 64.9439 51.1075C65.5846 51.2523 66.3554 51.4731 66.9021 51.6684C68.2791 52.1602 69.6697 52.8981 70.8815 53.7801L71.1122 53.9479H82.7483H94.384L94.463 54.3614C94.674 55.4698 94.754 56.2869 94.754 57.345C94.754 59.1149 94.564 60.4375 94.073 62.0863C93.634 63.561 92.891 65.1134 91.999 66.4191C90.696 68.3268 89 69.9195 87.015 71.099C86.666 71.3063 85.865 71.7218 85.495 71.8872C83.9832 72.5644 82.4816 72.9771 80.8283 73.1701C80.3502 73.2259 79.8521 73.2474 79.033 73.2477C78.6407 73.2479 77.7726 73.2538 77.1038 73.261L75.8877 73.2739L75.7138 73.6257C75.363 74.3353 75.1387 74.7264 74.6982 75.3961C74.0418 76.3939 73.4821 77.0728 72.5715 77.9758C71.803 78.7379 70.9848 79.3941 70.0717 79.9806C67.8607 81.4007 65.4954 82.1868 62.7477 82.4147C62.3304 82.4494 27.6347 82.4519 27.5666 82.4174C27.5413 82.4045 27.3993 82.3798 27.2513 82.3625C24.8328 82.0805 22.5087 81.0806 20.6426 79.5194C20.1652 79.1201 19.4864 78.4509 19.1162 78.0147L16.5289 73.2204C16.2962 72.4065 16.0662 70.7577 16.0662 70.7577C16.0662 70.7577 16.0328 68.7417 16.0667 68.423C16.1078 68.0359 16.2013 67.384 16.2537 67.1195C16.3254 66.7574 16.5151 66.023 16.6272 65.6735C16.9578 64.6427 17.4082 63.6694 17.9858 62.7376C18.0636 62.6122 18.1272 62.5006 18.1272 62.4895C18.1272 62.4786 18.1346 62.4695 18.1436 62.4695C18.1526 62.4695 18.1999 62.4087 18.2488 62.3344C18.3381 62.1985 18.7905 61.5902 18.9369 61.4092C19.2969 60.9639 19.9053 60.3386 20.4211 59.8836C21.4451 58.9803 22.7414 58.1826 24.0167 57.6712C25.0867 57.2421 26.2289 56.9587 27.3763 56.8378C28.0988 56.7616 29.0124 56.7458 29.6356 56.7986C29.826 56.8148 30.0652 56.8335 30.1671 56.8402L30.3525 56.8525L30.3645 56.5821C30.4415 54.8425 30.7043 53.5085 31.2607 52.0315C31.8682 50.4192 32.748 48.9493 33.8458 47.7124C34.1298 47.3924 34.6484 46.8597 34.922 46.607C35.1579 46.389 35.747 45.9051 36.0742 45.6606C36.9238 45.0255 38.056 44.3967 39.1026 43.9786C39.8039 43.6984 40.2205 43.5648 40.9518 43.3854C41.6566 43.2126 42.1339 43.1327 42.9997 43.0424C43.273 43.014 44.6137 42.9881 44.9034 43.0058Z" fill="#EBF9FF"/>
<path fill-rule="evenodd" clip-rule="evenodd" d="M13.2254 51.3954C13.9627 51.4493 14.5078 51.5613 15.1194 51.7844C15.8683 52.0576 16.5017 52.4031 17.1367 52.885L17.3306 53.0321L23.1553 53.0323L28.98 53.0325L28.9375 53.079C28.5366 53.5174 28.0384 54.1684 27.6699 54.7355C27.174 55.4988 26.7409 56.3422 26.3639 57.2789C26.2238 57.627 25.9585 58.3799 25.9585 58.4293C25.9585 58.4372 26.0038 58.4569 26.0592 58.4731C26.395 58.5712 26.8864 58.7636 27.277 58.9501C28.13 59.3573 29.0447 60.0188 29.8084 60.7807L29.9897 60.9616H37.3741H44.7586L44.7662 61.0083C44.7703 61.034 44.7783 61.0817 44.7839 61.1144C44.7895 61.1471 44.8163 61.342 44.8434 61.5474C44.989 62.6529 45.0313 63.7314 44.9777 64.9688C44.9119 66.4853 44.6311 68.0822 44.1737 69.5415C43.3003 72.3277 41.735 74.6971 39.8084 76.1492C38.4735 77.1554 36.962 77.7406 35.5297 77.8058C35.3383 77.8145 34.6973 77.8218 34.1051 77.822L33.0285 77.8224L32.8854 78.2087C32.7123 78.676 32.6042 78.945 32.4675 79.2487C32.1274 80.0043 31.7712 80.6679 31.3933 81.2501C31.204 81.5417 30.7509 82.1637 30.5486 82.4097C29.5053 83.678 28.2975 84.6278 27.0023 85.1981C26.2138 85.5453 25.3046 85.7741 24.5301 85.8201C24.1644 85.8418 2.43251 85.8406 2.36011 85.8188C2.32991 85.8098 2.22001 85.787 2.11601 85.7682C2.01191 85.7494 1.82941 85.7114 1.71041 85.6837C-0.376993 85.1984 -2.25269 83.5664 -3.49579 81.1541C-4.01579 80.1448 -4.43879 78.9468 -4.67089 77.8256C-4.92369 76.6051 -5.01703 75.5891 -4.99749 74.2737C-4.97649 72.8614 -4.72889 71.3616 -4.29679 70.0288C-4.11759 69.4761 -3.82969 68.7563 -3.62519 68.3496C-3.27579 67.6547 -2.96959 67.1483 -2.57689 66.6157C-1.66409 65.3779 -0.650492 64.5207 0.557008 63.9653C1.59641 63.4873 2.73801 63.3161 3.87791 63.4673C3.99091 63.4823 4.08671 63.49 4.09081 63.4843C4.09491 63.4786 4.10281 63.3194 4.10841 63.1304C4.14911 61.7651 4.34751 60.4393 4.69601 59.2042C4.83011 58.729 4.88561 58.5533 5.01501 58.1939C5.45191 56.9809 5.93011 56.0531 6.64721 55.0274C6.92501 54.6301 7.15551 54.3461 7.53311 53.936C8.34801 53.0508 9.32431 52.3512 10.3687 51.904C10.5133 51.8421 11.0318 51.6634 11.2049 51.6159C11.4797 51.5404 11.9791 51.4501 12.2854 51.4207C12.4748 51.4025 13.0941 51.3858 13.2254 51.3954Z" fill="#B9E3F8"/>
<path fill-rule="evenodd" clip-rule="evenodd" d="M13.3504 50.005C13.7125 50.0354 14.1732 50.1072 14.443 50.1755C14.5336 50.1984 14.6493 50.2277 14.7001 50.2406C14.8293 50.2734 15.3653 50.4695 15.5842 50.564C16.089 50.7821 16.6276 51.0985 17.1087 51.4596L17.318 51.6166L23.146 51.6251L28.974 51.6336L28.8167 51.8114C28.4476 52.2286 27.9227 52.9307 27.5975 53.442C27.0968 54.2292 26.6518 55.1256 26.2682 56.1195C26.1701 56.3736 25.9821 56.9167 25.9627 57.0019C25.9549 57.0362 25.9619 57.0409 26.0739 57.0757C26.4806 57.2021 26.97 57.3948 27.3171 57.5652C28.1913 57.9944 29.0742 58.6384 29.8435 59.4081L29.99 59.5546H37.3777H44.7653L44.8153 59.9155C44.9494 60.8828 45 61.596 45 62.5193C45.0001 64.064 44.8795 65.2183 44.5676 66.6573C44.2887 67.9443 43.8169 69.2992 43.2507 70.4386C42.4235 72.1035 41.3466 73.4935 40.0862 74.5229C39.8647 74.7039 39.3563 75.0665 39.1218 75.2108C38.1617 75.8018 37.2083 76.1621 36.1586 76.3305C35.8551 76.3792 35.5389 76.398 35.0188 76.3982C34.7698 76.3984 34.2186 76.4036 33.794 76.4098L33.0219 76.4211L32.9115 76.7281C32.6888 77.3474 32.5464 77.6887 32.2667 78.2731C31.85 79.144 31.4946 79.7365 30.9165 80.5245C30.4286 81.1897 29.9091 81.7624 29.3294 82.2742C27.9257 83.5136 26.424 84.1997 24.6795 84.3986C24.4146 84.4288 2.38671 84.4311 2.34351 84.4009C2.32741 84.3896 2.23731 84.3681 2.14331 84.353C0.60781 84.1069 -0.867689 83.2343 -2.05249 81.8717C-2.35549 81.5232 -2.78649 80.9392 -3.02149 80.5585L-4.66419 76.3744C-4.81189 75.664 -4.95799 74.2251 -4.95799 74.2251C-4.95799 74.2251 -4.97919 72.4657 -4.95769 72.1875C-4.93159 71.8497 -4.87219 71.2807 -4.83889 71.0499C-4.79339 70.7339 -4.67299 70.093 -4.60179 69.7879C-4.39189 68.8883 -4.10599 68.0389 -3.73919 67.2257C-3.68989 67.1162 -3.64949 67.0188 -3.64949 67.0092C-3.64949 66.9996 -3.64479 66.9917 -3.63909 66.9917C-3.63329 66.9917 -3.60329 66.9387 -3.57229 66.8738C-3.51559 66.7552 -3.22839 66.2243 -3.13539 66.0663C-2.90679 65.6777 -2.52059 65.132 -2.19309 64.7349C-1.54299 63.9465 -0.71999 63.2504 0.0897102 62.8041C0.76901 62.4296 1.49421 62.1823 2.22261 62.0767C2.68141 62.0102 3.26141 61.9964 3.65711 62.0425C3.77801 62.0566 3.92981 62.0729 3.99451 62.0788L4.11221 62.0895L4.11981 61.8536C4.16871 60.3353 4.33551 59.1712 4.68881 57.8821C5.07451 56.475 5.63311 55.1921 6.33011 54.1127C6.51041 53.8334 6.83961 53.3685 7.01331 53.1479C7.16311 52.9577 7.53711 52.5354 7.74481 52.322C8.28421 51.7677 9.00311 51.2189 9.66751 50.854C10.1128 50.6095 10.3773 50.4929 10.8416 50.3364C11.289 50.1855 11.592 50.1158 12.1418 50.037C12.3153 50.0122 13.1665 49.9896 13.3504 50.005Z" fill="#EBF9FF"/>
    <g class="cloud2">
        <path fill-rule="evenodd" clip-rule="evenodd" d="M59.7065 55.5989C60.8679 55.6607 61.7264 55.789 62.6898 56.0447C63.8693 56.3577 64.8669 56.7536 65.8671 57.3057L66.1726 57.4743L75.347 57.4745L84.5214 57.4747L84.4544 57.528C83.8229 58.0304 83.0383 58.7763 82.4578 59.4261C81.6767 60.3007 80.9946 61.2671 80.4008 62.3404C80.1801 62.7392 79.7622 63.6019 79.7622 63.6586C79.7622 63.6676 79.8336 63.6902 79.9208 63.7087C80.4497 63.8211 81.2238 64.0416 81.8389 64.2553C83.1825 64.7219 84.6232 65.4798 85.8261 66.3529L86.1117 66.5601H97.7428H109.374L109.386 66.6136C109.392 66.6431 109.405 66.6978 109.414 66.7352C109.423 66.7727 109.465 66.9959 109.507 67.2314C109.737 68.498 109.803 69.7338 109.719 71.1517C109.615 72.8893 109.173 74.7191 108.453 76.3912C107.077 79.5836 104.611 82.2986 101.577 83.9625C99.4743 85.1154 97.0936 85.7859 94.8376 85.8606C94.5362 85.8705 93.5265 85.8789 92.5938 85.8792L90.898 85.8797L90.6726 86.3223C90.4 86.8576 90.2297 87.166 90.0144 87.5139C89.4788 88.3797 88.9177 89.1401 88.3225 89.8071C88.0243 90.1413 87.3106 90.854 86.9919 91.1358C85.3488 92.5892 83.4462 93.6774 81.4063 94.3309C80.1644 94.7287 78.7323 94.9908 77.5124 95.0436C76.9363 95.0685 42.7068 95.0671 42.5928 95.0421C42.5452 95.0317 42.3722 95.0056 42.2082 94.9841C42.0443 94.9626 41.7568 94.919 41.5694 94.8873C38.2817 94.3312 35.3272 92.4612 33.3693 89.6971C32.5502 88.5407 31.8839 87.168 31.5183 85.8833C31.1202 84.4848 30.9732 83.3207 31.004 81.8134C31.037 80.1952 31.427 78.4767 32.1077 76.9495C32.3899 76.3163 32.8433 75.4915 33.1655 75.0254C33.7157 74.2293 34.198 73.6489 34.8166 73.0387C36.2543 71.6204 37.8508 70.6382 39.7528 70.0018C41.3899 69.4541 43.188 69.258 44.9835 69.4313C45.1615 69.4484 45.3124 69.4572 45.3188 69.4507C45.3252 69.4442 45.3377 69.2617 45.3466 69.0452C45.4106 67.4808 45.7231 65.9616 46.272 64.5465C46.4832 64.002 46.5706 63.8006 46.7745 63.3889C47.4625 61.999 48.2159 60.9358 49.3454 59.7606C49.7829 59.3054 50.146 58.98 50.7407 58.51C52.0242 57.4957 53.5619 56.6941 55.207 56.1817C55.4347 56.1108 56.2515 55.906 56.5241 55.8515C56.9569 55.7651 57.7435 55.6617 58.2259 55.6279C58.5243 55.607 59.4998 55.5879 59.7065 55.5989Z" fill="#B9E3F8"/>
        <path fill-rule="evenodd" clip-rule="evenodd" d="M59.9034 54.0058C60.4738 54.0405 61.1993 54.1229 61.6243 54.2011C61.7671 54.2274 61.9493 54.2609 62.0293 54.2757C62.2328 54.3133 63.077 54.5379 63.4218 54.6463C64.2169 54.8962 65.0653 55.2587 65.8231 55.6724L66.1527 55.8524L75.3323 55.8621L84.5119 55.8718L84.2641 56.0756C83.6828 56.5536 82.8559 57.3581 82.3438 57.9439C81.5551 58.8459 80.8542 59.873 80.25 61.0119C80.0956 61.303 79.7994 61.9253 79.7688 62.0229C79.7565 62.0623 79.7675 62.0676 79.9439 62.1075C80.5846 62.2523 81.3554 62.4731 81.9021 62.6684C83.2791 63.1602 84.6697 63.8981 85.8815 64.7801L86.1122 64.9479H97.7483H109.384L109.463 65.3614C109.674 66.4698 109.754 67.2869 109.754 68.345C109.754 70.1149 109.564 71.4375 109.073 73.0863C108.634 74.561 107.891 76.1134 106.999 77.4191C105.696 79.3268 104 80.9195 102.015 82.099C101.666 82.3063 100.865 82.7218 100.495 82.8872C98.9832 83.5644 97.4816 83.9771 95.8283 84.1701C95.3502 84.2259 94.8521 84.2474 94.033 84.2477C93.6407 84.2479 92.7726 84.2538 92.1038 84.261L90.8877 84.2739L90.7138 84.6257C90.363 85.3353 90.1387 85.7264 89.6982 86.3961C89.0418 87.3939 88.4821 88.0728 87.5715 88.9758C86.803 89.7379 85.9848 90.3941 85.0717 90.9806C82.8607 92.4007 80.4954 93.1868 77.7477 93.4147C77.3304 93.4494 42.6347 93.4519 42.5666 93.4174C42.5413 93.4045 42.3993 93.3798 42.2513 93.3625C39.8328 93.0805 37.5087 92.0806 35.6426 90.5194C35.1652 90.1201 34.4864 89.4509 34.1162 89.0147L31.5289 84.2204C31.2962 83.4065 31.0662 81.7577 31.0662 81.7577C31.0662 81.7577 31.0328 79.7417 31.0667 79.423C31.1078 79.0359 31.2013 78.384 31.2537 78.1195C31.3254 77.7574 31.5151 77.023 31.6272 76.6735C31.9578 75.6427 32.4082 74.6694 32.9858 73.7376C33.0636 73.6122 33.1272 73.5006 33.1272 73.4895C33.1272 73.4786 33.1346 73.4695 33.1436 73.4695C33.1526 73.4695 33.1999 73.4087 33.2488 73.3344C33.3381 73.1985 33.7905 72.5902 33.9369 72.4092C34.2969 71.9639 34.9053 71.3386 35.4211 70.8836C36.4451 69.9803 37.7414 69.1826 39.0167 68.6712C40.0867 68.2421 41.2289 67.9587 42.3763 67.8378C43.0988 67.7616 44.0124 67.7458 44.6356 67.7986C44.826 67.8148 45.0652 67.8335 45.1671 67.8402L45.3525 67.8525L45.3645 67.5821C45.4415 65.8425 45.7043 64.5085 46.2607 63.0315C46.8682 61.4192 47.748 59.9493 48.8458 58.7124C49.1298 58.3924 49.6484 57.8597 49.922 57.607C50.1579 57.389 50.747 56.9051 51.0742 56.6606C51.9238 56.0255 53.056 55.3967 54.1026 54.9786C54.8039 54.6984 55.2205 54.5648 55.9518 54.3854C56.6566 54.2126 57.1339 54.1327 57.9997 54.0424C58.273 54.014 59.6137 53.9881 59.9034 54.0058Z" fill="#EBF9FF"/>
    </g>
<g class="cloud3">
    <path fill-rule="evenodd" clip-rule="evenodd" d="M28.2254 62.3954C28.9627 62.4493 29.5078 62.5613 30.1194 62.7844C30.8683 63.0576 31.5017 63.4031 32.1367 63.885L32.3306 64.0321L38.1553 64.0323L43.98 64.0325L43.9375 64.079C43.5366 64.5174 43.0384 65.1684 42.6699 65.7355C42.174 66.4988 41.7409 67.3422 41.3639 68.2789C41.2238 68.627 40.9585 69.3799 40.9585 69.4293C40.9585 69.4372 41.0038 69.4569 41.0592 69.4731C41.395 69.5712 41.8864 69.7636 42.277 69.9501C43.13 70.3573 44.0447 71.0188 44.8084 71.7807L44.9897 71.9616H52.3741H59.7586L59.7662 72.0083C59.7703 72.034 59.7783 72.0817 59.7839 72.1144C59.7895 72.1471 59.8163 72.342 59.8434 72.5474C59.989 73.6529 60.0313 74.7314 59.9777 75.9688C59.9119 77.4853 59.6311 79.0822 59.1737 80.5415C58.3003 83.3277 56.735 85.6971 54.8084 87.1492C53.4735 88.1554 51.962 88.7406 50.5297 88.8058C50.3383 88.8145 49.6973 88.8218 49.1051 88.822L48.0285 88.8224L47.8854 89.2087C47.7123 89.676 47.6042 89.945 47.4675 90.2487C47.1274 91.0043 46.7712 91.6679 46.3933 92.2501C46.204 92.5417 45.7509 93.1637 45.5486 93.4097C44.5053 94.678 43.2975 95.6278 42.0023 96.1981C41.2138 96.5453 40.3046 96.7741 39.5301 96.8201C39.1644 96.8418 17.4325 96.8406 17.3601 96.8188C17.3299 96.8098 17.22 96.787 17.116 96.7682C17.0119 96.7494 16.8294 96.7114 16.7104 96.6837C14.623 96.1984 12.7473 94.5664 11.5042 92.1541C10.9842 91.1448 10.5612 89.9468 10.3291 88.8256C10.0763 87.6051 9.98296 86.5891 10.0025 85.2737C10.0235 83.8614 10.2711 82.3616 10.7032 81.0288C10.8824 80.4761 11.1703 79.7563 11.3748 79.3496C11.7242 78.6547 12.0304 78.1483 12.4231 77.6157C13.3359 76.3779 14.3495 75.5207 15.557 74.9653C16.5964 74.4873 17.738 74.3161 18.8779 74.4673C18.9909 74.4823 19.0867 74.49 19.0908 74.4843C19.0949 74.4786 19.1028 74.3194 19.1084 74.1304C19.1491 72.7651 19.3475 71.4393 19.696 70.2042C19.8301 69.729 19.8856 69.5533 20.015 69.1939C20.4519 67.9809 20.9301 67.0531 21.6472 66.0274C21.925 65.6301 22.1555 65.3461 22.5331 64.936C23.348 64.0508 24.3243 63.3512 25.3687 62.904C25.5133 62.8421 26.0318 62.6634 26.2049 62.6159C26.4797 62.5404 26.9791 62.4501 27.2854 62.4207C27.4748 62.4025 28.0941 62.3858 28.2254 62.3954Z" fill="#B9E3F8"/>
    <path fill-rule="evenodd" clip-rule="evenodd" d="M28.3504 61.005C28.7125 61.0354 29.1732 61.1072 29.443 61.1755C29.5336 61.1984 29.6493 61.2277 29.7001 61.2406C29.8293 61.2734 30.3653 61.4695 30.5842 61.564C31.089 61.7821 31.6276 62.0985 32.1087 62.4596L32.318 62.6166L38.146 62.6251L43.974 62.6336L43.8167 62.8114C43.4476 63.2286 42.9227 63.9307 42.5975 64.442C42.0968 65.2292 41.6518 66.1256 41.2682 67.1195C41.1701 67.3736 40.9821 67.9167 40.9627 68.0019C40.9549 68.0362 40.9619 68.0409 41.0739 68.0757C41.4806 68.2021 41.97 68.3948 42.3171 68.5652C43.1913 68.9944 44.0742 69.6384 44.8435 70.4081L44.99 70.5546H52.3777H59.7653L59.8153 70.9155C59.9494 71.8828 60 72.596 60 73.5193C60.0001 75.064 59.8795 76.2183 59.5676 77.6573C59.2887 78.9443 58.8169 80.2992 58.2507 81.4386C57.4235 83.1035 56.3466 84.4935 55.0862 85.5229C54.8647 85.7039 54.3563 86.0665 54.1218 86.2108C53.1617 86.8018 52.2083 87.1621 51.1586 87.3305C50.8551 87.3792 50.5389 87.398 50.0188 87.3982C49.7698 87.3984 49.2186 87.4036 48.794 87.4098L48.0219 87.4211L47.9115 87.7281C47.6888 88.3474 47.5464 88.6887 47.2667 89.2731C46.85 90.144 46.4946 90.7365 45.9165 91.5245C45.4286 92.1897 44.9091 92.7624 44.3294 93.2742C42.9257 94.5136 41.424 95.1997 39.6795 95.3986C39.4146 95.4288 17.3867 95.4311 17.3435 95.4009C17.3274 95.3896 17.2373 95.3681 17.1433 95.353C15.6078 95.1069 14.1323 94.2343 12.9475 92.8717C12.6445 92.5232 12.2135 91.9392 11.9785 91.5585L10.3358 87.3744C10.1881 86.664 10.042 85.2251 10.042 85.2251C10.042 85.2251 10.0208 83.4657 10.0423 83.1875C10.0684 82.8497 10.1278 82.2807 10.1611 82.0499C10.2066 81.7339 10.327 81.093 10.3982 80.7879C10.6081 79.8883 10.894 79.0389 11.2608 78.2257C11.3101 78.1162 11.3505 78.0188 11.3505 78.0092C11.3505 77.9996 11.3552 77.9917 11.3609 77.9917C11.3667 77.9917 11.3967 77.9387 11.4277 77.8738C11.4844 77.7552 11.7716 77.2243 11.8646 77.0663C12.0932 76.6777 12.4794 76.132 12.8069 75.7349C13.457 74.9465 14.28 74.2504 15.0897 73.8041C15.769 73.4296 16.4942 73.1823 17.2226 73.0767C17.6814 73.0102 18.2614 72.9964 18.6571 73.0425C18.778 73.0566 18.9298 73.0729 18.9945 73.0788L19.1122 73.0895L19.1198 72.8536C19.1687 71.3353 19.3355 70.1712 19.6888 68.8821C20.0745 67.475 20.6331 66.1921 21.3301 65.1127C21.5104 64.8334 21.8396 64.3685 22.0133 64.1479C22.1631 63.9577 22.5371 63.5354 22.7448 63.322C23.2842 62.7677 24.0031 62.2189 24.6675 61.854C25.1128 61.6095 25.3773 61.4929 25.8416 61.3364C26.289 61.1855 26.592 61.1158 27.1418 61.037C27.3153 61.0122 28.1665 60.9896 28.3504 61.005Z" fill="#EBF9FF"/>
</g>
<g class="cloud3">
    <path fill-rule="evenodd" clip-rule="evenodd" d="M55.7065 41.5989C56.8679 41.6607 57.7264 41.789 58.6898 42.0447C59.8693 42.3577 60.8669 42.7536 61.8671 43.3057L62.1726 43.4743L71.347 43.4745L80.5214 43.4747L80.4544 43.528C79.8229 44.0304 79.0383 44.7763 78.4578 45.4261C77.6767 46.3007 76.9946 47.2671 76.4008 48.3404C76.1801 48.7392 75.7622 49.6019 75.7622 49.6586C75.7622 49.6676 75.8336 49.6902 75.9208 49.7087C76.4497 49.8211 77.2238 50.0416 77.8389 50.2553C79.1825 50.7219 80.6232 51.4798 81.8261 52.3529L82.1117 52.5601H93.7428H105.374L105.386 52.6136C105.392 52.6431 105.405 52.6978 105.414 52.7352C105.423 52.7727 105.465 52.9959 105.507 53.2314C105.737 54.498 105.803 55.7338 105.719 57.1517C105.615 58.8893 105.173 60.7191 104.453 62.3912C103.077 65.5836 100.611 68.2986 97.5769 69.9625C95.4743 71.1154 93.0936 71.7859 90.8376 71.8606C90.5362 71.8705 89.5265 71.8789 88.5938 71.8792L86.898 71.8797L86.6726 72.3223C86.4 72.8576 86.2297 73.166 86.0144 73.5139C85.4788 74.3797 84.9177 75.1401 84.3225 75.8071C84.0243 76.1413 83.3106 76.854 82.9919 77.1358C81.3488 78.5892 79.4462 79.6774 77.4063 80.3309C76.1644 80.7287 74.7323 80.9908 73.5124 81.0436C72.9363 81.0685 38.7068 81.0671 38.5928 81.0421C38.5452 81.0317 38.3722 81.0056 38.2082 80.9841C38.0443 80.9626 37.7568 80.919 37.5694 80.8873C34.2817 80.3312 31.3272 78.4612 29.3693 75.6971C28.5502 74.5407 27.8839 73.168 27.5183 71.8833C27.1202 70.4848 26.9732 69.3207 27.004 67.8134C27.037 66.1952 27.427 64.4767 28.1077 62.9495C28.3899 62.3163 28.8433 61.4915 29.1655 61.0254C29.7157 60.2293 30.198 59.6489 30.8166 59.0387C32.2543 57.6204 33.8508 56.6382 35.7528 56.0018C37.3899 55.4541 39.188 55.258 40.9835 55.4313C41.1615 55.4484 41.3124 55.4572 41.3188 55.4507C41.3252 55.4442 41.3377 55.2617 41.3466 55.0452C41.4106 53.4808 41.7231 51.9616 42.272 50.5465C42.4832 50.002 42.5706 49.8006 42.7745 49.3889C43.4625 47.999 44.2159 46.9358 45.3454 45.7606C45.7829 45.3054 46.146 44.98 46.7407 44.51C48.0242 43.4957 49.5619 42.6941 51.207 42.1817C51.4347 42.1108 52.2515 41.906 52.5241 41.8515C52.9569 41.7651 53.7435 41.6617 54.2259 41.6279C54.5243 41.607 55.4998 41.5879 55.7065 41.5989Z" fill="#B9E3F8"/>
    <path fill-rule="evenodd" clip-rule="evenodd" d="M55.9034 40.0058C56.4738 40.0405 57.1993 40.1229 57.6243 40.2011C57.7671 40.2274 57.9493 40.2609 58.0293 40.2757C58.2328 40.3133 59.077 40.5379 59.4218 40.6463C60.2169 40.8962 61.0653 41.2587 61.8231 41.6724L62.1527 41.8524L71.3323 41.8621L80.5119 41.8718L80.2641 42.0756C79.6828 42.5536 78.8559 43.3581 78.3438 43.9439C77.5551 44.8459 76.8542 45.873 76.25 47.0119C76.0956 47.303 75.7994 47.9253 75.7688 48.0229C75.7565 48.0623 75.7675 48.0676 75.9439 48.1075C76.5846 48.2523 77.3554 48.4731 77.9021 48.6684C79.2791 49.1602 80.6697 49.8981 81.8815 50.7801L82.1122 50.9479H93.7483H105.384L105.463 51.3614C105.674 52.4698 105.754 53.2869 105.754 54.345C105.754 56.1149 105.564 57.4375 105.073 59.0863C104.634 60.561 103.891 62.1134 102.999 63.4191C101.696 65.3268 99.9997 66.9195 98.0146 68.099C97.6656 68.3063 96.8649 68.7218 96.4955 68.8872C94.9832 69.5644 93.4816 69.9771 91.8283 70.1701C91.3502 70.2259 90.8521 70.2474 90.033 70.2477C89.6407 70.2479 88.7726 70.2538 88.1038 70.261L86.8877 70.2739L86.7138 70.6257C86.363 71.3353 86.1387 71.7264 85.6982 72.3961C85.0418 73.3939 84.4821 74.0728 83.5715 74.9758C82.803 75.7379 81.9848 76.3941 81.0717 76.9806C78.8607 78.4007 76.4954 79.1868 73.7477 79.4147C73.3304 79.4494 38.6347 79.4519 38.5666 79.4174C38.5413 79.4045 38.3993 79.3798 38.2513 79.3625C35.8328 79.0805 33.5087 78.0806 31.6426 76.5194C31.1652 76.1201 30.4864 75.4509 30.1162 75.0147L27.5289 70.2204C27.2962 69.4065 27.0662 67.7577 27.0662 67.7577C27.0662 67.7577 27.0328 65.7417 27.0667 65.423C27.1078 65.0359 27.2013 64.384 27.2537 64.1195C27.3254 63.7574 27.5151 63.023 27.6272 62.6735C27.9578 61.6427 28.4082 60.6694 28.9858 59.7376C29.0636 59.6122 29.1272 59.5006 29.1272 59.4895C29.1272 59.4786 29.1346 59.4695 29.1436 59.4695C29.1526 59.4695 29.1999 59.4087 29.2488 59.3344C29.3381 59.1985 29.7905 58.5902 29.9369 58.4092C30.2969 57.9639 30.9053 57.3386 31.4211 56.8836C32.4451 55.9803 33.7414 55.1826 35.0167 54.6712C36.0867 54.2421 37.2289 53.9587 38.3763 53.8378C39.0988 53.7616 40.0124 53.7458 40.6356 53.7986C40.826 53.8148 41.0652 53.8335 41.1671 53.8402L41.3525 53.8525L41.3645 53.5821C41.4415 51.8425 41.7043 50.5085 42.2607 49.0315C42.8682 47.4192 43.748 45.9493 44.8458 44.7124C45.1298 44.3924 45.6484 43.8597 45.922 43.607C46.1579 43.389 46.747 42.9051 47.0742 42.6606C47.9238 42.0255 49.056 41.3967 50.1026 40.9786C50.8039 40.6984 51.2205 40.5648 51.9518 40.3854C52.6566 40.2126 53.1339 40.1327 53.9997 40.0424C54.273 40.014 55.6137 39.9881 55.9034 40.0058Z" fill="#EBF9FF"/>
</g>
<g class="cloud1">
    <path fill-rule="evenodd" clip-rule="evenodd" d="M44.7065 27.5989C45.8679 27.6607 46.7264 27.789 47.6898 28.0447C48.8693 28.3577 49.8669 28.7536 50.8671 29.3057L51.1726 29.4743L60.347 29.4745L69.5214 29.4747L69.4544 29.528C68.8229 30.0304 68.0383 30.7763 67.4578 31.4261C66.6767 32.3007 65.9946 33.2671 65.4008 34.3404C65.1801 34.7392 64.7622 35.6019 64.7622 35.6586C64.7622 35.6676 64.8336 35.6902 64.9208 35.7087C65.4497 35.8211 66.2238 36.0416 66.8389 36.2553C68.1825 36.7219 69.6232 37.4798 70.8261 38.3529L71.1117 38.5601H82.7428H94.3739L94.3858 38.6136C94.3924 38.6431 94.405 38.6978 94.4138 38.7352C94.4227 38.7727 94.4648 38.9959 94.5074 39.2314C94.7368 40.498 94.8035 41.7338 94.719 43.1517C94.6154 44.8893 94.1732 46.7191 93.4527 48.3912C92.077 51.5836 89.6115 54.2986 86.5769 55.9625C84.4743 57.1154 82.0936 57.7859 79.8376 57.8606C79.5362 57.8705 78.5265 57.8789 77.5938 57.8792L75.898 57.8797L75.6726 58.3223C75.4 58.8576 75.2297 59.166 75.0144 59.5139C74.4788 60.3797 73.9177 61.1401 73.3225 61.8071C73.0243 62.1413 72.3106 62.854 71.9919 63.1358C70.3488 64.5892 68.4462 65.6774 66.4063 66.3309C65.1644 66.7287 63.7323 66.9908 62.5124 67.0436C61.9363 67.0685 27.7068 67.0671 27.5928 67.0421C27.5452 67.0317 27.3722 67.0056 27.2082 66.9841C27.0443 66.9626 26.7568 66.919 26.5694 66.8873C23.2817 66.3312 20.3272 64.4612 18.3693 61.6971C17.5502 60.5407 16.8839 59.168 16.5183 57.8833C16.1202 56.4848 15.9732 55.3207 16.004 53.8134C16.037 52.1952 16.427 50.4767 17.1077 48.9495C17.3899 48.3163 17.8433 47.4915 18.1655 47.0254C18.7157 46.2293 19.198 45.6489 19.8166 45.0387C21.2543 43.6204 22.8508 42.6382 24.7528 42.0018C26.3899 41.4541 28.188 41.258 29.9835 41.4313C30.1615 41.4484 30.3124 41.4572 30.3188 41.4507C30.3252 41.4442 30.3377 41.2617 30.3466 41.0452C30.4106 39.4808 30.7231 37.9616 31.272 36.5465C31.4832 36.002 31.5706 35.8006 31.7745 35.3889C32.4625 33.999 33.2159 32.9358 34.3454 31.7606C34.7829 31.3054 35.146 30.98 35.7407 30.51C37.0242 29.4957 38.5619 28.6941 40.207 28.1817C40.4347 28.1108 41.2515 27.906 41.5241 27.8515C41.9569 27.7651 42.7435 27.6617 43.2259 27.6279C43.5243 27.607 44.4998 27.5879 44.7065 27.5989Z" fill="#B9E3F8"/>
    <path fill-rule="evenodd" clip-rule="evenodd" d="M44.9034 26.0058C45.4738 26.0405 46.1993 26.1229 46.6243 26.2011C46.7671 26.2274 46.9493 26.2609 47.0293 26.2757C47.2328 26.3133 48.077 26.5379 48.4218 26.6463C49.2169 26.8962 50.0653 27.2587 50.8231 27.6724L51.1527 27.8524L60.3323 27.8621L69.5119 27.8718L69.2641 28.0756C68.6828 28.5536 67.8559 29.3581 67.3438 29.9439C66.5551 30.8459 65.8542 31.873 65.25 33.0119C65.0956 33.303 64.7994 33.9253 64.7688 34.0229C64.7565 34.0623 64.7675 34.0676 64.9439 34.1075C65.5846 34.2523 66.3554 34.4731 66.9021 34.6684C68.2791 35.1602 69.6697 35.8981 70.8815 36.7801L71.1122 36.9479H82.7483H94.3845L94.4633 37.3614C94.6744 38.4698 94.7541 39.2869 94.7542 40.345C94.7542 42.1149 94.5643 43.4375 94.0731 45.0863C93.6338 46.561 92.8906 48.1134 91.9989 49.4191C90.696 51.3268 88.9997 52.9195 87.0146 54.099C86.6656 54.3063 85.8649 54.7218 85.4955 54.8872C83.9832 55.5644 82.4816 55.9771 80.8283 56.1701C80.3502 56.2259 79.8521 56.2474 79.033 56.2477C78.6407 56.2479 77.7726 56.2538 77.1038 56.261L75.8877 56.2739L75.7138 56.6257C75.363 57.3353 75.1387 57.7264 74.6982 58.3961C74.0418 59.3939 73.4821 60.0728 72.5715 60.9758C71.803 61.7379 70.9848 62.3941 70.0717 62.9806C67.8607 64.4007 65.4954 65.1868 62.7477 65.4147C62.3304 65.4494 27.6347 65.4519 27.5666 65.4174C27.5413 65.4045 27.3993 65.3798 27.2513 65.3625C24.8328 65.0805 22.5087 64.0806 20.6426 62.5194C20.1652 62.1201 19.4864 61.4509 19.1162 61.0147L16.5289 56.2204C16.2962 55.4065 16.0662 53.7577 16.0662 53.7577C16.0662 53.7577 16.0328 51.7417 16.0667 51.423C16.1078 51.0359 16.2013 50.384 16.2537 50.1195C16.3254 49.7574 16.5151 49.023 16.6272 48.6735C16.9578 47.6427 17.4082 46.6694 17.9858 45.7376C18.0636 45.6122 18.1272 45.5006 18.1272 45.4895C18.1272 45.4786 18.1346 45.4695 18.1436 45.4695C18.1526 45.4695 18.1999 45.4087 18.2488 45.3344C18.3381 45.1985 18.7905 44.5902 18.9369 44.4092C19.2969 43.9639 19.9053 43.3386 20.4211 42.8836C21.4451 41.9803 22.7414 41.1826 24.0167 40.6712C25.0867 40.2421 26.2289 39.9587 27.3763 39.8378C28.0988 39.7616 29.0124 39.7458 29.6356 39.7986C29.826 39.8148 30.0652 39.8335 30.1671 39.8402L30.3525 39.8525L30.3645 39.5821C30.4415 37.8425 30.7043 36.5085 31.2607 35.0315C31.8682 33.4192 32.748 31.9493 33.8458 30.7124C34.1298 30.3924 34.6484 29.8597 34.922 29.607C35.1579 29.389 35.747 28.9051 36.0742 28.6606C36.9238 28.0255 38.056 27.3967 39.1026 26.9786C39.8039 26.6984 40.2205 26.5648 40.9518 26.3854C41.6566 26.2126 42.1339 26.1327 42.9997 26.0424C43.273 26.014 44.6137 25.9881 44.9034 26.0058Z" fill="#EBF9FF"/>
</g>
<g class="cloud1">
    <path fill-rule="evenodd" clip-rule="evenodd" d="M84.7257 16.0456C86.2114 16.1247 87.3098 16.2888 88.5423 16.6159C90.0514 17.0164 91.3277 17.5229 92.6073 18.2292L92.9981 18.4449L104.735 18.4452L116.473 18.4455L116.387 18.5136C115.579 19.1563 114.575 20.1106 113.833 20.9419C112.833 22.0608 111.961 23.2972 111.201 24.6703C110.919 25.1806 110.384 26.2843 110.384 26.3567C110.384 26.3683 110.475 26.3972 110.587 26.4209C111.264 26.5646 112.254 26.8468 113.041 27.1201C114.76 27.7171 116.603 28.6867 118.142 29.8037L118.507 30.0689H133.387H148.268L148.283 30.1373C148.291 30.175 148.307 30.245 148.319 30.2929C148.33 30.3408 148.384 30.6264 148.438 30.9276C148.732 32.5481 148.817 34.1291 148.709 35.9431C148.577 38.1661 148.011 40.507 147.089 42.6462C145.329 46.7305 142.175 50.2039 138.293 52.3326C135.603 53.8075 132.557 54.6653 129.671 54.7609C129.285 54.7736 127.993 54.7843 126.8 54.7847L124.631 54.7853L124.342 55.3516C123.993 56.0365 123.776 56.431 123.5 56.8761C122.815 57.9837 122.097 58.9566 121.336 59.8099C120.954 60.2374 120.041 61.1492 119.633 61.5098C117.531 63.3691 115.097 64.7614 112.487 65.5974C110.898 66.1064 109.066 66.4417 107.506 66.5091C106.769 66.541 62.9771 66.5392 62.8313 66.5073C62.7704 66.494 62.549 66.4606 62.3393 66.4331C62.1295 66.4055 61.7617 66.3498 61.522 66.3092C57.3158 65.5978 53.536 63.2054 51.0312 59.6692C49.9832 58.1897 49.1308 56.4335 48.6631 54.79C48.1538 53.0008 47.9656 51.5115 48.0051 49.5832C48.0474 47.5128 48.5463 45.3143 49.4171 43.3605C49.7781 42.5504 50.3583 41.4952 50.7704 40.8989C51.4744 39.8804 52.0914 39.1379 52.8827 38.3573C54.7221 36.5427 56.7646 35.2861 59.1979 34.472C61.2923 33.7713 63.5928 33.5204 65.8898 33.742C66.1175 33.764 66.3105 33.7752 66.3187 33.7669C66.3269 33.7586 66.3429 33.5252 66.3543 33.2482C66.4362 31.2468 66.836 29.3031 67.5383 27.4927C67.8085 26.7961 67.9203 26.5384 68.1811 26.0117C69.0614 24.2335 70.0251 22.8734 71.4701 21.3699C72.0299 20.7875 72.4944 20.3712 73.2552 19.7699C74.8973 18.4723 76.8646 17.4467 78.9692 16.7912C79.2605 16.7004 80.3055 16.4385 80.6543 16.3688C81.2079 16.2582 82.2143 16.1259 82.8314 16.0827C83.2133 16.056 84.4612 16.0315 84.7257 16.0456Z" fill="#B9E3F8"/>
    <path fill-rule="evenodd" clip-rule="evenodd" d="M84.9775 14.0074C85.7073 14.0518 86.6355 14.1572 87.1793 14.2573C87.3619 14.2909 87.595 14.3338 87.6973 14.3527C87.9577 14.4008 89.0377 14.6882 89.4789 14.8268C90.4961 15.1465 91.5814 15.6103 92.5509 16.1396L92.9727 16.3699L104.717 16.3823L116.46 16.3947L116.143 16.6554C115.4 17.267 114.342 18.2962 113.687 19.0456C112.678 20.1996 111.781 21.5137 111.008 22.9706C110.81 23.3431 110.432 24.1393 110.392 24.2642C110.377 24.3145 110.391 24.3213 110.616 24.3723C111.436 24.5576 112.422 24.8401 113.122 25.0899C114.883 25.7191 116.662 26.6631 118.213 27.7915L118.508 28.0062H133.395H148.281L148.382 28.5352C148.652 29.9532 148.754 30.9987 148.754 32.3522C148.754 34.6166 148.511 36.3087 147.883 38.418C147.321 40.3048 146.37 42.2908 145.229 43.9612C143.562 46.4018 141.392 48.4394 138.853 49.9484C138.406 50.2137 137.382 50.7452 136.909 50.9569C134.974 51.8232 133.053 52.3513 130.938 52.5981C130.326 52.6695 129.689 52.6971 128.641 52.6975C128.139 52.6977 127.029 52.7053 126.173 52.7144L124.617 52.7309L124.395 53.1811C123.946 54.0889 123.659 54.5892 123.096 55.4459C122.256 56.7225 121.54 57.591 120.375 58.7462C119.392 59.7213 118.345 60.5608 117.177 61.3111C114.348 63.128 111.322 64.1337 107.807 64.4253C107.273 64.4696 62.8848 64.4729 62.7978 64.4286C62.7653 64.4121 62.5837 64.3805 62.3943 64.3584C59.3002 63.9976 56.3269 62.7185 53.9395 60.7211C53.3288 60.2102 52.4604 59.3541 51.9868 58.796L48.6767 52.6625C48.379 51.6212 48.0847 49.5118 48.0847 49.5118C48.0847 49.5118 48.042 46.9327 48.0853 46.5249C48.1379 46.0297 48.2576 45.1956 48.3246 44.8572C48.4163 44.3941 48.659 43.4545 48.8024 43.0074C49.2254 41.6886 49.8016 40.4434 50.5405 39.2513C50.64 39.0908 50.7214 38.948 50.7214 38.934C50.7214 38.9199 50.7309 38.9084 50.7424 38.9084C50.754 38.9084 50.8145 38.8306 50.877 38.7355C50.9913 38.5616 51.57 37.7834 51.7573 37.5518C52.2179 36.9822 52.9962 36.1822 53.6561 35.6C54.9662 34.4444 56.6246 33.4239 58.2562 32.7696C59.6251 32.2206 61.0863 31.8581 62.5542 31.7034C63.4786 31.6059 64.6475 31.5857 65.4448 31.6533C65.6883 31.6739 65.9943 31.6979 66.1247 31.7065L66.3619 31.7222L66.3772 31.3763C66.4758 29.1507 66.8119 27.4441 67.5238 25.5545C68.301 23.4917 69.4266 21.6112 70.831 20.0288C71.1944 19.6194 71.8579 18.9379 72.2078 18.6146C72.5096 18.3358 73.2634 17.7166 73.6819 17.4038C74.7688 16.5914 76.2174 15.7868 77.5563 15.2519C78.4535 14.8935 78.9865 14.7225 79.9221 14.4931C80.8237 14.272 81.4344 14.1697 82.5421 14.0543C82.8917 14.0179 84.607 13.9848 84.9775 14.0074Z" fill="#EBF9FF"/>
</g>
<g class="precipitation">
<path d="M89.774 106.505C90.7761 106.756 90.3924 105.962 89.7804 105.433C89.1689 104.904 89.927 104.019 90.5439 104.63C91.1613 105.241 91.4927 106.452 91.9823 106.413C92.3737 106.382 93.0259 106.331 93.2711 106.311C93.2985 106.129 93.3536 105.947 93.4378 105.772C93.522 105.597 93.6297 105.441 93.7554 105.306C93.6176 105.102 93.2513 104.56 93.0315 104.234C92.7566 103.828 91.6032 104.323 90.7407 104.222C89.8785 104.12 90.0977 102.975 90.8923 103.124C91.6874 103.273 92.5477 103.078 91.7271 102.45C90.9063 101.824 90.3994 100.782 90.9428 100.408C91.4861 100.035 92.2613 100.891 92.5403 101.891C92.8183 102.891 93.3127 102.154 93.4665 101.353C93.6203 100.552 94.755 100.765 94.5338 101.612C94.3131 102.459 93.4339 103.362 93.7088 103.768C93.929 104.095 94.2955 104.637 94.433 104.841C94.778 104.702 95.1625 104.667 95.5366 104.753C95.6438 104.53 95.9301 103.935 96.1019 103.579C96.3163 103.134 95.321 102.38 94.9826 101.576C94.6448 100.774 95.7376 100.385 96.0025 101.152C96.2668 101.921 96.8587 102.571 96.9939 101.538C97.129 100.506 97.7754 99.5365 98.3652 99.8206C98.9546 100.104 98.5999 101.214 97.8767 101.964C97.1533 102.713 98.0312 102.77 98.7963 102.498C99.5616 102.226 99.939 103.323 99.1007 103.56C98.2619 103.796 97.0517 103.488 96.8372 103.933C96.6655 104.29 96.3791 104.884 96.2719 105.107C96.5721 105.346 96.7848 105.668 96.8911 106.024C97.136 106.005 97.7887 105.953 98.1809 105.922C98.67 105.884 98.8285 104.634 99.3528 103.933C99.8773 103.231 100.751 103.987 100.22 104.606C99.6904 105.225 99.4215 106.071 100.377 105.666C101.333 105.26 102.486 105.332 102.533 105.99C102.579 106.648 101.449 106.901 100.447 106.65C99.4452 106.4 99.8292 107.194 100.441 107.723C101.052 108.251 100.294 109.136 99.6773 108.525C99.0599 107.915 98.7282 106.704 98.239 106.742C97.8474 106.773 97.195 106.825 96.9503 106.845C96.9228 107.027 96.8675 107.208 96.7833 107.383C96.6991 107.558 96.5916 107.715 96.4661 107.85C96.6032 108.054 96.9698 108.596 97.1898 108.921C97.4643 109.328 98.618 108.832 99.4804 108.934C100.343 109.036 100.123 110.18 99.329 110.031C98.5342 109.883 97.6732 110.078 98.494 110.705C99.3148 111.332 99.8217 112.374 99.2783 112.747C98.7349 113.121 97.9598 112.264 97.6808 111.264C97.4021 110.264 96.9086 111.001 96.7546 111.802C96.601 112.603 95.466 112.391 95.6873 111.543C95.9086 110.697 96.7869 109.794 96.5124 109.387C96.2921 109.061 95.9256 108.518 95.788 108.315C95.4432 108.454 95.0586 108.488 94.6845 108.403C94.5773 108.625 94.291 109.22 94.1192 109.576C93.9048 110.022 94.9003 110.776 95.2385 111.579C95.5763 112.382 94.4834 112.771 94.2186 112.003C93.9545 111.235 93.3626 110.584 93.2275 111.617C93.0925 112.65 92.446 113.619 91.8565 113.335C91.2667 113.051 91.6216 111.941 92.3446 111.192C93.068 110.442 92.1902 110.385 91.4248 110.657C90.6595 110.929 90.2821 109.832 91.1204 109.596C91.9594 109.359 93.1694 109.668 93.3839 109.222C93.5556 108.866 93.842 108.271 93.9492 108.049C93.649 107.809 93.4364 107.487 93.3299 107.131C93.0851 107.15 92.4324 107.202 92.0402 107.233C91.5508 107.272 91.3932 108.522 90.8683 109.223C90.3438 109.924 89.4705 109.169 90.0007 108.549C90.5309 107.93 90.7996 107.084 89.8441 107.49C88.8881 107.895 87.735 107.823 87.6884 107.165C87.6417 106.508 88.7724 106.254 89.774 106.505ZM94.6498 107.535C95.1729 107.787 95.8038 107.563 96.0585 107.034C96.3131 106.505 96.0949 105.873 95.5719 105.621C95.0481 105.368 94.4175 105.593 94.1629 106.121C93.9081 106.65 94.1261 107.283 94.6498 107.535Z" fill="#CAEFFF"/>
<path d="M100.774 73.5055C101.776 73.7562 101.392 72.9616 100.78 72.4327C100.169 71.904 100.927 71.0191 101.544 71.6304C102.161 72.241 102.493 73.452 102.982 73.4129C103.374 73.382 104.026 73.3308 104.271 73.3112C104.299 73.1286 104.354 72.9469 104.438 72.7721C104.522 72.5972 104.63 72.4408 104.755 72.3058C104.618 72.1021 104.251 71.5597 104.032 71.2345C103.757 70.8278 102.603 71.3234 101.741 71.2216C100.878 71.1199 101.098 69.9754 101.892 70.124C102.687 70.2727 103.548 70.0778 102.727 69.4501C101.906 68.8235 101.399 67.7815 101.943 67.4081C102.486 67.0347 103.261 67.8912 103.54 68.8915C103.818 69.8909 104.313 69.1539 104.466 68.3533C104.62 67.5524 105.755 67.7646 105.534 68.6118C105.313 69.4593 104.434 70.3621 104.709 70.7685C104.929 71.0945 105.296 71.637 105.433 71.8406C105.778 71.7018 106.163 71.667 106.537 71.7526C106.644 71.53 106.93 70.9355 107.102 70.5789C107.316 70.1336 106.321 69.3796 105.983 68.5764C105.645 67.7735 106.738 67.3848 107.002 68.1525C107.267 68.9206 107.859 69.5713 107.994 68.5384C108.129 67.5059 108.775 66.5365 109.365 66.8206C109.955 67.1045 109.6 68.2143 108.877 68.9635C108.153 69.7132 109.031 69.7703 109.796 69.498C110.562 69.2264 110.939 70.3232 110.101 70.5597C109.262 70.7959 108.052 70.4877 107.837 70.933C107.665 71.2896 107.379 71.8841 107.272 72.1068C107.572 72.3458 107.785 72.6682 107.891 73.0244C108.136 73.005 108.789 72.9533 109.181 72.9223C109.67 72.8839 109.828 71.6339 110.353 70.9326C110.877 70.2315 111.751 70.9865 111.22 71.606C110.69 72.2254 110.421 73.0711 111.377 72.6656C112.333 72.2602 113.486 72.3323 113.533 72.99C113.579 73.6476 112.449 73.9009 111.447 73.6498C110.445 73.3997 110.829 74.1939 111.441 74.7227C112.052 75.2511 111.294 76.1363 110.677 75.5255C110.06 74.9146 109.728 73.7038 109.239 73.7424C108.847 73.7732 108.195 73.825 107.95 73.8445C107.923 74.0268 107.867 74.2084 107.783 74.3833C107.699 74.5581 107.592 74.7146 107.466 74.8499C107.603 75.0537 107.97 75.5956 108.19 75.9209C108.464 76.328 109.618 75.8323 110.48 75.9343C111.343 76.0356 111.123 77.1797 110.329 77.0314C109.534 76.8828 108.673 77.0779 109.494 77.7051C110.315 78.3317 110.822 79.3737 110.278 79.7471C109.735 80.1208 108.96 79.2641 108.681 78.2638C108.402 77.264 107.909 78.0015 107.755 78.802C107.601 79.603 106.466 79.3907 106.687 78.5435C106.909 77.6966 107.787 76.7939 107.512 76.3868C107.292 76.0608 106.926 75.5183 106.788 75.3149C106.443 75.4539 106.059 75.4883 105.685 75.4027C105.577 75.6253 105.291 76.2198 105.119 76.5764C104.905 77.0217 105.9 77.7758 106.239 78.5789C106.576 79.3818 105.483 79.7705 105.219 79.0028C104.955 78.2348 104.363 77.5841 104.227 78.617C104.092 79.6497 103.446 80.6188 102.857 80.335C102.267 80.0509 102.622 78.9413 103.345 78.1918C104.068 77.4422 103.19 77.385 102.425 77.6572C101.659 77.9288 101.282 76.832 102.12 76.5955C102.959 76.3594 104.169 76.6676 104.384 76.2223C104.556 75.8657 104.842 75.2711 104.949 75.0485C104.649 74.8095 104.436 74.4874 104.33 74.1311C104.085 74.1503 103.432 74.2019 103.04 74.233C102.551 74.2721 102.393 75.5219 101.868 76.2226C101.344 76.9238 100.47 76.1688 101.001 75.5492C101.531 74.9299 101.8 74.0842 100.844 74.4896C99.8881 74.895 98.735 74.8231 98.6884 74.1653C98.6417 73.5077 99.7724 73.2544 100.774 73.5055ZM105.65 74.5351C106.173 74.7871 106.804 74.5631 107.058 74.0342C107.313 73.5055 107.095 72.8726 106.572 72.6207C106.048 72.3684 105.417 72.5925 105.163 73.1212C104.908 73.6501 105.126 74.2829 105.65 74.5351Z" fill="#CAEFFF"/>
<path d="M55.453 111.832C56.3911 112.265 56.1616 111.413 55.6585 110.779C55.1558 110.146 56.065 109.418 56.5577 110.133C57.051 110.847 57.1517 112.099 57.64 112.151C58.0303 112.194 58.6807 112.265 58.9253 112.291C58.9861 112.117 59.074 111.948 59.1892 111.792C59.3044 111.636 59.4393 111.502 59.5878 111.393C59.4904 111.167 59.2312 110.566 59.0756 110.206C58.8809 109.755 57.6557 110.028 56.8271 109.768C55.9987 109.508 56.4267 108.424 57.1799 108.717C57.9335 109.011 58.815 108.979 58.1253 108.21C57.4352 107.442 57.1307 106.324 57.7339 106.058C58.3371 105.792 58.9397 106.778 59.0281 107.812C59.1157 108.846 59.7384 108.214 60.0381 107.456C60.338 106.697 61.4136 107.116 61.0389 107.908C60.6646 108.7 59.633 109.423 59.8276 109.874C59.9835 110.235 60.2429 110.836 60.3401 111.062C60.7049 110.989 61.0892 111.027 61.4408 111.18C61.5875 110.981 61.9793 110.45 62.2143 110.132C62.5077 109.734 61.6698 108.808 61.4864 107.956C61.3037 107.105 62.4497 106.926 62.5673 107.729C62.6844 108.533 63.1451 109.282 63.4698 108.293C63.7943 107.303 64.6095 106.471 65.1363 106.859C65.6627 107.248 65.108 108.272 64.2583 108.874C63.4083 109.477 64.2602 109.696 65.0626 109.57C65.8651 109.446 66.0321 110.593 65.1645 110.67C64.2964 110.746 63.1645 110.219 62.8711 110.616C62.6361 110.935 62.2443 111.466 62.0976 111.665C62.3482 111.955 62.4973 112.312 62.5356 112.681C62.7798 112.708 63.4307 112.778 63.8219 112.821C64.3096 112.874 64.6975 111.675 65.3429 111.083C65.9885 110.492 66.7067 111.396 66.0703 111.906C65.4345 112.416 65.0132 113.197 66.0274 112.976C67.0421 112.756 68.1615 113.041 68.0854 113.695C68.0092 114.35 66.8511 114.389 65.9135 113.956C64.9755 113.525 65.2053 114.376 65.7082 115.01C66.2105 115.642 65.3016 116.371 64.8087 115.657C64.3155 114.942 64.2145 113.69 63.7266 113.637C63.3361 113.595 62.6855 113.525 62.4414 113.498C62.3805 113.672 62.2924 113.84 62.1772 113.997C62.062 114.153 61.9273 114.287 61.7789 114.396C61.8757 114.622 62.1353 115.222 62.2911 115.583C62.4852 116.034 63.7109 115.761 64.5393 116.022C65.368 116.281 64.9396 117.365 64.1868 117.072C63.4334 116.778 62.5511 116.81 63.2412 117.578C63.9313 118.347 64.2358 119.465 63.6326 119.731C63.0292 119.997 62.4267 119.011 62.3383 117.976C62.2502 116.942 61.6283 117.575 61.3283 118.333C61.0286 119.092 59.9528 118.672 60.3275 117.881C60.7024 117.09 61.733 116.366 61.5389 115.915C61.383 115.554 61.1236 114.953 61.0262 114.727C60.6616 114.8 60.2773 114.762 59.9256 114.608C59.7789 114.807 59.3872 115.338 59.1522 115.657C58.8587 116.055 59.6969 116.98 59.88 117.832C60.0628 118.684 58.9168 118.863 58.7992 118.059C58.6823 117.256 58.2215 116.506 57.8969 117.496C57.5724 118.486 56.7572 119.318 56.2307 118.93C55.7039 118.541 56.2587 117.517 57.1084 116.914C57.9584 116.312 57.1065 116.093 56.3039 116.218C55.5014 116.343 55.3343 115.195 56.202 115.119C57.0702 115.042 58.202 115.57 58.4954 115.172C58.7304 114.854 59.1222 114.323 59.2689 114.124C59.0183 113.833 58.8692 113.477 58.8307 113.107C58.5866 113.081 57.9357 113.01 57.5445 112.968C57.0564 112.916 56.6694 114.114 56.0235 114.705C55.3779 115.297 54.66 114.393 55.2961 113.883C55.9321 113.372 56.3532 112.591 55.3391 112.812C54.3243 113.033 53.2047 112.748 53.2811 112.093C53.3573 111.438 54.5154 111.399 55.453 111.832ZM60.0527 113.75C60.5199 114.094 61.1813 113.991 61.5299 113.519C61.8783 113.047 61.7814 112.384 61.3143 112.04C60.8465 111.695 60.1852 111.798 59.8368 112.27C59.4883 112.742 59.5849 113.404 60.0527 113.75Z" fill="#CAEFFF"/>
<path d="M9.89093 103.791C9.85156 102.759 9.19591 103.349 8.85913 104.085C8.52244 104.82 7.46095 104.339 7.8754 103.576C8.28913 102.813 9.35923 102.156 9.18489 101.697C9.04584 101.33 8.81434 100.718 8.72698 100.488C8.54403 100.512 8.35414 100.51 8.16273 100.478C7.97132 100.446 7.79105 100.387 7.62632 100.304C7.46919 100.493 7.05082 100.996 6.79999 101.298C6.48634 101.676 7.28455 102.645 7.42785 103.501C7.5712 104.358 6.41111 104.467 6.33163 103.663C6.25221 102.858 5.82467 102.086 5.45133 103.049C5.07909 104.013 4.22031 104.79 3.70994 104.373C3.19954 103.956 3.80522 102.972 4.68763 102.425C5.56955 101.878 4.72374 101.61 3.91206 101.686C3.10008 101.762 2.98667 100.613 3.86196 100.589C4.73737 100.564 5.8499 101.156 6.16328 100.778C6.41476 100.476 6.83316 99.9721 6.99026 99.7831C6.76051 99.4907 6.61962 99.1313 6.59735 98.7482C6.35361 98.7074 5.70275 98.5987 5.31236 98.5335C4.82485 98.452 4.37915 99.6184 3.70252 100.168C3.02605 100.717 2.34737 99.7759 3.01047 99.3071C3.67407 98.8386 4.13341 98.0884 3.10386 98.2473C2.07482 98.4062 0.96339 98.0565 1.07129 97.4107C1.1791 96.7655 2.34387 96.7959 3.26533 97.2808C4.18726 97.7659 3.99678 96.9071 3.52148 96.2485C3.04679 95.5896 3.99443 94.9207 4.45577 95.6595C4.91706 96.3989 4.95932 97.647 5.44683 97.7285C5.83722 97.7937 6.48808 97.9024 6.73182 97.9432C6.87743 97.5881 7.12753 97.2937 7.43986 97.0922C7.35272 96.8624 7.12073 96.2502 6.9813 95.8823C6.80769 95.4234 5.5633 95.6206 4.74341 95.3133C3.92359 95.0056 4.40438 93.9558 5.14745 94.2921C5.89031 94.6277 6.77739 94.6496 6.12108 93.8455C5.46461 93.0409 5.21162 91.9138 5.82996 91.6851C6.44831 91.4564 7.00753 92.4712 7.04639 93.5031C7.08636 94.535 7.7415 93.9443 8.07826 93.2092C8.41487 92.4747 9.47647 92.9548 9.06252 93.718C8.64852 94.4815 7.57866 95.1384 7.75254 95.5973C7.89153 95.9647 8.12356 96.5766 8.21074 96.8061C8.39342 96.7815 8.58324 96.7839 8.77468 96.8159C8.96609 96.8479 9.1464 96.9073 9.3114 96.99C9.46874 96.8014 9.88656 96.298 10.1374 95.9958C10.4516 95.6185 9.65314 94.6493 9.51006 93.7928C9.36623 92.9364 10.5262 92.8275 10.6058 93.6315C10.6852 94.4362 11.1132 95.2083 11.486 94.2449C11.8583 93.2817 12.717 92.5037 13.2274 92.9211C13.7381 93.3384 13.1321 94.3221 12.2497 94.8696C11.3677 95.4166 12.2137 95.6843 13.0253 95.6084C13.8373 95.532 13.9507 96.6811 13.0754 96.7055C12.2004 96.7296 11.0882 96.1387 10.7741 96.516C10.5226 96.8187 10.1042 97.3222 9.94739 97.5112C10.1772 97.8033 10.3178 98.163 10.34 98.5461C10.5838 98.5868 11.2346 98.6955 11.625 98.7608C12.1125 98.8422 12.5583 97.6756 13.2348 97.1264C13.9113 96.5777 14.59 97.5184 13.9269 97.9872C13.2633 98.4554 12.804 99.2056 13.8336 99.0467C14.8628 98.8877 15.974 99.2375 15.8662 99.8828C15.7583 100.529 14.5938 100.498 13.6721 100.013C12.7501 99.5282 12.9406 100.387 13.4158 101.046C13.8905 101.705 12.9429 102.374 12.4815 101.635C12.0203 100.895 11.978 99.6473 11.4905 99.5658C11.1001 99.5006 10.4493 99.3918 10.2055 99.3511C10.0599 99.7062 9.81013 100 9.49775 100.202C9.58466 100.432 9.81662 101.044 9.95605 101.412C10.1304 101.871 11.3744 101.673 12.1939 101.981C13.0138 102.289 12.533 103.338 11.7899 103.002C11.047 102.666 10.16 102.645 10.8162 103.449C11.4727 104.253 11.726 105.381 11.1074 105.609C10.489 105.838 9.92985 104.823 9.89093 103.791ZM9.51681 98.8219C9.61249 98.2492 9.22109 97.7061 8.64207 97.6094C8.06328 97.5127 7.51658 97.899 7.4209 98.4717C7.32509 99.0451 7.71653 99.5879 8.29532 99.6846C8.87435 99.7814 9.421 99.3953 9.51681 98.8219Z" fill="#CAEFFF"/>
<path d="M24.8909 98.7911C24.8516 97.7589 24.1959 98.3494 23.8591 99.0848C23.5224 99.8198 22.4609 99.3392 22.8754 98.5761C23.2891 97.8126 24.3592 97.1559 24.1849 96.6967C24.0458 96.3296 23.8143 95.7177 23.727 95.4877C23.544 95.5125 23.3541 95.5103 23.1627 95.4784C22.9713 95.4464 22.791 95.3867 22.6263 95.3038C22.4692 95.493 22.0508 95.9962 21.8 96.2982C21.4863 96.6759 22.2845 97.6447 22.4278 98.5013C22.5712 99.3576 21.4111 99.467 21.3316 98.6625C21.2522 97.8575 20.8247 97.086 20.4513 98.0493C20.0791 99.0125 19.2203 99.7905 18.7099 99.3732C18.1995 98.9559 18.8052 97.9722 19.6876 97.4247C20.5695 96.8784 19.7237 96.6097 18.9121 96.6859C18.1001 96.7621 17.9867 95.6132 18.862 95.5888C19.7374 95.5639 20.8499 96.1557 21.1633 95.7782C21.4147 95.4756 21.8332 94.9721 21.9903 94.7831C21.7605 94.4907 21.6196 94.1313 21.5973 93.7482C21.3536 93.7074 20.7027 93.5987 20.3123 93.5335C19.8248 93.452 19.3791 94.6184 18.7025 95.1678C18.026 95.7165 17.3474 94.7759 18.0105 94.3071C18.6741 93.8386 19.1334 93.0884 18.1039 93.2473C17.0748 93.4062 15.9634 93.0565 16.0713 92.4107C16.1791 91.7655 17.3439 91.7959 18.2653 92.2808C19.1873 92.7659 18.9968 91.9071 18.5215 91.2485C18.0468 90.5896 18.9944 89.9207 19.4558 90.6595C19.9171 91.3989 19.9593 92.647 20.4468 92.7285C20.8372 92.7937 21.4881 92.9024 21.7318 92.9432C21.8774 92.5881 22.1275 92.2937 22.4398 92.0922C22.3527 91.8624 22.1207 91.2502 21.9813 90.8823C21.8077 90.4234 20.5633 90.6206 19.7434 90.3133C18.9236 90.0056 19.4044 88.9558 20.1474 89.2921C20.8903 89.6277 21.7774 89.6496 21.1211 88.8455C20.4646 88.0409 20.2116 86.9138 20.83 86.6851C21.4483 86.4564 22.0075 87.4712 22.0464 88.5031C22.0864 89.535 22.7415 88.9443 23.0783 88.2092C23.4149 87.4747 24.4765 87.9548 24.0625 88.718C23.6485 89.4815 22.5787 90.1384 22.7525 90.5973C22.8915 90.9647 23.1236 91.5766 23.2107 91.8061C23.3934 91.7815 23.5832 91.7839 23.7747 91.8159C23.9661 91.8479 24.1464 91.9073 24.3114 91.99C24.4687 91.8014 24.8866 91.298 25.1374 90.9958C25.4516 90.6185 24.6531 89.6493 24.5101 88.7928C24.3662 87.9364 25.5262 87.8275 25.6058 88.6315C25.6852 89.4362 26.1132 90.2083 26.486 89.2449C26.8583 88.2817 27.717 87.5037 28.2274 87.9211C28.7381 88.3384 28.1321 89.3221 27.2497 89.8696C26.3677 90.4166 27.2136 90.6843 28.0253 90.6084C28.8373 90.532 28.9507 91.6811 28.0754 91.7055C27.2004 91.7296 26.0882 91.1387 25.7741 91.516C25.5226 91.8187 25.1042 92.3222 24.9474 92.5112C25.1772 92.8033 25.3178 93.163 25.34 93.5461C25.5838 93.5868 26.2346 93.6955 26.625 93.7608C27.1125 93.8422 27.5583 92.6756 28.2348 92.1264C28.9113 91.5777 29.59 92.5184 28.9269 92.9872C28.2633 93.4554 27.804 94.2056 28.8336 94.0467C29.8628 93.8877 30.974 94.2375 30.8662 94.8828C30.7583 95.5286 29.5938 95.4979 28.6721 95.0132C27.7501 94.5282 27.9406 95.387 28.4158 96.0457C28.8905 96.7047 27.9429 97.3736 27.4815 96.6347C27.0203 95.8952 26.978 94.6473 26.4905 94.5658C26.1001 94.5006 25.4493 94.3918 25.2055 94.3511C25.0599 94.7062 24.8101 95.0003 24.4977 95.2022C24.5847 95.4318 24.8166 96.044 24.956 96.412C25.1304 96.871 26.3744 96.6729 27.1939 96.981C28.0137 97.2887 27.533 98.3382 26.7899 98.0022C26.047 97.6663 25.1599 97.6447 25.8162 98.4488C26.4727 99.2534 26.7259 100.381 26.1074 100.609C25.489 100.838 24.9298 99.8231 24.8909 98.7911ZM24.5168 93.8219C24.6125 93.2492 24.2211 92.7061 23.6421 92.6094C23.0633 92.5127 22.5166 92.899 22.4209 93.4717C22.3251 94.0451 22.7165 94.5879 23.2953 94.6846C23.8743 94.7814 24.421 94.3953 24.5168 93.8219Z" fill="#CAEFFF"/>
<path d="M49.8909 96.7911C49.8516 95.7589 49.1959 96.3494 48.8591 97.0848C48.5224 97.8198 47.4609 97.3392 47.8754 96.5761C48.2891 95.8126 49.3592 95.1559 49.1849 94.6967C49.0458 94.3296 48.8143 93.7177 48.727 93.4877C48.544 93.5125 48.3541 93.5103 48.1627 93.4784C47.9713 93.4464 47.791 93.3867 47.6263 93.3038C47.4692 93.493 47.0508 93.9962 46.8 94.2982C46.4863 94.6759 47.2845 95.6447 47.4278 96.5013C47.5712 97.3576 46.4111 97.467 46.3316 96.6625C46.2522 95.8575 45.8247 95.086 45.4513 96.0493C45.0791 97.0125 44.2203 97.7905 43.7099 97.3732C43.1995 96.9559 43.8052 95.9722 44.6876 95.4247C45.5695 94.8784 44.7237 94.6097 43.9121 94.6859C43.1001 94.7621 42.9867 93.6132 43.862 93.5888C44.7374 93.5639 45.8499 94.1557 46.1633 93.7782C46.4147 93.4756 46.8332 92.9721 46.9903 92.7831C46.7605 92.4907 46.6196 92.1313 46.5973 91.7482C46.3536 91.7074 45.7027 91.5987 45.3123 91.5335C44.8248 91.452 44.3791 92.6184 43.7025 93.1678C43.026 93.7165 42.3474 92.7759 43.0105 92.3071C43.6741 91.8386 44.1334 91.0884 43.1039 91.2473C42.0748 91.4062 40.9634 91.0565 41.0713 90.4107C41.1791 89.7655 42.3439 89.7959 43.2653 90.2808C44.1873 90.7659 43.9968 89.9071 43.5215 89.2485C43.0468 88.5896 43.9944 87.9207 44.4558 88.6595C44.9171 89.3989 44.9593 90.647 45.4468 90.7285C45.8372 90.7937 46.4881 90.9024 46.7318 90.9432C46.8774 90.5881 47.1275 90.2937 47.4398 90.0922C47.3527 89.8624 47.1207 89.2502 46.9813 88.8823C46.8077 88.4234 45.5633 88.6206 44.7434 88.3133C43.9236 88.0056 44.4044 86.9558 45.1474 87.2921C45.8903 87.6277 46.7774 87.6496 46.1211 86.8455C45.4646 86.0409 45.2116 84.9138 45.83 84.6851C46.4483 84.4564 47.0075 85.4712 47.0464 86.5031C47.0864 87.535 47.7415 86.9443 48.0783 86.2092C48.4149 85.4747 49.4765 85.9548 49.0625 86.718C48.6485 87.4815 47.5787 88.1384 47.7525 88.5973C47.8915 88.9647 48.1236 89.5766 48.2107 89.8061C48.3934 89.7815 48.5832 89.7839 48.7747 89.8159C48.9661 89.8479 49.1464 89.9073 49.3114 89.99C49.4687 89.8014 49.8866 89.298 50.1374 88.9958C50.4516 88.6185 49.6531 87.6493 49.5101 86.7928C49.3662 85.9364 50.5262 85.8275 50.6058 86.6315C50.6852 87.4362 51.1132 88.2083 51.486 87.2449C51.8583 86.2817 52.717 85.5037 53.2274 85.9211C53.7381 86.3384 53.1321 87.3221 52.2497 87.8696C51.3677 88.4166 52.2136 88.6843 53.0253 88.6084C53.8373 88.532 53.9507 89.6811 53.0754 89.7055C52.2004 89.7296 51.0882 89.1387 50.7741 89.516C50.5226 89.8187 50.1042 90.3222 49.9474 90.5112C50.1772 90.8033 50.3178 91.163 50.34 91.5461C50.5838 91.5868 51.2346 91.6955 51.625 91.7608C52.1125 91.8422 52.5583 90.6756 53.2348 90.1264C53.9113 89.5777 54.59 90.5184 53.9269 90.9872C53.2633 91.4554 52.804 92.2056 53.8336 92.0467C54.8628 91.8877 55.974 92.2375 55.8662 92.8828C55.7583 93.5286 54.5938 93.4979 53.6721 93.0132C52.7501 92.5282 52.9406 93.387 53.4158 94.0457C53.8905 94.7047 52.9429 95.3736 52.4815 94.6347C52.0203 93.8952 51.978 92.6473 51.4905 92.5658C51.1001 92.5006 50.4493 92.3918 50.2055 92.3511C50.0599 92.7062 49.8101 93.0003 49.4977 93.2022C49.5847 93.4318 49.8166 94.044 49.956 94.412C50.1304 94.871 51.3744 94.6729 52.1939 94.981C53.0137 95.2887 52.533 96.3382 51.7899 96.0022C51.047 95.6663 50.1599 95.6447 50.8162 96.4488C51.4727 97.2534 51.7259 98.3806 51.1074 98.6093C50.489 98.8379 49.9298 97.8231 49.8909 96.7911ZM49.5168 91.8219C49.6125 91.2492 49.2211 90.7061 48.6421 90.6094C48.0633 90.5127 47.5166 90.899 47.4209 91.4717C47.3251 92.0451 47.7165 92.5879 48.2953 92.6846C48.8743 92.7814 49.421 92.3953 49.5168 91.8219Z" fill="#CAEFFF"/>
<path d="M85.8909 92.7911C85.8516 91.7589 85.1959 92.3494 84.8591 93.0848C84.5224 93.8198 83.4609 93.3392 83.8754 92.5761C84.2891 91.8126 85.3592 91.1559 85.1849 90.6967C85.0458 90.3296 84.8143 89.7177 84.727 89.4877C84.544 89.5125 84.3541 89.5103 84.1627 89.4784C83.9713 89.4464 83.791 89.3867 83.6263 89.3038C83.4692 89.493 83.0508 89.9962 82.8 90.2982C82.4863 90.6759 83.2845 91.6447 83.4278 92.5013C83.5712 93.3576 82.4111 93.467 82.3316 92.6625C82.2522 91.8575 81.8247 91.086 81.4513 92.0493C81.0791 93.0125 80.2203 93.7905 79.7099 93.3732C79.1995 92.9559 79.8052 91.9722 80.6876 91.4247C81.5695 90.8784 80.7237 90.6097 79.9121 90.6859C79.1001 90.7621 78.9867 89.6132 79.862 89.5888C80.7374 89.5639 81.8499 90.1557 82.1633 89.7782C82.4147 89.4756 82.8332 88.9721 82.9903 88.7831C82.7605 88.4907 82.6196 88.1313 82.5973 87.7482C82.3536 87.7074 81.7027 87.5987 81.3123 87.5335C80.8248 87.452 80.3791 88.6184 79.7025 89.1678C79.026 89.7165 78.3474 88.7759 79.0105 88.3071C79.6741 87.8386 80.1334 87.0884 79.1039 87.2473C78.0748 87.4062 76.9634 87.0565 77.0713 86.4107C77.1791 85.7655 78.3439 85.7959 79.2653 86.2808C80.1873 86.7659 79.9968 85.9071 79.5215 85.2485C79.0468 84.5896 79.9944 83.9207 80.4558 84.6595C80.9171 85.3989 80.9593 86.647 81.4468 86.7285C81.8372 86.7937 82.4881 86.9024 82.7318 86.9432C82.8774 86.5881 83.1275 86.2937 83.4398 86.0922C83.3527 85.8624 83.1207 85.2502 82.9813 84.8823C82.8077 84.4234 81.5633 84.6206 80.7434 84.3133C79.9236 84.0056 80.4044 82.9558 81.1474 83.2921C81.8903 83.6277 82.7774 83.6496 82.1211 82.8455C81.4646 82.0409 81.2116 80.9138 81.83 80.6851C82.4483 80.4564 83.0075 81.4712 83.0464 82.5031C83.0864 83.535 83.7415 82.9443 84.0783 82.2092C84.4149 81.4747 85.4765 81.9548 85.0625 82.718C84.6485 83.4815 83.5787 84.1384 83.7525 84.5973C83.8915 84.9647 84.1236 85.5766 84.2107 85.8061C84.3934 85.7815 84.5832 85.7839 84.7747 85.8159C84.9661 85.8479 85.1464 85.9073 85.3114 85.99C85.4687 85.8014 85.8866 85.298 86.1374 84.9958C86.4516 84.6185 85.6531 83.6493 85.5101 82.7928C85.3662 81.9364 86.5262 81.8275 86.6058 82.6315C86.6852 83.4362 87.1132 84.2083 87.486 83.2449C87.8583 82.2817 88.717 81.5037 89.2274 81.9211C89.7381 82.3384 89.1321 83.3221 88.2497 83.8696C87.3677 84.4166 88.2136 84.6843 89.0253 84.6084C89.8373 84.532 89.9507 85.6811 89.0754 85.7055C88.2004 85.7296 87.0882 85.1387 86.7741 85.516C86.5226 85.8187 86.1042 86.3222 85.9474 86.5112C86.1772 86.8033 86.3178 87.163 86.34 87.5461C86.5838 87.5868 87.2346 87.6955 87.625 87.7608C88.1125 87.8422 88.5583 86.6756 89.2348 86.1264C89.9113 85.5777 90.59 86.5184 89.9269 86.9872C89.2633 87.4554 88.804 88.2056 89.8336 88.0467C90.8628 87.8877 91.974 88.2375 91.8662 88.8828C91.7583 89.5286 90.5938 89.4979 89.6721 89.0132C88.7501 88.5282 88.9406 89.387 89.4158 90.0457C89.8905 90.7047 88.9429 91.3736 88.4815 90.6347C88.0203 89.8952 87.978 88.6473 87.4905 88.5658C87.1001 88.5006 86.4493 88.3918 86.2055 88.3511C86.0599 88.7062 85.8101 89.0003 85.4977 89.2022C85.5847 89.4318 85.8166 90.044 85.956 90.412C86.1304 90.871 87.3744 90.6729 88.1939 90.981C89.0137 91.2887 88.533 92.3382 87.7899 92.0022C87.047 91.6663 86.1599 91.6447 86.8162 92.4488C87.4727 93.2534 87.7259 94.3806 87.1074 94.6093C86.489 94.8379 85.9298 93.8231 85.8909 92.7911ZM85.5168 87.8219C85.6125 87.2492 85.2211 86.7061 84.6421 86.6094C84.0633 86.5127 83.5166 86.899 83.4209 87.4717C83.3251 88.0451 83.7165 88.5879 84.2953 88.6846C84.8743 88.7814 85.421 88.3953 85.5168 87.8219Z" fill="#CAEFFF"/>
<path d="M17.9307 110.518C18.9286 110.785 18.5578 109.985 17.9544 109.446C17.3515 108.907 18.1238 108.035 18.7307 108.656C19.3382 109.277 19.65 110.493 20.1402 110.462C20.532 110.437 21.1849 110.396 21.4305 110.381C21.4608 110.199 21.5188 110.018 21.6059 109.844C21.6929 109.671 21.8031 109.516 21.9309 109.383C21.7965 109.177 21.439 108.629 21.2245 108.3C20.9561 107.889 19.7949 108.366 18.9342 108.25C18.0737 108.135 18.3114 106.994 19.1035 107.155C19.8961 107.317 20.7594 107.136 19.9491 106.495C19.1385 105.855 18.6485 104.805 19.1978 104.441C19.7471 104.076 20.5083 104.945 20.7712 105.95C21.033 106.953 21.5393 106.225 21.7059 105.427C21.8726 104.628 23.0038 104.859 22.769 105.702C22.5345 106.546 21.6409 107.435 21.9091 107.845C22.1241 108.175 22.4818 108.723 22.616 108.929C22.9632 108.796 23.3482 108.767 23.7208 108.859C23.8316 108.638 24.1275 108.048 24.305 107.694C24.5266 107.253 23.5436 106.483 23.2182 105.674C22.8935 104.866 23.9924 104.495 24.2448 105.267C24.4967 106.039 25.0781 106.699 25.2298 105.669C25.3816 104.638 26.0436 103.68 26.6288 103.973C27.2135 104.267 26.8409 105.371 26.1057 106.108C25.3703 106.846 26.2471 106.917 27.0165 106.657C27.7862 106.398 28.1458 107.501 27.3037 107.724C26.4612 107.946 25.2562 107.619 25.0345 108.06C24.8571 108.414 24.5612 109.004 24.4503 109.225C24.7466 109.469 24.9541 109.794 25.0546 110.152C25.2998 110.137 25.9532 110.096 26.3459 110.071C26.8356 110.041 27.0142 108.793 27.5497 108.101C28.0855 107.408 28.9468 108.177 28.4063 108.788C27.8665 109.399 27.5839 110.24 28.5458 109.85C29.5083 109.46 30.6599 109.551 30.696 110.209C30.7322 110.867 29.5975 111.102 28.6 110.835C27.6023 110.569 27.9734 111.369 28.5765 111.908C29.179 112.446 28.4072 113.319 27.8 112.698C27.1926 112.077 26.8805 110.861 26.3907 110.892C25.9987 110.917 25.3456 110.958 25.1006 110.973C25.0702 111.155 25.0119 111.336 24.9248 111.509C24.8378 111.683 24.7278 111.838 24.6002 111.971C24.734 112.177 25.0917 112.724 25.3065 113.053C25.5744 113.465 26.7359 112.988 27.5965 113.104C28.4573 113.219 28.2191 114.359 27.4275 114.198C26.6351 114.037 25.7711 114.218 26.5817 114.858C27.3922 115.498 27.8823 116.548 27.3329 116.913C26.7835 117.278 26.0224 116.408 25.7596 115.404C25.497 114.4 24.9917 115.129 24.8248 115.927C24.6583 116.725 23.5269 116.495 23.7618 115.651C23.9968 114.808 24.8895 113.92 24.6216 113.508C24.4066 113.179 24.0489 112.63 23.9146 112.425C23.5677 112.558 23.1826 112.586 22.8099 112.495C22.6991 112.716 22.4032 113.305 22.2257 113.659C22.0041 114.101 22.9873 114.871 23.3125 115.679C23.6373 116.488 22.5383 116.859 22.2859 116.087C22.0343 115.315 21.4529 114.654 21.3011 115.685C21.1494 116.715 20.4874 117.674 19.9026 117.381C19.3174 117.087 19.6902 115.983 20.4252 115.246C21.1606 114.508 20.2839 114.436 19.5142 114.696C18.7446 114.955 18.385 113.853 19.227 113.63C20.0697 113.407 21.2746 113.735 21.4962 113.293C21.6737 112.939 21.9696 112.35 22.0804 112.129C21.7841 111.885 21.5767 111.559 21.476 111.201C21.2309 111.217 20.5775 111.258 20.1848 111.282C19.6948 111.314 19.5171 112.561 18.981 113.253C18.4452 113.945 17.5841 113.177 18.1244 112.566C18.6645 111.955 18.9468 111.114 17.9849 111.504C17.0224 111.893 15.8707 111.803 15.8347 111.144C15.7986 110.486 16.9332 110.251 17.9307 110.518ZM22.7892 111.627C23.3082 111.887 23.9426 111.673 24.2058 111.149C24.4689 110.624 24.261 109.988 23.7421 109.727C23.2225 109.467 22.5883 109.681 22.3252 110.205C22.0619 110.73 22.2696 111.366 22.7892 111.627Z" fill="#CAEFFF"/>
</g>
</g>

</svg>
