<svg width="100" height="100" viewBox="0 0 110 119" fill="none" xmlns="http://www.w3.org/2000/svg">
<g clip-path="url(#clip0_33_96)">
<path fill-rule="evenodd" clip-rule="evenodd" d="M44.7065 44.5989C45.8679 44.6607 46.7264 44.789 47.6898 45.0447C48.8693 45.3577 49.8669 45.7536 50.8671 46.3057L51.1726 46.4743L60.347 46.4745L69.5214 46.4747L69.4544 46.528C68.8229 47.0304 68.0383 47.7763 67.4578 48.4261C66.6767 49.3007 65.9946 50.2671 65.4008 51.3404C65.1801 51.7392 64.7622 52.6019 64.7622 52.6586C64.7622 52.6676 64.8336 52.6902 64.9208 52.7087C65.4497 52.8211 66.2238 53.0416 66.8389 53.2553C68.1825 53.7219 69.6232 54.4798 70.8261 55.3529L71.1117 55.5601H82.7428H94.374L94.386 55.6136C94.392 55.6431 94.405 55.6978 94.414 55.7352C94.423 55.7727 94.465 55.9959 94.507 56.2314C94.737 57.498 94.803 58.7338 94.719 60.1517C94.615 61.8893 94.173 63.7191 93.453 65.3912C92.077 68.5836 89.611 71.2986 86.577 72.9625C84.4743 74.1154 82.0936 74.7859 79.8376 74.8606C79.5362 74.8705 78.5265 74.8789 77.5938 74.8792L75.898 74.8797L75.6726 75.3223C75.4 75.8576 75.2297 76.166 75.0144 76.5139C74.4788 77.3797 73.9177 78.1401 73.3225 78.8071C73.0243 79.1413 72.3106 79.854 71.9919 80.1358C70.3488 81.5892 68.4462 82.6774 66.4063 83.3309C65.1644 83.7287 63.7323 83.9908 62.5124 84.0436C61.9363 84.0685 27.7068 84.0671 27.5928 84.0421C27.5452 84.0317 27.3722 84.0056 27.2082 83.9841C27.0443 83.9626 26.7568 83.919 26.5694 83.8873C23.2817 83.3312 20.3272 81.4612 18.3693 78.6971C17.5502 77.5407 16.8839 76.168 16.5183 74.8833C16.1202 73.4848 15.9732 72.3207 16.004 70.8134C16.037 69.1952 16.427 67.4767 17.1077 65.9495C17.3899 65.3163 17.8433 64.4915 18.1655 64.0254C18.7157 63.2293 19.198 62.6489 19.8166 62.0387C21.2543 60.6204 22.8508 59.6382 24.7528 59.0018C26.3899 58.4541 28.188 58.258 29.9835 58.4313C30.1615 58.4484 30.3124 58.4572 30.3188 58.4507C30.3252 58.4442 30.3377 58.2617 30.3466 58.0452C30.4106 56.4808 30.7231 54.9616 31.272 53.5465C31.4832 53.002 31.5706 52.8006 31.7745 52.3889C32.4625 50.999 33.2159 49.9358 34.3454 48.7606C34.7829 48.3054 35.146 47.98 35.7407 47.51C37.0242 46.4957 38.5619 45.6941 40.207 45.1817C40.4347 45.1108 41.2515 44.906 41.5241 44.8515C41.9569 44.7651 42.7435 44.6617 43.2259 44.6279C43.5243 44.607 44.4998 44.5879 44.7065 44.5989Z" fill="#B9E3F8"/>
<path fill-rule="evenodd" clip-rule="evenodd" d="M44.9034 43.0058C45.4738 43.0405 46.1993 43.1229 46.6243 43.2011C46.7671 43.2274 46.9493 43.2609 47.0293 43.2757C47.2328 43.3133 48.077 43.5379 48.4218 43.6463C49.2169 43.8962 50.0653 44.2587 50.8231 44.6724L51.1527 44.8524L60.3323 44.8621L69.5119 44.8718L69.2641 45.0756C68.6828 45.5536 67.8559 46.3581 67.3438 46.9439C66.5551 47.8459 65.8542 48.873 65.25 50.0119C65.0956 50.303 64.7994 50.9253 64.7688 51.0229C64.7565 51.0623 64.7675 51.0676 64.9439 51.1075C65.5846 51.2523 66.3554 51.4731 66.9021 51.6684C68.2791 52.1602 69.6697 52.8981 70.8815 53.7801L71.1122 53.9479H82.7483H94.384L94.463 54.3614C94.674 55.4698 94.754 56.2869 94.754 57.345C94.754 59.1149 94.564 60.4375 94.073 62.0863C93.634 63.561 92.891 65.1134 91.999 66.4191C90.696 68.3268 89 69.9195 87.015 71.099C86.666 71.3063 85.865 71.7218 85.495 71.8872C83.9832 72.5644 82.4816 72.9771 80.8283 73.1701C80.3502 73.2259 79.8521 73.2474 79.033 73.2477C78.6407 73.2479 77.7726 73.2538 77.1038 73.261L75.8877 73.2739L75.7138 73.6257C75.363 74.3353 75.1387 74.7264 74.6982 75.3961C74.0418 76.3939 73.4821 77.0728 72.5715 77.9758C71.803 78.7379 70.9848 79.3941 70.0717 79.9806C67.8607 81.4007 65.4954 82.1868 62.7477 82.4147C62.3304 82.4494 27.6347 82.4519 27.5666 82.4174C27.5413 82.4045 27.3993 82.3798 27.2513 82.3625C24.8328 82.0805 22.5087 81.0806 20.6426 79.5194C20.1652 79.1201 19.4864 78.4509 19.1162 78.0147L16.5289 73.2204C16.2962 72.4065 16.0662 70.7577 16.0662 70.7577C16.0662 70.7577 16.0328 68.7417 16.0667 68.423C16.1078 68.0359 16.2013 67.384 16.2537 67.1195C16.3254 66.7574 16.5151 66.023 16.6272 65.6735C16.9578 64.6427 17.4082 63.6694 17.9858 62.7376C18.0636 62.6122 18.1272 62.5006 18.1272 62.4895C18.1272 62.4786 18.1346 62.4695 18.1436 62.4695C18.1526 62.4695 18.1999 62.4087 18.2488 62.3344C18.3381 62.1985 18.7905 61.5902 18.9369 61.4092C19.2969 60.9639 19.9053 60.3386 20.4211 59.8836C21.4451 58.9803 22.7414 58.1826 24.0167 57.6712C25.0867 57.2421 26.2289 56.9587 27.3763 56.8378C28.0988 56.7616 29.0124 56.7458 29.6356 56.7986C29.826 56.8148 30.0652 56.8335 30.1671 56.8402L30.3525 56.8525L30.3645 56.5821C30.4415 54.8425 30.7043 53.5085 31.2607 52.0315C31.8682 50.4192 32.748 48.9493 33.8458 47.7124C34.1298 47.3924 34.6484 46.8597 34.922 46.607C35.1579 46.389 35.747 45.9051 36.0742 45.6606C36.9238 45.0255 38.056 44.3967 39.1026 43.9786C39.8039 43.6984 40.2205 43.5648 40.9518 43.3854C41.6566 43.2126 42.1339 43.1327 42.9997 43.0424C43.273 43.014 44.6137 42.9881 44.9034 43.0058Z" fill="#EBF9FF"/>
<path fill-rule="evenodd" clip-rule="evenodd" d="M13.2254 51.3954C13.9627 51.4493 14.5078 51.5613 15.1194 51.7844C15.8683 52.0576 16.5017 52.4031 17.1367 52.885L17.3306 53.0321L23.1553 53.0323L28.98 53.0325L28.9375 53.079C28.5366 53.5174 28.0384 54.1684 27.6699 54.7355C27.174 55.4988 26.7409 56.3422 26.3639 57.2789C26.2238 57.627 25.9585 58.3799 25.9585 58.4293C25.9585 58.4372 26.0038 58.4569 26.0592 58.4731C26.395 58.5712 26.8864 58.7636 27.277 58.9501C28.13 59.3573 29.0447 60.0188 29.8084 60.7807L29.9897 60.9616H37.3741H44.7586L44.7662 61.0083C44.7703 61.034 44.7783 61.0817 44.7839 61.1144C44.7895 61.1471 44.8163 61.342 44.8434 61.5474C44.989 62.6529 45.0313 63.7314 44.9777 64.9688C44.9119 66.4853 44.6311 68.0822 44.1737 69.5415C43.3003 72.3277 41.735 74.6971 39.8084 76.1492C38.4735 77.1554 36.962 77.7406 35.5297 77.8058C35.3383 77.8145 34.6973 77.8218 34.1051 77.822L33.0285 77.8224L32.8854 78.2087C32.7123 78.676 32.6042 78.945 32.4675 79.2487C32.1274 80.0043 31.7712 80.6679 31.3933 81.2501C31.204 81.5417 30.7509 82.1637 30.5486 82.4097C29.5053 83.678 28.2975 84.6278 27.0023 85.1981C26.2138 85.5453 25.3046 85.7741 24.5301 85.8201C24.1644 85.8418 2.43251 85.8406 2.36011 85.8188C2.32991 85.8098 2.22001 85.787 2.11601 85.7682C2.01191 85.7494 1.82941 85.7114 1.71041 85.6837C-0.376993 85.1984 -2.25269 83.5664 -3.49579 81.1541C-4.01579 80.1448 -4.43879 78.9468 -4.67089 77.8256C-4.92369 76.6051 -5.01703 75.5891 -4.99749 74.2737C-4.97649 72.8614 -4.72889 71.3616 -4.29679 70.0288C-4.11759 69.4761 -3.82969 68.7563 -3.62519 68.3496C-3.27579 67.6547 -2.96959 67.1483 -2.57689 66.6157C-1.66409 65.3779 -0.650492 64.5207 0.557008 63.9653C1.59641 63.4873 2.73801 63.3161 3.87791 63.4673C3.99091 63.4823 4.08671 63.49 4.09081 63.4843C4.09491 63.4786 4.10281 63.3194 4.10841 63.1304C4.14911 61.7651 4.34751 60.4393 4.69601 59.2042C4.83011 58.729 4.88561 58.5533 5.01501 58.1939C5.45191 56.9809 5.93011 56.0531 6.64721 55.0274C6.92501 54.6301 7.15551 54.3461 7.53311 53.936C8.34801 53.0508 9.32431 52.3512 10.3687 51.904C10.5133 51.8421 11.0318 51.6634 11.2049 51.6159C11.4797 51.5404 11.9791 51.4501 12.2854 51.4207C12.4748 51.4025 13.0941 51.3858 13.2254 51.3954Z" fill="#B9E3F8"/>
<path fill-rule="evenodd" clip-rule="evenodd" d="M13.3504 50.005C13.7125 50.0354 14.1732 50.1072 14.443 50.1755C14.5336 50.1984 14.6493 50.2277 14.7001 50.2406C14.8293 50.2734 15.3653 50.4695 15.5842 50.564C16.089 50.7821 16.6276 51.0985 17.1087 51.4596L17.318 51.6166L23.146 51.6251L28.974 51.6336L28.8167 51.8114C28.4476 52.2286 27.9227 52.9307 27.5975 53.442C27.0968 54.2292 26.6518 55.1256 26.2682 56.1195C26.1701 56.3736 25.9821 56.9167 25.9627 57.0019C25.9549 57.0362 25.9619 57.0409 26.0739 57.0757C26.4806 57.2021 26.97 57.3948 27.3171 57.5652C28.1913 57.9944 29.0742 58.6384 29.8435 59.4081L29.99 59.5546H37.3777H44.7653L44.8153 59.9155C44.9494 60.8828 45 61.596 45 62.5193C45.0001 64.064 44.8795 65.2183 44.5676 66.6573C44.2887 67.9443 43.8169 69.2992 43.2507 70.4386C42.4235 72.1035 41.3466 73.4935 40.0862 74.5229C39.8647 74.7039 39.3563 75.0665 39.1218 75.2108C38.1617 75.8018 37.2083 76.1621 36.1586 76.3305C35.8551 76.3792 35.5389 76.398 35.0188 76.3982C34.7698 76.3984 34.2186 76.4036 33.794 76.4098L33.0219 76.4211L32.9115 76.7281C32.6888 77.3474 32.5464 77.6887 32.2667 78.2731C31.85 79.144 31.4946 79.7365 30.9165 80.5245C30.4286 81.1897 29.9091 81.7624 29.3294 82.2742C27.9257 83.5136 26.424 84.1997 24.6795 84.3986C24.4146 84.4288 2.38671 84.4311 2.34351 84.4009C2.32741 84.3896 2.23731 84.3681 2.14331 84.353C0.60781 84.1069 -0.867689 83.2343 -2.05249 81.8717C-2.35549 81.5232 -2.78649 80.9392 -3.02149 80.5585L-4.66419 76.3744C-4.81189 75.664 -4.95799 74.2251 -4.95799 74.2251C-4.95799 74.2251 -4.97919 72.4657 -4.95769 72.1875C-4.93159 71.8497 -4.87219 71.2807 -4.83889 71.0499C-4.79339 70.7339 -4.67299 70.093 -4.60179 69.7879C-4.39189 68.8883 -4.10599 68.0389 -3.73919 67.2257C-3.68989 67.1162 -3.64949 67.0188 -3.64949 67.0092C-3.64949 66.9996 -3.64479 66.9917 -3.63909 66.9917C-3.63329 66.9917 -3.60329 66.9387 -3.57229 66.8738C-3.51559 66.7552 -3.22839 66.2243 -3.13539 66.0663C-2.90679 65.6777 -2.52059 65.132 -2.19309 64.7349C-1.54299 63.9465 -0.71999 63.2504 0.0897102 62.8041C0.76901 62.4296 1.49421 62.1823 2.22261 62.0767C2.68141 62.0102 3.26141 61.9964 3.65711 62.0425C3.77801 62.0566 3.92981 62.0729 3.99451 62.0788L4.11221 62.0895L4.11981 61.8536C4.16871 60.3353 4.33551 59.1712 4.68881 57.8821C5.07451 56.475 5.63311 55.1921 6.33011 54.1127C6.51041 53.8334 6.83961 53.3685 7.01331 53.1479C7.16311 52.9577 7.53711 52.5354 7.74481 52.322C8.28421 51.7677 9.00311 51.2189 9.66751 50.854C10.1128 50.6095 10.3773 50.4929 10.8416 50.3364C11.289 50.1855 11.592 50.1158 12.1418 50.037C12.3153 50.0122 13.1665 49.9896 13.3504 50.005Z" fill="#EBF9FF"/>
    <g class="cloud2">
        <path fill-rule="evenodd" clip-rule="evenodd" d="M59.7065 55.5989C60.8679 55.6607 61.7264 55.789 62.6898 56.0447C63.8693 56.3577 64.8669 56.7536 65.8671 57.3057L66.1726 57.4743L75.347 57.4745L84.5214 57.4747L84.4544 57.528C83.8229 58.0304 83.0383 58.7763 82.4578 59.4261C81.6767 60.3007 80.9946 61.2671 80.4008 62.3404C80.1801 62.7392 79.7622 63.6019 79.7622 63.6586C79.7622 63.6676 79.8336 63.6902 79.9208 63.7087C80.4497 63.8211 81.2238 64.0416 81.8389 64.2553C83.1825 64.7219 84.6232 65.4798 85.8261 66.3529L86.1117 66.5601H97.7428H109.374L109.386 66.6136C109.392 66.6431 109.405 66.6978 109.414 66.7352C109.423 66.7727 109.465 66.9959 109.507 67.2314C109.737 68.498 109.803 69.7338 109.719 71.1517C109.615 72.8893 109.173 74.7191 108.453 76.3912C107.077 79.5836 104.611 82.2986 101.577 83.9625C99.4743 85.1154 97.0936 85.7859 94.8376 85.8606C94.5362 85.8705 93.5265 85.8789 92.5938 85.8792L90.898 85.8797L90.6726 86.3223C90.4 86.8576 90.2297 87.166 90.0144 87.5139C89.4788 88.3797 88.9177 89.1401 88.3225 89.8071C88.0243 90.1413 87.3106 90.854 86.9919 91.1358C85.3488 92.5892 83.4462 93.6774 81.4063 94.3309C80.1644 94.7287 78.7323 94.9908 77.5124 95.0436C76.9363 95.0685 42.7068 95.0671 42.5928 95.0421C42.5452 95.0317 42.3722 95.0056 42.2082 94.9841C42.0443 94.9626 41.7568 94.919 41.5694 94.8873C38.2817 94.3312 35.3272 92.4612 33.3693 89.6971C32.5502 88.5407 31.8839 87.168 31.5183 85.8833C31.1202 84.4848 30.9732 83.3207 31.004 81.8134C31.037 80.1952 31.427 78.4767 32.1077 76.9495C32.3899 76.3163 32.8433 75.4915 33.1655 75.0254C33.7157 74.2293 34.198 73.6489 34.8166 73.0387C36.2543 71.6204 37.8508 70.6382 39.7528 70.0018C41.3899 69.4541 43.188 69.258 44.9835 69.4313C45.1615 69.4484 45.3124 69.4572 45.3188 69.4507C45.3252 69.4442 45.3377 69.2617 45.3466 69.0452C45.4106 67.4808 45.7231 65.9616 46.272 64.5465C46.4832 64.002 46.5706 63.8006 46.7745 63.3889C47.4625 61.999 48.2159 60.9358 49.3454 59.7606C49.7829 59.3054 50.146 58.98 50.7407 58.51C52.0242 57.4957 53.5619 56.6941 55.207 56.1817C55.4347 56.1108 56.2515 55.906 56.5241 55.8515C56.9569 55.7651 57.7435 55.6617 58.2259 55.6279C58.5243 55.607 59.4998 55.5879 59.7065 55.5989Z" fill="#B9E3F8"/>
        <path fill-rule="evenodd" clip-rule="evenodd" d="M59.9034 54.0058C60.4738 54.0405 61.1993 54.1229 61.6243 54.2011C61.7671 54.2274 61.9493 54.2609 62.0293 54.2757C62.2328 54.3133 63.077 54.5379 63.4218 54.6463C64.2169 54.8962 65.0653 55.2587 65.8231 55.6724L66.1527 55.8524L75.3323 55.8621L84.5119 55.8718L84.2641 56.0756C83.6828 56.5536 82.8559 57.3581 82.3438 57.9439C81.5551 58.8459 80.8542 59.873 80.25 61.0119C80.0956 61.303 79.7994 61.9253 79.7688 62.0229C79.7565 62.0623 79.7675 62.0676 79.9439 62.1075C80.5846 62.2523 81.3554 62.4731 81.9021 62.6684C83.2791 63.1602 84.6697 63.8981 85.8815 64.7801L86.1122 64.9479H97.7483H109.384L109.463 65.3614C109.674 66.4698 109.754 67.2869 109.754 68.345C109.754 70.1149 109.564 71.4375 109.073 73.0863C108.634 74.561 107.891 76.1134 106.999 77.4191C105.696 79.3268 104 80.9195 102.015 82.099C101.666 82.3063 100.865 82.7218 100.495 82.8872C98.9832 83.5644 97.4816 83.9771 95.8283 84.1701C95.3502 84.2259 94.8521 84.2474 94.033 84.2477C93.6407 84.2479 92.7726 84.2538 92.1038 84.261L90.8877 84.2739L90.7138 84.6257C90.363 85.3353 90.1387 85.7264 89.6982 86.3961C89.0418 87.3939 88.4821 88.0728 87.5715 88.9758C86.803 89.7379 85.9848 90.3941 85.0717 90.9806C82.8607 92.4007 80.4954 93.1868 77.7477 93.4147C77.3304 93.4494 42.6347 93.4519 42.5666 93.4174C42.5413 93.4045 42.3993 93.3798 42.2513 93.3625C39.8328 93.0805 37.5087 92.0806 35.6426 90.5194C35.1652 90.1201 34.4864 89.4509 34.1162 89.0147L31.5289 84.2204C31.2962 83.4065 31.0662 81.7577 31.0662 81.7577C31.0662 81.7577 31.0328 79.7417 31.0667 79.423C31.1078 79.0359 31.2013 78.384 31.2537 78.1195C31.3254 77.7574 31.5151 77.023 31.6272 76.6735C31.9578 75.6427 32.4082 74.6694 32.9858 73.7376C33.0636 73.6122 33.1272 73.5006 33.1272 73.4895C33.1272 73.4786 33.1346 73.4695 33.1436 73.4695C33.1526 73.4695 33.1999 73.4087 33.2488 73.3344C33.3381 73.1985 33.7905 72.5902 33.9369 72.4092C34.2969 71.9639 34.9053 71.3386 35.4211 70.8836C36.4451 69.9803 37.7414 69.1826 39.0167 68.6712C40.0867 68.2421 41.2289 67.9587 42.3763 67.8378C43.0988 67.7616 44.0124 67.7458 44.6356 67.7986C44.826 67.8148 45.0652 67.8335 45.1671 67.8402L45.3525 67.8525L45.3645 67.5821C45.4415 65.8425 45.7043 64.5085 46.2607 63.0315C46.8682 61.4192 47.748 59.9493 48.8458 58.7124C49.1298 58.3924 49.6484 57.8597 49.922 57.607C50.1579 57.389 50.747 56.9051 51.0742 56.6606C51.9238 56.0255 53.056 55.3967 54.1026 54.9786C54.8039 54.6984 55.2205 54.5648 55.9518 54.3854C56.6566 54.2126 57.1339 54.1327 57.9997 54.0424C58.273 54.014 59.6137 53.9881 59.9034 54.0058Z" fill="#EBF9FF"/>
    </g>
<g class="cloud3">
    <path fill-rule="evenodd" clip-rule="evenodd" d="M28.2254 62.3954C28.9627 62.4493 29.5078 62.5613 30.1194 62.7844C30.8683 63.0576 31.5017 63.4031 32.1367 63.885L32.3306 64.0321L38.1553 64.0323L43.98 64.0325L43.9375 64.079C43.5366 64.5174 43.0384 65.1684 42.6699 65.7355C42.174 66.4988 41.7409 67.3422 41.3639 68.2789C41.2238 68.627 40.9585 69.3799 40.9585 69.4293C40.9585 69.4372 41.0038 69.4569 41.0592 69.4731C41.395 69.5712 41.8864 69.7636 42.277 69.9501C43.13 70.3573 44.0447 71.0188 44.8084 71.7807L44.9897 71.9616H52.3741H59.7586L59.7662 72.0083C59.7703 72.034 59.7783 72.0817 59.7839 72.1144C59.7895 72.1471 59.8163 72.342 59.8434 72.5474C59.989 73.6529 60.0313 74.7314 59.9777 75.9688C59.9119 77.4853 59.6311 79.0822 59.1737 80.5415C58.3003 83.3277 56.735 85.6971 54.8084 87.1492C53.4735 88.1554 51.962 88.7406 50.5297 88.8058C50.3383 88.8145 49.6973 88.8218 49.1051 88.822L48.0285 88.8224L47.8854 89.2087C47.7123 89.676 47.6042 89.945 47.4675 90.2487C47.1274 91.0043 46.7712 91.6679 46.3933 92.2501C46.204 92.5417 45.7509 93.1637 45.5486 93.4097C44.5053 94.678 43.2975 95.6278 42.0023 96.1981C41.2138 96.5453 40.3046 96.7741 39.5301 96.8201C39.1644 96.8418 17.4325 96.8406 17.3601 96.8188C17.3299 96.8098 17.22 96.787 17.116 96.7682C17.0119 96.7494 16.8294 96.7114 16.7104 96.6837C14.623 96.1984 12.7473 94.5664 11.5042 92.1541C10.9842 91.1448 10.5612 89.9468 10.3291 88.8256C10.0763 87.6051 9.98296 86.5891 10.0025 85.2737C10.0235 83.8614 10.2711 82.3616 10.7032 81.0288C10.8824 80.4761 11.1703 79.7563 11.3748 79.3496C11.7242 78.6547 12.0304 78.1483 12.4231 77.6157C13.3359 76.3779 14.3495 75.5207 15.557 74.9653C16.5964 74.4873 17.738 74.3161 18.8779 74.4673C18.9909 74.4823 19.0867 74.49 19.0908 74.4843C19.0949 74.4786 19.1028 74.3194 19.1084 74.1304C19.1491 72.7651 19.3475 71.4393 19.696 70.2042C19.8301 69.729 19.8856 69.5533 20.015 69.1939C20.4519 67.9809 20.9301 67.0531 21.6472 66.0274C21.925 65.6301 22.1555 65.3461 22.5331 64.936C23.348 64.0508 24.3243 63.3512 25.3687 62.904C25.5133 62.8421 26.0318 62.6634 26.2049 62.6159C26.4797 62.5404 26.9791 62.4501 27.2854 62.4207C27.4748 62.4025 28.0941 62.3858 28.2254 62.3954Z" fill="#B9E3F8"/>
    <path fill-rule="evenodd" clip-rule="evenodd" d="M28.3504 61.005C28.7125 61.0354 29.1732 61.1072 29.443 61.1755C29.5336 61.1984 29.6493 61.2277 29.7001 61.2406C29.8293 61.2734 30.3653 61.4695 30.5842 61.564C31.089 61.7821 31.6276 62.0985 32.1087 62.4596L32.318 62.6166L38.146 62.6251L43.974 62.6336L43.8167 62.8114C43.4476 63.2286 42.9227 63.9307 42.5975 64.442C42.0968 65.2292 41.6518 66.1256 41.2682 67.1195C41.1701 67.3736 40.9821 67.9167 40.9627 68.0019C40.9549 68.0362 40.9619 68.0409 41.0739 68.0757C41.4806 68.2021 41.97 68.3948 42.3171 68.5652C43.1913 68.9944 44.0742 69.6384 44.8435 70.4081L44.99 70.5546H52.3777H59.7653L59.8153 70.9155C59.9494 71.8828 60 72.596 60 73.5193C60.0001 75.064 59.8795 76.2183 59.5676 77.6573C59.2887 78.9443 58.8169 80.2992 58.2507 81.4386C57.4235 83.1035 56.3466 84.4935 55.0862 85.5229C54.8647 85.7039 54.3563 86.0665 54.1218 86.2108C53.1617 86.8018 52.2083 87.1621 51.1586 87.3305C50.8551 87.3792 50.5389 87.398 50.0188 87.3982C49.7698 87.3984 49.2186 87.4036 48.794 87.4098L48.0219 87.4211L47.9115 87.7281C47.6888 88.3474 47.5464 88.6887 47.2667 89.2731C46.85 90.144 46.4946 90.7365 45.9165 91.5245C45.4286 92.1897 44.9091 92.7624 44.3294 93.2742C42.9257 94.5136 41.424 95.1997 39.6795 95.3986C39.4146 95.4288 17.3867 95.4311 17.3435 95.4009C17.3274 95.3896 17.2373 95.3681 17.1433 95.353C15.6078 95.1069 14.1323 94.2343 12.9475 92.8717C12.6445 92.5232 12.2135 91.9392 11.9785 91.5585L10.3358 87.3744C10.1881 86.664 10.042 85.2251 10.042 85.2251C10.042 85.2251 10.0208 83.4657 10.0423 83.1875C10.0684 82.8497 10.1278 82.2807 10.1611 82.0499C10.2066 81.7339 10.327 81.093 10.3982 80.7879C10.6081 79.8883 10.894 79.0389 11.2608 78.2257C11.3101 78.1162 11.3505 78.0188 11.3505 78.0092C11.3505 77.9996 11.3552 77.9917 11.3609 77.9917C11.3667 77.9917 11.3967 77.9387 11.4277 77.8738C11.4844 77.7552 11.7716 77.2243 11.8646 77.0663C12.0932 76.6777 12.4794 76.132 12.8069 75.7349C13.457 74.9465 14.28 74.2504 15.0897 73.8041C15.769 73.4296 16.4942 73.1823 17.2226 73.0767C17.6814 73.0102 18.2614 72.9964 18.6571 73.0425C18.778 73.0566 18.9298 73.0729 18.9945 73.0788L19.1122 73.0895L19.1198 72.8536C19.1687 71.3353 19.3355 70.1712 19.6888 68.8821C20.0745 67.475 20.6331 66.1921 21.3301 65.1127C21.5104 64.8334 21.8396 64.3685 22.0133 64.1479C22.1631 63.9577 22.5371 63.5354 22.7448 63.322C23.2842 62.7677 24.0031 62.2189 24.6675 61.854C25.1128 61.6095 25.3773 61.4929 25.8416 61.3364C26.289 61.1855 26.592 61.1158 27.1418 61.037C27.3153 61.0122 28.1665 60.9896 28.3504 61.005Z" fill="#EBF9FF"/>
</g>
<g class="cloud3">
    <path fill-rule="evenodd" clip-rule="evenodd" d="M55.7065 41.5989C56.8679 41.6607 57.7264 41.789 58.6898 42.0447C59.8693 42.3577 60.8669 42.7536 61.8671 43.3057L62.1726 43.4743L71.347 43.4745L80.5214 43.4747L80.4544 43.528C79.8229 44.0304 79.0383 44.7763 78.4578 45.4261C77.6767 46.3007 76.9946 47.2671 76.4008 48.3404C76.1801 48.7392 75.7622 49.6019 75.7622 49.6586C75.7622 49.6676 75.8336 49.6902 75.9208 49.7087C76.4497 49.8211 77.2238 50.0416 77.8389 50.2553C79.1825 50.7219 80.6232 51.4798 81.8261 52.3529L82.1117 52.5601H93.7428H105.374L105.386 52.6136C105.392 52.6431 105.405 52.6978 105.414 52.7352C105.423 52.7727 105.465 52.9959 105.507 53.2314C105.737 54.498 105.803 55.7338 105.719 57.1517C105.615 58.8893 105.173 60.7191 104.453 62.3912C103.077 65.5836 100.611 68.2986 97.5769 69.9625C95.4743 71.1154 93.0936 71.7859 90.8376 71.8606C90.5362 71.8705 89.5265 71.8789 88.5938 71.8792L86.898 71.8797L86.6726 72.3223C86.4 72.8576 86.2297 73.166 86.0144 73.5139C85.4788 74.3797 84.9177 75.1401 84.3225 75.8071C84.0243 76.1413 83.3106 76.854 82.9919 77.1358C81.3488 78.5892 79.4462 79.6774 77.4063 80.3309C76.1644 80.7287 74.7323 80.9908 73.5124 81.0436C72.9363 81.0685 38.7068 81.0671 38.5928 81.0421C38.5452 81.0317 38.3722 81.0056 38.2082 80.9841C38.0443 80.9626 37.7568 80.919 37.5694 80.8873C34.2817 80.3312 31.3272 78.4612 29.3693 75.6971C28.5502 74.5407 27.8839 73.168 27.5183 71.8833C27.1202 70.4848 26.9732 69.3207 27.004 67.8134C27.037 66.1952 27.427 64.4767 28.1077 62.9495C28.3899 62.3163 28.8433 61.4915 29.1655 61.0254C29.7157 60.2293 30.198 59.6489 30.8166 59.0387C32.2543 57.6204 33.8508 56.6382 35.7528 56.0018C37.3899 55.4541 39.188 55.258 40.9835 55.4313C41.1615 55.4484 41.3124 55.4572 41.3188 55.4507C41.3252 55.4442 41.3377 55.2617 41.3466 55.0452C41.4106 53.4808 41.7231 51.9616 42.272 50.5465C42.4832 50.002 42.5706 49.8006 42.7745 49.3889C43.4625 47.999 44.2159 46.9358 45.3454 45.7606C45.7829 45.3054 46.146 44.98 46.7407 44.51C48.0242 43.4957 49.5619 42.6941 51.207 42.1817C51.4347 42.1108 52.2515 41.906 52.5241 41.8515C52.9569 41.7651 53.7435 41.6617 54.2259 41.6279C54.5243 41.607 55.4998 41.5879 55.7065 41.5989Z" fill="#B9E3F8"/>
    <path fill-rule="evenodd" clip-rule="evenodd" d="M55.9034 40.0058C56.4738 40.0405 57.1993 40.1229 57.6243 40.2011C57.7671 40.2274 57.9493 40.2609 58.0293 40.2757C58.2328 40.3133 59.077 40.5379 59.4218 40.6463C60.2169 40.8962 61.0653 41.2587 61.8231 41.6724L62.1527 41.8524L71.3323 41.8621L80.5119 41.8718L80.2641 42.0756C79.6828 42.5536 78.8559 43.3581 78.3438 43.9439C77.5551 44.8459 76.8542 45.873 76.25 47.0119C76.0956 47.303 75.7994 47.9253 75.7688 48.0229C75.7565 48.0623 75.7675 48.0676 75.9439 48.1075C76.5846 48.2523 77.3554 48.4731 77.9021 48.6684C79.2791 49.1602 80.6697 49.8981 81.8815 50.7801L82.1122 50.9479H93.7483H105.384L105.463 51.3614C105.674 52.4698 105.754 53.2869 105.754 54.345C105.754 56.1149 105.564 57.4375 105.073 59.0863C104.634 60.561 103.891 62.1134 102.999 63.4191C101.696 65.3268 99.9997 66.9195 98.0146 68.099C97.6656 68.3063 96.8649 68.7218 96.4955 68.8872C94.9832 69.5644 93.4816 69.9771 91.8283 70.1701C91.3502 70.2259 90.8521 70.2474 90.033 70.2477C89.6407 70.2479 88.7726 70.2538 88.1038 70.261L86.8877 70.2739L86.7138 70.6257C86.363 71.3353 86.1387 71.7264 85.6982 72.3961C85.0418 73.3939 84.4821 74.0728 83.5715 74.9758C82.803 75.7379 81.9848 76.3941 81.0717 76.9806C78.8607 78.4007 76.4954 79.1868 73.7477 79.4147C73.3304 79.4494 38.6347 79.4519 38.5666 79.4174C38.5413 79.4045 38.3993 79.3798 38.2513 79.3625C35.8328 79.0805 33.5087 78.0806 31.6426 76.5194C31.1652 76.1201 30.4864 75.4509 30.1162 75.0147L27.5289 70.2204C27.2962 69.4065 27.0662 67.7577 27.0662 67.7577C27.0662 67.7577 27.0328 65.7417 27.0667 65.423C27.1078 65.0359 27.2013 64.384 27.2537 64.1195C27.3254 63.7574 27.5151 63.023 27.6272 62.6735C27.9578 61.6427 28.4082 60.6694 28.9858 59.7376C29.0636 59.6122 29.1272 59.5006 29.1272 59.4895C29.1272 59.4786 29.1346 59.4695 29.1436 59.4695C29.1526 59.4695 29.1999 59.4087 29.2488 59.3344C29.3381 59.1985 29.7905 58.5902 29.9369 58.4092C30.2969 57.9639 30.9053 57.3386 31.4211 56.8836C32.4451 55.9803 33.7414 55.1826 35.0167 54.6712C36.0867 54.2421 37.2289 53.9587 38.3763 53.8378C39.0988 53.7616 40.0124 53.7458 40.6356 53.7986C40.826 53.8148 41.0652 53.8335 41.1671 53.8402L41.3525 53.8525L41.3645 53.5821C41.4415 51.8425 41.7043 50.5085 42.2607 49.0315C42.8682 47.4192 43.748 45.9493 44.8458 44.7124C45.1298 44.3924 45.6484 43.8597 45.922 43.607C46.1579 43.389 46.747 42.9051 47.0742 42.6606C47.9238 42.0255 49.056 41.3967 50.1026 40.9786C50.8039 40.6984 51.2205 40.5648 51.9518 40.3854C52.6566 40.2126 53.1339 40.1327 53.9997 40.0424C54.273 40.014 55.6137 39.9881 55.9034 40.0058Z" fill="#EBF9FF"/>
</g>
<g class="cloud1">
    <path fill-rule="evenodd" clip-rule="evenodd" d="M44.7065 27.5989C45.8679 27.6607 46.7264 27.789 47.6898 28.0447C48.8693 28.3577 49.8669 28.7536 50.8671 29.3057L51.1726 29.4743L60.347 29.4745L69.5214 29.4747L69.4544 29.528C68.8229 30.0304 68.0383 30.7763 67.4578 31.4261C66.6767 32.3007 65.9946 33.2671 65.4008 34.3404C65.1801 34.7392 64.7622 35.6019 64.7622 35.6586C64.7622 35.6676 64.8336 35.6902 64.9208 35.7087C65.4497 35.8211 66.2238 36.0416 66.8389 36.2553C68.1825 36.7219 69.6232 37.4798 70.8261 38.3529L71.1117 38.5601H82.7428H94.3739L94.3858 38.6136C94.3924 38.6431 94.405 38.6978 94.4138 38.7352C94.4227 38.7727 94.4648 38.9959 94.5074 39.2314C94.7368 40.498 94.8035 41.7338 94.719 43.1517C94.6154 44.8893 94.1732 46.7191 93.4527 48.3912C92.077 51.5836 89.6115 54.2986 86.5769 55.9625C84.4743 57.1154 82.0936 57.7859 79.8376 57.8606C79.5362 57.8705 78.5265 57.8789 77.5938 57.8792L75.898 57.8797L75.6726 58.3223C75.4 58.8576 75.2297 59.166 75.0144 59.5139C74.4788 60.3797 73.9177 61.1401 73.3225 61.8071C73.0243 62.1413 72.3106 62.854 71.9919 63.1358C70.3488 64.5892 68.4462 65.6774 66.4063 66.3309C65.1644 66.7287 63.7323 66.9908 62.5124 67.0436C61.9363 67.0685 27.7068 67.0671 27.5928 67.0421C27.5452 67.0317 27.3722 67.0056 27.2082 66.9841C27.0443 66.9626 26.7568 66.919 26.5694 66.8873C23.2817 66.3312 20.3272 64.4612 18.3693 61.6971C17.5502 60.5407 16.8839 59.168 16.5183 57.8833C16.1202 56.4848 15.9732 55.3207 16.004 53.8134C16.037 52.1952 16.427 50.4767 17.1077 48.9495C17.3899 48.3163 17.8433 47.4915 18.1655 47.0254C18.7157 46.2293 19.198 45.6489 19.8166 45.0387C21.2543 43.6204 22.8508 42.6382 24.7528 42.0018C26.3899 41.4541 28.188 41.258 29.9835 41.4313C30.1615 41.4484 30.3124 41.4572 30.3188 41.4507C30.3252 41.4442 30.3377 41.2617 30.3466 41.0452C30.4106 39.4808 30.7231 37.9616 31.272 36.5465C31.4832 36.002 31.5706 35.8006 31.7745 35.3889C32.4625 33.999 33.2159 32.9358 34.3454 31.7606C34.7829 31.3054 35.146 30.98 35.7407 30.51C37.0242 29.4957 38.5619 28.6941 40.207 28.1817C40.4347 28.1108 41.2515 27.906 41.5241 27.8515C41.9569 27.7651 42.7435 27.6617 43.2259 27.6279C43.5243 27.607 44.4998 27.5879 44.7065 27.5989Z" fill="#B9E3F8"/>
    <path fill-rule="evenodd" clip-rule="evenodd" d="M44.9034 26.0058C45.4738 26.0405 46.1993 26.1229 46.6243 26.2011C46.7671 26.2274 46.9493 26.2609 47.0293 26.2757C47.2328 26.3133 48.077 26.5379 48.4218 26.6463C49.2169 26.8962 50.0653 27.2587 50.8231 27.6724L51.1527 27.8524L60.3323 27.8621L69.5119 27.8718L69.2641 28.0756C68.6828 28.5536 67.8559 29.3581 67.3438 29.9439C66.5551 30.8459 65.8542 31.873 65.25 33.0119C65.0956 33.303 64.7994 33.9253 64.7688 34.0229C64.7565 34.0623 64.7675 34.0676 64.9439 34.1075C65.5846 34.2523 66.3554 34.4731 66.9021 34.6684C68.2791 35.1602 69.6697 35.8981 70.8815 36.7801L71.1122 36.9479H82.7483H94.3845L94.4633 37.3614C94.6744 38.4698 94.7541 39.2869 94.7542 40.345C94.7542 42.1149 94.5643 43.4375 94.0731 45.0863C93.6338 46.561 92.8906 48.1134 91.9989 49.4191C90.696 51.3268 88.9997 52.9195 87.0146 54.099C86.6656 54.3063 85.8649 54.7218 85.4955 54.8872C83.9832 55.5644 82.4816 55.9771 80.8283 56.1701C80.3502 56.2259 79.8521 56.2474 79.033 56.2477C78.6407 56.2479 77.7726 56.2538 77.1038 56.261L75.8877 56.2739L75.7138 56.6257C75.363 57.3353 75.1387 57.7264 74.6982 58.3961C74.0418 59.3939 73.4821 60.0728 72.5715 60.9758C71.803 61.7379 70.9848 62.3941 70.0717 62.9806C67.8607 64.4007 65.4954 65.1868 62.7477 65.4147C62.3304 65.4494 27.6347 65.4519 27.5666 65.4174C27.5413 65.4045 27.3993 65.3798 27.2513 65.3625C24.8328 65.0805 22.5087 64.0806 20.6426 62.5194C20.1652 62.1201 19.4864 61.4509 19.1162 61.0147L16.5289 56.2204C16.2962 55.4065 16.0662 53.7577 16.0662 53.7577C16.0662 53.7577 16.0328 51.7417 16.0667 51.423C16.1078 51.0359 16.2013 50.384 16.2537 50.1195C16.3254 49.7574 16.5151 49.023 16.6272 48.6735C16.9578 47.6427 17.4082 46.6694 17.9858 45.7376C18.0636 45.6122 18.1272 45.5006 18.1272 45.4895C18.1272 45.4786 18.1346 45.4695 18.1436 45.4695C18.1526 45.4695 18.1999 45.4087 18.2488 45.3344C18.3381 45.1985 18.7905 44.5902 18.9369 44.4092C19.2969 43.9639 19.9053 43.3386 20.4211 42.8836C21.4451 41.9803 22.7414 41.1826 24.0167 40.6712C25.0867 40.2421 26.2289 39.9587 27.3763 39.8378C28.0988 39.7616 29.0124 39.7458 29.6356 39.7986C29.826 39.8148 30.0652 39.8335 30.1671 39.8402L30.3525 39.8525L30.3645 39.5821C30.4415 37.8425 30.7043 36.5085 31.2607 35.0315C31.8682 33.4192 32.748 31.9493 33.8458 30.7124C34.1298 30.3924 34.6484 29.8597 34.922 29.607C35.1579 29.389 35.747 28.9051 36.0742 28.6606C36.9238 28.0255 38.056 27.3967 39.1026 26.9786C39.8039 26.6984 40.2205 26.5648 40.9518 26.3854C41.6566 26.2126 42.1339 26.1327 42.9997 26.0424C43.273 26.014 44.6137 25.9881 44.9034 26.0058Z" fill="#EBF9FF"/>
</g>
<g class="cloud1">
    <path fill-rule="evenodd" clip-rule="evenodd" d="M84.7257 16.0456C86.2114 16.1247 87.3098 16.2888 88.5423 16.6159C90.0514 17.0164 91.3277 17.5229 92.6073 18.2292L92.9981 18.4449L104.735 18.4452L116.473 18.4455L116.387 18.5136C115.579 19.1563 114.575 20.1106 113.833 20.9419C112.833 22.0608 111.961 23.2972 111.201 24.6703C110.919 25.1806 110.384 26.2843 110.384 26.3567C110.384 26.3683 110.475 26.3972 110.587 26.4209C111.264 26.5646 112.254 26.8468 113.041 27.1201C114.76 27.7171 116.603 28.6867 118.142 29.8037L118.507 30.0689H133.387H148.268L148.283 30.1373C148.291 30.175 148.307 30.245 148.319 30.2929C148.33 30.3408 148.384 30.6264 148.438 30.9276C148.732 32.5481 148.817 34.1291 148.709 35.9431C148.577 38.1661 148.011 40.507 147.089 42.6462C145.329 46.7305 142.175 50.2039 138.293 52.3326C135.603 53.8075 132.557 54.6653 129.671 54.7609C129.285 54.7736 127.993 54.7843 126.8 54.7847L124.631 54.7853L124.342 55.3516C123.993 56.0365 123.776 56.431 123.5 56.8761C122.815 57.9837 122.097 58.9566 121.336 59.8099C120.954 60.2374 120.041 61.1492 119.633 61.5098C117.531 63.3691 115.097 64.7614 112.487 65.5974C110.898 66.1064 109.066 66.4417 107.506 66.5091C106.769 66.541 62.9771 66.5392 62.8313 66.5073C62.7704 66.494 62.549 66.4606 62.3393 66.4331C62.1295 66.4055 61.7617 66.3498 61.522 66.3092C57.3158 65.5978 53.536 63.2054 51.0312 59.6692C49.9832 58.1897 49.1308 56.4335 48.6631 54.79C48.1538 53.0008 47.9656 51.5115 48.0051 49.5832C48.0474 47.5128 48.5463 45.3143 49.4171 43.3605C49.7781 42.5504 50.3583 41.4952 50.7704 40.8989C51.4744 39.8804 52.0914 39.1379 52.8827 38.3573C54.7221 36.5427 56.7646 35.2861 59.1979 34.472C61.2923 33.7713 63.5928 33.5204 65.8898 33.742C66.1175 33.764 66.3105 33.7752 66.3187 33.7669C66.3269 33.7586 66.3429 33.5252 66.3543 33.2482C66.4362 31.2468 66.836 29.3031 67.5383 27.4927C67.8085 26.7961 67.9203 26.5384 68.1811 26.0117C69.0614 24.2335 70.0251 22.8734 71.4701 21.3699C72.0299 20.7875 72.4944 20.3712 73.2552 19.7699C74.8973 18.4723 76.8646 17.4467 78.9692 16.7912C79.2605 16.7004 80.3055 16.4385 80.6543 16.3688C81.2079 16.2582 82.2143 16.1259 82.8314 16.0827C83.2133 16.056 84.4612 16.0315 84.7257 16.0456Z" fill="#B9E3F8"/>
    <path fill-rule="evenodd" clip-rule="evenodd" d="M84.9775 14.0074C85.7073 14.0518 86.6355 14.1572 87.1793 14.2573C87.3619 14.2909 87.595 14.3338 87.6973 14.3527C87.9577 14.4008 89.0377 14.6882 89.4789 14.8268C90.4961 15.1465 91.5814 15.6103 92.5509 16.1396L92.9727 16.3699L104.717 16.3823L116.46 16.3947L116.143 16.6554C115.4 17.267 114.342 18.2962 113.687 19.0456C112.678 20.1996 111.781 21.5137 111.008 22.9706C110.81 23.3431 110.432 24.1393 110.392 24.2642C110.377 24.3145 110.391 24.3213 110.616 24.3723C111.436 24.5576 112.422 24.8401 113.122 25.0899C114.883 25.7191 116.662 26.6631 118.213 27.7915L118.508 28.0062H133.395H148.281L148.382 28.5352C148.652 29.9532 148.754 30.9987 148.754 32.3522C148.754 34.6166 148.511 36.3087 147.883 38.418C147.321 40.3048 146.37 42.2908 145.229 43.9612C143.562 46.4018 141.392 48.4394 138.853 49.9484C138.406 50.2137 137.382 50.7452 136.909 50.9569C134.974 51.8232 133.053 52.3513 130.938 52.5981C130.326 52.6695 129.689 52.6971 128.641 52.6975C128.139 52.6977 127.029 52.7053 126.173 52.7144L124.617 52.7309L124.395 53.1811C123.946 54.0889 123.659 54.5892 123.096 55.4459C122.256 56.7225 121.54 57.591 120.375 58.7462C119.392 59.7213 118.345 60.5608 117.177 61.3111C114.348 63.128 111.322 64.1337 107.807 64.4253C107.273 64.4696 62.8848 64.4729 62.7978 64.4286C62.7653 64.4121 62.5837 64.3805 62.3943 64.3584C59.3002 63.9976 56.3269 62.7185 53.9395 60.7211C53.3288 60.2102 52.4604 59.3541 51.9868 58.796L48.6767 52.6625C48.379 51.6212 48.0847 49.5118 48.0847 49.5118C48.0847 49.5118 48.042 46.9327 48.0853 46.5249C48.1379 46.0297 48.2576 45.1956 48.3246 44.8572C48.4163 44.3941 48.659 43.4545 48.8024 43.0074C49.2254 41.6886 49.8016 40.4434 50.5405 39.2513C50.64 39.0908 50.7214 38.948 50.7214 38.934C50.7214 38.9199 50.7309 38.9084 50.7424 38.9084C50.754 38.9084 50.8145 38.8306 50.877 38.7355C50.9913 38.5616 51.57 37.7834 51.7573 37.5518C52.2179 36.9822 52.9962 36.1822 53.6561 35.6C54.9662 34.4444 56.6246 33.4239 58.2562 32.7696C59.6251 32.2206 61.0863 31.8581 62.5542 31.7034C63.4786 31.6059 64.6475 31.5857 65.4448 31.6533C65.6883 31.6739 65.9943 31.6979 66.1247 31.7065L66.3619 31.7222L66.3772 31.3763C66.4758 29.1507 66.8119 27.4441 67.5238 25.5545C68.301 23.4917 69.4266 21.6112 70.831 20.0288C71.1944 19.6194 71.8579 18.9379 72.2078 18.6146C72.5096 18.3358 73.2634 17.7166 73.6819 17.4038C74.7688 16.5914 76.2174 15.7868 77.5563 15.2519C78.4535 14.8935 78.9865 14.7225 79.9221 14.4931C80.8237 14.272 81.4344 14.1697 82.5421 14.0543C82.8917 14.0179 84.607 13.9848 84.9775 14.0074Z" fill="#EBF9FF"/>
</g>
<g class="precipitation">
<path d="M80.774 109.505C81.7761 109.756 81.3924 108.962 80.7804 108.433C80.1689 107.904 80.927 107.019 81.5439 107.63C82.1613 108.241 82.4927 109.452 82.9823 109.413C83.3737 109.382 84.0259 109.331 84.2711 109.311C84.2985 109.129 84.3536 108.947 84.4378 108.772C84.522 108.597 84.6297 108.441 84.7554 108.306C84.6176 108.102 84.2513 107.56 84.0315 107.234C83.7566 106.828 82.6032 107.323 81.7407 107.222C80.8785 107.12 81.0977 105.975 81.8923 106.124C82.6874 106.273 83.5477 106.078 82.7271 105.45C81.9063 104.824 81.3994 103.782 81.9428 103.408C82.4861 103.035 83.2613 103.891 83.5403 104.891C83.8183 105.891 84.3127 105.154 84.4665 104.353C84.6203 103.552 85.755 103.765 85.5338 104.612C85.3131 105.459 84.4339 106.362 84.7088 106.768C84.929 107.095 85.2955 107.637 85.433 107.841C85.778 107.702 86.1625 107.667 86.5366 107.753C86.6438 107.53 86.9301 106.935 87.1019 106.579C87.3163 106.134 86.321 105.38 85.9826 104.576C85.6448 103.774 86.7376 103.385 87.0025 104.152C87.2668 104.921 87.8587 105.571 87.9939 104.538C88.129 103.506 88.7754 102.537 89.3652 102.821C89.9546 103.104 89.5999 104.214 88.8767 104.964C88.1533 105.713 89.0312 105.77 89.7963 105.498C90.5616 105.226 90.939 106.323 90.1007 106.56C89.2619 106.796 88.0517 106.488 87.8372 106.933C87.6655 107.29 87.3791 107.884 87.2719 108.107C87.5721 108.346 87.7848 108.668 87.8911 109.024C88.136 109.005 88.7887 108.953 89.1809 108.922C89.67 108.884 89.8285 107.634 90.3528 106.933C90.8773 106.231 91.7509 106.987 91.2203 107.606C90.6904 108.225 90.4215 109.071 91.377 108.666C92.333 108.26 93.4859 108.332 93.5327 108.99C93.5794 109.648 92.4487 109.901 91.4471 109.65C90.4452 109.4 90.8292 110.194 91.4409 110.723C92.052 111.251 91.2944 112.136 90.6773 111.525C90.0599 110.915 89.7282 109.704 89.239 109.742C88.8474 109.773 88.195 109.825 87.9503 109.845C87.9228 110.027 87.8675 110.208 87.7833 110.383C87.6991 110.558 87.5916 110.715 87.4661 110.85C87.6032 111.054 87.9698 111.596 88.1898 111.921C88.4643 112.328 89.618 111.832 90.4804 111.934C91.3429 112.036 91.1232 113.18 90.329 113.031C89.5342 112.883 88.6732 113.078 89.494 113.705C90.3148 114.332 90.8217 115.374 90.2783 115.747C89.7349 116.121 88.9598 115.264 88.6808 114.264C88.4021 113.264 87.9086 114.001 87.7546 114.802C87.601 115.603 86.466 115.391 86.6873 114.543C86.9086 113.697 87.7869 112.794 87.5124 112.387C87.2921 112.061 86.9256 111.518 86.788 111.315C86.4432 111.454 86.0586 111.488 85.6845 111.403C85.5773 111.625 85.291 112.22 85.1192 112.576C84.9048 113.022 85.9003 113.776 86.2385 114.579C86.5763 115.382 85.4834 115.771 85.2186 115.003C84.9545 114.235 84.3626 113.584 84.2275 114.617C84.0925 115.65 83.446 116.619 82.8565 116.335C82.2667 116.051 82.6216 114.941 83.3446 114.192C84.068 113.442 83.1902 113.385 82.4248 113.657C81.6595 113.929 81.2821 112.832 82.1204 112.596C82.9594 112.359 84.1694 112.668 84.3839 112.222C84.5556 111.866 84.842 111.271 84.9492 111.049C84.649 110.809 84.4364 110.487 84.3299 110.131C84.0851 110.15 83.4324 110.202 83.0402 110.233C82.5508 110.272 82.3932 111.522 81.8683 112.223C81.3438 112.924 80.4705 112.169 81.0007 111.549C81.5309 110.93 81.7996 110.084 80.8441 110.49C79.8881 110.895 78.735 110.823 78.6884 110.165C78.6417 109.508 79.7724 109.254 80.774 109.505ZM85.6498 110.535C86.1729 110.787 86.8038 110.563 87.0585 110.034C87.3131 109.505 87.0949 108.873 86.5719 108.621C86.0481 108.368 85.4175 108.593 85.1629 109.121C84.9081 109.65 85.1261 110.283 85.6498 110.535Z" fill="#CAEFFF"/>
<path d="M89.774 85.5055C90.7761 85.7562 90.3924 84.9616 89.7804 84.4327C89.1689 83.904 89.927 83.0191 90.5439 83.6304C91.1613 84.241 91.4927 85.452 91.9823 85.4129C92.3737 85.382 93.0259 85.3308 93.2711 85.3112C93.2985 85.1286 93.3536 84.9469 93.4378 84.7721C93.522 84.5972 93.6297 84.4408 93.7554 84.3058C93.6176 84.1021 93.2513 83.5597 93.0315 83.2345C92.7566 82.8278 91.6032 83.3234 90.7407 83.2216C89.8785 83.1199 90.0977 81.9754 90.8923 82.124C91.6874 82.2727 92.5477 82.0778 91.7271 81.4501C90.9063 80.8235 90.3994 79.7815 90.9428 79.4081C91.4861 79.0347 92.2613 79.8912 92.5403 80.8915C92.8183 81.8909 93.3127 81.1539 93.4665 80.3533C93.6203 79.5524 94.755 79.7646 94.5338 80.6118C94.3131 81.4593 93.4339 82.3621 93.7088 82.7685C93.929 83.0945 94.2955 83.637 94.433 83.8406C94.778 83.7018 95.1625 83.667 95.5366 83.7526C95.6438 83.53 95.9301 82.9355 96.1019 82.5789C96.3163 82.1336 95.321 81.3796 94.9826 80.5764C94.6448 79.7735 95.7376 79.3848 96.0025 80.1525C96.2668 80.9206 96.8587 81.5713 96.9939 80.5384C97.129 79.5059 97.7754 78.5365 98.3652 78.8206C98.9546 79.1045 98.5999 80.2143 97.8767 80.9635C97.1533 81.7132 98.0312 81.7703 98.7963 81.498C99.5616 81.2264 99.939 82.3232 99.1007 82.5597C98.2619 82.7959 97.0517 82.4877 96.8372 82.933C96.6655 83.2896 96.3791 83.8841 96.2719 84.1068C96.5721 84.3458 96.7848 84.6682 96.8911 85.0244C97.136 85.005 97.7887 84.9533 98.1809 84.9223C98.67 84.8839 98.8285 83.6339 99.3528 82.9326C99.8773 82.2315 100.751 82.9865 100.22 83.606C99.6904 84.2254 99.4215 85.0711 100.377 84.6656C101.333 84.2602 102.486 84.3323 102.533 84.99C102.579 85.6476 101.449 85.9009 100.447 85.6498C99.4452 85.3997 99.8292 86.1939 100.441 86.7227C101.052 87.2511 100.294 88.1363 99.6773 87.5255C99.0599 86.9146 98.7282 85.7038 98.239 85.7424C97.8474 85.7732 97.195 85.825 96.9503 85.8445C96.9228 86.0268 96.8675 86.2084 96.7833 86.3833C96.6991 86.5581 96.5916 86.7146 96.4661 86.8499C96.6032 87.0537 96.9698 87.5956 97.1898 87.9209C97.4643 88.328 98.618 87.8323 99.4804 87.9343C100.343 88.0356 100.123 89.1797 99.329 89.0314C98.5342 88.8828 97.6732 89.0779 98.494 89.7051C99.3148 90.3317 99.8217 91.3737 99.2783 91.7471C98.7349 92.1208 97.9598 91.2641 97.6808 90.2638C97.4021 89.264 96.9086 90.0015 96.7546 90.802C96.601 91.603 95.466 91.3907 95.6873 90.5435C95.9086 89.6966 96.7869 88.7939 96.5124 88.3868C96.2921 88.0608 95.9256 87.5183 95.788 87.3149C95.4432 87.4539 95.0586 87.4883 94.6845 87.4027C94.5773 87.6253 94.291 88.2198 94.1192 88.5764C93.9048 89.0217 94.9003 89.7758 95.2385 90.5789C95.5763 91.3818 94.4834 91.7705 94.2186 91.0028C93.9545 90.2348 93.3626 89.5841 93.2275 90.617C93.0925 91.6497 92.446 92.6188 91.8565 92.335C91.2667 92.0509 91.6216 90.9413 92.3446 90.1918C93.068 89.4422 92.1902 89.385 91.4248 89.6572C90.6595 89.9288 90.2821 88.832 91.1204 88.5955C91.9594 88.3594 93.1694 88.6676 93.3839 88.2223C93.5556 87.8657 93.842 87.2711 93.9492 87.0485C93.649 86.8095 93.4364 86.4874 93.3299 86.1311C93.0851 86.1503 92.4324 86.2019 92.0402 86.233C91.5508 86.2721 91.3932 87.5219 90.8683 88.2226C90.3438 88.9238 89.4705 88.1688 90.0007 87.5492C90.5309 86.9299 90.7996 86.0842 89.8441 86.4896C88.8881 86.895 87.735 86.8231 87.6884 86.1653C87.6417 85.5077 88.7724 85.2544 89.774 85.5055ZM94.6498 86.5351C95.1729 86.7871 95.8038 86.5631 96.0585 86.0342C96.3131 85.5055 96.0949 84.8726 95.5719 84.6207C95.0481 84.3684 94.4175 84.5925 94.1629 85.1212C93.9081 85.6501 94.1261 86.2829 94.6498 86.5351Z" fill="#CAEFFF"/>
<path d="M76.5856 96.9177C77.5877 97.1685 77.204 96.3739 76.592 95.845C75.9805 95.3163 76.7386 94.4314 77.3554 95.0426C77.9729 95.6533 78.3043 96.8643 78.7939 96.8252C79.1853 96.7943 79.8375 96.7431 80.0827 96.7235C80.1101 96.5409 80.1652 96.3592 80.2494 96.1843C80.3336 96.0095 80.4413 95.8531 80.567 95.7181C80.4292 95.5143 80.0629 94.972 79.8431 94.6467C79.5681 94.24 78.4148 94.7357 77.5523 94.6338C76.6901 94.5321 76.9093 93.3877 77.7039 93.5362C78.499 93.685 79.3593 93.4901 78.5387 92.8624C77.7179 92.2358 77.211 91.1938 77.7544 90.8204C78.2977 90.447 79.0728 91.3034 79.3519 92.3037C79.6299 93.3032 80.1243 92.5662 80.2781 91.7656C80.4319 90.9647 81.5666 91.1769 81.3454 92.0241C81.1247 92.8716 80.2455 93.7744 80.5204 94.1808C80.7406 94.5068 81.1071 95.0493 81.2446 95.2529C81.5896 95.114 81.9741 95.0792 82.3482 95.1649C82.4554 94.9423 82.7417 94.3477 82.9135 93.9911C83.1279 93.5458 82.1326 92.7919 81.7942 91.9887C81.4564 91.1858 82.5492 90.7971 82.8141 91.5648C83.0784 92.3329 83.6703 92.9836 83.8055 91.9506C83.9406 90.9182 84.587 89.9488 85.1768 90.2329C85.7662 90.5168 85.4115 91.6266 84.6883 92.3758C83.9649 93.1254 84.8428 93.1826 85.6079 92.9103C86.3732 92.6387 86.7506 93.7355 85.9123 93.9719C85.0735 94.2082 83.8633 93.8999 83.6488 94.3453C83.4771 94.7019 83.1907 95.2964 83.0835 95.519C83.3837 95.7581 83.5964 96.0805 83.7027 96.4367C83.9476 96.4172 84.6003 96.3656 84.9925 96.3346C85.4816 96.2961 85.6401 95.0462 86.1643 94.3449C86.6889 93.6437 87.5625 94.3988 87.0319 95.0183C86.502 95.6377 86.2331 96.4833 87.1886 96.0779C88.1446 95.6725 89.2975 95.7446 89.3443 96.4022C89.391 97.0599 88.2603 97.3131 87.2587 97.062C86.2568 96.812 86.6408 97.6061 87.2525 98.1349C87.8636 98.6634 87.106 99.5485 86.4889 98.9378C85.8715 98.3269 85.5398 97.116 85.0506 97.1547C84.659 97.1855 84.0066 97.2373 83.7619 97.2568C83.7344 97.4391 83.6791 97.6207 83.5949 97.7955C83.5107 97.9704 83.4032 98.1269 83.2777 98.2622C83.4148 98.466 83.7813 99.0078 84.0014 99.3332C84.2759 99.7403 85.4296 99.2445 86.292 99.3466C87.1545 99.4478 86.9348 100.592 86.1406 100.444C85.3457 100.295 84.4848 100.49 85.3056 101.117C86.1264 101.744 86.6333 102.786 86.0899 103.159C85.5465 103.533 84.7714 102.676 84.4924 101.676C84.2137 100.676 83.7202 101.414 83.5662 102.214C83.4126 103.015 82.2776 102.803 82.4989 101.956C82.7202 101.109 83.5985 100.206 83.324 99.7991C83.1037 99.4731 82.7372 98.9306 82.5996 98.7272C82.2548 98.8662 81.8702 98.9006 81.4961 98.8149C81.3889 99.0376 81.1026 99.6321 80.9308 99.9887C80.7164 100.434 81.7119 101.188 82.0501 101.991C82.3879 102.794 81.295 103.183 81.0302 102.415C80.7661 101.647 80.1742 100.996 80.0391 102.029C79.9041 103.062 79.2576 104.031 78.6681 103.747C78.0783 103.463 78.4331 102.354 79.1562 101.604C79.8796 100.854 79.0018 100.797 78.2364 101.069C77.4711 101.341 77.0937 100.244 77.932 100.008C78.771 99.7717 79.981 100.08 80.1955 99.6345C80.3672 99.2779 80.6536 98.6834 80.7608 98.4608C80.4606 98.2217 80.248 97.8997 80.1415 97.5433C79.8967 97.5626 79.244 97.6142 78.8518 97.6452C78.3624 97.6844 78.2048 98.9342 77.6799 99.6349C77.1554 100.336 76.2821 99.5811 76.8123 98.9615C77.3425 98.3422 77.6112 97.4965 76.6557 97.9019C75.6997 98.3073 74.5466 98.2354 74.5 97.5775C74.4533 96.92 75.584 96.6667 76.5856 96.9177ZM81.4614 97.9474C81.9845 98.1993 82.6154 97.9753 82.8701 97.4464C83.1247 96.9177 82.9065 96.2848 82.3835 96.0329C81.8597 95.7807 81.2291 96.0048 80.9745 96.5335C80.7197 97.0624 80.9377 97.6952 81.4614 97.9474Z" fill="#CAEFFF"/>
<path d="M95.0864 100.135C96.0885 100.386 95.7048 99.5911 95.0928 99.0622C94.4812 98.5335 95.2393 97.6487 95.8562 98.2599C96.4737 98.8705 96.805 100.082 97.2947 100.042C97.686 100.012 98.3382 99.9603 98.5835 99.9407C98.6109 99.7581 98.666 99.5764 98.7502 99.4016C98.8344 99.2267 98.9421 99.0703 99.0677 98.9353C98.93 98.7316 98.5637 98.1892 98.3439 97.864C98.0689 97.4573 96.9156 97.9529 96.0531 97.8511C95.1908 97.7494 95.4101 96.6049 96.2047 96.7535C96.9998 96.9022 97.8601 96.7073 97.0395 96.0796C96.2187 95.453 95.7118 94.411 96.2551 94.0376C96.7985 93.6642 97.5736 94.5207 97.8527 95.521C98.1307 96.5204 98.6251 95.7834 98.7788 94.9828C98.9326 94.1819 100.067 94.3941 99.8462 95.2413C99.6254 96.0888 98.7463 96.9916 99.0211 97.398C99.2414 97.724 99.6079 98.2665 99.7454 98.4701C100.09 98.3313 100.475 98.2965 100.849 98.3822C100.956 98.1595 101.242 97.565 101.414 97.2084C101.629 96.7631 100.633 96.0091 100.295 95.2059C99.9572 94.403 101.05 94.0143 101.315 94.782C101.579 95.5501 102.171 96.2008 102.306 95.1679C102.441 94.1355 103.088 93.166 103.678 93.4501C104.267 93.734 103.912 94.8438 103.189 95.593C102.466 96.3427 103.344 96.3998 104.109 96.1275C104.874 95.8559 105.251 96.9527 104.413 97.1892C103.574 97.4254 102.364 97.1172 102.15 97.5625C101.978 97.9191 101.692 98.5136 101.584 98.7363C101.884 98.9753 102.097 99.2977 102.203 99.6539C102.448 99.6345 103.101 99.5828 103.493 99.5518C103.982 99.5134 104.141 98.2635 104.665 97.5621C105.19 96.861 106.063 97.616 105.533 98.2355C105.003 98.8549 104.734 99.7006 105.689 99.2951C106.645 98.8897 107.798 98.9618 107.845 99.6195C107.892 100.277 106.761 100.53 105.759 100.279C104.758 100.029 105.142 100.823 105.753 101.352C106.364 101.881 105.607 102.766 104.99 102.155C104.372 101.544 104.041 100.333 103.551 100.372C103.16 100.403 102.507 100.454 102.263 100.474C102.235 100.656 102.18 100.838 102.096 101.013C102.011 101.188 101.904 101.344 101.778 101.479C101.916 101.683 102.282 102.225 102.502 102.55C102.777 102.958 103.93 102.462 104.793 102.564C105.655 102.665 105.436 103.809 104.641 103.661C103.847 103.512 102.986 103.707 103.806 104.335C104.627 104.961 105.134 106.003 104.591 106.377C104.047 106.75 103.272 105.894 102.993 104.893C102.714 103.894 102.221 104.631 102.067 105.432C101.913 106.232 100.778 106.02 101 105.173C101.221 104.326 102.099 103.423 101.825 103.016C101.604 102.69 101.238 102.148 101.1 101.944C100.756 102.083 100.371 102.118 99.9969 102.032C99.8897 102.255 99.6033 102.849 99.4316 103.206C99.2171 103.651 100.213 104.405 100.551 105.208C100.889 106.011 99.7958 106.4 99.531 105.632C99.2669 104.864 98.675 104.214 98.5398 105.247C98.4048 106.279 97.7583 107.248 97.1689 106.964C96.579 106.68 96.9339 105.571 97.6569 104.821C98.3803 104.072 97.5025 104.015 96.7372 104.287C95.9718 104.558 95.5944 103.462 96.4328 103.225C97.2718 102.989 98.4818 103.297 98.6963 102.852C98.868 102.495 99.1543 101.901 99.2616 101.678C98.9613 101.439 98.7487 101.117 98.6422 100.761C98.3974 100.78 97.7448 100.831 97.3525 100.862C96.8631 100.902 96.7056 102.151 96.1807 102.852C95.6562 103.553 94.7828 102.798 95.3131 102.179C95.8433 101.559 96.1119 100.714 95.1565 101.119C94.2004 101.525 93.0474 101.453 93.0007 100.795C92.954 100.137 94.0847 99.8839 95.0864 100.135ZM99.9622 101.165C100.485 101.417 101.116 101.193 101.371 100.664C101.625 100.135 101.407 99.5021 100.884 99.2502C100.36 98.9979 99.7298 99.222 99.4752 99.7507C99.2205 100.28 99.4384 100.912 99.9622 101.165Z" fill="#CAEFFF"/>
<path d="M95.9288 70.6048C96.9309 70.8555 96.5472 70.061 95.9352 69.5321C95.3237 69.0034 96.0818 68.1185 96.6987 68.7297C97.3161 69.3404 97.6475 70.5514 98.1371 70.5123C98.5285 70.4814 99.1807 70.4302 99.426 70.4106C99.4533 70.228 99.5084 70.0463 99.5926 69.8714C99.6768 69.6966 99.7845 69.5402 99.9102 69.4052C99.7724 69.2014 99.4062 68.6591 99.1863 68.3338C98.9114 67.9271 97.7581 68.4227 96.8955 68.3209C96.0333 68.2192 96.2525 67.0748 97.0471 67.2233C97.8422 67.3721 98.7025 67.1772 97.8819 66.5495C97.0612 65.9229 96.5542 64.8809 97.0976 64.5075C97.6409 64.1341 98.4161 64.9905 98.6951 65.9908C98.9732 66.9903 99.4676 66.2533 99.6213 65.4526C99.7751 64.6517 100.91 64.864 100.689 65.7112C100.468 66.5587 99.5887 67.4615 99.8636 67.8678C100.084 68.1939 100.45 68.7363 100.588 68.94C100.933 68.8011 101.317 68.7663 101.691 68.852C101.799 68.6294 102.085 68.0348 102.257 67.6782C102.471 67.2329 101.476 66.479 101.137 65.6758C100.8 64.8729 101.892 64.4842 102.157 65.2519C102.422 66.02 103.014 66.6707 103.149 65.6377C103.284 64.6053 103.93 63.6359 104.52 63.92C105.109 64.2039 104.755 65.3137 104.032 66.0629C103.308 66.8125 104.186 66.8697 104.951 66.5974C105.716 66.3258 106.094 67.4226 105.255 67.659C104.417 67.8953 103.206 67.587 102.992 68.0324C102.82 68.389 102.534 68.9835 102.427 69.2061C102.727 69.4452 102.94 69.7676 103.046 70.1238C103.291 70.1043 103.944 70.0527 104.336 70.0217C104.825 69.9832 104.983 68.7333 105.508 68.032C106.032 67.3308 106.906 68.0859 106.375 68.7054C105.845 69.3248 105.576 70.1704 106.532 69.765C107.488 69.3596 108.641 69.4317 108.687 70.0893C108.734 70.7469 107.604 71.0002 106.602 70.7491C105.6 70.4991 105.984 71.2932 106.596 71.822C107.207 72.3505 106.449 73.2356 105.832 72.6248C105.215 72.014 104.883 70.8031 104.394 70.8418C104.002 70.8726 103.35 70.9243 103.105 70.9439C103.078 71.1262 103.022 71.3078 102.938 71.4826C102.854 71.6575 102.746 71.814 102.621 71.9493C102.758 72.1531 103.125 72.6949 103.345 73.0203C103.619 73.4274 104.773 72.9316 105.635 73.0337C106.498 73.1349 106.278 74.2791 105.484 74.1308C104.689 73.9821 103.828 74.1773 104.649 74.8045C105.47 75.4311 105.977 76.4731 105.433 76.8465C104.89 77.2202 104.115 76.3634 103.836 75.3632C103.557 74.3634 103.063 75.1008 102.909 75.9014C102.756 76.7023 101.621 76.49 101.842 75.6428C102.063 74.7959 102.942 73.8932 102.667 73.4862C102.447 73.1601 102.08 72.6177 101.943 72.4143C101.598 72.5532 101.213 72.5877 100.839 72.502C100.732 72.7247 100.446 73.3192 100.274 73.6758C100.06 74.1211 101.055 74.8751 101.393 75.6782C101.731 76.4811 100.638 76.8699 100.373 76.1021C100.109 75.3341 99.5174 74.6834 99.3823 75.7164C99.2473 76.7491 98.6008 77.7182 98.0113 77.4343C97.4215 77.1502 97.7764 76.0407 98.4994 75.2912C99.2228 74.5415 98.345 74.4844 97.5796 74.7566C96.8143 75.0282 96.4369 73.9314 97.2752 73.6949C98.1142 73.4588 99.3242 73.7669 99.5387 73.3216C99.7104 72.965 99.9968 72.3705 100.104 72.1479C99.8038 71.9088 99.5912 71.5868 99.4847 71.2304C99.2399 71.2497 98.5872 71.3013 98.195 71.3323C97.7056 71.3715 97.548 72.6212 97.0231 73.322C96.4986 74.0231 95.6253 73.2682 96.1555 72.6486C96.6857 72.0293 96.9544 71.1836 95.9989 71.589C95.0429 71.9944 93.8899 71.9225 93.8432 71.2646C93.7965 70.607 94.9272 70.3538 95.9288 70.6048ZM100.805 71.6345C101.328 71.8864 101.959 71.6624 102.213 71.1335C102.468 70.6048 102.25 69.9719 101.727 69.72C101.203 69.4678 100.572 69.6919 100.318 70.2206C100.063 70.7495 100.281 71.3823 100.805 71.6345Z" fill="#CAEFFF"/>
<path d="M62.0351 90.6147C62.9732 91.0472 62.7437 90.1951 62.2406 89.5618C61.7379 88.9287 62.6472 88.2 63.1398 88.9152C63.6331 89.6299 63.7338 90.8814 64.2222 90.9339C64.6124 90.9763 65.2628 91.0471 65.5074 91.0734C65.5682 90.899 65.6561 90.7307 65.7714 90.5745C65.8866 90.4184 66.0215 90.2847 66.17 90.1754C66.0725 89.9496 65.8133 89.3487 65.6577 88.9883C65.4631 88.5375 64.2378 88.8103 63.4092 88.5501C62.5808 88.29 63.0088 87.2062 63.762 87.4997C64.5157 87.7936 65.3972 87.7619 64.7074 86.9927C64.0173 86.2245 63.7128 85.1065 64.316 84.8405C64.9193 84.5745 65.5218 85.5601 65.6103 86.5948C65.6978 87.6285 66.3205 86.9961 66.6202 86.238C66.9201 85.4796 67.9958 85.8989 67.621 86.6903C67.2467 87.482 66.2152 88.2058 66.4097 88.6562C66.5656 89.0174 66.825 89.6185 66.9223 89.8442C67.2871 89.7718 67.6713 89.809 68.0229 89.9627C68.1697 89.7638 68.5614 89.2328 68.7964 88.9144C69.0899 88.5166 68.2519 87.5909 68.0686 86.7388C67.8858 85.8872 69.0318 85.7082 69.1494 86.5117C69.2665 87.3156 69.7273 88.0649 70.0519 87.075C70.3764 86.0857 71.1916 85.2532 71.7184 85.6419C72.2449 86.0303 71.6901 87.0549 70.8404 87.6568C69.9904 88.259 70.8423 88.4782 71.6447 88.3527C72.4472 88.228 72.6143 89.3759 71.7466 89.4525C70.8785 89.5288 69.7466 89.0012 69.4532 89.3989C69.2182 89.7174 68.8264 90.2484 68.6797 90.4472C68.9303 90.7379 69.0794 91.0942 69.1177 91.4639C69.362 91.4903 70.0129 91.5608 70.404 91.6032C70.8917 91.6562 71.2796 90.4575 71.925 89.8658C72.5706 89.2742 73.2888 90.1784 72.6524 90.6886C72.0167 91.1988 71.5954 91.9798 72.6095 91.7589C73.6242 91.5381 74.7437 91.8231 74.6675 92.4779C74.5913 93.1328 73.4332 93.1717 72.4956 92.7389C71.5576 92.3071 71.7874 93.1587 72.2903 93.792C72.7926 94.4247 71.8837 95.1537 71.3908 94.439C70.8977 93.7241 70.7966 92.4727 70.3087 92.4198C69.9183 92.3773 69.2676 92.307 69.0235 92.2808C68.9627 92.4548 68.8746 92.6229 68.7593 92.7791C68.6441 92.9353 68.5094 93.0691 68.361 93.1787C68.4579 93.4044 68.7174 94.005 68.8732 94.3655C69.0673 94.8165 70.293 94.5437 71.1214 94.8041C71.9501 95.0638 71.5217 96.1473 70.7689 95.854C70.0155 95.5603 69.1333 95.5922 69.8233 96.3609C70.5134 97.1291 70.818 98.2471 70.2147 98.5131C69.6113 98.7793 69.0089 97.7935 68.9205 96.7588C68.8323 95.7247 68.2104 96.3576 67.9105 97.1156C67.6108 97.8741 66.5349 97.4547 66.9097 96.6633C67.2845 95.8723 68.3151 95.1484 68.121 94.6975C67.9651 94.3362 67.7057 93.7351 67.6083 93.5097C67.2437 93.5822 66.8594 93.5446 66.5078 93.3909C66.3611 93.5898 65.9693 94.1208 65.7343 94.4393C65.4409 94.837 66.279 95.7628 66.4622 96.6148C66.6449 97.4665 65.4989 97.6455 65.3813 96.8419C65.2644 96.0382 64.8037 95.2888 64.479 96.2787C64.1545 97.2684 63.3393 98.1005 62.8129 97.7121C62.286 97.3234 62.8408 96.2991 63.6905 95.697C64.5405 95.0947 63.6886 94.8755 62.886 95.0008C62.0835 95.1255 61.9164 93.9777 62.7841 93.9011C63.6524 93.8249 64.7841 94.3524 65.0775 93.9547C65.3125 93.6362 65.7043 93.1052 65.851 92.9064C65.6004 92.6157 65.4513 92.2598 65.4129 91.8899C65.1687 91.8633 64.5179 91.7928 64.1267 91.7504C63.6385 91.698 63.2516 92.8968 62.6057 93.4878C61.9601 94.0793 61.2421 93.1753 61.8783 92.665C62.5142 92.1549 62.9353 91.3738 61.9212 91.5947C60.9065 91.8155 59.7869 91.5307 59.8632 90.8756C59.9394 90.2208 61.0975 90.182 62.0351 90.6147ZM66.6348 92.5321C67.102 92.8768 67.7635 92.7738 68.112 92.3015C68.4604 91.8293 68.3636 91.1669 67.8964 90.8222C67.4286 90.477 66.7673 90.5801 66.4189 91.0523C66.0704 91.5247 66.167 92.1869 66.6348 92.5321Z" fill="#CAEFFF"/>
<path d="M9.89093 103.791C9.85156 102.759 9.19591 103.349 8.85913 104.085C8.52244 104.82 7.46095 104.339 7.8754 103.576C8.28913 102.813 9.35923 102.156 9.18489 101.697C9.04584 101.33 8.81434 100.718 8.72698 100.488C8.54403 100.512 8.35414 100.51 8.16273 100.478C7.97132 100.446 7.79105 100.387 7.62632 100.304C7.46919 100.493 7.05082 100.996 6.79999 101.298C6.48634 101.676 7.28455 102.645 7.42785 103.501C7.5712 104.358 6.41111 104.467 6.33163 103.663C6.25221 102.858 5.82467 102.086 5.45133 103.049C5.07909 104.013 4.22031 104.79 3.70994 104.373C3.19954 103.956 3.80522 102.972 4.68763 102.425C5.56955 101.878 4.72374 101.61 3.91206 101.686C3.10008 101.762 2.98667 100.613 3.86196 100.589C4.73737 100.564 5.8499 101.156 6.16328 100.778C6.41476 100.476 6.83316 99.9721 6.99026 99.7831C6.76051 99.4907 6.61962 99.1313 6.59735 98.7482C6.35361 98.7074 5.70275 98.5987 5.31236 98.5335C4.82485 98.452 4.37915 99.6184 3.70252 100.168C3.02605 100.717 2.34737 99.7759 3.01047 99.3071C3.67407 98.8386 4.13341 98.0884 3.10386 98.2473C2.07482 98.4062 0.96339 98.0565 1.07129 97.4107C1.1791 96.7655 2.34387 96.7959 3.26533 97.2808C4.18726 97.7659 3.99678 96.9071 3.52148 96.2485C3.04679 95.5896 3.99443 94.9207 4.45577 95.6595C4.91706 96.3989 4.95932 97.647 5.44683 97.7285C5.83722 97.7937 6.48808 97.9024 6.73182 97.9432C6.87743 97.5881 7.12753 97.2937 7.43986 97.0922C7.35272 96.8624 7.12073 96.2502 6.9813 95.8823C6.80769 95.4234 5.5633 95.6206 4.74341 95.3133C3.92359 95.0056 4.40438 93.9558 5.14745 94.2921C5.89031 94.6277 6.77739 94.6496 6.12108 93.8455C5.46461 93.0409 5.21162 91.9138 5.82996 91.6851C6.44831 91.4564 7.00753 92.4712 7.04639 93.5031C7.08636 94.535 7.7415 93.9443 8.07826 93.2092C8.41487 92.4747 9.47647 92.9548 9.06252 93.718C8.64852 94.4815 7.57866 95.1384 7.75254 95.5973C7.89153 95.9647 8.12356 96.5766 8.21074 96.8061C8.39342 96.7815 8.58324 96.7839 8.77468 96.8159C8.96609 96.8479 9.1464 96.9073 9.3114 96.99C9.46874 96.8014 9.88656 96.298 10.1374 95.9958C10.4516 95.6185 9.65314 94.6493 9.51006 93.7928C9.36623 92.9364 10.5262 92.8275 10.6058 93.6315C10.6852 94.4362 11.1132 95.2083 11.486 94.2449C11.8583 93.2817 12.717 92.5037 13.2274 92.9211C13.7381 93.3384 13.1321 94.3221 12.2497 94.8696C11.3677 95.4166 12.2137 95.6843 13.0253 95.6084C13.8373 95.532 13.9507 96.6811 13.0754 96.7055C12.2004 96.7296 11.0882 96.1387 10.7741 96.516C10.5226 96.8187 10.1042 97.3222 9.94739 97.5112C10.1772 97.8033 10.3178 98.163 10.34 98.5461C10.5838 98.5868 11.2346 98.6955 11.625 98.7608C12.1125 98.8422 12.5583 97.6756 13.2348 97.1264C13.9113 96.5777 14.59 97.5184 13.9269 97.9872C13.2633 98.4554 12.804 99.2056 13.8336 99.0467C14.8628 98.8877 15.974 99.2375 15.8662 99.8828C15.7583 100.529 14.5938 100.498 13.6721 100.013C12.7501 99.5282 12.9406 100.387 13.4158 101.046C13.8905 101.705 12.9429 102.374 12.4815 101.635C12.0203 100.895 11.978 99.6473 11.4905 99.5658C11.1001 99.5006 10.4493 99.3918 10.2055 99.3511C10.0599 99.7062 9.81013 100 9.49775 100.202C9.58466 100.432 9.81662 101.044 9.95605 101.412C10.1304 101.871 11.3744 101.673 12.1939 101.981C13.0138 102.289 12.533 103.338 11.7899 103.002C11.047 102.666 10.16 102.645 10.8162 103.449C11.4727 104.253 11.726 105.381 11.1074 105.609C10.489 105.838 9.92985 104.823 9.89093 103.791ZM9.51681 98.8219C9.61249 98.2492 9.22109 97.7061 8.64207 97.6094C8.06328 97.5127 7.51658 97.899 7.4209 98.4717C7.32509 99.0451 7.71653 99.5879 8.29532 99.6846C8.87435 99.7814 9.421 99.3953 9.51681 98.8219Z" fill="#CAEFFF"/>
<path d="M24.8909 98.7911C24.8516 97.7589 24.1959 98.3494 23.8591 99.0848C23.5224 99.8198 22.4609 99.3392 22.8754 98.5761C23.2891 97.8126 24.3592 97.1559 24.1849 96.6967C24.0458 96.3296 23.8143 95.7177 23.727 95.4877C23.544 95.5125 23.3541 95.5103 23.1627 95.4784C22.9713 95.4464 22.791 95.3867 22.6263 95.3038C22.4692 95.493 22.0508 95.9962 21.8 96.2982C21.4863 96.6759 22.2845 97.6447 22.4278 98.5013C22.5712 99.3576 21.4111 99.467 21.3316 98.6625C21.2522 97.8575 20.8247 97.086 20.4513 98.0493C20.0791 99.0125 19.2203 99.7905 18.7099 99.3732C18.1995 98.9559 18.8052 97.9722 19.6876 97.4247C20.5695 96.8784 19.7237 96.6097 18.9121 96.6859C18.1001 96.7621 17.9867 95.6132 18.862 95.5888C19.7374 95.5639 20.8499 96.1557 21.1633 95.7782C21.4147 95.4756 21.8332 94.9721 21.9903 94.7831C21.7605 94.4907 21.6196 94.1313 21.5973 93.7482C21.3536 93.7074 20.7027 93.5987 20.3123 93.5335C19.8248 93.452 19.3791 94.6184 18.7025 95.1678C18.026 95.7165 17.3474 94.7759 18.0105 94.3071C18.6741 93.8386 19.1334 93.0884 18.1039 93.2473C17.0748 93.4062 15.9634 93.0565 16.0713 92.4107C16.1791 91.7655 17.3439 91.7959 18.2653 92.2808C19.1873 92.7659 18.9968 91.9071 18.5215 91.2485C18.0468 90.5896 18.9944 89.9207 19.4558 90.6595C19.9171 91.3989 19.9593 92.647 20.4468 92.7285C20.8372 92.7937 21.4881 92.9024 21.7318 92.9432C21.8774 92.5881 22.1275 92.2937 22.4398 92.0922C22.3527 91.8624 22.1207 91.2502 21.9813 90.8823C21.8077 90.4234 20.5633 90.6206 19.7434 90.3133C18.9236 90.0056 19.4044 88.9558 20.1474 89.2921C20.8903 89.6277 21.7774 89.6496 21.1211 88.8455C20.4646 88.0409 20.2116 86.9138 20.83 86.6851C21.4483 86.4564 22.0075 87.4712 22.0464 88.5031C22.0864 89.535 22.7415 88.9443 23.0783 88.2092C23.4149 87.4747 24.4765 87.9548 24.0625 88.718C23.6485 89.4815 22.5787 90.1384 22.7525 90.5973C22.8915 90.9647 23.1236 91.5766 23.2107 91.8061C23.3934 91.7815 23.5832 91.7839 23.7747 91.8159C23.9661 91.8479 24.1464 91.9073 24.3114 91.99C24.4687 91.8014 24.8866 91.298 25.1374 90.9958C25.4516 90.6185 24.6531 89.6493 24.5101 88.7928C24.3662 87.9364 25.5262 87.8275 25.6058 88.6315C25.6852 89.4362 26.1132 90.2083 26.486 89.2449C26.8583 88.2817 27.717 87.5037 28.2274 87.9211C28.7381 88.3384 28.1321 89.3221 27.2497 89.8696C26.3677 90.4166 27.2136 90.6843 28.0253 90.6084C28.8373 90.532 28.9507 91.6811 28.0754 91.7055C27.2004 91.7296 26.0882 91.1387 25.7741 91.516C25.5226 91.8187 25.1042 92.3222 24.9474 92.5112C25.1772 92.8033 25.3178 93.163 25.34 93.5461C25.5838 93.5868 26.2346 93.6955 26.625 93.7608C27.1125 93.8422 27.5583 92.6756 28.2348 92.1264C28.9113 91.5777 29.59 92.5184 28.9269 92.9872C28.2633 93.4554 27.804 94.2056 28.8336 94.0467C29.8628 93.8877 30.974 94.2375 30.8662 94.8828C30.7583 95.5286 29.5938 95.4979 28.6721 95.0132C27.7501 94.5282 27.9406 95.387 28.4158 96.0457C28.8905 96.7047 27.9429 97.3736 27.4815 96.6347C27.0203 95.8952 26.978 94.6473 26.4905 94.5658C26.1001 94.5006 25.4493 94.3918 25.2055 94.3511C25.0599 94.7062 24.8101 95.0003 24.4977 95.2022C24.5847 95.4318 24.8166 96.044 24.956 96.412C25.1304 96.871 26.3744 96.6729 27.1939 96.981C28.0137 97.2887 27.533 98.3382 26.7899 98.0022C26.047 97.6663 25.1599 97.6447 25.8162 98.4488C26.4727 99.2534 26.7259 100.381 26.1074 100.609C25.489 100.838 24.9298 99.8231 24.8909 98.7911ZM24.5168 93.8219C24.6125 93.2492 24.2211 92.7061 23.6421 92.6094C23.0633 92.5127 22.5166 92.899 22.4209 93.4717C22.3251 94.0451 22.7165 94.5879 23.2953 94.6846C23.8743 94.7814 24.421 94.3953 24.5168 93.8219Z" fill="#CAEFFF"/>
<path d="M41.6876 97.8209C41.6482 96.7887 40.9926 97.3792 40.6558 98.1146C40.3191 98.8496 39.2576 98.369 39.6721 97.6059C40.0858 96.8424 41.1559 96.1857 40.9816 95.7265C40.8425 95.3594 40.611 94.7475 40.5237 94.5175C40.3407 94.5422 40.1508 94.5401 39.9594 94.5081C39.768 94.4762 39.5877 94.4165 39.423 94.3336C39.2659 94.5227 38.8475 95.026 38.5967 95.328C38.283 95.7057 39.0812 96.6745 39.2245 97.5311C39.3679 98.3874 38.2078 98.4968 38.1283 97.6923C38.0489 96.8873 37.6213 96.1158 37.248 97.0791C36.8758 98.0423 36.017 98.8203 35.5066 98.403C34.9962 97.9857 35.6019 97.002 36.4843 96.4545C37.3662 95.9082 36.5204 95.6395 35.7087 95.7157C34.8968 95.7918 34.7833 94.643 35.6586 94.6186C36.534 94.5937 37.6466 95.1855 37.96 94.808C38.2114 94.5054 38.6298 94.0019 38.7869 93.8129C38.5572 93.5205 38.4163 93.1611 38.394 92.7779C38.1503 92.7372 37.4994 92.6285 37.109 92.5632C36.6215 92.4818 36.1758 93.6482 35.4992 94.1976C34.8227 94.7463 34.144 93.8057 34.8071 93.3369C35.4708 92.8684 35.9301 92.1181 34.9005 92.2771C33.8715 92.4359 32.7601 92.0863 32.868 91.4405C32.9758 90.7953 34.1406 90.8257 35.062 91.3106C35.9839 91.7956 35.7935 90.9368 35.3182 90.2783C34.8435 89.6194 35.7911 88.9505 36.2524 89.6893C36.7137 90.4287 36.756 91.6768 37.2435 91.7582C37.6339 91.8235 38.2848 91.9322 38.5285 91.9729C38.6741 91.6179 38.9242 91.3235 39.2365 91.1219C39.1494 90.8922 38.9174 90.28 38.778 89.9121C38.6044 89.4532 37.36 89.6504 36.5401 89.3431C35.7203 89.0354 36.2011 87.9856 36.9441 88.3218C37.687 88.6575 38.5741 88.6794 37.9178 87.8753C37.2613 87.0707 37.0083 85.9436 37.6266 85.7148C38.245 85.4861 38.8042 86.501 38.8431 87.5329C38.883 88.5647 39.5382 87.9741 39.8749 87.2389C40.2115 86.5045 41.2731 86.9846 40.8592 87.7478C40.4452 88.5113 39.3753 89.1682 39.5492 89.6271C39.6882 89.9945 39.9202 90.6064 40.0074 90.8359C40.1901 90.8113 40.3799 90.8137 40.5714 90.8457C40.7628 90.8777 40.9431 90.9371 41.1081 91.0198C41.2654 90.8312 41.6832 90.3278 41.9341 90.0256C42.2482 89.6482 41.4498 88.6791 41.3067 87.8226C41.1629 86.9661 42.3229 86.8573 42.4024 87.6613C42.4819 88.466 42.9099 89.2381 43.2827 88.2747C43.6549 87.3115 44.5137 86.5335 45.0241 86.9509C45.5348 87.3682 44.9288 88.3518 44.0464 88.8993C43.1644 89.4464 44.0103 89.7141 44.822 89.6382C45.634 89.5618 45.7474 90.7109 44.8721 90.7353C43.9971 90.7594 42.8849 90.1685 42.5708 90.5458C42.3193 90.8484 41.9009 91.352 41.7441 91.5409C41.9739 91.8331 42.1144 92.1928 42.1367 92.5759C42.3805 92.6166 43.0313 92.7253 43.4217 92.7906C43.9092 92.872 44.355 91.7054 45.0315 91.1562C45.708 90.6075 46.3867 91.5481 45.7236 92.017C45.06 92.4852 44.6007 93.2354 45.6302 93.0765C46.6595 92.9174 47.7707 93.2673 47.6629 93.9126C47.555 94.5583 46.3905 94.5277 45.4687 94.043C44.5468 93.5579 44.7373 94.4167 45.2125 95.0755C45.6872 95.7345 44.7396 96.4034 44.2782 95.6645C43.817 94.925 43.7747 93.677 43.2872 93.5956C42.8968 93.5304 42.2459 93.4216 42.0022 93.3809C41.8566 93.7359 41.6068 94.0301 41.2944 94.2319C41.3813 94.4616 41.6133 95.0738 41.7527 95.4418C41.9271 95.9007 43.1711 95.7027 43.9906 96.0108C44.8104 96.3184 44.3297 97.368 43.5866 97.032C42.8437 96.6961 41.9566 96.6745 42.6129 97.4786C43.2694 98.2832 43.5226 99.4104 42.9041 99.639C42.2857 99.8677 41.7265 98.8528 41.6876 97.8209ZM41.3135 92.8517C41.4092 92.279 41.0178 91.7359 40.4387 91.6392C39.86 91.5424 39.3133 91.9288 39.2176 92.5015C39.1218 93.0749 39.5132 93.6177 40.092 93.7144C40.671 93.8112 41.2177 93.4251 41.3135 92.8517Z" fill="#CAEFFF"/>
<path d="M70.8909 112.791C70.8516 111.759 70.1959 112.349 69.8591 113.085C69.5224 113.82 68.4609 113.339 68.8754 112.576C69.2891 111.813 70.3592 111.156 70.1849 110.697C70.0458 110.33 69.8143 109.718 69.727 109.488C69.544 109.512 69.3541 109.51 69.1627 109.478C68.9713 109.446 68.791 109.387 68.6263 109.304C68.4692 109.493 68.0508 109.996 67.8 110.298C67.4863 110.676 68.2845 111.645 68.4278 112.501C68.5712 113.358 67.4111 113.467 67.3316 112.663C67.2522 111.858 66.8247 111.086 66.4513 112.049C66.0791 113.013 65.2203 113.79 64.7099 113.373C64.1995 112.956 64.8052 111.972 65.6876 111.425C66.5695 110.878 65.7237 110.61 64.9121 110.686C64.1001 110.762 63.9867 109.613 64.862 109.589C65.7374 109.564 66.8499 110.156 67.1633 109.778C67.4147 109.476 67.8332 108.972 67.9903 108.783C67.7605 108.491 67.6196 108.131 67.5973 107.748C67.3536 107.707 66.7027 107.599 66.3123 107.533C65.8248 107.452 65.3791 108.618 64.7025 109.168C64.026 109.717 63.3474 108.776 64.0105 108.307C64.6741 107.839 65.1334 107.088 64.1039 107.247C63.0748 107.406 61.9634 107.056 62.0713 106.411C62.1791 105.765 63.3439 105.796 64.2653 106.281C65.1873 106.766 64.9968 105.907 64.5215 105.249C64.0468 104.59 64.9944 103.921 65.4558 104.66C65.9171 105.399 65.9593 106.647 66.4468 106.728C66.8372 106.794 67.4881 106.902 67.7318 106.943C67.8774 106.588 68.1275 106.294 68.4398 106.092C68.3527 105.862 68.1207 105.25 67.9813 104.882C67.8077 104.423 66.5633 104.621 65.7434 104.313C64.9236 104.006 65.4044 102.956 66.1474 103.292C66.8903 103.628 67.7774 103.65 67.1211 102.846C66.4646 102.041 66.2116 100.914 66.83 100.685C67.4483 100.456 68.0075 101.471 68.0464 102.503C68.0864 103.535 68.7415 102.944 69.0783 102.209C69.4149 101.475 70.4765 101.955 70.0625 102.718C69.6485 103.481 68.5787 104.138 68.7525 104.597C68.8915 104.965 69.1236 105.577 69.2107 105.806C69.3934 105.782 69.5832 105.784 69.7747 105.816C69.9661 105.848 70.1464 105.907 70.3114 105.99C70.4687 105.801 70.8866 105.298 71.1374 104.996C71.4516 104.618 70.6531 103.649 70.5101 102.793C70.3662 101.936 71.5262 101.828 71.6058 102.631C71.6852 103.436 72.1132 104.208 72.486 103.245C72.8583 102.282 73.717 101.504 74.2274 101.921C74.7381 102.338 74.1321 103.322 73.2497 103.87C72.3677 104.417 73.2136 104.684 74.0253 104.608C74.8373 104.532 74.9507 105.681 74.0754 105.705C73.2004 105.73 72.0882 105.139 71.7741 105.516C71.5226 105.819 71.1042 106.322 70.9474 106.511C71.1772 106.803 71.3178 107.163 71.34 107.546C71.5838 107.587 72.2346 107.696 72.625 107.761C73.1125 107.842 73.5583 106.676 74.2348 106.126C74.9113 105.578 75.59 106.518 74.9269 106.987C74.2633 107.455 73.804 108.206 74.8336 108.047C75.8628 107.888 76.974 108.238 76.8662 108.883C76.7583 109.529 75.5938 109.498 74.6721 109.013C73.7501 108.528 73.9406 109.387 74.4158 110.046C74.8905 110.705 73.9429 111.374 73.4815 110.635C73.0203 109.895 72.978 108.647 72.4905 108.566C72.1001 108.501 71.4493 108.392 71.2055 108.351C71.0599 108.706 70.8101 109 70.4977 109.202C70.5847 109.432 70.8166 110.044 70.956 110.412C71.1304 110.871 72.3744 110.673 73.1939 110.981C74.0137 111.289 73.533 112.338 72.7899 112.002C72.047 111.666 71.1599 111.645 71.8162 112.449C72.4727 113.253 72.7259 114.381 72.1074 114.609C71.489 114.838 70.9298 113.823 70.8909 112.791ZM70.5168 107.822C70.6125 107.249 70.2211 106.706 69.6421 106.609C69.0633 106.513 68.5166 106.899 68.4209 107.472C68.3251 108.045 68.7165 108.588 69.2953 108.685C69.8743 108.781 70.421 108.395 70.5168 107.822Z" fill="#CAEFFF"/>
<path d="M55.8909 103.791C55.8516 102.759 55.1959 103.349 54.8591 104.085C54.5224 104.82 53.4609 104.339 53.8754 103.576C54.2891 102.813 55.3592 102.156 55.1849 101.697C55.0458 101.33 54.8143 100.718 54.727 100.488C54.544 100.512 54.3541 100.51 54.1627 100.478C53.9713 100.446 53.791 100.387 53.6263 100.304C53.4692 100.493 53.0508 100.996 52.8 101.298C52.4863 101.676 53.2845 102.645 53.4278 103.501C53.5712 104.358 52.4111 104.467 52.3316 103.663C52.2522 102.858 51.8247 102.086 51.4513 103.049C51.0791 104.013 50.2203 104.79 49.7099 104.373C49.1995 103.956 49.8052 102.972 50.6876 102.425C51.5695 101.878 50.7237 101.61 49.9121 101.686C49.1001 101.762 48.9867 100.613 49.862 100.589C50.7374 100.564 51.8499 101.156 52.1633 100.778C52.4147 100.476 52.8332 99.9721 52.9903 99.7831C52.7605 99.4907 52.6196 99.1313 52.5973 98.7482C52.3536 98.7074 51.7027 98.5987 51.3123 98.5335C50.8248 98.452 50.3791 99.6184 49.7025 100.168C49.026 100.717 48.3474 99.7759 49.0105 99.3071C49.6741 98.8386 50.1334 98.0884 49.1039 98.2473C48.0748 98.4062 46.9634 98.0565 47.0713 97.4107C47.1791 96.7655 48.3439 96.7959 49.2653 97.2808C50.1873 97.7659 49.9968 96.9071 49.5215 96.2485C49.0468 95.5896 49.9944 94.9207 50.4558 95.6595C50.9171 96.3989 50.9593 97.647 51.4468 97.7285C51.8372 97.7937 52.4881 97.9024 52.7318 97.9432C52.8774 97.5881 53.1275 97.2937 53.4398 97.0922C53.3527 96.8624 53.1207 96.2502 52.9813 95.8823C52.8077 95.4234 51.5633 95.6206 50.7434 95.3133C49.9236 95.0056 50.4044 93.9558 51.1474 94.2921C51.8903 94.6277 52.7774 94.6496 52.1211 93.8455C51.4646 93.0409 51.2116 91.9138 51.83 91.6851C52.4483 91.4564 53.0075 92.4712 53.0464 93.5031C53.0864 94.535 53.7415 93.9443 54.0783 93.2092C54.4149 92.4747 55.4765 92.9548 55.0625 93.718C54.6485 94.4815 53.5787 95.1384 53.7525 95.5973C53.8915 95.9647 54.1236 96.5766 54.2107 96.8061C54.3934 96.7815 54.5832 96.7839 54.7747 96.8159C54.9661 96.8479 55.1464 96.9073 55.3114 96.99C55.4687 96.8014 55.8866 96.298 56.1374 95.9958C56.4516 95.6185 55.6531 94.6493 55.5101 93.7928C55.3662 92.9364 56.5262 92.8275 56.6058 93.6315C56.6852 94.4362 57.1132 95.2083 57.486 94.2449C57.8583 93.2817 58.717 92.5037 59.2274 92.9211C59.7381 93.3384 59.1321 94.3221 58.2497 94.8696C57.3677 95.4166 58.2136 95.6843 59.0253 95.6084C59.8373 95.532 59.9507 96.6811 59.0754 96.7055C58.2004 96.7296 57.0882 96.1387 56.7741 96.516C56.5226 96.8187 56.1042 97.3222 55.9474 97.5112C56.1772 97.8033 56.3178 98.163 56.34 98.5461C56.5838 98.5868 57.2346 98.6955 57.625 98.7608C58.1125 98.8422 58.5583 97.6756 59.2348 97.1264C59.9113 96.5777 60.59 97.5184 59.9269 97.9872C59.2633 98.4554 58.804 99.2056 59.8336 99.0467C60.8628 98.8877 61.974 99.2375 61.8662 99.8828C61.7583 100.529 60.5938 100.498 59.6721 100.013C58.7501 99.5282 58.9406 100.387 59.4158 101.046C59.8905 101.705 58.9429 102.374 58.4815 101.635C58.0203 100.895 57.978 99.6473 57.4905 99.5658C57.1001 99.5006 56.4493 99.3918 56.2055 99.3511C56.0599 99.7062 55.8101 100 55.4977 100.202C55.5847 100.432 55.8166 101.044 55.956 101.412C56.1304 101.871 57.3744 101.673 58.1939 101.981C59.0137 102.289 58.533 103.338 57.7899 103.002C57.047 102.666 56.1599 102.645 56.8162 103.449C57.4727 104.253 57.7259 105.381 57.1074 105.609C56.489 105.838 55.9298 104.823 55.8909 103.791ZM55.5168 98.8219C55.6125 98.2492 55.2211 97.7061 54.6421 97.6094C54.0633 97.5127 53.5166 97.899 53.4209 98.4717C53.3251 99.0451 53.7165 99.5879 54.2953 99.6846C54.8743 99.7814 55.421 99.3953 55.5168 98.8219Z" fill="#CAEFFF"/>
<path d="M82.8909 87.7911C82.8516 86.7589 82.1959 87.3494 81.8591 88.0848C81.5224 88.8198 80.4609 88.3392 80.8754 87.5761C81.2891 86.8126 82.3592 86.1559 82.1849 85.6967C82.0458 85.3296 81.8143 84.7177 81.727 84.4877C81.544 84.5125 81.3541 84.5103 81.1627 84.4784C80.9713 84.4464 80.791 84.3867 80.6263 84.3038C80.4692 84.493 80.0508 84.9962 79.8 85.2982C79.4863 85.6759 80.2845 86.6447 80.4278 87.5013C80.5712 88.3576 79.4111 88.467 79.3316 87.6625C79.2522 86.8575 78.8247 86.086 78.4513 87.0493C78.0791 88.0125 77.2203 88.7905 76.7099 88.3732C76.1995 87.9559 76.8052 86.9722 77.6876 86.4247C78.5695 85.8784 77.7237 85.6097 76.9121 85.6859C76.1001 85.7621 75.9867 84.6132 76.862 84.5888C77.7374 84.5639 78.8499 85.1557 79.1633 84.7782C79.4147 84.4756 79.8332 83.9721 79.9903 83.7831C79.7605 83.4907 79.6196 83.1313 79.5973 82.7482C79.3536 82.7074 78.7027 82.5987 78.3123 82.5335C77.8248 82.452 77.3791 83.6184 76.7025 84.1678C76.026 84.7165 75.3474 83.7759 76.0105 83.3071C76.6741 82.8386 77.1334 82.0884 76.1039 82.2473C75.0748 82.4062 73.9634 82.0565 74.0713 81.4107C74.1791 80.7655 75.3439 80.7959 76.2653 81.2808C77.1873 81.7659 76.9968 80.9071 76.5215 80.2485C76.0468 79.5896 76.9944 78.9207 77.4558 79.6595C77.9171 80.3989 77.9593 81.647 78.4468 81.7285C78.8372 81.7937 79.4881 81.9024 79.7318 81.9432C79.8774 81.5881 80.1275 81.2937 80.4398 81.0922C80.3527 80.8624 80.1207 80.2502 79.9813 79.8823C79.8077 79.4234 78.5633 79.6206 77.7434 79.3133C76.9236 79.0056 77.4044 77.9558 78.1474 78.2921C78.8903 78.6277 79.7774 78.6496 79.1211 77.8455C78.4646 77.0409 78.2116 75.9138 78.83 75.6851C79.4483 75.4564 80.0075 76.4712 80.0464 77.5031C80.0864 78.535 80.7415 77.9443 81.0783 77.2092C81.4149 76.4747 82.4765 76.9548 82.0625 77.718C81.6485 78.4815 80.5787 79.1384 80.7525 79.5973C80.8915 79.9647 81.1236 80.5766 81.2107 80.8061C81.3934 80.7815 81.5832 80.7839 81.7747 80.8159C81.9661 80.8479 82.1464 80.9073 82.3114 80.99C82.4687 80.8014 82.8866 80.298 83.1374 79.9958C83.4516 79.6185 82.6531 78.6493 82.5101 77.7928C82.3662 76.9364 83.5262 76.8275 83.6058 77.6315C83.6852 78.4362 84.1132 79.2083 84.486 78.2449C84.8583 77.2817 85.717 76.5037 86.2274 76.9211C86.7381 77.3384 86.1321 78.3221 85.2497 78.8696C84.3677 79.4166 85.2136 79.6843 86.0253 79.6084C86.8373 79.532 86.9507 80.6811 86.0754 80.7055C85.2004 80.7296 84.0882 80.1387 83.7741 80.516C83.5226 80.8187 83.1042 81.3222 82.9474 81.5112C83.1772 81.8033 83.3178 82.163 83.34 82.5461C83.5838 82.5868 84.2346 82.6955 84.625 82.7608C85.1125 82.8422 85.5583 81.6756 86.2348 81.1264C86.9113 80.5777 87.59 81.5184 86.9269 81.9872C86.2633 82.4554 85.804 83.2056 86.8336 83.0467C87.8628 82.8877 88.974 83.2375 88.8662 83.8828C88.7583 84.5286 87.5938 84.4979 86.6721 84.0132C85.7501 83.5282 85.9406 84.387 86.4158 85.0457C86.8905 85.7047 85.9429 86.3736 85.4815 85.6347C85.0203 84.8952 84.978 83.6473 84.4905 83.5658C84.1001 83.5006 83.4493 83.3918 83.2055 83.3511C83.0599 83.7062 82.8101 84.0003 82.4977 84.2022C82.5847 84.4318 82.8166 85.044 82.956 85.412C83.1304 85.871 84.3744 85.6729 85.1939 85.981C86.0137 86.2887 85.533 87.3382 84.7899 87.0022C84.047 86.6663 83.1599 86.6447 83.8162 87.4488C84.4727 88.2534 84.7259 89.3806 84.1074 89.6093C83.489 89.8379 82.9298 88.8231 82.8909 87.7911ZM82.5168 82.8219C82.6125 82.2492 82.2211 81.7061 81.6421 81.6094C81.0633 81.5127 80.5166 81.899 80.4209 82.4717C80.3251 83.0451 80.7165 83.5879 81.2953 83.6846C81.8743 83.7814 82.421 83.3953 82.5168 82.8219Z" fill="#CAEFFF"/>
<path d="M54.8909 117.791C54.8516 116.759 54.1959 117.349 53.8591 118.085C53.5224 118.82 52.4609 118.339 52.8754 117.576C53.2891 116.813 54.3592 116.156 54.1849 115.697C54.0458 115.33 53.8143 114.718 53.727 114.488C53.544 114.512 53.3541 114.51 53.1627 114.478C52.9713 114.446 52.791 114.387 52.6263 114.304C52.4692 114.493 52.0508 114.996 51.8 115.298C51.4863 115.676 52.2845 116.645 52.4278 117.501C52.5712 118.358 51.4111 118.467 51.3316 117.663C51.2522 116.858 50.8247 116.086 50.4513 117.049C50.0791 118.013 49.2203 118.79 48.7099 118.373C48.1995 117.956 48.8052 116.972 49.6876 116.425C50.5695 115.878 49.7237 115.61 48.9121 115.686C48.1001 115.762 47.9867 114.613 48.862 114.589C49.7374 114.564 50.8499 115.156 51.1633 114.778C51.4147 114.476 51.8332 113.972 51.9903 113.783C51.7605 113.491 51.6196 113.131 51.5973 112.748C51.3536 112.707 50.7027 112.599 50.3123 112.533C49.8248 112.452 49.3791 113.618 48.7025 114.168C48.026 114.717 47.3474 113.776 48.0105 113.307C48.6741 112.839 49.1334 112.088 48.1039 112.247C47.0748 112.406 45.9634 112.056 46.0713 111.411C46.1791 110.765 47.3439 110.796 48.2653 111.281C49.1873 111.766 48.9968 110.907 48.5215 110.249C48.0468 109.59 48.9944 108.921 49.4558 109.66C49.9171 110.399 49.9593 111.647 50.4468 111.728C50.8372 111.794 51.4881 111.902 51.7318 111.943C51.8774 111.588 52.1275 111.294 52.4398 111.092C52.3527 110.862 52.1207 110.25 51.9813 109.882C51.8077 109.423 50.5633 109.621 49.7434 109.313C48.9236 109.006 49.4044 107.956 50.1474 108.292C50.8903 108.628 51.7774 108.65 51.1211 107.846C50.4646 107.041 50.2116 105.914 50.83 105.685C51.4483 105.456 52.0075 106.471 52.0464 107.503C52.0864 108.535 52.7415 107.944 53.0783 107.209C53.4149 106.475 54.4765 106.955 54.0625 107.718C53.6485 108.481 52.5787 109.138 52.7525 109.597C52.8915 109.965 53.1236 110.577 53.2107 110.806C53.3934 110.782 53.5832 110.784 53.7747 110.816C53.9661 110.848 54.1464 110.907 54.3114 110.99C54.4687 110.801 54.8866 110.298 55.1374 109.996C55.4516 109.618 54.6531 108.649 54.5101 107.793C54.3662 106.936 55.5262 106.828 55.6058 107.631C55.6852 108.436 56.1132 109.208 56.486 108.245C56.8583 107.282 57.717 106.504 58.2274 106.921C58.7381 107.338 58.1321 108.322 57.2497 108.87C56.3677 109.417 57.2136 109.684 58.0253 109.608C58.8373 109.532 58.9507 110.681 58.0754 110.705C57.2004 110.73 56.0882 110.139 55.7741 110.516C55.5226 110.819 55.1042 111.322 54.9474 111.511C55.1772 111.803 55.3178 112.163 55.34 112.546C55.5838 112.587 56.2346 112.696 56.625 112.761C57.1125 112.842 57.5583 111.676 58.2348 111.126C58.9113 110.578 59.59 111.518 58.9269 111.987C58.2633 112.455 57.804 113.206 58.8336 113.047C59.8628 112.888 60.974 113.238 60.8662 113.883C60.7583 114.529 59.5938 114.498 58.6721 114.013C57.7501 113.528 57.9406 114.387 58.4158 115.046C58.8905 115.705 57.9429 116.374 57.4815 115.635C57.0203 114.895 56.978 113.647 56.4905 113.566C56.1001 113.501 55.4493 113.392 55.2055 113.351C55.0599 113.706 54.8101 114 54.4977 114.202C54.5847 114.432 54.8166 115.044 54.956 115.412C55.1304 115.871 56.3744 115.673 57.1939 115.981C58.0137 116.289 57.533 117.338 56.7899 117.002C56.047 116.666 55.1599 116.645 55.8162 117.449C56.4727 118.253 56.7259 119.381 56.1074 119.609C55.489 119.838 54.9298 118.823 54.8909 117.791ZM54.5168 112.822C54.6125 112.249 54.2211 111.706 53.6421 111.609C53.0633 111.513 52.5166 111.899 52.4209 112.472C52.3251 113.045 52.7165 113.588 53.2953 113.685C53.8743 113.781 54.421 113.395 54.5168 112.822Z" fill="#CAEFFF"/>
<path d="M41.8909 113.791C41.8516 112.759 41.1959 113.349 40.8591 114.085C40.5224 114.82 39.4609 114.339 39.8754 113.576C40.2891 112.813 41.3592 112.156 41.1849 111.697C41.0458 111.33 40.8143 110.718 40.727 110.488C40.544 110.512 40.3541 110.51 40.1627 110.478C39.9713 110.446 39.791 110.387 39.6263 110.304C39.4692 110.493 39.0508 110.996 38.8 111.298C38.4863 111.676 39.2845 112.645 39.4278 113.501C39.5712 114.358 38.4111 114.467 38.3316 113.663C38.2522 112.858 37.8247 112.086 37.4513 113.049C37.0791 114.013 36.2203 114.79 35.7099 114.373C35.1995 113.956 35.8052 112.972 36.6876 112.425C37.5695 111.878 36.7237 111.61 35.9121 111.686C35.1001 111.762 34.9867 110.613 35.862 110.589C36.7374 110.564 37.8499 111.156 38.1633 110.778C38.4147 110.476 38.8332 109.972 38.9903 109.783C38.7605 109.491 38.6196 109.131 38.5973 108.748C38.3536 108.707 37.7027 108.599 37.3123 108.533C36.8248 108.452 36.3791 109.618 35.7025 110.168C35.026 110.717 34.3474 109.776 35.0105 109.307C35.6741 108.839 36.1334 108.088 35.1039 108.247C34.0748 108.406 32.9634 108.056 33.0713 107.411C33.1791 106.765 34.3439 106.796 35.2653 107.281C36.1873 107.766 35.9968 106.907 35.5215 106.249C35.0468 105.59 35.9944 104.921 36.4558 105.66C36.9171 106.399 36.9593 107.647 37.4468 107.728C37.8372 107.794 38.4881 107.902 38.7318 107.943C38.8774 107.588 39.1275 107.294 39.4398 107.092C39.3527 106.862 39.1207 106.25 38.9813 105.882C38.8077 105.423 37.5633 105.621 36.7434 105.313C35.9236 105.006 36.4044 103.956 37.1474 104.292C37.8903 104.628 38.7774 104.65 38.1211 103.846C37.4646 103.041 37.2116 101.914 37.83 101.685C38.4483 101.456 39.0075 102.471 39.0464 103.503C39.0864 104.535 39.7415 103.944 40.0783 103.209C40.4149 102.475 41.4765 102.955 41.0625 103.718C40.6485 104.481 39.5787 105.138 39.7525 105.597C39.8915 105.965 40.1236 106.577 40.2107 106.806C40.3934 106.782 40.5832 106.784 40.7747 106.816C40.9661 106.848 41.1464 106.907 41.3114 106.99C41.4687 106.801 41.8866 106.298 42.1374 105.996C42.4516 105.618 41.6531 104.649 41.5101 103.793C41.3662 102.936 42.5262 102.828 42.6058 103.631C42.6852 104.436 43.1132 105.208 43.486 104.245C43.8583 103.282 44.717 102.504 45.2274 102.921C45.7381 103.338 45.1321 104.322 44.2497 104.87C43.3677 105.417 44.2136 105.684 45.0253 105.608C45.8373 105.532 45.9507 106.681 45.0754 106.705C44.2004 106.73 43.0882 106.139 42.7741 106.516C42.5226 106.819 42.1042 107.322 41.9474 107.511C42.1772 107.803 42.3178 108.163 42.34 108.546C42.5838 108.587 43.2346 108.696 43.625 108.761C44.1125 108.842 44.5583 107.676 45.2348 107.126C45.9113 106.578 46.59 107.518 45.9269 107.987C45.2633 108.455 44.804 109.206 45.8336 109.047C46.8628 108.888 47.974 109.238 47.8662 109.883C47.7583 110.529 46.5938 110.498 45.6721 110.013C44.7501 109.528 44.9406 110.387 45.4158 111.046C45.8905 111.705 44.9429 112.374 44.4815 111.635C44.0203 110.895 43.978 109.647 43.4905 109.566C43.1001 109.501 42.4493 109.392 42.2055 109.351C42.0599 109.706 41.8101 110 41.4977 110.202C41.5847 110.432 41.8166 111.044 41.956 111.412C42.1304 111.871 43.3744 111.673 44.1939 111.981C45.0137 112.289 44.533 113.338 43.7899 113.002C43.047 112.666 42.1599 112.645 42.8162 113.449C43.4727 114.253 43.7259 115.381 43.1074 115.609C42.489 115.838 41.9298 114.823 41.8909 113.791ZM41.5168 108.822C41.6125 108.249 41.2211 107.706 40.6421 107.609C40.0633 107.513 39.5166 107.899 39.4209 108.472C39.3251 109.045 39.7165 109.588 40.2953 109.685C40.8743 109.781 41.421 109.395 41.5168 108.822Z" fill="#CAEFFF"/>
<path d="M17.9307 110.518C18.9286 110.785 18.5578 109.985 17.9544 109.446C17.3515 108.907 18.1238 108.035 18.7307 108.656C19.3382 109.277 19.65 110.493 20.1402 110.462C20.532 110.437 21.1849 110.396 21.4305 110.381C21.4608 110.199 21.5188 110.018 21.6059 109.844C21.6929 109.671 21.8031 109.516 21.9309 109.383C21.7965 109.177 21.439 108.629 21.2245 108.3C20.9561 107.889 19.7949 108.366 18.9342 108.25C18.0737 108.135 18.3114 106.994 19.1035 107.155C19.8961 107.317 20.7594 107.136 19.9491 106.495C19.1385 105.855 18.6485 104.805 19.1978 104.441C19.7471 104.076 20.5083 104.945 20.7712 105.95C21.033 106.953 21.5393 106.225 21.7059 105.427C21.8726 104.628 23.0038 104.859 22.769 105.702C22.5345 106.546 21.6409 107.435 21.9091 107.845C22.1241 108.175 22.4818 108.723 22.616 108.929C22.9632 108.796 23.3482 108.767 23.7208 108.859C23.8316 108.638 24.1275 108.048 24.305 107.694C24.5266 107.253 23.5436 106.483 23.2182 105.674C22.8935 104.866 23.9924 104.495 24.2448 105.267C24.4967 106.039 25.0781 106.699 25.2298 105.669C25.3816 104.638 26.0436 103.68 26.6288 103.973C27.2135 104.267 26.8409 105.371 26.1057 106.108C25.3703 106.846 26.2471 106.917 27.0165 106.657C27.7862 106.398 28.1458 107.501 27.3037 107.724C26.4612 107.946 25.2562 107.619 25.0345 108.06C24.8571 108.414 24.5612 109.004 24.4503 109.225C24.7466 109.469 24.9541 109.794 25.0546 110.152C25.2998 110.137 25.9532 110.096 26.3459 110.071C26.8356 110.041 27.0142 108.793 27.5497 108.101C28.0855 107.408 28.9468 108.177 28.4063 108.788C27.8665 109.399 27.5839 110.24 28.5458 109.85C29.5083 109.46 30.6599 109.551 30.696 110.209C30.7322 110.867 29.5975 111.102 28.6 110.835C27.6023 110.569 27.9734 111.369 28.5765 111.908C29.179 112.446 28.4072 113.319 27.8 112.698C27.1926 112.077 26.8805 110.861 26.3907 110.892C25.9987 110.917 25.3456 110.958 25.1006 110.973C25.0702 111.155 25.0119 111.336 24.9248 111.509C24.8378 111.683 24.7278 111.838 24.6002 111.971C24.734 112.177 25.0917 112.724 25.3065 113.053C25.5744 113.465 26.7359 112.988 27.5965 113.104C28.4573 113.219 28.2191 114.359 27.4275 114.198C26.6351 114.037 25.7711 114.218 26.5817 114.858C27.3922 115.498 27.8823 116.548 27.3329 116.913C26.7835 117.278 26.0224 116.408 25.7596 115.404C25.497 114.4 24.9917 115.129 24.8248 115.927C24.6583 116.725 23.5269 116.495 23.7618 115.651C23.9968 114.808 24.8895 113.92 24.6216 113.508C24.4066 113.179 24.0489 112.63 23.9146 112.425C23.5677 112.558 23.1826 112.586 22.8099 112.495C22.6991 112.716 22.4032 113.305 22.2257 113.659C22.0041 114.101 22.9873 114.871 23.3125 115.679C23.6373 116.488 22.5383 116.859 22.2859 116.087C22.0343 115.315 21.4529 114.654 21.3011 115.685C21.1494 116.715 20.4874 117.674 19.9026 117.381C19.3174 117.087 19.6902 115.983 20.4252 115.246C21.1606 114.508 20.2839 114.436 19.5142 114.696C18.7446 114.955 18.385 113.853 19.227 113.63C20.0697 113.407 21.2746 113.735 21.4962 113.293C21.6737 112.939 21.9696 112.35 22.0804 112.129C21.7841 111.885 21.5767 111.559 21.476 111.201C21.2309 111.217 20.5775 111.258 20.1848 111.282C19.6948 111.314 19.5171 112.561 18.981 113.253C18.4452 113.945 17.5841 113.177 18.1244 112.566C18.6645 111.955 18.9468 111.114 17.9849 111.504C17.0224 111.893 15.8707 111.803 15.8347 111.144C15.7986 110.486 16.9332 110.251 17.9307 110.518ZM22.7892 111.627C23.3082 111.887 23.9426 111.673 24.2058 111.149C24.4689 110.624 24.261 109.988 23.7421 109.727C23.2225 109.467 22.5883 109.681 22.3252 110.205C22.0619 110.73 22.2696 111.366 22.7892 111.627Z" fill="#CAEFFF"/>
</g>
</g>

</svg>
