<svg width="100" height="100" viewBox="0 0 110 119" fill="none" xmlns="http://www.w3.org/2000/svg">
<g clip-path="url(#clip0_33_96)">
<path fill-rule="evenodd" clip-rule="evenodd" d="M44.7065 44.5989C45.8679 44.6607 46.7264 44.789 47.6898 45.0447C48.8693 45.3577 49.8669 45.7536 50.8671 46.3057L51.1726 46.4743L60.347 46.4745L69.5214 46.4747L69.4544 46.528C68.8229 47.0304 68.0383 47.7763 67.4578 48.4261C66.6767 49.3007 65.9946 50.2671 65.4008 51.3404C65.1801 51.7392 64.7622 52.6019 64.7622 52.6586C64.7622 52.6676 64.8336 52.6902 64.9208 52.7087C65.4497 52.8211 66.2238 53.0416 66.8389 53.2553C68.1825 53.7219 69.6232 54.4798 70.8261 55.3529L71.1117 55.5601H82.7428H94.374L94.386 55.6136C94.392 55.6431 94.405 55.6978 94.414 55.7352C94.423 55.7727 94.465 55.9959 94.507 56.2314C94.737 57.498 94.803 58.7338 94.719 60.1517C94.615 61.8893 94.173 63.7191 93.453 65.3912C92.077 68.5836 89.611 71.2986 86.577 72.9625C84.4743 74.1154 82.0936 74.7859 79.8376 74.8606C79.5362 74.8705 78.5265 74.8789 77.5938 74.8792L75.898 74.8797L75.6726 75.3223C75.4 75.8576 75.2297 76.166 75.0144 76.5139C74.4788 77.3797 73.9177 78.1401 73.3225 78.8071C73.0243 79.1413 72.3106 79.854 71.9919 80.1358C70.3488 81.5892 68.4462 82.6774 66.4063 83.3309C65.1644 83.7287 63.7323 83.9908 62.5124 84.0436C61.9363 84.0685 27.7068 84.0671 27.5928 84.0421C27.5452 84.0317 27.3722 84.0056 27.2082 83.9841C27.0443 83.9626 26.7568 83.919 26.5694 83.8873C23.2817 83.3312 20.3272 81.4612 18.3693 78.6971C17.5502 77.5407 16.8839 76.168 16.5183 74.8833C16.1202 73.4848 15.9732 72.3207 16.004 70.8134C16.037 69.1952 16.427 67.4767 17.1077 65.9495C17.3899 65.3163 17.8433 64.4915 18.1655 64.0254C18.7157 63.2293 19.198 62.6489 19.8166 62.0387C21.2543 60.6204 22.8508 59.6382 24.7528 59.0018C26.3899 58.4541 28.188 58.258 29.9835 58.4313C30.1615 58.4484 30.3124 58.4572 30.3188 58.4507C30.3252 58.4442 30.3377 58.2617 30.3466 58.0452C30.4106 56.4808 30.7231 54.9616 31.272 53.5465C31.4832 53.002 31.5706 52.8006 31.7745 52.3889C32.4625 50.999 33.2159 49.9358 34.3454 48.7606C34.7829 48.3054 35.146 47.98 35.7407 47.51C37.0242 46.4957 38.5619 45.6941 40.207 45.1817C40.4347 45.1108 41.2515 44.906 41.5241 44.8515C41.9569 44.7651 42.7435 44.6617 43.2259 44.6279C43.5243 44.607 44.4998 44.5879 44.7065 44.5989Z" fill="#B9E3F8"/>
<path fill-rule="evenodd" clip-rule="evenodd" d="M44.9034 43.0058C45.4738 43.0405 46.1993 43.1229 46.6243 43.2011C46.7671 43.2274 46.9493 43.2609 47.0293 43.2757C47.2328 43.3133 48.077 43.5379 48.4218 43.6463C49.2169 43.8962 50.0653 44.2587 50.8231 44.6724L51.1527 44.8524L60.3323 44.8621L69.5119 44.8718L69.2641 45.0756C68.6828 45.5536 67.8559 46.3581 67.3438 46.9439C66.5551 47.8459 65.8542 48.873 65.25 50.0119C65.0956 50.303 64.7994 50.9253 64.7688 51.0229C64.7565 51.0623 64.7675 51.0676 64.9439 51.1075C65.5846 51.2523 66.3554 51.4731 66.9021 51.6684C68.2791 52.1602 69.6697 52.8981 70.8815 53.7801L71.1122 53.9479H82.7483H94.384L94.463 54.3614C94.674 55.4698 94.754 56.2869 94.754 57.345C94.754 59.1149 94.564 60.4375 94.073 62.0863C93.634 63.561 92.891 65.1134 91.999 66.4191C90.696 68.3268 89 69.9195 87.015 71.099C86.666 71.3063 85.865 71.7218 85.495 71.8872C83.9832 72.5644 82.4816 72.9771 80.8283 73.1701C80.3502 73.2259 79.8521 73.2474 79.033 73.2477C78.6407 73.2479 77.7726 73.2538 77.1038 73.261L75.8877 73.2739L75.7138 73.6257C75.363 74.3353 75.1387 74.7264 74.6982 75.3961C74.0418 76.3939 73.4821 77.0728 72.5715 77.9758C71.803 78.7379 70.9848 79.3941 70.0717 79.9806C67.8607 81.4007 65.4954 82.1868 62.7477 82.4147C62.3304 82.4494 27.6347 82.4519 27.5666 82.4174C27.5413 82.4045 27.3993 82.3798 27.2513 82.3625C24.8328 82.0805 22.5087 81.0806 20.6426 79.5194C20.1652 79.1201 19.4864 78.4509 19.1162 78.0147L16.5289 73.2204C16.2962 72.4065 16.0662 70.7577 16.0662 70.7577C16.0662 70.7577 16.0328 68.7417 16.0667 68.423C16.1078 68.0359 16.2013 67.384 16.2537 67.1195C16.3254 66.7574 16.5151 66.023 16.6272 65.6735C16.9578 64.6427 17.4082 63.6694 17.9858 62.7376C18.0636 62.6122 18.1272 62.5006 18.1272 62.4895C18.1272 62.4786 18.1346 62.4695 18.1436 62.4695C18.1526 62.4695 18.1999 62.4087 18.2488 62.3344C18.3381 62.1985 18.7905 61.5902 18.9369 61.4092C19.2969 60.9639 19.9053 60.3386 20.4211 59.8836C21.4451 58.9803 22.7414 58.1826 24.0167 57.6712C25.0867 57.2421 26.2289 56.9587 27.3763 56.8378C28.0988 56.7616 29.0124 56.7458 29.6356 56.7986C29.826 56.8148 30.0652 56.8335 30.1671 56.8402L30.3525 56.8525L30.3645 56.5821C30.4415 54.8425 30.7043 53.5085 31.2607 52.0315C31.8682 50.4192 32.748 48.9493 33.8458 47.7124C34.1298 47.3924 34.6484 46.8597 34.922 46.607C35.1579 46.389 35.747 45.9051 36.0742 45.6606C36.9238 45.0255 38.056 44.3967 39.1026 43.9786C39.8039 43.6984 40.2205 43.5648 40.9518 43.3854C41.6566 43.2126 42.1339 43.1327 42.9997 43.0424C43.273 43.014 44.6137 42.9881 44.9034 43.0058Z" fill="#EBF9FF"/>
<path fill-rule="evenodd" clip-rule="evenodd" d="M13.2254 51.3954C13.9627 51.4493 14.5078 51.5613 15.1194 51.7844C15.8683 52.0576 16.5017 52.4031 17.1367 52.885L17.3306 53.0321L23.1553 53.0323L28.98 53.0325L28.9375 53.079C28.5366 53.5174 28.0384 54.1684 27.6699 54.7355C27.174 55.4988 26.7409 56.3422 26.3639 57.2789C26.2238 57.627 25.9585 58.3799 25.9585 58.4293C25.9585 58.4372 26.0038 58.4569 26.0592 58.4731C26.395 58.5712 26.8864 58.7636 27.277 58.9501C28.13 59.3573 29.0447 60.0188 29.8084 60.7807L29.9897 60.9616H37.3741H44.7586L44.7662 61.0083C44.7703 61.034 44.7783 61.0817 44.7839 61.1144C44.7895 61.1471 44.8163 61.342 44.8434 61.5474C44.989 62.6529 45.0313 63.7314 44.9777 64.9688C44.9119 66.4853 44.6311 68.0822 44.1737 69.5415C43.3003 72.3277 41.735 74.6971 39.8084 76.1492C38.4735 77.1554 36.962 77.7406 35.5297 77.8058C35.3383 77.8145 34.6973 77.8218 34.1051 77.822L33.0285 77.8224L32.8854 78.2087C32.7123 78.676 32.6042 78.945 32.4675 79.2487C32.1274 80.0043 31.7712 80.6679 31.3933 81.2501C31.204 81.5417 30.7509 82.1637 30.5486 82.4097C29.5053 83.678 28.2975 84.6278 27.0023 85.1981C26.2138 85.5453 25.3046 85.7741 24.5301 85.8201C24.1644 85.8418 2.43251 85.8406 2.36011 85.8188C2.32991 85.8098 2.22001 85.787 2.11601 85.7682C2.01191 85.7494 1.82941 85.7114 1.71041 85.6837C-0.376993 85.1984 -2.25269 83.5664 -3.49579 81.1541C-4.01579 80.1448 -4.43879 78.9468 -4.67089 77.8256C-4.92369 76.6051 -5.01703 75.5891 -4.99749 74.2737C-4.97649 72.8614 -4.72889 71.3616 -4.29679 70.0288C-4.11759 69.4761 -3.82969 68.7563 -3.62519 68.3496C-3.27579 67.6547 -2.96959 67.1483 -2.57689 66.6157C-1.66409 65.3779 -0.650492 64.5207 0.557008 63.9653C1.59641 63.4873 2.73801 63.3161 3.87791 63.4673C3.99091 63.4823 4.08671 63.49 4.09081 63.4843C4.09491 63.4786 4.10281 63.3194 4.10841 63.1304C4.14911 61.7651 4.34751 60.4393 4.69601 59.2042C4.83011 58.729 4.88561 58.5533 5.01501 58.1939C5.45191 56.9809 5.93011 56.0531 6.64721 55.0274C6.92501 54.6301 7.15551 54.3461 7.53311 53.936C8.34801 53.0508 9.32431 52.3512 10.3687 51.904C10.5133 51.8421 11.0318 51.6634 11.2049 51.6159C11.4797 51.5404 11.9791 51.4501 12.2854 51.4207C12.4748 51.4025 13.0941 51.3858 13.2254 51.3954Z" fill="#B9E3F8"/>
<path fill-rule="evenodd" clip-rule="evenodd" d="M13.3504 50.005C13.7125 50.0354 14.1732 50.1072 14.443 50.1755C14.5336 50.1984 14.6493 50.2277 14.7001 50.2406C14.8293 50.2734 15.3653 50.4695 15.5842 50.564C16.089 50.7821 16.6276 51.0985 17.1087 51.4596L17.318 51.6166L23.146 51.6251L28.974 51.6336L28.8167 51.8114C28.4476 52.2286 27.9227 52.9307 27.5975 53.442C27.0968 54.2292 26.6518 55.1256 26.2682 56.1195C26.1701 56.3736 25.9821 56.9167 25.9627 57.0019C25.9549 57.0362 25.9619 57.0409 26.0739 57.0757C26.4806 57.2021 26.97 57.3948 27.3171 57.5652C28.1913 57.9944 29.0742 58.6384 29.8435 59.4081L29.99 59.5546H37.3777H44.7653L44.8153 59.9155C44.9494 60.8828 45 61.596 45 62.5193C45.0001 64.064 44.8795 65.2183 44.5676 66.6573C44.2887 67.9443 43.8169 69.2992 43.2507 70.4386C42.4235 72.1035 41.3466 73.4935 40.0862 74.5229C39.8647 74.7039 39.3563 75.0665 39.1218 75.2108C38.1617 75.8018 37.2083 76.1621 36.1586 76.3305C35.8551 76.3792 35.5389 76.398 35.0188 76.3982C34.7698 76.3984 34.2186 76.4036 33.794 76.4098L33.0219 76.4211L32.9115 76.7281C32.6888 77.3474 32.5464 77.6887 32.2667 78.2731C31.85 79.144 31.4946 79.7365 30.9165 80.5245C30.4286 81.1897 29.9091 81.7624 29.3294 82.2742C27.9257 83.5136 26.424 84.1997 24.6795 84.3986C24.4146 84.4288 2.38671 84.4311 2.34351 84.4009C2.32741 84.3896 2.23731 84.3681 2.14331 84.353C0.60781 84.1069 -0.867689 83.2343 -2.05249 81.8717C-2.35549 81.5232 -2.78649 80.9392 -3.02149 80.5585L-4.66419 76.3744C-4.81189 75.664 -4.95799 74.2251 -4.95799 74.2251C-4.95799 74.2251 -4.97919 72.4657 -4.95769 72.1875C-4.93159 71.8497 -4.87219 71.2807 -4.83889 71.0499C-4.79339 70.7339 -4.67299 70.093 -4.60179 69.7879C-4.39189 68.8883 -4.10599 68.0389 -3.73919 67.2257C-3.68989 67.1162 -3.64949 67.0188 -3.64949 67.0092C-3.64949 66.9996 -3.64479 66.9917 -3.63909 66.9917C-3.63329 66.9917 -3.60329 66.9387 -3.57229 66.8738C-3.51559 66.7552 -3.22839 66.2243 -3.13539 66.0663C-2.90679 65.6777 -2.52059 65.132 -2.19309 64.7349C-1.54299 63.9465 -0.71999 63.2504 0.0897102 62.8041C0.76901 62.4296 1.49421 62.1823 2.22261 62.0767C2.68141 62.0102 3.26141 61.9964 3.65711 62.0425C3.77801 62.0566 3.92981 62.0729 3.99451 62.0788L4.11221 62.0895L4.11981 61.8536C4.16871 60.3353 4.33551 59.1712 4.68881 57.8821C5.07451 56.475 5.63311 55.1921 6.33011 54.1127C6.51041 53.8334 6.83961 53.3685 7.01331 53.1479C7.16311 52.9577 7.53711 52.5354 7.74481 52.322C8.28421 51.7677 9.00311 51.2189 9.66751 50.854C10.1128 50.6095 10.3773 50.4929 10.8416 50.3364C11.289 50.1855 11.592 50.1158 12.1418 50.037C12.3153 50.0122 13.1665 49.9896 13.3504 50.005Z" fill="#EBF9FF"/>
    <g class="cloud2">
        <path fill-rule="evenodd" clip-rule="evenodd" d="M59.7065 55.5989C60.8679 55.6607 61.7264 55.789 62.6898 56.0447C63.8693 56.3577 64.8669 56.7536 65.8671 57.3057L66.1726 57.4743L75.347 57.4745L84.5214 57.4747L84.4544 57.528C83.8229 58.0304 83.0383 58.7763 82.4578 59.4261C81.6767 60.3007 80.9946 61.2671 80.4008 62.3404C80.1801 62.7392 79.7622 63.6019 79.7622 63.6586C79.7622 63.6676 79.8336 63.6902 79.9208 63.7087C80.4497 63.8211 81.2238 64.0416 81.8389 64.2553C83.1825 64.7219 84.6232 65.4798 85.8261 66.3529L86.1117 66.5601H97.7428H109.374L109.386 66.6136C109.392 66.6431 109.405 66.6978 109.414 66.7352C109.423 66.7727 109.465 66.9959 109.507 67.2314C109.737 68.498 109.803 69.7338 109.719 71.1517C109.615 72.8893 109.173 74.7191 108.453 76.3912C107.077 79.5836 104.611 82.2986 101.577 83.9625C99.4743 85.1154 97.0936 85.7859 94.8376 85.8606C94.5362 85.8705 93.5265 85.8789 92.5938 85.8792L90.898 85.8797L90.6726 86.3223C90.4 86.8576 90.2297 87.166 90.0144 87.5139C89.4788 88.3797 88.9177 89.1401 88.3225 89.8071C88.0243 90.1413 87.3106 90.854 86.9919 91.1358C85.3488 92.5892 83.4462 93.6774 81.4063 94.3309C80.1644 94.7287 78.7323 94.9908 77.5124 95.0436C76.9363 95.0685 42.7068 95.0671 42.5928 95.0421C42.5452 95.0317 42.3722 95.0056 42.2082 94.9841C42.0443 94.9626 41.7568 94.919 41.5694 94.8873C38.2817 94.3312 35.3272 92.4612 33.3693 89.6971C32.5502 88.5407 31.8839 87.168 31.5183 85.8833C31.1202 84.4848 30.9732 83.3207 31.004 81.8134C31.037 80.1952 31.427 78.4767 32.1077 76.9495C32.3899 76.3163 32.8433 75.4915 33.1655 75.0254C33.7157 74.2293 34.198 73.6489 34.8166 73.0387C36.2543 71.6204 37.8508 70.6382 39.7528 70.0018C41.3899 69.4541 43.188 69.258 44.9835 69.4313C45.1615 69.4484 45.3124 69.4572 45.3188 69.4507C45.3252 69.4442 45.3377 69.2617 45.3466 69.0452C45.4106 67.4808 45.7231 65.9616 46.272 64.5465C46.4832 64.002 46.5706 63.8006 46.7745 63.3889C47.4625 61.999 48.2159 60.9358 49.3454 59.7606C49.7829 59.3054 50.146 58.98 50.7407 58.51C52.0242 57.4957 53.5619 56.6941 55.207 56.1817C55.4347 56.1108 56.2515 55.906 56.5241 55.8515C56.9569 55.7651 57.7435 55.6617 58.2259 55.6279C58.5243 55.607 59.4998 55.5879 59.7065 55.5989Z" fill="#B9E3F8"/>
        <path fill-rule="evenodd" clip-rule="evenodd" d="M59.9034 54.0058C60.4738 54.0405 61.1993 54.1229 61.6243 54.2011C61.7671 54.2274 61.9493 54.2609 62.0293 54.2757C62.2328 54.3133 63.077 54.5379 63.4218 54.6463C64.2169 54.8962 65.0653 55.2587 65.8231 55.6724L66.1527 55.8524L75.3323 55.8621L84.5119 55.8718L84.2641 56.0756C83.6828 56.5536 82.8559 57.3581 82.3438 57.9439C81.5551 58.8459 80.8542 59.873 80.25 61.0119C80.0956 61.303 79.7994 61.9253 79.7688 62.0229C79.7565 62.0623 79.7675 62.0676 79.9439 62.1075C80.5846 62.2523 81.3554 62.4731 81.9021 62.6684C83.2791 63.1602 84.6697 63.8981 85.8815 64.7801L86.1122 64.9479H97.7483H109.384L109.463 65.3614C109.674 66.4698 109.754 67.2869 109.754 68.345C109.754 70.1149 109.564 71.4375 109.073 73.0863C108.634 74.561 107.891 76.1134 106.999 77.4191C105.696 79.3268 104 80.9195 102.015 82.099C101.666 82.3063 100.865 82.7218 100.495 82.8872C98.9832 83.5644 97.4816 83.9771 95.8283 84.1701C95.3502 84.2259 94.8521 84.2474 94.033 84.2477C93.6407 84.2479 92.7726 84.2538 92.1038 84.261L90.8877 84.2739L90.7138 84.6257C90.363 85.3353 90.1387 85.7264 89.6982 86.3961C89.0418 87.3939 88.4821 88.0728 87.5715 88.9758C86.803 89.7379 85.9848 90.3941 85.0717 90.9806C82.8607 92.4007 80.4954 93.1868 77.7477 93.4147C77.3304 93.4494 42.6347 93.4519 42.5666 93.4174C42.5413 93.4045 42.3993 93.3798 42.2513 93.3625C39.8328 93.0805 37.5087 92.0806 35.6426 90.5194C35.1652 90.1201 34.4864 89.4509 34.1162 89.0147L31.5289 84.2204C31.2962 83.4065 31.0662 81.7577 31.0662 81.7577C31.0662 81.7577 31.0328 79.7417 31.0667 79.423C31.1078 79.0359 31.2013 78.384 31.2537 78.1195C31.3254 77.7574 31.5151 77.023 31.6272 76.6735C31.9578 75.6427 32.4082 74.6694 32.9858 73.7376C33.0636 73.6122 33.1272 73.5006 33.1272 73.4895C33.1272 73.4786 33.1346 73.4695 33.1436 73.4695C33.1526 73.4695 33.1999 73.4087 33.2488 73.3344C33.3381 73.1985 33.7905 72.5902 33.9369 72.4092C34.2969 71.9639 34.9053 71.3386 35.4211 70.8836C36.4451 69.9803 37.7414 69.1826 39.0167 68.6712C40.0867 68.2421 41.2289 67.9587 42.3763 67.8378C43.0988 67.7616 44.0124 67.7458 44.6356 67.7986C44.826 67.8148 45.0652 67.8335 45.1671 67.8402L45.3525 67.8525L45.3645 67.5821C45.4415 65.8425 45.7043 64.5085 46.2607 63.0315C46.8682 61.4192 47.748 59.9493 48.8458 58.7124C49.1298 58.3924 49.6484 57.8597 49.922 57.607C50.1579 57.389 50.747 56.9051 51.0742 56.6606C51.9238 56.0255 53.056 55.3967 54.1026 54.9786C54.8039 54.6984 55.2205 54.5648 55.9518 54.3854C56.6566 54.2126 57.1339 54.1327 57.9997 54.0424C58.273 54.014 59.6137 53.9881 59.9034 54.0058Z" fill="#EBF9FF"/>
    </g>
<g class="cloud3">
    <path fill-rule="evenodd" clip-rule="evenodd" d="M28.2254 62.3954C28.9627 62.4493 29.5078 62.5613 30.1194 62.7844C30.8683 63.0576 31.5017 63.4031 32.1367 63.885L32.3306 64.0321L38.1553 64.0323L43.98 64.0325L43.9375 64.079C43.5366 64.5174 43.0384 65.1684 42.6699 65.7355C42.174 66.4988 41.7409 67.3422 41.3639 68.2789C41.2238 68.627 40.9585 69.3799 40.9585 69.4293C40.9585 69.4372 41.0038 69.4569 41.0592 69.4731C41.395 69.5712 41.8864 69.7636 42.277 69.9501C43.13 70.3573 44.0447 71.0188 44.8084 71.7807L44.9897 71.9616H52.3741H59.7586L59.7662 72.0083C59.7703 72.034 59.7783 72.0817 59.7839 72.1144C59.7895 72.1471 59.8163 72.342 59.8434 72.5474C59.989 73.6529 60.0313 74.7314 59.9777 75.9688C59.9119 77.4853 59.6311 79.0822 59.1737 80.5415C58.3003 83.3277 56.735 85.6971 54.8084 87.1492C53.4735 88.1554 51.962 88.7406 50.5297 88.8058C50.3383 88.8145 49.6973 88.8218 49.1051 88.822L48.0285 88.8224L47.8854 89.2087C47.7123 89.676 47.6042 89.945 47.4675 90.2487C47.1274 91.0043 46.7712 91.6679 46.3933 92.2501C46.204 92.5417 45.7509 93.1637 45.5486 93.4097C44.5053 94.678 43.2975 95.6278 42.0023 96.1981C41.2138 96.5453 40.3046 96.7741 39.5301 96.8201C39.1644 96.8418 17.4325 96.8406 17.3601 96.8188C17.3299 96.8098 17.22 96.787 17.116 96.7682C17.0119 96.7494 16.8294 96.7114 16.7104 96.6837C14.623 96.1984 12.7473 94.5664 11.5042 92.1541C10.9842 91.1448 10.5612 89.9468 10.3291 88.8256C10.0763 87.6051 9.98296 86.5891 10.0025 85.2737C10.0235 83.8614 10.2711 82.3616 10.7032 81.0288C10.8824 80.4761 11.1703 79.7563 11.3748 79.3496C11.7242 78.6547 12.0304 78.1483 12.4231 77.6157C13.3359 76.3779 14.3495 75.5207 15.557 74.9653C16.5964 74.4873 17.738 74.3161 18.8779 74.4673C18.9909 74.4823 19.0867 74.49 19.0908 74.4843C19.0949 74.4786 19.1028 74.3194 19.1084 74.1304C19.1491 72.7651 19.3475 71.4393 19.696 70.2042C19.8301 69.729 19.8856 69.5533 20.015 69.1939C20.4519 67.9809 20.9301 67.0531 21.6472 66.0274C21.925 65.6301 22.1555 65.3461 22.5331 64.936C23.348 64.0508 24.3243 63.3512 25.3687 62.904C25.5133 62.8421 26.0318 62.6634 26.2049 62.6159C26.4797 62.5404 26.9791 62.4501 27.2854 62.4207C27.4748 62.4025 28.0941 62.3858 28.2254 62.3954Z" fill="#B9E3F8"/>
    <path fill-rule="evenodd" clip-rule="evenodd" d="M28.3504 61.005C28.7125 61.0354 29.1732 61.1072 29.443 61.1755C29.5336 61.1984 29.6493 61.2277 29.7001 61.2406C29.8293 61.2734 30.3653 61.4695 30.5842 61.564C31.089 61.7821 31.6276 62.0985 32.1087 62.4596L32.318 62.6166L38.146 62.6251L43.974 62.6336L43.8167 62.8114C43.4476 63.2286 42.9227 63.9307 42.5975 64.442C42.0968 65.2292 41.6518 66.1256 41.2682 67.1195C41.1701 67.3736 40.9821 67.9167 40.9627 68.0019C40.9549 68.0362 40.9619 68.0409 41.0739 68.0757C41.4806 68.2021 41.97 68.3948 42.3171 68.5652C43.1913 68.9944 44.0742 69.6384 44.8435 70.4081L44.99 70.5546H52.3777H59.7653L59.8153 70.9155C59.9494 71.8828 60 72.596 60 73.5193C60.0001 75.064 59.8795 76.2183 59.5676 77.6573C59.2887 78.9443 58.8169 80.2992 58.2507 81.4386C57.4235 83.1035 56.3466 84.4935 55.0862 85.5229C54.8647 85.7039 54.3563 86.0665 54.1218 86.2108C53.1617 86.8018 52.2083 87.1621 51.1586 87.3305C50.8551 87.3792 50.5389 87.398 50.0188 87.3982C49.7698 87.3984 49.2186 87.4036 48.794 87.4098L48.0219 87.4211L47.9115 87.7281C47.6888 88.3474 47.5464 88.6887 47.2667 89.2731C46.85 90.144 46.4946 90.7365 45.9165 91.5245C45.4286 92.1897 44.9091 92.7624 44.3294 93.2742C42.9257 94.5136 41.424 95.1997 39.6795 95.3986C39.4146 95.4288 17.3867 95.4311 17.3435 95.4009C17.3274 95.3896 17.2373 95.3681 17.1433 95.353C15.6078 95.1069 14.1323 94.2343 12.9475 92.8717C12.6445 92.5232 12.2135 91.9392 11.9785 91.5585L10.3358 87.3744C10.1881 86.664 10.042 85.2251 10.042 85.2251C10.042 85.2251 10.0208 83.4657 10.0423 83.1875C10.0684 82.8497 10.1278 82.2807 10.1611 82.0499C10.2066 81.7339 10.327 81.093 10.3982 80.7879C10.6081 79.8883 10.894 79.0389 11.2608 78.2257C11.3101 78.1162 11.3505 78.0188 11.3505 78.0092C11.3505 77.9996 11.3552 77.9917 11.3609 77.9917C11.3667 77.9917 11.3967 77.9387 11.4277 77.8738C11.4844 77.7552 11.7716 77.2243 11.8646 77.0663C12.0932 76.6777 12.4794 76.132 12.8069 75.7349C13.457 74.9465 14.28 74.2504 15.0897 73.8041C15.769 73.4296 16.4942 73.1823 17.2226 73.0767C17.6814 73.0102 18.2614 72.9964 18.6571 73.0425C18.778 73.0566 18.9298 73.0729 18.9945 73.0788L19.1122 73.0895L19.1198 72.8536C19.1687 71.3353 19.3355 70.1712 19.6888 68.8821C20.0745 67.475 20.6331 66.1921 21.3301 65.1127C21.5104 64.8334 21.8396 64.3685 22.0133 64.1479C22.1631 63.9577 22.5371 63.5354 22.7448 63.322C23.2842 62.7677 24.0031 62.2189 24.6675 61.854C25.1128 61.6095 25.3773 61.4929 25.8416 61.3364C26.289 61.1855 26.592 61.1158 27.1418 61.037C27.3153 61.0122 28.1665 60.9896 28.3504 61.005Z" fill="#EBF9FF"/>
</g>
<g class="cloud3">
    <path fill-rule="evenodd" clip-rule="evenodd" d="M55.7065 41.5989C56.8679 41.6607 57.7264 41.789 58.6898 42.0447C59.8693 42.3577 60.8669 42.7536 61.8671 43.3057L62.1726 43.4743L71.347 43.4745L80.5214 43.4747L80.4544 43.528C79.8229 44.0304 79.0383 44.7763 78.4578 45.4261C77.6767 46.3007 76.9946 47.2671 76.4008 48.3404C76.1801 48.7392 75.7622 49.6019 75.7622 49.6586C75.7622 49.6676 75.8336 49.6902 75.9208 49.7087C76.4497 49.8211 77.2238 50.0416 77.8389 50.2553C79.1825 50.7219 80.6232 51.4798 81.8261 52.3529L82.1117 52.5601H93.7428H105.374L105.386 52.6136C105.392 52.6431 105.405 52.6978 105.414 52.7352C105.423 52.7727 105.465 52.9959 105.507 53.2314C105.737 54.498 105.803 55.7338 105.719 57.1517C105.615 58.8893 105.173 60.7191 104.453 62.3912C103.077 65.5836 100.611 68.2986 97.5769 69.9625C95.4743 71.1154 93.0936 71.7859 90.8376 71.8606C90.5362 71.8705 89.5265 71.8789 88.5938 71.8792L86.898 71.8797L86.6726 72.3223C86.4 72.8576 86.2297 73.166 86.0144 73.5139C85.4788 74.3797 84.9177 75.1401 84.3225 75.8071C84.0243 76.1413 83.3106 76.854 82.9919 77.1358C81.3488 78.5892 79.4462 79.6774 77.4063 80.3309C76.1644 80.7287 74.7323 80.9908 73.5124 81.0436C72.9363 81.0685 38.7068 81.0671 38.5928 81.0421C38.5452 81.0317 38.3722 81.0056 38.2082 80.9841C38.0443 80.9626 37.7568 80.919 37.5694 80.8873C34.2817 80.3312 31.3272 78.4612 29.3693 75.6971C28.5502 74.5407 27.8839 73.168 27.5183 71.8833C27.1202 70.4848 26.9732 69.3207 27.004 67.8134C27.037 66.1952 27.427 64.4767 28.1077 62.9495C28.3899 62.3163 28.8433 61.4915 29.1655 61.0254C29.7157 60.2293 30.198 59.6489 30.8166 59.0387C32.2543 57.6204 33.8508 56.6382 35.7528 56.0018C37.3899 55.4541 39.188 55.258 40.9835 55.4313C41.1615 55.4484 41.3124 55.4572 41.3188 55.4507C41.3252 55.4442 41.3377 55.2617 41.3466 55.0452C41.4106 53.4808 41.7231 51.9616 42.272 50.5465C42.4832 50.002 42.5706 49.8006 42.7745 49.3889C43.4625 47.999 44.2159 46.9358 45.3454 45.7606C45.7829 45.3054 46.146 44.98 46.7407 44.51C48.0242 43.4957 49.5619 42.6941 51.207 42.1817C51.4347 42.1108 52.2515 41.906 52.5241 41.8515C52.9569 41.7651 53.7435 41.6617 54.2259 41.6279C54.5243 41.607 55.4998 41.5879 55.7065 41.5989Z" fill="#B9E3F8"/>
    <path fill-rule="evenodd" clip-rule="evenodd" d="M55.9034 40.0058C56.4738 40.0405 57.1993 40.1229 57.6243 40.2011C57.7671 40.2274 57.9493 40.2609 58.0293 40.2757C58.2328 40.3133 59.077 40.5379 59.4218 40.6463C60.2169 40.8962 61.0653 41.2587 61.8231 41.6724L62.1527 41.8524L71.3323 41.8621L80.5119 41.8718L80.2641 42.0756C79.6828 42.5536 78.8559 43.3581 78.3438 43.9439C77.5551 44.8459 76.8542 45.873 76.25 47.0119C76.0956 47.303 75.7994 47.9253 75.7688 48.0229C75.7565 48.0623 75.7675 48.0676 75.9439 48.1075C76.5846 48.2523 77.3554 48.4731 77.9021 48.6684C79.2791 49.1602 80.6697 49.8981 81.8815 50.7801L82.1122 50.9479H93.7483H105.384L105.463 51.3614C105.674 52.4698 105.754 53.2869 105.754 54.345C105.754 56.1149 105.564 57.4375 105.073 59.0863C104.634 60.561 103.891 62.1134 102.999 63.4191C101.696 65.3268 99.9997 66.9195 98.0146 68.099C97.6656 68.3063 96.8649 68.7218 96.4955 68.8872C94.9832 69.5644 93.4816 69.9771 91.8283 70.1701C91.3502 70.2259 90.8521 70.2474 90.033 70.2477C89.6407 70.2479 88.7726 70.2538 88.1038 70.261L86.8877 70.2739L86.7138 70.6257C86.363 71.3353 86.1387 71.7264 85.6982 72.3961C85.0418 73.3939 84.4821 74.0728 83.5715 74.9758C82.803 75.7379 81.9848 76.3941 81.0717 76.9806C78.8607 78.4007 76.4954 79.1868 73.7477 79.4147C73.3304 79.4494 38.6347 79.4519 38.5666 79.4174C38.5413 79.4045 38.3993 79.3798 38.2513 79.3625C35.8328 79.0805 33.5087 78.0806 31.6426 76.5194C31.1652 76.1201 30.4864 75.4509 30.1162 75.0147L27.5289 70.2204C27.2962 69.4065 27.0662 67.7577 27.0662 67.7577C27.0662 67.7577 27.0328 65.7417 27.0667 65.423C27.1078 65.0359 27.2013 64.384 27.2537 64.1195C27.3254 63.7574 27.5151 63.023 27.6272 62.6735C27.9578 61.6427 28.4082 60.6694 28.9858 59.7376C29.0636 59.6122 29.1272 59.5006 29.1272 59.4895C29.1272 59.4786 29.1346 59.4695 29.1436 59.4695C29.1526 59.4695 29.1999 59.4087 29.2488 59.3344C29.3381 59.1985 29.7905 58.5902 29.9369 58.4092C30.2969 57.9639 30.9053 57.3386 31.4211 56.8836C32.4451 55.9803 33.7414 55.1826 35.0167 54.6712C36.0867 54.2421 37.2289 53.9587 38.3763 53.8378C39.0988 53.7616 40.0124 53.7458 40.6356 53.7986C40.826 53.8148 41.0652 53.8335 41.1671 53.8402L41.3525 53.8525L41.3645 53.5821C41.4415 51.8425 41.7043 50.5085 42.2607 49.0315C42.8682 47.4192 43.748 45.9493 44.8458 44.7124C45.1298 44.3924 45.6484 43.8597 45.922 43.607C46.1579 43.389 46.747 42.9051 47.0742 42.6606C47.9238 42.0255 49.056 41.3967 50.1026 40.9786C50.8039 40.6984 51.2205 40.5648 51.9518 40.3854C52.6566 40.2126 53.1339 40.1327 53.9997 40.0424C54.273 40.014 55.6137 39.9881 55.9034 40.0058Z" fill="#EBF9FF"/>
</g>
<g class="cloud1">
    <path fill-rule="evenodd" clip-rule="evenodd" d="M44.7065 27.5989C45.8679 27.6607 46.7264 27.789 47.6898 28.0447C48.8693 28.3577 49.8669 28.7536 50.8671 29.3057L51.1726 29.4743L60.347 29.4745L69.5214 29.4747L69.4544 29.528C68.8229 30.0304 68.0383 30.7763 67.4578 31.4261C66.6767 32.3007 65.9946 33.2671 65.4008 34.3404C65.1801 34.7392 64.7622 35.6019 64.7622 35.6586C64.7622 35.6676 64.8336 35.6902 64.9208 35.7087C65.4497 35.8211 66.2238 36.0416 66.8389 36.2553C68.1825 36.7219 69.6232 37.4798 70.8261 38.3529L71.1117 38.5601H82.7428H94.3739L94.3858 38.6136C94.3924 38.6431 94.405 38.6978 94.4138 38.7352C94.4227 38.7727 94.4648 38.9959 94.5074 39.2314C94.7368 40.498 94.8035 41.7338 94.719 43.1517C94.6154 44.8893 94.1732 46.7191 93.4527 48.3912C92.077 51.5836 89.6115 54.2986 86.5769 55.9625C84.4743 57.1154 82.0936 57.7859 79.8376 57.8606C79.5362 57.8705 78.5265 57.8789 77.5938 57.8792L75.898 57.8797L75.6726 58.3223C75.4 58.8576 75.2297 59.166 75.0144 59.5139C74.4788 60.3797 73.9177 61.1401 73.3225 61.8071C73.0243 62.1413 72.3106 62.854 71.9919 63.1358C70.3488 64.5892 68.4462 65.6774 66.4063 66.3309C65.1644 66.7287 63.7323 66.9908 62.5124 67.0436C61.9363 67.0685 27.7068 67.0671 27.5928 67.0421C27.5452 67.0317 27.3722 67.0056 27.2082 66.9841C27.0443 66.9626 26.7568 66.919 26.5694 66.8873C23.2817 66.3312 20.3272 64.4612 18.3693 61.6971C17.5502 60.5407 16.8839 59.168 16.5183 57.8833C16.1202 56.4848 15.9732 55.3207 16.004 53.8134C16.037 52.1952 16.427 50.4767 17.1077 48.9495C17.3899 48.3163 17.8433 47.4915 18.1655 47.0254C18.7157 46.2293 19.198 45.6489 19.8166 45.0387C21.2543 43.6204 22.8508 42.6382 24.7528 42.0018C26.3899 41.4541 28.188 41.258 29.9835 41.4313C30.1615 41.4484 30.3124 41.4572 30.3188 41.4507C30.3252 41.4442 30.3377 41.2617 30.3466 41.0452C30.4106 39.4808 30.7231 37.9616 31.272 36.5465C31.4832 36.002 31.5706 35.8006 31.7745 35.3889C32.4625 33.999 33.2159 32.9358 34.3454 31.7606C34.7829 31.3054 35.146 30.98 35.7407 30.51C37.0242 29.4957 38.5619 28.6941 40.207 28.1817C40.4347 28.1108 41.2515 27.906 41.5241 27.8515C41.9569 27.7651 42.7435 27.6617 43.2259 27.6279C43.5243 27.607 44.4998 27.5879 44.7065 27.5989Z" fill="#B9E3F8"/>
    <path fill-rule="evenodd" clip-rule="evenodd" d="M44.9034 26.0058C45.4738 26.0405 46.1993 26.1229 46.6243 26.2011C46.7671 26.2274 46.9493 26.2609 47.0293 26.2757C47.2328 26.3133 48.077 26.5379 48.4218 26.6463C49.2169 26.8962 50.0653 27.2587 50.8231 27.6724L51.1527 27.8524L60.3323 27.8621L69.5119 27.8718L69.2641 28.0756C68.6828 28.5536 67.8559 29.3581 67.3438 29.9439C66.5551 30.8459 65.8542 31.873 65.25 33.0119C65.0956 33.303 64.7994 33.9253 64.7688 34.0229C64.7565 34.0623 64.7675 34.0676 64.9439 34.1075C65.5846 34.2523 66.3554 34.4731 66.9021 34.6684C68.2791 35.1602 69.6697 35.8981 70.8815 36.7801L71.1122 36.9479H82.7483H94.3845L94.4633 37.3614C94.6744 38.4698 94.7541 39.2869 94.7542 40.345C94.7542 42.1149 94.5643 43.4375 94.0731 45.0863C93.6338 46.561 92.8906 48.1134 91.9989 49.4191C90.696 51.3268 88.9997 52.9195 87.0146 54.099C86.6656 54.3063 85.8649 54.7218 85.4955 54.8872C83.9832 55.5644 82.4816 55.9771 80.8283 56.1701C80.3502 56.2259 79.8521 56.2474 79.033 56.2477C78.6407 56.2479 77.7726 56.2538 77.1038 56.261L75.8877 56.2739L75.7138 56.6257C75.363 57.3353 75.1387 57.7264 74.6982 58.3961C74.0418 59.3939 73.4821 60.0728 72.5715 60.9758C71.803 61.7379 70.9848 62.3941 70.0717 62.9806C67.8607 64.4007 65.4954 65.1868 62.7477 65.4147C62.3304 65.4494 27.6347 65.4519 27.5666 65.4174C27.5413 65.4045 27.3993 65.3798 27.2513 65.3625C24.8328 65.0805 22.5087 64.0806 20.6426 62.5194C20.1652 62.1201 19.4864 61.4509 19.1162 61.0147L16.5289 56.2204C16.2962 55.4065 16.0662 53.7577 16.0662 53.7577C16.0662 53.7577 16.0328 51.7417 16.0667 51.423C16.1078 51.0359 16.2013 50.384 16.2537 50.1195C16.3254 49.7574 16.5151 49.023 16.6272 48.6735C16.9578 47.6427 17.4082 46.6694 17.9858 45.7376C18.0636 45.6122 18.1272 45.5006 18.1272 45.4895C18.1272 45.4786 18.1346 45.4695 18.1436 45.4695C18.1526 45.4695 18.1999 45.4087 18.2488 45.3344C18.3381 45.1985 18.7905 44.5902 18.9369 44.4092C19.2969 43.9639 19.9053 43.3386 20.4211 42.8836C21.4451 41.9803 22.7414 41.1826 24.0167 40.6712C25.0867 40.2421 26.2289 39.9587 27.3763 39.8378C28.0988 39.7616 29.0124 39.7458 29.6356 39.7986C29.826 39.8148 30.0652 39.8335 30.1671 39.8402L30.3525 39.8525L30.3645 39.5821C30.4415 37.8425 30.7043 36.5085 31.2607 35.0315C31.8682 33.4192 32.748 31.9493 33.8458 30.7124C34.1298 30.3924 34.6484 29.8597 34.922 29.607C35.1579 29.389 35.747 28.9051 36.0742 28.6606C36.9238 28.0255 38.056 27.3967 39.1026 26.9786C39.8039 26.6984 40.2205 26.5648 40.9518 26.3854C41.6566 26.2126 42.1339 26.1327 42.9997 26.0424C43.273 26.014 44.6137 25.9881 44.9034 26.0058Z" fill="#EBF9FF"/>
</g>
<g class="cloud1">
    <path fill-rule="evenodd" clip-rule="evenodd" d="M84.7257 16.0456C86.2114 16.1247 87.3098 16.2888 88.5423 16.6159C90.0514 17.0164 91.3277 17.5229 92.6073 18.2292L92.9981 18.4449L104.735 18.4452L116.473 18.4455L116.387 18.5136C115.579 19.1563 114.575 20.1106 113.833 20.9419C112.833 22.0608 111.961 23.2972 111.201 24.6703C110.919 25.1806 110.384 26.2843 110.384 26.3567C110.384 26.3683 110.475 26.3972 110.587 26.4209C111.264 26.5646 112.254 26.8468 113.041 27.1201C114.76 27.7171 116.603 28.6867 118.142 29.8037L118.507 30.0689H133.387H148.268L148.283 30.1373C148.291 30.175 148.307 30.245 148.319 30.2929C148.33 30.3408 148.384 30.6264 148.438 30.9276C148.732 32.5481 148.817 34.1291 148.709 35.9431C148.577 38.1661 148.011 40.507 147.089 42.6462C145.329 46.7305 142.175 50.2039 138.293 52.3326C135.603 53.8075 132.557 54.6653 129.671 54.7609C129.285 54.7736 127.993 54.7843 126.8 54.7847L124.631 54.7853L124.342 55.3516C123.993 56.0365 123.776 56.431 123.5 56.8761C122.815 57.9837 122.097 58.9566 121.336 59.8099C120.954 60.2374 120.041 61.1492 119.633 61.5098C117.531 63.3691 115.097 64.7614 112.487 65.5974C110.898 66.1064 109.066 66.4417 107.506 66.5091C106.769 66.541 62.9771 66.5392 62.8313 66.5073C62.7704 66.494 62.549 66.4606 62.3393 66.4331C62.1295 66.4055 61.7617 66.3498 61.522 66.3092C57.3158 65.5978 53.536 63.2054 51.0312 59.6692C49.9832 58.1897 49.1308 56.4335 48.6631 54.79C48.1538 53.0008 47.9656 51.5115 48.0051 49.5832C48.0474 47.5128 48.5463 45.3143 49.4171 43.3605C49.7781 42.5504 50.3583 41.4952 50.7704 40.8989C51.4744 39.8804 52.0914 39.1379 52.8827 38.3573C54.7221 36.5427 56.7646 35.2861 59.1979 34.472C61.2923 33.7713 63.5928 33.5204 65.8898 33.742C66.1175 33.764 66.3105 33.7752 66.3187 33.7669C66.3269 33.7586 66.3429 33.5252 66.3543 33.2482C66.4362 31.2468 66.836 29.3031 67.5383 27.4927C67.8085 26.7961 67.9203 26.5384 68.1811 26.0117C69.0614 24.2335 70.0251 22.8734 71.4701 21.3699C72.0299 20.7875 72.4944 20.3712 73.2552 19.7699C74.8973 18.4723 76.8646 17.4467 78.9692 16.7912C79.2605 16.7004 80.3055 16.4385 80.6543 16.3688C81.2079 16.2582 82.2143 16.1259 82.8314 16.0827C83.2133 16.056 84.4612 16.0315 84.7257 16.0456Z" fill="#B9E3F8"/>
    <path fill-rule="evenodd" clip-rule="evenodd" d="M84.9775 14.0074C85.7073 14.0518 86.6355 14.1572 87.1793 14.2573C87.3619 14.2909 87.595 14.3338 87.6973 14.3527C87.9577 14.4008 89.0377 14.6882 89.4789 14.8268C90.4961 15.1465 91.5814 15.6103 92.5509 16.1396L92.9727 16.3699L104.717 16.3823L116.46 16.3947L116.143 16.6554C115.4 17.267 114.342 18.2962 113.687 19.0456C112.678 20.1996 111.781 21.5137 111.008 22.9706C110.81 23.3431 110.432 24.1393 110.392 24.2642C110.377 24.3145 110.391 24.3213 110.616 24.3723C111.436 24.5576 112.422 24.8401 113.122 25.0899C114.883 25.7191 116.662 26.6631 118.213 27.7915L118.508 28.0062H133.395H148.281L148.382 28.5352C148.652 29.9532 148.754 30.9987 148.754 32.3522C148.754 34.6166 148.511 36.3087 147.883 38.418C147.321 40.3048 146.37 42.2908 145.229 43.9612C143.562 46.4018 141.392 48.4394 138.853 49.9484C138.406 50.2137 137.382 50.7452 136.909 50.9569C134.974 51.8232 133.053 52.3513 130.938 52.5981C130.326 52.6695 129.689 52.6971 128.641 52.6975C128.139 52.6977 127.029 52.7053 126.173 52.7144L124.617 52.7309L124.395 53.1811C123.946 54.0889 123.659 54.5892 123.096 55.4459C122.256 56.7225 121.54 57.591 120.375 58.7462C119.392 59.7213 118.345 60.5608 117.177 61.3111C114.348 63.128 111.322 64.1337 107.807 64.4253C107.273 64.4696 62.8848 64.4729 62.7978 64.4286C62.7653 64.4121 62.5837 64.3805 62.3943 64.3584C59.3002 63.9976 56.3269 62.7185 53.9395 60.7211C53.3288 60.2102 52.4604 59.3541 51.9868 58.796L48.6767 52.6625C48.379 51.6212 48.0847 49.5118 48.0847 49.5118C48.0847 49.5118 48.042 46.9327 48.0853 46.5249C48.1379 46.0297 48.2576 45.1956 48.3246 44.8572C48.4163 44.3941 48.659 43.4545 48.8024 43.0074C49.2254 41.6886 49.8016 40.4434 50.5405 39.2513C50.64 39.0908 50.7214 38.948 50.7214 38.934C50.7214 38.9199 50.7309 38.9084 50.7424 38.9084C50.754 38.9084 50.8145 38.8306 50.877 38.7355C50.9913 38.5616 51.57 37.7834 51.7573 37.5518C52.2179 36.9822 52.9962 36.1822 53.6561 35.6C54.9662 34.4444 56.6246 33.4239 58.2562 32.7696C59.6251 32.2206 61.0863 31.8581 62.5542 31.7034C63.4786 31.6059 64.6475 31.5857 65.4448 31.6533C65.6883 31.6739 65.9943 31.6979 66.1247 31.7065L66.3619 31.7222L66.3772 31.3763C66.4758 29.1507 66.8119 27.4441 67.5238 25.5545C68.301 23.4917 69.4266 21.6112 70.831 20.0288C71.1944 19.6194 71.8579 18.9379 72.2078 18.6146C72.5096 18.3358 73.2634 17.7166 73.6819 17.4038C74.7688 16.5914 76.2174 15.7868 77.5563 15.2519C78.4535 14.8935 78.9865 14.7225 79.9221 14.4931C80.8237 14.272 81.4344 14.1697 82.5421 14.0543C82.8917 14.0179 84.607 13.9848 84.9775 14.0074Z" fill="#EBF9FF"/>
</g>
<g class="precipitation">
<circle  cx="92" cy="88" r="2" fill="#B9E3F8"/>
<circle cx="91.5" cy="87.5" r="1.5" fill="#EBF9FF"/>
<circle cx="74" cy="90" r="2" fill="#B9E3F8"/>
<circle cx="73.5" cy="89.5" r="1.5" fill="#EBF9FF"/>
<circle cx="88" cy="98" r="2" fill="#B9E3F8"/>
<circle cx="42" cy="102" r="2" fill="#B9E3F8"/>
<circle cx="20.5912" cy="87.7656" r="1.5" transform="rotate(31.7539 20.5912 87.7656)" fill="#EBF9FF"/>
<ellipse cx="62.2454" cy="85.7996" rx="2" ry="2.00176" transform="rotate(-36.6248 62.2454 85.7996)" fill="#B9E3F8"/>
<ellipse cx="61.5455" cy="85.6963" rx="1.5" ry="1.50132" transform="rotate(-36.6248 61.5455 85.6963)" fill="#EBF9FF"/>
<ellipse cx="48.9935" cy="98.1443" rx="2" ry="2.00176" transform="rotate(-36.6248 48.9935 98.1443)" fill="#B9E3F8"/>
<ellipse cx="48.2936" cy="98.041" rx="1.5" ry="1.50132" transform="rotate(-36.6248 48.2936 98.041)" fill="#EBF9FF"/>
<ellipse cx="101.245" cy="70.7996" rx="2" ry="2.00176" transform="rotate(-36.6248 101.245 70.7996)" fill="#B9E3F8"/>
<ellipse cx="100.546" cy="70.6963" rx="1.5" ry="1.50132" transform="rotate(-36.6248 100.546 70.6963)" fill="#EBF9FF"/>
<ellipse cx="53.2963" cy="88.9545" rx="2" ry="2.00176" transform="rotate(5.63107 53.2963 88.9545)" fill="#B9E3F8"/>
<ellipse cx="52.8478" cy="88.4074" rx="1.5" ry="1.50132" transform="rotate(5.63107 52.8478 88.4074)" fill="#EBF9FF"/>
<ellipse cx="19.2936" cy="116.041" rx="1.5" ry="1.50132" transform="rotate(-36.6248 19.2936 116.041)" fill="#EBF9FF"/>

</g>
</g>
</svg>
