<svg width="110" height="119" viewBox="0 0 110 119" fill="none" xmlns="http://www.w3.org/2000/svg">
<g clip-path="url(#clip0_41_319)">
<g mask="url(#mask0_41_319)">
<path fill-rule="evenodd" clip-rule="evenodd" d="M25.2139 0.0433905C25.7227 0.140014 26.1157 0.515067 26.242 1.02456L26.2683 1.13052L26.2722 3.74395C26.2748 5.43693 26.2719 6.40039 26.2639 6.47952C26.2329 6.78849 26.121 7.02904 25.9049 7.25185C25.5221 7.64647 24.9409 7.75489 24.4475 7.52371C24.0847 7.35368 23.8258 7.02887 23.7321 6.62607C23.7066 6.51663 23.7065 6.50428 23.7024 3.94545C23.6996 2.26389 23.7026 1.32182 23.7107 1.22168C23.7574 0.649424 24.1277 0.207805 24.6843 0.0605852C24.8103 0.027258 25.0824 0.0184285 25.2139 0.0433905ZM41.9134 6.98685C42.4078 7.04375 42.8239 7.37789 42.9832 7.84596C43.0277 7.97695 43.0487 8.11206 43.0485 8.26688C43.0483 8.51533 42.9866 8.72965 42.8526 8.94822C42.7914 9.04795 42.6467 9.19625 40.9795 10.8681C39.9858 11.8645 39.1263 12.7209 39.0695 12.7711C38.8102 13.0002 38.5381 13.1049 38.2022 13.1048C37.8599 13.1047 37.5752 12.9923 37.3298 12.7604C37.092 12.5357 36.9672 12.2815 36.9301 11.9466C36.8985 11.6602 36.9806 11.345 37.151 11.0991C37.195 11.0356 37.7537 10.4699 39.1083 9.11691C40.8931 7.33422 41.01 7.22004 41.1077 7.16327C41.3534 7.02042 41.6468 6.95617 41.9134 6.98685ZM8.36314 7.01152C8.61088 7.0416 8.82471 7.12797 9.01368 7.27438C9.05059 7.303 9.9165 8.1635 10.9379 9.18663C12.2075 10.4583 12.8115 11.0716 12.8469 11.1248C12.9204 11.2352 12.9987 11.408 13.0302 11.5293C13.0716 11.6889 13.0769 11.9363 13.0426 12.103C12.9432 12.5854 12.5855 12.9615 12.1048 13.0889C12.0041 13.1156 11.9586 13.1205 11.8031 13.1215C11.6942 13.1222 11.5904 13.1162 11.5468 13.1068C11.3631 13.067 11.1877 12.9915 11.0415 12.8892C10.99 12.8532 10.2852 12.1568 9.09186 10.9628C7.63701 9.50724 7.21072 9.07396 7.16772 9.00723C7.00248 8.75083 6.94211 8.53163 6.95343 8.22935C6.96071 8.0349 6.99025 7.90845 7.06589 7.74808C7.13794 7.59541 7.20581 7.49846 7.32195 7.38226C7.51092 7.19323 7.73347 7.07413 7.98076 7.02975C8.11595 7.00551 8.25782 6.99874 8.36314 7.01152ZM25.6344 10.4132C25.668 10.4156 25.7943 10.4235 25.9152 10.4307C27.7121 10.5384 29.4581 10.9773 31.134 11.7428C31.4013 11.8649 31.9642 12.1555 32.2388 12.3132C33.2704 12.9056 34.1784 13.5773 35.0272 14.3759C36.5257 15.786 37.699 17.4777 38.5073 19.394C38.8064 20.1031 39.0776 20.9477 39.2571 21.7295C39.4971 22.775 39.6101 23.7214 39.6264 24.8224C39.6492 26.3613 39.4545 27.7675 39.0135 29.2507C38.8528 29.791 38.5807 30.5263 38.3766 30.9713C38.3596 31.0082 38.3132 31.1099 38.2735 31.1972C38.174 31.4153 37.8862 31.9765 37.7598 32.1986C36.9985 33.5359 36.1148 34.6617 35.0079 35.7041C34.1664 36.4965 33.2189 37.1935 32.19 37.7768C29.585 39.2536 26.5262 39.8927 23.5286 39.5863C20.7002 39.2971 18.066 38.219 15.8561 36.4459C15.4051 36.0841 15.0408 35.7532 14.5799 35.2865C14.1555 34.8568 13.8258 34.4827 13.4676 34.0243C12.2242 32.4334 11.3063 30.5584 10.822 28.6204C10.4323 27.0609 10.3 25.483 10.4243 23.8759C10.5687 22.0079 11.0769 20.1732 11.9128 18.5025C12.4983 17.3321 13.2041 16.2926 14.1018 15.2785C14.3249 15.0265 14.962 14.387 15.2213 14.1548C17.0167 12.5474 19.1378 11.4165 21.4365 10.841C22.2994 10.625 23.0357 10.5099 24.0718 10.4291C24.2324 10.4166 25.5016 10.4037 25.6344 10.4132ZM48.9616 23.785C49.4512 23.8822 49.8317 24.2371 49.9649 24.7199C50.0117 24.8891 50.019 25.1186 49.983 25.2916C49.9689 25.3616 49.9408 25.4605 49.9212 25.5115C49.8194 25.7749 49.6085 26.0201 49.3626 26.1609C49.2448 26.2284 49.0284 26.3014 48.8962 26.3183C48.8234 26.3275 47.992 26.3305 46.131 26.328L43.4699 26.3245L43.3661 26.2955C42.894 26.1636 42.5565 25.8319 42.432 25.3776C42.3925 25.2335 42.3792 25.0138 42.401 24.8643C42.481 24.3177 42.9068 23.8791 43.4501 23.7839C43.5976 23.7581 48.8316 23.7591 48.9616 23.785ZM6.56805 23.7841C7.05453 23.8724 7.4515 24.2411 7.5816 24.7255C7.61079 24.8342 7.61415 24.8678 7.61388 25.0483C7.6136 25.2129 7.60892 25.2667 7.58842 25.3418C7.51987 25.593 7.40796 25.7914 7.24231 25.9551C7.07926 26.1164 6.88338 26.2271 6.63719 26.2973L6.54164 26.3245L3.88035 26.328C2.01767 26.3305 1.18793 26.3276 1.11531 26.3183C0.98322 26.3014 0.766776 26.2284 0.648875 26.1609C0.402891 26.0201 0.192063 25.7749 0.0903 25.5115C0.0706453 25.4605 0.0427142 25.3616 0.0282481 25.2916C-0.00752043 25.1186 -0.000193801 24.8891 0.0464762 24.7199C0.180565 24.2337 0.565084 23.8779 1.05732 23.7845C1.14241 23.7684 1.48902 23.7662 3.8176 23.7671C5.94606 23.768 6.49814 23.7714 6.56805 23.7841ZM12.0534 36.9728C12.525 37.0719 12.9037 37.4194 13.0348 37.8736C13.1396 38.2367 13.0809 38.619 12.8701 38.9459C12.8326 39.0041 12.3204 39.5246 10.9499 40.8974C9.92186 41.927 9.05336 42.7908 9.01977 42.8169C8.87281 42.9308 8.7083 43.0106 8.52538 43.0568C8.3826 43.0926 8.04376 43.09 7.90276 43.0514C7.6292 42.977 7.36773 42.8022 7.20845 42.587C7.03453 42.3525 6.95057 42.0995 6.95057 41.8097C6.95057 41.5162 7.03766 41.2571 7.21331 41.0281C7.24936 40.9811 8.11554 40.1068 9.13814 39.0852C11.0938 37.1314 11.0532 37.17 11.2612 37.072C11.4373 36.9891 11.5473 36.9651 11.7726 36.9604C11.9111 36.9574 11.9988 36.9613 12.0534 36.9728ZM38.4043 36.9854C38.5875 37.0186 38.7461 37.0824 38.9103 37.1886C39.0117 37.2542 42.6827 40.9169 42.7939 41.0633C42.9644 41.288 43.0487 41.5431 43.0487 41.8341C43.0487 42.5458 42.4874 43.1094 41.7774 43.1102C41.4829 43.1106 41.2322 43.0283 41.0035 42.8564C40.87 42.7559 37.1975 39.0763 37.1312 38.9765C36.9922 38.7671 36.9242 38.5623 36.9121 38.3159C36.8942 37.9505 37.0104 37.6316 37.2561 37.3718C37.5098 37.1037 37.8366 36.965 38.2062 36.9686C38.2678 36.9692 38.357 36.9768 38.4043 36.9854ZM25.1909 42.4332C25.4553 42.4744 25.6789 42.5883 25.8828 42.7858C26.102 42.998 26.2308 43.2628 26.2632 43.5683C26.2792 43.7183 26.2791 48.7478 26.2632 48.8873C26.2291 49.1849 26.1072 49.4417 25.8992 49.6535C25.7365 49.819 25.5379 49.9321 25.2869 50.0014C25.1516 50.0388 24.8215 50.038 24.6843 50.0006C24.4417 49.9338 24.2415 49.8199 24.0801 49.6572C23.8598 49.4349 23.7372 49.1634 23.7107 48.8382C23.7026 48.7382 23.6996 47.796 23.7024 46.1146C23.7065 43.5557 23.7066 43.5435 23.7321 43.4338C23.7896 43.1863 23.8949 42.9896 24.0629 42.8152C24.3633 42.5034 24.7664 42.3668 25.1909 42.4332Z" fill="#FFE23D"/>
<path fill-rule="evenodd" clip-rule="evenodd" d="M25.8703 0.383135C25.6692 0.192034 25.4224 0.0751002 25.1467 0.0401848C25.0431 0.0270686 24.8364 0.0363745 24.7289 0.0590042C24.2247 0.165094 23.8323 0.567824 23.7354 1.07869C23.7186 1.16755 23.7164 1.48193 23.7166 3.84297C23.7167 6.39617 23.7177 6.51157 23.7396 6.61689C23.821 7.00978 24.071 7.33262 24.4306 7.50929C24.5832 7.58426 24.7023 7.61826 24.8735 7.63566C25.0998 7.65873 25.3225 7.62003 25.5309 7.5214C25.8771 7.35754 26.1103 7.08358 26.228 6.70241L26.262 6.59247V3.83857V1.08467L26.228 0.974754C26.1532 0.732336 26.0389 0.543323 25.8703 0.383135ZM26.2818 23.7695L25.6553 23.7659C24.8343 23.7611 24.8045 23.7628 24.6021 23.8267C24.164 23.9649 23.8341 24.331 23.7337 24.7904C23.7053 24.92 23.7056 25.1811 23.7341 25.3141C23.787 25.5607 23.8993 25.7686 24.0766 25.9483C24.2027 26.0762 24.3197 26.1581 24.4727 26.2256C24.6678 26.3118 24.7432 26.3264 24.9922 26.3264C25.1809 26.3264 25.2257 26.3226 25.3086 26.2996C25.6642 26.201 25.9414 25.9861 26.1149 25.6744C26.1819 25.554 26.2185 25.46 26.2521 25.3218C26.2687 25.2533 26.2725 25.1281 26.2768 24.5052L26.2818 23.7695ZM48.9639 23.7941C48.9139 23.7859 48.8644 23.7777 48.8544 23.7757C48.7998 23.7651 43.5884 23.7712 43.5129 23.782C43.3055 23.8118 43.1449 23.8716 42.9742 23.9829C42.6904 24.1678 42.4931 24.4625 42.4183 24.8135C42.4094 24.8556 42.4032 24.9619 42.4038 25.0638C42.4048 25.2135 42.4099 25.2598 42.437 25.363C42.5765 25.8946 43.0155 26.2683 43.5631 26.3215C43.7311 26.3379 48.6721 26.3378 48.8444 26.3215C49.1521 26.2923 49.3976 26.1791 49.6217 25.9624C50.0891 25.5106 50.1414 24.7947 49.7449 24.2719C49.5576 24.0251 49.2576 23.8415 48.9639 23.7941ZM6.92855 23.916C6.80167 23.8508 6.6411 23.7991 6.5149 23.7827C6.39697 23.7674 1.25633 23.7664 1.13514 23.7816C0.70874 23.8351 0.349462 24.0857 0.153792 24.4663C-0.105216 24.97 -0.0067299 25.5699 0.399442 25.9624C0.623655 26.1791 0.868771 26.2923 1.17682 26.3215C1.35509 26.3384 6.27732 26.3384 6.45557 26.3215C6.59982 26.3078 6.76098 26.266 6.87727 26.212C7.20936 26.0578 7.48526 25.7328 7.575 25.3902C7.73039 24.7967 7.46517 24.1919 6.92855 23.916ZM25.8647 42.7674C25.6612 42.5787 25.3891 42.456 25.1204 42.4308C24.9381 42.414 24.7131 42.4409 24.5629 42.4972C24.2004 42.6338 23.9274 42.9048 23.7938 43.2604C23.784 43.2868 23.7754 43.307 23.7679 43.328C23.7129 43.4814 23.7164 43.6558 23.7164 46.2345C23.7164 48.5854 23.7186 48.8989 23.7354 48.988C23.8322 49.4982 24.2273 49.9037 24.7273 50.0067C25.1454 50.0928 25.564 49.9743 25.8703 49.6835C26.0389 49.5234 26.1532 49.3343 26.228 49.0918L26.262 48.9821V46.2282V43.4743L26.2276 43.3642C26.1535 43.1271 26.0252 42.9158 25.8647 42.7674Z" fill="#FFC53D"/>
<path fill-rule="evenodd" clip-rule="evenodd" d="M28.7065 24.5989C29.8679 24.6607 30.7264 24.789 31.6898 25.0447C32.8693 25.3577 33.8669 25.7536 34.8671 26.3057L35.1726 26.4743L44.347 26.4745L53.5214 26.4747L53.4544 26.528C52.8229 27.0304 52.0383 27.7763 51.4578 28.4261C50.6767 29.3007 49.9946 30.2671 49.4008 31.3404C49.1801 31.7392 48.7622 32.6019 48.7622 32.6586C48.7622 32.6676 48.8336 32.6902 48.9208 32.7087C49.4497 32.8211 50.2238 33.0416 50.8389 33.2553C52.1825 33.7219 53.6232 34.4798 54.8261 35.3529L55.1117 35.5601H66.7428H78.3739L78.3858 35.6136C78.3924 35.6431 78.405 35.6978 78.4138 35.7352C78.4227 35.7727 78.4648 35.9959 78.5074 36.2314C78.7368 37.498 78.8035 38.7338 78.719 40.1517C78.6154 41.8893 78.1732 43.7191 77.4527 45.3912C76.077 48.5836 73.6115 51.2986 70.5769 52.9625C68.4743 54.115 66.0936 54.786 63.8376 54.861C63.5362 54.871 62.5265 54.879 61.5938 54.879L59.898 54.88L59.6726 55.322C59.4 55.858 59.2297 56.166 59.0144 56.514C58.4788 57.38 57.9177 58.14 57.3225 58.807C57.0243 59.141 56.3106 59.854 55.9919 60.136C54.3488 61.589 52.4462 62.677 50.4063 63.331C49.1644 63.729 47.7323 63.991 46.5124 64.044C45.9363 64.068 11.7068 64.067 11.5928 64.042C11.5452 64.032 11.3722 64.006 11.2082 63.984C11.0443 63.963 10.7568 63.919 10.5694 63.887C7.28167 63.331 4.32718 61.461 2.36929 58.697C1.55016 57.541 0.883922 56.168 0.518285 54.883C0.120248 53.485 -0.0268503 52.3207 0.00395429 50.8134C0.037028 49.1952 0.426991 47.4767 1.10765 45.9495C1.38988 45.3163 1.84333 44.4915 2.16545 44.0254C2.71574 43.2293 3.19804 42.6489 3.81657 42.0387C5.25428 40.6204 6.85081 39.6382 8.75281 39.0018C10.3899 38.4541 12.188 38.258 13.9835 38.4313C14.1615 38.4484 14.3124 38.4572 14.3188 38.4507C14.3252 38.4442 14.3377 38.2617 14.3466 38.0452C14.4106 36.4808 14.7231 34.9616 15.272 33.5465C15.4832 33.002 15.5706 32.8006 15.7745 32.3889C16.4625 30.999 17.2159 29.9358 18.3454 28.7606C18.7829 28.3054 19.146 27.98 19.7407 27.51C21.0242 26.4957 22.5619 25.6941 24.207 25.1817C24.4347 25.1108 25.2515 24.906 25.5241 24.8515C25.9569 24.7651 26.7435 24.6617 27.2259 24.6279C27.5243 24.607 28.4998 24.5879 28.7065 24.5989Z" fill="#B9E3F8"/>
<path fill-rule="evenodd" clip-rule="evenodd" d="M28.9034 23.0058C29.4738 23.0405 30.1993 23.1229 30.6243 23.2011C30.7671 23.2274 30.9493 23.2609 31.0293 23.2757C31.2328 23.3133 32.077 23.5379 32.4218 23.6463C33.2169 23.8962 34.0653 24.2587 34.8231 24.6724L35.1527 24.8524L44.3323 24.8621L53.5119 24.8718L53.2641 25.0756C52.6828 25.5536 51.8559 26.3581 51.3438 26.9439C50.5551 27.8459 49.8542 28.873 49.25 30.0119C49.0956 30.303 48.7994 30.9253 48.7688 31.0229C48.7565 31.0623 48.7675 31.0676 48.9439 31.1075C49.5846 31.2523 50.3554 31.4731 50.9021 31.6684C52.2791 32.1602 53.6697 32.8981 54.8815 33.7801L55.1122 33.9479H66.7483H78.3845L78.4633 34.3614C78.6744 35.4698 78.7541 36.2869 78.7542 37.345C78.7542 39.1149 78.5643 40.4375 78.0731 42.0863C77.6338 43.561 76.8906 45.1134 75.9989 46.4191C74.696 48.3268 72.9997 49.9195 71.0146 51.099C70.6656 51.3063 69.8649 51.7218 69.4955 51.8872C67.9832 52.5644 66.4816 52.9771 64.8283 53.17C64.3502 53.226 63.8521 53.247 63.033 53.248C62.6407 53.248 61.7726 53.254 61.1038 53.261L59.8877 53.274L59.7138 53.626C59.363 54.335 59.1387 54.726 58.6982 55.396C58.0418 56.394 57.4821 57.073 56.5715 57.976C55.803 58.738 54.9848 59.394 54.0717 59.981C51.8607 61.401 49.4954 62.187 46.7477 62.415C46.3304 62.449 11.6347 62.452 11.5666 62.417C11.5413 62.404 11.3993 62.38 11.2513 62.363C8.83281 62.08 6.50869 61.081 4.64257 59.519C4.16525 59.12 3.48646 58.451 3.11624 58.015L0.52896 53.22C0.296252 52.4065 0.0662014 50.7577 0.0662014 50.7577C0.0662014 50.7577 0.0328372 48.7417 0.06668 48.423C0.107791 48.0359 0.201339 47.384 0.253718 47.1195C0.325423 46.7574 0.515114 46.023 0.627199 45.6735C0.957801 44.6427 1.4082 43.6694 1.98582 42.7376C2.06358 42.6122 2.12719 42.5006 2.12719 42.4895C2.12719 42.4786 2.13457 42.4695 2.14359 42.4695C2.15262 42.4695 2.19995 42.4087 2.24879 42.3344C2.33813 42.1985 2.79048 41.5902 2.93687 41.4092C3.29691 40.9639 3.90527 40.3386 4.42109 39.8836C5.44508 38.9803 6.74144 38.1826 8.01671 37.6712C9.08674 37.2421 10.2289 36.9587 11.3763 36.8378C12.0988 36.7616 13.0124 36.7458 13.6356 36.7986C13.826 36.8148 14.0652 36.8335 14.1671 36.8402L14.3525 36.8525L14.3645 36.5821C14.4415 34.8425 14.7043 33.5085 15.2607 32.0315C15.8682 30.4192 16.748 28.9493 17.8458 27.7124C18.1298 27.3924 18.6484 26.8597 18.922 26.607C19.1579 26.389 19.747 25.9051 20.0742 25.6606C20.9238 25.0255 22.056 24.3967 23.1026 23.9786C23.8039 23.6984 24.2205 23.5648 24.9518 23.3854C25.6566 23.2126 26.1339 23.1327 26.9997 23.0424C27.273 23.014 28.6137 22.9881 28.9034 23.0058Z" fill="#EBF9FF"/>
<path fill-rule="evenodd" clip-rule="evenodd" d="M48.9156 15.9793C50.3281 16.0559 51.3724 16.2147 52.5441 16.5312C53.9788 16.9187 55.1922 17.4089 56.4087 18.0924L56.7803 18.3011L67.939 18.3014L79.0978 18.3017L79.0163 18.3676C78.2482 18.9895 77.2939 19.913 76.5879 20.7175C75.6378 21.8003 74.8082 22.9967 74.0859 24.3256C73.8176 24.8193 73.3092 25.8874 73.3092 25.9575C73.3092 25.9687 73.3961 25.9967 73.5022 26.0196C74.1455 26.1587 75.0869 26.4317 75.8351 26.6962C77.4694 27.2739 79.2216 28.2122 80.6847 29.2931L81.0321 29.5498H95.1789H109.326L109.34 29.616C109.348 29.6524 109.364 29.7202 109.374 29.7665C109.385 29.8129 109.436 30.0893 109.488 30.3808C109.767 31.9489 109.848 33.4789 109.746 35.2343C109.62 37.3856 109.082 39.6509 108.205 41.7209C106.532 45.6734 103.533 49.0346 99.8424 51.0946C97.285 52.5219 94.3893 53.352 91.6454 53.4445C91.2788 53.4568 90.0507 53.4672 88.9163 53.4675L86.8536 53.4681L86.5795 54.0161C86.248 54.6789 86.0408 55.0606 85.779 55.4914C85.1274 56.5632 84.445 57.5047 83.721 58.3305C83.3583 58.7442 82.4903 59.6265 82.1027 59.9754C80.1041 61.7747 77.7901 63.1221 75.3089 63.9311C73.7984 64.4236 72.0565 64.7481 70.5729 64.8134C69.8721 64.8442 28.2389 64.8425 28.1003 64.8116C28.0424 64.7987 27.8319 64.7664 27.6325 64.7397C27.4331 64.7131 27.0835 64.6592 26.8555 64.6199C22.8567 63.9315 19.2631 61.6163 16.8818 58.1943C15.8855 56.7626 15.0751 55.0631 14.6304 53.4726C14.1463 51.7412 13.9673 50.3 14.0048 48.4339C14.045 46.4305 14.5193 44.3029 15.3472 42.4122C15.6905 41.6283 16.242 40.6071 16.6338 40.0301C17.3031 39.0444 17.8898 38.326 18.6421 37.5705C20.3907 35.8146 22.3326 34.5985 24.646 33.8107C26.6372 33.1326 28.8243 32.8898 31.0081 33.1043C31.2245 33.1256 31.4081 33.1364 31.4158 33.1284C31.4237 33.1203 31.4389 32.8944 31.4496 32.6264C31.5275 30.6896 31.9077 28.8087 32.5753 27.0568C32.8322 26.3826 32.9385 26.1333 33.1864 25.6236C34.0233 23.9029 34.9396 22.5866 36.3134 21.1316C36.8455 20.5681 37.2871 20.1652 38.0105 19.5833C39.5716 18.3276 41.4419 17.3352 43.4428 16.7008C43.7198 16.613 44.7132 16.3595 45.0449 16.2921C45.5712 16.185 46.528 16.057 47.1147 16.0152C47.4777 15.9893 48.6641 15.9657 48.9156 15.9793Z" fill="#B9E3F8"/>
<path fill-rule="evenodd" clip-rule="evenodd" d="M49.155 14.0071C49.8488 14.0502 50.7313 14.1521 51.2482 14.249C51.4219 14.2815 51.6435 14.3231 51.7407 14.3413C51.9883 14.3878 53.0151 14.666 53.4345 14.8001C54.4016 15.1095 55.4334 15.5583 56.3552 16.0705L56.7561 16.2933L67.9212 16.3054L79.0862 16.3174L78.7849 16.5697C78.0779 17.1615 77.0721 18.1574 76.4492 18.8827C75.4899 19.9994 74.6374 21.271 73.9026 22.681C73.7147 23.0414 73.3545 23.8119 73.3173 23.9327C73.3023 23.9815 73.3157 23.9881 73.5302 24.0374C74.3095 24.2167 75.247 24.49 75.912 24.7318C77.5868 25.3407 79.2781 26.2542 80.7521 27.3461L81.0327 27.554H95.1857H109.339L109.435 28.0658C109.691 29.4381 109.788 30.4498 109.788 31.7596C109.788 33.9509 109.557 35.5884 108.96 37.6296C108.426 39.4554 107.522 41.3773 106.437 42.9937C104.852 45.3556 102.789 47.3274 100.375 48.7876C99.9502 49.0444 98.9763 49.5587 98.527 49.7635C96.6876 50.6019 94.8612 51.1129 92.8503 51.3518C92.2689 51.4209 91.6631 51.4476 90.6667 51.4479C90.1896 51.4481 89.1337 51.4555 88.3202 51.4643L86.8411 51.4803L86.6296 51.9159C86.203 52.7944 85.9301 53.2786 85.3943 54.1076C84.5959 55.3429 83.9152 56.1835 82.8077 57.3014C81.873 58.2449 80.8777 59.0573 79.7672 59.7834C77.0779 61.5416 74.2011 62.5148 70.8591 62.797C70.3514 62.8399 28.1512 62.8431 28.0684 62.8003C28.0376 62.7843 27.8649 62.7537 27.6849 62.7324C24.7433 62.3832 21.9165 61.1453 19.6467 59.2125C19.0662 58.7181 18.2405 57.8896 17.7902 57.3496L14.6433 51.4141C14.3603 50.4064 14.0805 48.3651 14.0805 48.3651C14.0805 48.3651 14.0399 45.8693 14.0811 45.4747C14.1311 44.9955 14.2449 44.1883 14.3086 43.8609C14.3958 43.4127 14.6265 42.5034 14.7628 42.0707C15.1649 40.7945 15.7128 39.5895 16.4153 38.4359C16.5099 38.2807 16.5873 38.1425 16.5873 38.1288C16.5873 38.1152 16.5962 38.1041 16.6072 38.1041C16.6182 38.1041 16.6758 38.0288 16.7352 37.9368C16.8438 37.7685 17.394 37.0155 17.5721 36.7913C18.01 36.2401 18.7499 35.4659 19.3773 34.9026C20.6228 33.7842 22.1996 32.7967 23.7507 32.1635C25.0521 31.6323 26.4413 31.2815 27.8369 31.1317C28.7157 31.0374 29.827 31.0178 30.585 31.0833C30.8165 31.1032 31.1074 31.1264 31.2314 31.1347L31.4569 31.1499L31.4714 30.8152C31.5652 28.6615 31.8847 27.01 32.5616 25.1814C33.3004 23.1852 34.3705 21.3654 35.7058 19.8341C36.0512 19.438 36.682 18.7785 37.0147 18.4656C37.3016 18.1958 38.0182 17.5966 38.4161 17.2939C39.4495 16.5077 40.8266 15.7291 42.0995 15.2115C42.9526 14.8646 43.4592 14.6992 44.3488 14.4772C45.2059 14.2632 45.7865 14.1642 46.8396 14.0525C47.172 14.0173 48.8027 13.9853 49.155 14.0071Z" fill="#EBF9FF"/>
</g>
<path fill-rule="evenodd" clip-rule="evenodd" d="M22.169 72.7587C14.7331 78.4239 12.4842 84.0753 18.2802 82.532C22.3312 81.4533 28.5655 72.9464 25.3345 72.8516C24.8043 72.836 24.4689 71.0064 22.169 72.7587Z" fill="#B9E3F8"/>
<path fill-rule="evenodd" clip-rule="evenodd" d="M51.169 85.7587C43.7331 91.4239 41.4842 97.0753 47.2802 95.532C51.3312 94.4533 57.5655 85.9464 54.3345 85.8516C53.8043 85.836 53.4689 84.0064 51.169 85.7587Z" fill="#B9E3F8"/>
<path fill-rule="evenodd" clip-rule="evenodd" d="M67.169 66.7587C59.7331 72.4239 57.4842 78.0753 63.2802 76.532C67.3312 75.4533 73.5655 66.9464 70.3345 66.8516C69.8043 66.836 69.4689 65.0064 67.169 66.7587Z" fill="#B9E3F8"/>
<path fill-rule="evenodd" clip-rule="evenodd" d="M88.169 72.7587C80.7331 78.4239 78.4842 84.0753 84.2802 82.532C88.3312 81.4533 94.5655 72.9464 91.3345 72.8516C90.8043 72.836 90.4689 71.0064 88.169 72.7587Z" fill="#B9E3F8"/>
</g>
</svg>
