<svg width="100" height="100" viewBox="0 0 110 119" fill="none" xmlns="http://www.w3.org/2000/svg">
<g clip-path="url(#clip0_41_319)">
<g mask="url(#mask0_41_319)">
<g class="sun">
    <path fill-rule="evenodd" clip-rule="evenodd" d="M31.2139 -2.95661C31.7227 -2.85999 32.1157 -2.48493 32.242 -1.97544L32.2683 -1.86948L32.2722 0.743949C32.2748 2.43693 32.2719 3.40039 32.2639 3.47952C32.2329 3.78849 32.121 4.02904 31.9049 4.25185C31.5221 4.64647 30.9409 4.75489 30.4475 4.52371C30.0847 4.35368 29.8258 4.02887 29.7321 3.62607C29.7066 3.51663 29.7065 3.50428 29.7024 0.945453C29.6996 -0.736109 29.7026 -1.67818 29.7107 -1.77832C29.7574 -2.35058 30.1277 -2.7922 30.6843 -2.93941C30.8103 -2.97274 31.0824 -2.98157 31.2139 -2.95661ZM47.9134 3.98685C48.4078 4.04375 48.8239 4.37789 48.9832 4.84596C49.0277 4.97695 49.0487 5.11206 49.0485 5.26688C49.0483 5.51533 48.9866 5.72965 48.8526 5.94822C48.7914 6.04795 48.6467 6.19625 46.9795 7.86808C45.9858 8.86453 45.1263 9.7209 45.0695 9.77108C44.8102 10.0002 44.5381 10.1049 44.2022 10.1048C43.8599 10.1047 43.5752 9.99234 43.3298 9.76041C43.092 9.5357 42.9672 9.28154 42.9301 8.9466C42.8985 8.6602 42.9806 8.34502 43.151 8.09909C43.195 8.03563 43.7537 7.46985 45.1083 6.11691C46.8931 4.33422 47.01 4.22004 47.1077 4.16327C47.3534 4.02042 47.6468 3.95617 47.9134 3.98685ZM14.3631 4.01152C14.6109 4.0416 14.8247 4.12797 15.0137 4.27438C15.0506 4.303 15.9165 5.1635 16.9379 6.18663C18.2075 7.45834 18.8115 8.07156 18.8469 8.12477C18.9204 8.23521 18.9987 8.40801 19.0302 8.52929C19.0716 8.68886 19.0769 8.9363 19.0426 9.10297C18.9432 9.58542 18.5855 9.96145 18.1048 10.0889C18.0041 10.1156 17.9586 10.1205 17.8031 10.1215C17.6942 10.1222 17.5904 10.1162 17.5468 10.1068C17.3631 10.067 17.1877 9.99146 17.0415 9.88917C16.99 9.85316 16.2852 9.15685 15.0919 7.96284C13.637 6.50724 13.2107 6.07396 13.1677 6.00723C13.0025 5.75083 12.9421 5.53163 12.9534 5.22935C12.9607 5.0349 12.9903 4.90845 13.0659 4.74808C13.1379 4.59541 13.2058 4.49846 13.322 4.38226C13.5109 4.19323 13.7335 4.07413 13.9808 4.02975C14.1159 4.00551 14.2578 3.99874 14.3631 4.01152ZM31.6344 7.41316C31.668 7.41556 31.7943 7.42346 31.9152 7.43069C33.7121 7.53839 35.4581 7.97734 37.134 8.74278C37.4013 8.86486 37.9642 9.1555 38.2388 9.31318C39.2704 9.9056 40.1784 10.5773 41.0272 11.3759C42.5257 12.786 43.699 14.4777 44.5073 16.394C44.8064 17.1031 45.0776 17.9477 45.2571 18.7295C45.4971 19.775 45.6101 20.7214 45.6264 21.8224C45.6492 23.3613 45.4545 24.7675 45.0135 26.2507C44.8528 26.791 44.5807 27.5263 44.3766 27.9713C44.3596 28.0082 44.3132 28.1099 44.2735 28.1972C44.174 28.4153 43.8862 28.9765 43.7598 29.1986C42.9985 30.5359 42.1148 31.6617 41.0079 32.7041C40.1664 33.4965 39.2189 34.1935 38.19 34.7768C35.585 36.2536 32.5262 36.8927 29.5286 36.5863C26.7002 36.2971 24.066 35.219 21.8561 33.4459C21.4051 33.0841 21.0408 32.7532 20.5799 32.2865C20.1555 31.8568 19.8258 31.4827 19.4676 31.0243C18.2242 29.4334 17.3063 27.5584 16.822 25.6204C16.4323 24.0609 16.3 22.483 16.4243 20.8759C16.5687 19.0079 17.0769 17.1732 17.9128 15.5025C18.4983 14.3321 19.2041 13.2926 20.1018 12.2785C20.3249 12.0265 20.962 11.387 21.2213 11.1548C23.0167 9.54743 25.1378 8.41646 27.4365 7.84097C28.2994 7.62497 29.0357 7.50986 30.0718 7.42909C30.2324 7.41661 31.5016 7.40366 31.6344 7.41316ZM54.9616 20.785C55.4512 20.8822 55.8317 21.2371 55.9649 21.7199C56.0117 21.8891 56.019 22.1186 55.983 22.2916C55.9689 22.3616 55.9408 22.4605 55.9212 22.5115C55.8194 22.7749 55.6085 23.0201 55.3626 23.1609C55.2448 23.2284 55.0284 23.3014 54.8962 23.3183C54.8234 23.3275 53.992 23.3305 52.131 23.328L49.4699 23.3245L49.3661 23.2955C48.894 23.1636 48.5565 22.8319 48.432 22.3776C48.3925 22.2335 48.3792 22.0138 48.401 21.8643C48.481 21.3177 48.9068 20.8791 49.4501 20.7839C49.5976 20.7581 54.8316 20.7591 54.9616 20.785ZM12.568 20.7841C13.0545 20.8724 13.4515 21.2411 13.5816 21.7255C13.6108 21.8342 13.6141 21.8678 13.6139 22.0483C13.6136 22.2129 13.6089 22.2667 13.5884 22.3418C13.5199 22.593 13.408 22.7914 13.2423 22.9551C13.0793 23.1164 12.8834 23.2271 12.6372 23.2973L12.5416 23.3245L9.88035 23.328C8.01767 23.3305 7.18793 23.3276 7.11531 23.3183C6.98322 23.3014 6.76678 23.2284 6.64887 23.1609C6.40289 23.0201 6.19206 22.7749 6.0903 22.5115C6.07065 22.4605 6.04271 22.3616 6.02825 22.2916C5.99248 22.1186 5.99981 21.8891 6.04648 21.7199C6.18057 21.2337 6.56508 20.8779 7.05732 20.7845C7.14241 20.7684 7.48902 20.7662 9.8176 20.7671C11.9461 20.768 12.4981 20.7714 12.568 20.7841ZM18.0534 33.9728C18.525 34.0719 18.9037 34.4194 19.0348 34.8736C19.1396 35.2367 19.0809 35.619 18.8701 35.9459C18.8326 36.0041 18.3204 36.5246 16.9499 37.8974C15.9219 38.927 15.0534 39.7908 15.0198 39.8169C14.8728 39.9308 14.7083 40.0106 14.5254 40.0568C14.3826 40.0926 14.0438 40.09 13.9028 40.0514C13.6292 39.977 13.3677 39.8022 13.2084 39.587C13.0345 39.3525 12.9506 39.0995 12.9506 38.8097C12.9506 38.5162 13.0377 38.2571 13.2133 38.0281C13.2494 37.9811 14.1155 37.1068 15.1381 36.0852C17.0938 34.1314 17.0532 34.17 17.2612 34.072C17.4373 33.9891 17.5473 33.9651 17.7726 33.9604C17.9111 33.9574 17.9988 33.9613 18.0534 33.9728ZM44.4043 33.9854C44.5875 34.0186 44.7461 34.0824 44.9103 34.1886C45.0117 34.2542 48.6827 37.9169 48.7939 38.0633C48.9644 38.288 49.0487 38.5431 49.0487 38.8341C49.0487 39.5458 48.4874 40.1094 47.7774 40.1102C47.4829 40.1106 47.2322 40.0283 47.0035 39.8564C46.87 39.7559 43.1975 36.0763 43.1312 35.9765C42.9922 35.7671 42.9242 35.5623 42.9121 35.3159C42.8942 34.9505 43.0104 34.6316 43.2561 34.3718C43.5098 34.1037 43.8366 33.965 44.2062 33.9686C44.2678 33.9692 44.357 33.9768 44.4043 33.9854ZM31.1909 39.4332C31.4553 39.4744 31.6789 39.5883 31.8828 39.7858C32.102 39.998 32.2308 40.2628 32.2632 40.5683C32.2792 40.7183 32.2791 45.7478 32.2632 45.8873C32.2291 46.1849 32.1072 46.4417 31.8992 46.6535C31.7365 46.819 31.5379 46.9321 31.2869 47.0014C31.1516 47.0388 30.8215 47.038 30.6843 47.0006C30.4417 46.9338 30.2415 46.8199 30.0801 46.6572C29.8598 46.4349 29.7372 46.1634 29.7107 45.8382C29.7026 45.7382 29.6996 44.796 29.7024 43.1146C29.7065 40.5557 29.7066 40.5435 29.7321 40.4338C29.7896 40.1863 29.8949 39.9896 30.0629 39.8152C30.3633 39.5034 30.7664 39.3668 31.1909 39.4332Z" fill="#FFE23D"/>
    <path fill-rule="evenodd" clip-rule="evenodd" d="M31.8703 -2.61687C31.6692 -2.80797 31.4224 -2.9249 31.1467 -2.95982C31.0431 -2.97293 30.8364 -2.96363 30.7289 -2.941C30.2247 -2.83491 29.8323 -2.43218 29.7354 -1.92131C29.7186 -1.83245 29.7164 -1.51807 29.7166 0.842969C29.7167 3.39617 29.7177 3.51157 29.7396 3.61689C29.821 4.00978 30.071 4.33262 30.4306 4.50929C30.5832 4.58426 30.7023 4.61826 30.8735 4.63566C31.0998 4.65873 31.3225 4.62003 31.5309 4.5214C31.8771 4.35754 32.1103 4.08358 32.228 3.70241L32.262 3.59247V0.838573V-1.91533L32.228 -2.02525C32.1532 -2.26766 32.0389 -2.45668 31.8703 -2.61687ZM32.2818 20.7695L31.6553 20.7659C30.8343 20.7611 30.8045 20.7628 30.6021 20.8267C30.164 20.9649 29.8341 21.331 29.7337 21.7904C29.7053 21.92 29.7056 22.1811 29.7341 22.3141C29.787 22.5607 29.8993 22.7686 30.0766 22.9483C30.2027 23.0762 30.3197 23.1581 30.4727 23.2256C30.6678 23.3118 30.7432 23.3264 30.9922 23.3264C31.1809 23.3264 31.2257 23.3226 31.3086 23.2996C31.6642 23.201 31.9414 22.9861 32.1149 22.6744C32.1819 22.554 32.2185 22.46 32.2521 22.3218C32.2687 22.2533 32.2725 22.1281 32.2768 21.5052L32.2818 20.7695ZM54.9639 20.7941C54.9139 20.7859 54.8644 20.7777 54.8544 20.7757C54.7998 20.7651 49.5884 20.7712 49.5129 20.782C49.3055 20.8118 49.1449 20.8716 48.9742 20.9829C48.6904 21.1678 48.4931 21.4625 48.4183 21.8135C48.4094 21.8556 48.4032 21.9619 48.4038 22.0638C48.4048 22.2135 48.4099 22.2598 48.437 22.363C48.5765 22.8946 49.0155 23.2683 49.5631 23.3215C49.7311 23.3379 54.6721 23.3378 54.8444 23.3215C55.1521 23.2923 55.3976 23.1791 55.6217 22.9624C56.0891 22.5106 56.1414 21.7947 55.7449 21.2719C55.5576 21.0251 55.2576 20.8415 54.9639 20.7941ZM12.9285 20.916C12.8017 20.8508 12.6411 20.7991 12.5149 20.7827C12.397 20.7674 7.25633 20.7664 7.13514 20.7816C6.70874 20.8351 6.34946 21.0857 6.15379 21.4663C5.89478 21.97 5.99327 22.5699 6.39944 22.9624C6.62366 23.1791 6.86877 23.2923 7.17682 23.3215C7.35509 23.3384 12.2773 23.3384 12.4556 23.3215C12.5998 23.3078 12.761 23.266 12.8773 23.212C13.2094 23.0578 13.4853 22.7328 13.575 22.3902C13.7304 21.7967 13.4652 21.1919 12.9285 20.916ZM31.8647 39.7674C31.6612 39.5787 31.3891 39.456 31.1204 39.4308C30.9381 39.414 30.7131 39.4409 30.5629 39.4972C30.2004 39.6338 29.9274 39.9048 29.7938 40.2604C29.784 40.2868 29.7754 40.307 29.7679 40.328C29.7129 40.4814 29.7164 40.6558 29.7164 43.2345C29.7164 45.5854 29.7186 45.8989 29.7354 45.988C29.8322 46.4982 30.2273 46.9037 30.7273 47.0067C31.1454 47.0928 31.564 46.9743 31.8703 46.6835C32.0389 46.5234 32.1532 46.3343 32.228 46.0918L32.262 45.9821V43.2282V40.4743L32.2276 40.3642C32.1535 40.1271 32.0252 39.9158 31.8647 39.7674Z" fill="#FFC53D"/>
</g>
<path class="cloud2 cloud3" fill-rule="evenodd" clip-rule="evenodd" d="M28.7065 24.5989C29.8679 24.6607 30.7264 24.789 31.6898 25.0447C32.8693 25.3577 33.8669 25.7536 34.8671 26.3057L35.1726 26.4743L44.347 26.4745L53.5214 26.4747L53.4544 26.528C52.8229 27.0304 52.0383 27.7763 51.4578 28.4261C50.6767 29.3007 49.9946 30.2671 49.4008 31.3404C49.1801 31.7392 48.7622 32.6019 48.7622 32.6586C48.7622 32.6676 48.8336 32.6902 48.9208 32.7087C49.4497 32.8211 50.2238 33.0416 50.8389 33.2553C52.1825 33.7219 53.6232 34.4798 54.8261 35.3529L55.1117 35.5601H66.7428H78.3739L78.3858 35.6136C78.3924 35.6431 78.405 35.6978 78.4138 35.7352C78.4227 35.7727 78.4648 35.9959 78.5074 36.2314C78.7368 37.498 78.8035 38.7338 78.719 40.1517C78.6154 41.8893 78.1732 43.7191 77.4527 45.3912C76.077 48.5836 73.6115 51.2986 70.5769 52.9625C68.4743 54.115 66.0936 54.786 63.8376 54.861C63.5362 54.871 62.5265 54.879 61.5938 54.879L59.898 54.88L59.6726 55.322C59.4 55.858 59.2297 56.166 59.0144 56.514C58.4788 57.38 57.9177 58.14 57.3225 58.807C57.0243 59.141 56.3106 59.854 55.9919 60.136C54.3488 61.589 52.4462 62.677 50.4063 63.331C49.1644 63.729 47.7323 63.991 46.5124 64.044C45.9363 64.068 11.7068 64.067 11.5928 64.042C11.5452 64.032 11.3722 64.006 11.2082 63.984C11.0443 63.963 10.7568 63.919 10.5694 63.887C7.28167 63.331 4.32718 61.461 2.36929 58.697C1.55016 57.541 0.883922 56.168 0.518285 54.883C0.120248 53.485 -0.0268503 52.3207 0.00395429 50.8134C0.037028 49.1952 0.426991 47.4767 1.10765 45.9495C1.38988 45.3163 1.84333 44.4915 2.16545 44.0254C2.71574 43.2293 3.19804 42.6489 3.81657 42.0387C5.25428 40.6204 6.85081 39.6382 8.75281 39.0018C10.3899 38.4541 12.188 38.258 13.9835 38.4313C14.1615 38.4484 14.3124 38.4572 14.3188 38.4507C14.3252 38.4442 14.3377 38.2617 14.3466 38.0452C14.4106 36.4808 14.7231 34.9616 15.272 33.5465C15.4832 33.002 15.5706 32.8006 15.7745 32.3889C16.4625 30.999 17.2159 29.9358 18.3454 28.7606C18.7829 28.3054 19.146 27.98 19.7407 27.51C21.0242 26.4957 22.5619 25.6941 24.207 25.1817C24.4347 25.1108 25.2515 24.906 25.5241 24.8515C25.9569 24.7651 26.7435 24.6617 27.2259 24.6279C27.5243 24.607 28.4998 24.5879 28.7065 24.5989Z" fill="#B9E3F8"/>
<path class="cloud1" fill-rule="evenodd" clip-rule="evenodd" d="M28.9034 23.0058C29.4738 23.0405 30.1993 23.1229 30.6243 23.2011C30.7671 23.2274 30.9493 23.2609 31.0293 23.2757C31.2328 23.3133 32.077 23.5379 32.4218 23.6463C33.2169 23.8962 34.0653 24.2587 34.8231 24.6724L35.1527 24.8524L44.3323 24.8621L53.5119 24.8718L53.2641 25.0756C52.6828 25.5536 51.8559 26.3581 51.3438 26.9439C50.5551 27.8459 49.8542 28.873 49.25 30.0119C49.0956 30.303 48.7994 30.9253 48.7688 31.0229C48.7565 31.0623 48.7675 31.0676 48.9439 31.1075C49.5846 31.2523 50.3554 31.4731 50.9021 31.6684C52.2791 32.1602 53.6697 32.8981 54.8815 33.7801L55.1122 33.9479H66.7483H78.3845L78.4633 34.3614C78.6744 35.4698 78.7541 36.2869 78.7542 37.345C78.7542 39.1149 78.5643 40.4375 78.0731 42.0863C77.6338 43.561 76.8906 45.1134 75.9989 46.4191C74.696 48.3268 72.9997 49.9195 71.0146 51.099C70.6656 51.3063 69.8649 51.7218 69.4955 51.8872C67.9832 52.5644 66.4816 52.9771 64.8283 53.17C64.3502 53.226 63.8521 53.247 63.033 53.248C62.6407 53.248 61.7726 53.254 61.1038 53.261L59.8877 53.274L59.7138 53.626C59.363 54.335 59.1387 54.726 58.6982 55.396C58.0418 56.394 57.4821 57.073 56.5715 57.976C55.803 58.738 54.9848 59.394 54.0717 59.981C51.8607 61.401 49.4954 62.187 46.7477 62.415C46.3304 62.449 11.6347 62.452 11.5666 62.417C11.5413 62.404 11.3993 62.38 11.2513 62.363C8.83281 62.08 6.50869 61.081 4.64257 59.519C4.16525 59.12 3.48646 58.451 3.11624 58.015L0.52896 53.22C0.296252 52.4065 0.0662014 50.7577 0.0662014 50.7577C0.0662014 50.7577 0.0328372 48.7417 0.06668 48.423C0.107791 48.0359 0.201339 47.384 0.253718 47.1195C0.325423 46.7574 0.515114 46.023 0.627199 45.6735C0.957801 44.6427 1.4082 43.6694 1.98582 42.7376C2.06358 42.6122 2.12719 42.5006 2.12719 42.4895C2.12719 42.4786 2.13457 42.4695 2.14359 42.4695C2.15262 42.4695 2.19995 42.4087 2.24879 42.3344C2.33813 42.1985 2.79048 41.5902 2.93687 41.4092C3.29691 40.9639 3.90527 40.3386 4.42109 39.8836C5.44508 38.9803 6.74144 38.1826 8.01671 37.6712C9.08674 37.2421 10.2289 36.9587 11.3763 36.8378C12.0988 36.7616 13.0124 36.7458 13.6356 36.7986C13.826 36.8148 14.0652 36.8335 14.1671 36.8402L14.3525 36.8525L14.3645 36.5821C14.4415 34.8425 14.7043 33.5085 15.2607 32.0315C15.8682 30.4192 16.748 28.9493 17.8458 27.7124C18.1298 27.3924 18.6484 26.8597 18.922 26.607C19.1579 26.389 19.747 25.9051 20.0742 25.6606C20.9238 25.0255 22.056 24.3967 23.1026 23.9786C23.8039 23.6984 24.2205 23.5648 24.9518 23.3854C25.6566 23.2126 26.1339 23.1327 26.9997 23.0424C27.273 23.014 28.6137 22.9881 28.9034 23.0058Z" fill="#EBF9FF"/>
<path fill-rule="evenodd" clip-rule="evenodd" d="M48.9156 15.9793C50.3281 16.0559 51.3724 16.2147 52.5441 16.5312C53.9788 16.9187 55.1922 17.4089 56.4087 18.0924L56.7803 18.3011L67.939 18.3014L79.0978 18.3017L79.0163 18.3676C78.2482 18.9895 77.2939 19.913 76.5879 20.7175C75.6378 21.8003 74.8082 22.9967 74.0859 24.3256C73.8176 24.8193 73.3092 25.8874 73.3092 25.9575C73.3092 25.9687 73.3961 25.9967 73.5022 26.0196C74.1455 26.1587 75.0869 26.4317 75.8351 26.6962C77.4694 27.2739 79.2216 28.2122 80.6847 29.2931L81.0321 29.5498H95.1789H109.326L109.34 29.616C109.348 29.6524 109.364 29.7202 109.374 29.7665C109.385 29.8129 109.436 30.0893 109.488 30.3808C109.767 31.9489 109.848 33.4789 109.746 35.2343C109.62 37.3856 109.082 39.6509 108.205 41.7209C106.532 45.6734 103.533 49.0346 99.8424 51.0946C97.285 52.5219 94.3893 53.352 91.6454 53.4445C91.2788 53.4568 90.0507 53.4672 88.9163 53.4675L86.8536 53.4681L86.5795 54.0161C86.248 54.6789 86.0408 55.0606 85.779 55.4914C85.1274 56.5632 84.445 57.5047 83.721 58.3305C83.3583 58.7442 82.4903 59.6265 82.1027 59.9754C80.1041 61.7747 77.7901 63.1221 75.3089 63.9311C73.7984 64.4236 72.0565 64.7481 70.5729 64.8134C69.8721 64.8442 28.2389 64.8425 28.1003 64.8116C28.0424 64.7987 27.8319 64.7664 27.6325 64.7397C27.4331 64.7131 27.0835 64.6592 26.8555 64.6199C22.8567 63.9315 19.2631 61.6163 16.8818 58.1943C15.8855 56.7626 15.0751 55.0631 14.6304 53.4726C14.1463 51.7412 13.9673 50.3 14.0048 48.4339C14.045 46.4305 14.5193 44.3029 15.3472 42.4122C15.6905 41.6283 16.242 40.6071 16.6338 40.0301C17.3031 39.0444 17.8898 38.326 18.6421 37.5705C20.3907 35.8146 22.3326 34.5985 24.646 33.8107C26.6372 33.1326 28.8243 32.8898 31.0081 33.1043C31.2245 33.1256 31.4081 33.1364 31.4158 33.1284C31.4237 33.1203 31.4389 32.8944 31.4496 32.6264C31.5275 30.6896 31.9077 28.8087 32.5753 27.0568C32.8322 26.3826 32.9385 26.1333 33.1864 25.6236C34.0233 23.9029 34.9396 22.5866 36.3134 21.1316C36.8455 20.5681 37.2871 20.1652 38.0105 19.5833C39.5716 18.3276 41.4419 17.3352 43.4428 16.7008C43.7198 16.613 44.7132 16.3595 45.0449 16.2921C45.5712 16.185 46.528 16.057 47.1147 16.0152C47.4777 15.9893 48.6641 15.9657 48.9156 15.9793Z" fill="#B9E3F8"/>
<path fill-rule="evenodd" clip-rule="evenodd" d="M49.155 14.0071C49.8488 14.0502 50.7313 14.1521 51.2482 14.249C51.4219 14.2815 51.6435 14.3231 51.7407 14.3413C51.9883 14.3878 53.0151 14.666 53.4345 14.8001C54.4016 15.1095 55.4334 15.5583 56.3552 16.0705L56.7561 16.2933L67.9212 16.3054L79.0862 16.3174L78.7849 16.5697C78.0779 17.1615 77.0721 18.1574 76.4492 18.8827C75.4899 19.9994 74.6374 21.271 73.9026 22.681C73.7147 23.0414 73.3545 23.8119 73.3173 23.9327C73.3023 23.9815 73.3157 23.9881 73.5302 24.0374C74.3095 24.2167 75.247 24.49 75.912 24.7318C77.5868 25.3407 79.2781 26.2542 80.7521 27.3461L81.0327 27.554H95.1857H109.339L109.435 28.0658C109.691 29.4381 109.788 30.4498 109.788 31.7596C109.788 33.9509 109.557 35.5884 108.96 37.6296C108.426 39.4554 107.522 41.3773 106.437 42.9937C104.852 45.3556 102.789 47.3274 100.375 48.7876C99.9502 49.0444 98.9763 49.5587 98.527 49.7635C96.6876 50.6019 94.8612 51.1129 92.8503 51.3518C92.2689 51.4209 91.6631 51.4476 90.6667 51.4479C90.1896 51.4481 89.1337 51.4555 88.3202 51.4643L86.8411 51.4803L86.6296 51.9159C86.203 52.7944 85.9301 53.2786 85.3943 54.1076C84.5959 55.3429 83.9152 56.1835 82.8077 57.3014C81.873 58.2449 80.8777 59.0573 79.7672 59.7834C77.0779 61.5416 74.2011 62.5148 70.8591 62.797C70.3514 62.8399 28.1512 62.8431 28.0684 62.8003C28.0376 62.7843 27.8649 62.7537 27.6849 62.7324C24.7433 62.3832 21.9165 61.1453 19.6467 59.2125C19.0662 58.7181 18.2405 57.8896 17.7902 57.3496L14.6433 51.4141C14.3603 50.4064 14.0805 48.3651 14.0805 48.3651C14.0805 48.3651 14.0399 45.8693 14.0811 45.4747C14.1311 44.9955 14.2449 44.1883 14.3086 43.8609C14.3958 43.4127 14.6265 42.5034 14.7628 42.0707C15.1649 40.7945 15.7128 39.5895 16.4153 38.4359C16.5099 38.2807 16.5873 38.1425 16.5873 38.1288C16.5873 38.1152 16.5962 38.1041 16.6072 38.1041C16.6182 38.1041 16.6758 38.0288 16.7352 37.9368C16.8438 37.7685 17.394 37.0155 17.5721 36.7913C18.01 36.2401 18.7499 35.4659 19.3773 34.9026C20.6228 33.7842 22.1996 32.7967 23.7507 32.1635C25.0521 31.6323 26.4413 31.2815 27.8369 31.1317C28.7157 31.0374 29.827 31.0178 30.585 31.0833C30.8165 31.1032 31.1074 31.1264 31.2314 31.1347L31.4569 31.1499L31.4714 30.8152C31.5652 28.6615 31.8847 27.01 32.5616 25.1814C33.3004 23.1852 34.3705 21.3654 35.7058 19.8341C36.0512 19.438 36.682 18.7785 37.0147 18.4656C37.3016 18.1958 38.0182 17.5966 38.4161 17.2939C39.4495 16.5077 40.8266 15.7291 42.0995 15.2115C42.9526 14.8646 43.4592 14.6992 44.3488 14.4772C45.2059 14.2632 45.7865 14.1642 46.8396 14.0525C47.172 14.0173 48.8027 13.9853 49.155 14.0071Z" fill="#EBF9FF"/>
</g>
<g class="precipitation">
<path d="M24.7484 91.4126C24.7139 90.5272 24.1383 91.0337 23.8427 91.6647C23.5471 92.2952 22.6153 91.8826 22.9792 91.2282C23.3423 90.5732 24.2817 90.0099 24.1287 89.616C24.0065 89.3011 23.8033 88.7762 23.7267 88.5789C23.5661 88.6002 23.3994 88.5983 23.2313 88.5709C23.0633 88.5435 22.9051 88.4923 22.7605 88.4211C22.6226 88.5834 22.2553 89.0151 22.0351 89.2742C21.7598 89.5981 22.4604 90.4292 22.5862 91.164C22.7121 91.8989 21.6938 91.9924 21.624 91.3023C21.5543 90.6117 21.179 89.9499 20.8512 90.7763C20.5245 91.6029 19.7706 92.2695 19.3226 91.9117C18.8746 91.554 19.4063 90.7101 20.1808 90.2405C20.955 89.7719 20.2125 89.5414 19.5001 89.6067C18.7873 89.6721 18.6878 88.6866 19.4561 88.6656C20.2246 88.6443 21.2011 89.1519 21.4762 88.8281C21.6969 88.5685 22.0643 88.1366 22.2022 87.9745C22.0005 87.7237 21.8768 87.4154 21.8572 87.0867C21.6433 87.0517 21.0719 86.9585 20.7292 86.9026C20.3013 86.8327 19.91 87.8332 19.3161 88.3045C18.7223 88.7752 18.1266 87.9683 18.7087 87.5662C19.2912 87.1643 19.6944 86.5208 18.7906 86.6571C17.8873 86.7934 16.9117 86.4934 17.0064 85.9394C17.101 85.386 18.1235 85.412 18.9323 85.828C19.7417 86.2441 19.5744 85.5074 19.1572 84.9425C18.7405 84.3773 19.5723 83.8035 19.9774 84.4372C20.3823 85.0715 20.4193 86.1421 20.8473 86.212C21.19 86.268 21.7614 86.3612 21.9753 86.3962C22.1031 86.0916 22.3226 85.8391 22.5968 85.6662C22.5203 85.4691 22.3167 84.9439 22.1943 84.6283C22.0419 84.2347 20.9495 84.4039 20.2298 84.1402C19.5102 83.8763 19.9322 82.9758 20.5845 83.2643C21.2366 83.5521 22.0153 83.5709 21.4392 82.8812C20.8629 82.191 20.6408 81.2241 21.1837 81.0279C21.7264 80.8318 22.2173 81.7023 22.2514 82.5874C22.2866 83.4726 22.8616 82.9659 23.1573 82.3353C23.4527 81.7053 24.3846 82.1171 24.0212 82.7718C23.6578 83.4267 22.7187 83.9902 22.8713 84.3839C22.9933 84.699 23.197 85.2239 23.2735 85.4208C23.4339 85.3997 23.6005 85.4017 23.7686 85.4292C23.9366 85.4566 24.0949 85.5076 24.2397 85.5785C24.3778 85.4168 24.7446 84.9849 24.9648 84.7257C25.2406 84.402 24.5397 83.5707 24.4141 82.8359C24.2878 82.1013 25.3061 82.0079 25.3759 82.6976C25.4456 83.3879 25.8214 84.0502 26.1486 83.2238C26.4754 82.3975 27.2292 81.7301 27.6772 82.0882C28.1255 82.4462 27.5936 83.29 26.819 83.7596C26.0448 84.2289 26.7873 84.4585 27.4998 84.3934C28.2126 84.3278 28.3122 85.3136 27.5438 85.3345C26.7757 85.3552 25.7994 84.8483 25.5237 85.1719C25.3029 85.4316 24.9356 85.8635 24.798 86.0256C24.9997 86.2762 25.1231 86.5847 25.1426 86.9134C25.3566 86.9483 25.9279 87.0415 26.2706 87.0975C26.6986 87.1674 27.0899 86.1667 27.6837 85.6955C28.2776 85.2249 28.8733 86.0318 28.2913 86.4339C27.7087 86.8356 27.3056 87.4791 28.2094 87.3428C29.1128 87.2064 30.0883 87.5065 29.9936 88.06C29.8989 88.614 28.8767 88.5876 28.0676 88.1719C27.2583 87.7558 27.4255 88.4925 27.8426 89.0576C28.2593 89.6229 27.4275 90.1966 27.0225 89.5628C26.6176 88.9285 26.5805 87.858 26.1526 87.7881C25.8099 87.7322 25.2386 87.6388 25.0246 87.6039C24.8967 87.9085 24.6775 88.1608 24.4032 88.334C24.4796 88.5309 24.6832 89.0561 24.8055 89.3718C24.9586 89.7655 26.0506 89.5956 26.77 89.8599C27.4896 90.1238 27.0677 91.0241 26.4154 90.7359C25.7632 90.4477 24.9845 90.4292 25.5606 91.119C26.1369 91.8088 26.3592 92.7764 25.8163 92.972C25.2734 93.1684 24.7825 92.2978 24.7484 91.4126ZM24.42 87.15C24.504 86.6587 24.1604 86.1928 23.6522 86.1099C23.1441 86.0269 22.6642 86.3583 22.5802 86.8496C22.4961 87.3414 22.8397 87.807 23.3477 87.89C23.856 87.973 24.3359 87.6418 24.42 87.15Z" fill="#CAEFFF"/>
<path d="M90.7484 73.4126C90.7139 72.5272 90.1383 73.0337 89.8427 73.6647C89.5471 74.2952 88.6153 73.8826 88.9792 73.2282C89.3423 72.5732 90.2817 72.0099 90.1287 71.616C90.0065 71.3011 89.8033 70.7762 89.7267 70.5789C89.5661 70.6002 89.3994 70.5983 89.2313 70.5709C89.0633 70.5435 88.9051 70.4923 88.7605 70.4211C88.6226 70.5834 88.2553 71.0151 88.0351 71.2742C87.7598 71.5981 88.4604 72.4292 88.5862 73.164C88.7121 73.8989 87.6938 73.9924 87.624 73.3023C87.5543 72.6117 87.179 71.9499 86.8512 72.7763C86.5245 73.6029 85.7706 74.2695 85.3226 73.9117C84.8746 73.554 85.4063 72.7101 86.1808 72.2405C86.955 71.7719 86.2125 71.5414 85.5001 71.6067C84.7873 71.6721 84.6878 70.6866 85.4561 70.6656C86.2246 70.6443 87.2011 71.1519 87.4762 70.8281C87.6969 70.5685 88.0643 70.1366 88.2022 69.9745C88.0005 69.7237 87.8768 69.4154 87.8572 69.0867C87.6433 69.0517 87.0719 68.9585 86.7292 68.9026C86.3013 68.8327 85.91 69.8332 85.3161 70.3045C84.7223 70.7752 84.1266 69.9683 84.7087 69.5662C85.2912 69.1643 85.6944 68.5208 84.7906 68.6571C83.8873 68.7934 82.9117 68.4934 83.0064 67.9394C83.101 67.386 84.1235 67.412 84.9323 67.828C85.7417 68.2441 85.5744 67.5074 85.1572 66.9425C84.7405 66.3773 85.5723 65.8035 85.9774 66.4372C86.3823 67.0715 86.4193 68.1421 86.8473 68.212C87.19 68.268 87.7614 68.3612 87.9753 68.3962C88.1031 68.0916 88.3226 67.8391 88.5968 67.6662C88.5203 67.4691 88.3167 66.9439 88.1943 66.6283C88.0419 66.2347 86.9495 66.4039 86.2298 66.1402C85.5102 65.8763 85.9322 64.9758 86.5845 65.2643C87.2366 65.5521 88.0153 65.5709 87.4392 64.8812C86.8629 64.191 86.6408 63.2241 87.1837 63.0279C87.7264 62.8318 88.2173 63.7023 88.2514 64.5874C88.2866 65.4726 88.8616 64.9659 89.1573 64.3353C89.4527 63.7053 90.3846 64.1171 90.0212 64.7718C89.6578 65.4267 88.7187 65.9902 88.8713 66.3839C88.9933 66.699 89.197 67.2239 89.2735 67.4208C89.4339 67.3997 89.6005 67.4017 89.7686 67.4292C89.9366 67.4566 90.0949 67.5076 90.2397 67.5785C90.3778 67.4168 90.7446 66.9849 90.9648 66.7257C91.2406 66.402 90.5397 65.5707 90.4141 64.8359C90.2878 64.1013 91.3061 64.0079 91.3759 64.6976C91.4456 65.3879 91.8214 66.0502 92.1486 65.2238C92.4754 64.3975 93.2292 63.7301 93.6772 64.0882C94.1255 64.4462 93.5936 65.29 92.819 65.7596C92.0448 66.2289 92.7873 66.4585 93.4998 66.3934C94.2126 66.3278 94.3122 67.3136 93.5438 67.3345C92.7757 67.3552 91.7994 66.8483 91.5237 67.1719C91.3029 67.4316 90.9356 67.8635 90.798 68.0256C90.9997 68.2762 91.1231 68.5847 91.1426 68.9134C91.3566 68.9483 91.9279 69.0415 92.2706 69.0975C92.6986 69.1674 93.0899 68.1667 93.6837 67.6955C94.2776 67.2249 94.8733 68.0318 94.2913 68.4339C93.7087 68.8356 93.3056 69.4791 94.2094 69.3428C95.1128 69.2064 96.0883 69.5065 95.9936 70.06C95.8989 70.614 94.8767 70.5876 94.0676 70.1719C93.2583 69.7558 93.4255 70.4925 93.8426 71.0576C94.2593 71.6229 93.4275 72.1966 93.0225 71.5628C92.6176 70.9285 92.5805 69.858 92.1526 69.7881C91.8099 69.7322 91.2386 69.6388 91.0246 69.6039C90.8967 69.9085 90.6775 70.1608 90.4032 70.334C90.4796 70.5309 90.6832 71.0561 90.8055 71.3718C90.9586 71.7655 92.0506 71.5956 92.77 71.8599C93.4896 72.1238 93.0677 73.0241 92.4154 72.7359C91.7632 72.4477 90.9845 72.4292 91.5606 73.119C92.1369 73.8088 92.3592 74.7764 91.8163 74.972C91.2734 75.1684 90.7825 74.2978 90.7484 73.4126ZM90.42 69.15C90.504 68.6587 90.1604 68.1928 89.6522 68.1099C89.1441 68.0269 88.6642 68.3583 88.5802 68.8496C88.4961 69.3414 88.8397 69.807 89.3477 69.89C89.856 69.973 90.3359 69.6418 90.42 69.15Z" fill="#CAEFFF"/>
<path d="M15.7484 73.4126C15.7139 72.5272 15.1383 73.0337 14.8427 73.6647C14.5471 74.2952 13.6153 73.8826 13.9792 73.2282C14.3423 72.5732 15.2817 72.0099 15.1287 71.616C15.0065 71.3011 14.8033 70.7762 14.7267 70.5789C14.5661 70.6002 14.3994 70.5983 14.2313 70.5709C14.0633 70.5435 13.9051 70.4923 13.7605 70.4211C13.6226 70.5834 13.2553 71.0151 13.0351 71.2742C12.7598 71.5981 13.4604 72.4292 13.5862 73.164C13.7121 73.8989 12.6938 73.9924 12.624 73.3023C12.5543 72.6117 12.179 71.9499 11.8512 72.7763C11.5245 73.6029 10.7706 74.2695 10.3226 73.9117C9.87456 73.554 10.4063 72.7101 11.1808 72.2405C11.955 71.7719 11.2125 71.5414 10.5001 71.6067C9.78731 71.6721 9.68776 70.6866 10.4561 70.6656C11.2246 70.6443 12.2011 71.1519 12.4762 70.8281C12.6969 70.5685 13.0643 70.1366 13.2022 69.9745C13.0005 69.7237 12.8768 69.4154 12.8572 69.0867C12.6433 69.0517 12.0719 68.9585 11.7292 68.9026C11.3013 68.8327 10.91 69.8332 10.3161 70.3045C9.72226 70.7752 9.12657 69.9683 9.70866 69.5662C10.2912 69.1643 10.6944 68.5208 9.79064 68.6571C8.88728 68.7934 7.91167 68.4934 8.00639 67.9394C8.10102 67.386 9.1235 67.412 9.93232 67.828C10.7417 68.2441 10.5744 67.5074 10.1572 66.9425C9.74052 66.3773 10.5723 65.8035 10.9774 66.4372C11.3823 67.0715 11.4193 68.1421 11.8473 68.212C12.19 68.268 12.7614 68.3612 12.9753 68.3962C13.1031 68.0916 13.3226 67.8391 13.5968 67.6662C13.5203 67.4691 13.3167 66.9439 13.1943 66.6283C13.0419 66.2347 11.9495 66.4039 11.2298 66.1402C10.5102 65.8763 10.9322 64.9758 11.5845 65.2643C12.2366 65.5521 13.0153 65.5709 12.4392 64.8812C11.8629 64.191 11.6408 63.2241 12.1837 63.0279C12.7264 62.8318 13.2173 63.7023 13.2514 64.5874C13.2866 65.4726 13.8616 64.9659 14.1573 64.3353C14.4527 63.7053 15.3846 64.1171 15.0212 64.7718C14.6578 65.4267 13.7187 65.9902 13.8713 66.3839C13.9933 66.699 14.197 67.2239 14.2735 67.4208C14.4339 67.3997 14.6005 67.4017 14.7686 67.4292C14.9366 67.4566 15.0949 67.5076 15.2397 67.5785C15.3778 67.4168 15.7446 66.9849 15.9648 66.7257C16.2406 66.402 15.5397 65.5707 15.4141 64.8359C15.2878 64.1013 16.3061 64.0079 16.3759 64.6976C16.4456 65.3879 16.8214 66.0502 17.1486 65.2238C17.4754 64.3975 18.2292 63.7301 18.6772 64.0882C19.1255 64.4462 18.5936 65.29 17.819 65.7596C17.0448 66.2289 17.7873 66.4585 18.4998 66.3934C19.2126 66.3278 19.3122 67.3136 18.5438 67.3345C17.7757 67.3552 16.7994 66.8483 16.5237 67.1719C16.3029 67.4316 15.9356 67.8635 15.798 68.0256C15.9997 68.2762 16.1231 68.5847 16.1426 68.9134C16.3566 68.9483 16.9279 69.0415 17.2706 69.0975C17.6986 69.1674 18.0899 68.1667 18.6837 67.6955C19.2776 67.2249 19.8733 68.0318 19.2913 68.4339C18.7087 68.8356 18.3056 69.4791 19.2094 69.3428C20.1128 69.2064 21.0883 69.5065 20.9936 70.06C20.8989 70.614 19.8767 70.5876 19.0676 70.1719C18.2583 69.7558 18.4255 70.4925 18.8426 71.0576C19.2593 71.6229 18.4275 72.1966 18.0225 71.5628C17.6176 70.9285 17.5805 69.858 17.1526 69.7881C16.8099 69.7322 16.2386 69.6388 16.0246 69.6039C15.8967 69.9085 15.6775 70.1608 15.4032 70.334C15.4796 70.5309 15.6832 71.0561 15.8055 71.3718C15.9586 71.7655 17.0506 71.5956 17.77 71.8599C18.4896 72.1238 18.0677 73.0241 17.4154 72.7359C16.7632 72.4477 15.9845 72.4292 16.5606 73.119C17.1369 73.8088 17.3592 74.7764 16.8163 74.972C16.2734 75.1684 15.7825 74.2978 15.7484 73.4126ZM15.42 69.15C15.504 68.6587 15.1604 68.1928 14.6522 68.1099C14.1441 68.0269 13.6642 68.3583 13.5802 68.8496C13.4961 69.3414 13.8397 69.807 14.3477 69.89C14.856 69.973 15.3359 69.6418 15.42 69.15Z" fill="#CAEFFF"/>
<path d="M62.7484 85.4126C62.7139 84.5272 62.1383 85.0337 61.8427 85.6647C61.5471 86.2952 60.6153 85.8826 60.9792 85.2282C61.3423 84.5732 62.2817 84.0099 62.1287 83.616C62.0065 83.3011 61.8033 82.7762 61.7267 82.5789C61.5661 82.6002 61.3994 82.5983 61.2313 82.5709C61.0633 82.5435 60.9051 82.4923 60.7605 82.4211C60.6226 82.5834 60.2553 83.0151 60.0351 83.2742C59.7598 83.5981 60.4604 84.4292 60.5862 85.164C60.7121 85.8989 59.6938 85.9924 59.624 85.3023C59.5543 84.6117 59.179 83.9499 58.8512 84.7763C58.5245 85.6029 57.7706 86.2695 57.3226 85.9117C56.8746 85.554 57.4063 84.7101 58.1808 84.2405C58.955 83.7719 58.2125 83.5414 57.5001 83.6067C56.7873 83.6721 56.6878 82.6866 57.4561 82.6656C58.2246 82.6443 59.2011 83.1519 59.4762 82.8281C59.6969 82.5685 60.0643 82.1366 60.2022 81.9745C60.0005 81.7237 59.8768 81.4154 59.8572 81.0867C59.6433 81.0517 59.0719 80.9585 58.7292 80.9026C58.3013 80.8327 57.91 81.8332 57.3161 82.3045C56.7223 82.7752 56.1266 81.9683 56.7087 81.5662C57.2912 81.1643 57.6944 80.5208 56.7906 80.6571C55.8873 80.7934 54.9117 80.4934 55.0064 79.9394C55.101 79.386 56.1235 79.412 56.9323 79.828C57.7417 80.2441 57.5744 79.5074 57.1572 78.9425C56.7405 78.3773 57.5723 77.8035 57.9774 78.4372C58.3823 79.0715 58.4193 80.1421 58.8473 80.212C59.19 80.268 59.7614 80.3612 59.9753 80.3962C60.1031 80.0916 60.3226 79.8391 60.5968 79.6662C60.5203 79.4691 60.3167 78.9439 60.1943 78.6283C60.0419 78.2347 58.9495 78.4039 58.2298 78.1402C57.5102 77.8763 57.9322 76.9758 58.5845 77.2643C59.2366 77.5521 60.0153 77.5709 59.4392 76.8812C58.8629 76.191 58.6408 75.2241 59.1837 75.0279C59.7264 74.8318 60.2173 75.7023 60.2514 76.5874C60.2866 77.4726 60.8616 76.9659 61.1573 76.3353C61.4527 75.7053 62.3846 76.1171 62.0212 76.7718C61.6578 77.4267 60.7187 77.9902 60.8713 78.3839C60.9933 78.699 61.197 79.2239 61.2735 79.4208C61.4339 79.3997 61.6005 79.4017 61.7686 79.4292C61.9366 79.4566 62.0949 79.5076 62.2397 79.5785C62.3778 79.4168 62.7446 78.9849 62.9648 78.7257C63.2406 78.402 62.5397 77.5707 62.4141 76.8359C62.2878 76.1013 63.3061 76.0079 63.3759 76.6976C63.4456 77.3879 63.8214 78.0502 64.1486 77.2238C64.4754 76.3975 65.2292 75.7301 65.6772 76.0882C66.1255 76.4462 65.5936 77.29 64.819 77.7596C64.0448 78.2289 64.7873 78.4585 65.4998 78.3934C66.2126 78.3278 66.3122 79.3136 65.5438 79.3345C64.7757 79.3552 63.7994 78.8483 63.5237 79.1719C63.3029 79.4316 62.9356 79.8635 62.798 80.0256C62.9997 80.2762 63.1231 80.5847 63.1426 80.9134C63.3566 80.9483 63.9279 81.0415 64.2706 81.0975C64.6986 81.1674 65.0899 80.1667 65.6837 79.6955C66.2776 79.2249 66.8733 80.0318 66.2913 80.4339C65.7087 80.8356 65.3056 81.4791 66.2094 81.3428C67.1128 81.2064 68.0883 81.5065 67.9936 82.06C67.8989 82.614 66.8767 82.5876 66.0676 82.1719C65.2583 81.7558 65.4255 82.4925 65.8426 83.0576C66.2593 83.6229 65.4275 84.1966 65.0225 83.5628C64.6176 82.9285 64.5805 81.858 64.1526 81.7881C63.8099 81.7322 63.2386 81.6388 63.0246 81.6039C62.8967 81.9085 62.6775 82.1608 62.4032 82.334C62.4796 82.5309 62.6832 83.0561 62.8055 83.3718C62.9586 83.7655 64.0506 83.5956 64.77 83.8599C65.4896 84.1238 65.0677 85.0241 64.4154 84.7359C63.7632 84.4477 62.9845 84.4292 63.5606 85.119C64.1369 85.8088 64.3592 86.7764 63.8163 86.972C63.2734 87.1684 62.7825 86.2978 62.7484 85.4126ZM62.42 81.15C62.504 80.6587 62.1604 80.1928 61.6522 80.1099C61.1441 80.0269 60.6642 80.3583 60.5802 80.8496C60.4961 81.3414 60.8397 81.807 61.3477 81.89C61.856 81.973 62.3359 81.6418 62.42 81.15Z" fill="#CAEFFF"/>
<path d="M24.7484 91.4126C24.7139 90.5272 24.1383 91.0337 23.8427 91.6647C23.5471 92.2952 22.6153 91.8826 22.9792 91.2282C23.3423 90.5732 24.2817 90.0099 24.1287 89.616C24.0065 89.3011 23.8033 88.7762 23.7267 88.5789C23.5661 88.6002 23.3994 88.5983 23.2313 88.5709C23.0633 88.5435 22.9051 88.4923 22.7605 88.4211C22.6226 88.5834 22.2553 89.0151 22.0351 89.2742C21.7598 89.5981 22.4604 90.4292 22.5862 91.164C22.7121 91.8989 21.6938 91.9924 21.624 91.3023C21.5543 90.6117 21.179 89.9499 20.8512 90.7763C20.5245 91.6029 19.7706 92.2695 19.3226 91.9117C18.8746 91.554 19.4063 90.7101 20.1808 90.2405C20.955 89.7719 20.2125 89.5414 19.5001 89.6067C18.7873 89.6721 18.6878 88.6866 19.4561 88.6656C20.2246 88.6443 21.2011 89.1519 21.4762 88.8281C21.6969 88.5685 22.0643 88.1366 22.2022 87.9745C22.0005 87.7237 21.8768 87.4154 21.8572 87.0867C21.6433 87.0517 21.0719 86.9585 20.7292 86.9026C20.3013 86.8327 19.91 87.8332 19.3161 88.3045C18.7223 88.7752 18.1266 87.9683 18.7087 87.5662C19.2912 87.1643 19.6944 86.5208 18.7906 86.6571C17.8873 86.7934 16.9117 86.4934 17.0064 85.9394C17.101 85.386 18.1235 85.412 18.9323 85.828C19.7417 86.2441 19.5744 85.5074 19.1572 84.9425C18.7405 84.3773 19.5723 83.8035 19.9774 84.4372C20.3823 85.0715 20.4193 86.1421 20.8473 86.212C21.19 86.268 21.7614 86.3612 21.9753 86.3962C22.1031 86.0916 22.3226 85.8391 22.5968 85.6662C22.5203 85.4691 22.3167 84.9439 22.1943 84.6283C22.0419 84.2347 20.9495 84.4039 20.2298 84.1402C19.5102 83.8763 19.9322 82.9758 20.5845 83.2643C21.2366 83.5521 22.0153 83.5709 21.4392 82.8812C20.8629 82.191 20.6408 81.2241 21.1837 81.0279C21.7264 80.8318 22.2173 81.7023 22.2514 82.5874C22.2866 83.4726 22.8616 82.9659 23.1573 82.3353C23.4527 81.7053 24.3846 82.1171 24.0212 82.7718C23.6578 83.4267 22.7187 83.9902 22.8713 84.3839C22.9933 84.699 23.197 85.2239 23.2735 85.4208C23.4339 85.3997 23.6005 85.4017 23.7686 85.4292C23.9366 85.4566 24.0949 85.5076 24.2397 85.5785C24.3778 85.4168 24.7446 84.9849 24.9648 84.7257C25.2406 84.402 24.5397 83.5707 24.4141 82.8359C24.2878 82.1013 25.3061 82.0079 25.3759 82.6976C25.4456 83.3879 25.8214 84.0502 26.1486 83.2238C26.4754 82.3975 27.2292 81.7301 27.6772 82.0882C28.1255 82.4462 27.5936 83.29 26.819 83.7596C26.0448 84.2289 26.7873 84.4585 27.4998 84.3934C28.2126 84.3278 28.3122 85.3136 27.5438 85.3345C26.7757 85.3552 25.7994 84.8483 25.5237 85.1719C25.3029 85.4316 24.9356 85.8635 24.798 86.0256C24.9997 86.2762 25.1231 86.5847 25.1426 86.9134C25.3566 86.9483 25.9279 87.0415 26.2706 87.0975C26.6986 87.1674 27.0899 86.1667 27.6837 85.6955C28.2776 85.2249 28.8733 86.0318 28.2913 86.4339C27.7087 86.8356 27.3056 87.4791 28.2094 87.3428C29.1128 87.2064 30.0883 87.5065 29.9936 88.06C29.8989 88.614 28.8767 88.5876 28.0676 88.1719C27.2583 87.7558 27.4255 88.4925 27.8426 89.0576C28.2593 89.6229 27.4275 90.1966 27.0225 89.5628C26.6176 88.9285 26.5805 87.858 26.1526 87.7881C25.8099 87.7322 25.2386 87.6388 25.0246 87.6039C24.8967 87.9085 24.6775 88.1608 24.4032 88.334C24.4796 88.5309 24.6832 89.0561 24.8055 89.3718C24.9586 89.7655 26.0506 89.5956 26.77 89.8599C27.4896 90.1238 27.0677 91.0241 26.4154 90.7359C25.7632 90.4477 24.9845 90.4292 25.5606 91.119C26.1369 91.8088 26.3592 92.7764 25.8163 92.972C25.2734 93.1684 24.7825 92.2978 24.7484 91.4126ZM24.42 87.15C24.504 86.6587 24.1604 86.1928 23.6522 86.1099C23.1441 86.0269 22.6642 86.3583 22.5802 86.8496C22.4961 87.3414 22.8397 87.807 23.3477 87.89C23.856 87.973 24.3359 87.6418 24.42 87.15Z" fill="#CAEFFF"/>
</g>
</g>

</svg>
