<svg width="100" height="100" viewBox="0 0 110 119" fill="none" xmlns="http://www.w3.org/2000/svg">
<g clip-path="url(#clip0_41_319)">
<g mask="url(#mask0_41_319)">
<g class="sun">
    <path fill-rule="evenodd" clip-rule="evenodd" d="M31.2139 -2.95661C31.7227 -2.85999 32.1157 -2.48493 32.242 -1.97544L32.2683 -1.86948L32.2722 0.743949C32.2748 2.43693 32.2719 3.40039 32.2639 3.47952C32.2329 3.78849 32.121 4.02904 31.9049 4.25185C31.5221 4.64647 30.9409 4.75489 30.4475 4.52371C30.0847 4.35368 29.8258 4.02887 29.7321 3.62607C29.7066 3.51663 29.7065 3.50428 29.7024 0.945453C29.6996 -0.736109 29.7026 -1.67818 29.7107 -1.77832C29.7574 -2.35058 30.1277 -2.7922 30.6843 -2.93941C30.8103 -2.97274 31.0824 -2.98157 31.2139 -2.95661ZM47.9134 3.98685C48.4078 4.04375 48.8239 4.37789 48.9832 4.84596C49.0277 4.97695 49.0487 5.11206 49.0485 5.26688C49.0483 5.51533 48.9866 5.72965 48.8526 5.94822C48.7914 6.04795 48.6467 6.19625 46.9795 7.86808C45.9858 8.86453 45.1263 9.7209 45.0695 9.77108C44.8102 10.0002 44.5381 10.1049 44.2022 10.1048C43.8599 10.1047 43.5752 9.99234 43.3298 9.76041C43.092 9.5357 42.9672 9.28154 42.9301 8.9466C42.8985 8.6602 42.9806 8.34502 43.151 8.09909C43.195 8.03563 43.7537 7.46985 45.1083 6.11691C46.8931 4.33422 47.01 4.22004 47.1077 4.16327C47.3534 4.02042 47.6468 3.95617 47.9134 3.98685ZM14.3631 4.01152C14.6109 4.0416 14.8247 4.12797 15.0137 4.27438C15.0506 4.303 15.9165 5.1635 16.9379 6.18663C18.2075 7.45834 18.8115 8.07156 18.8469 8.12477C18.9204 8.23521 18.9987 8.40801 19.0302 8.52929C19.0716 8.68886 19.0769 8.9363 19.0426 9.10297C18.9432 9.58542 18.5855 9.96145 18.1048 10.0889C18.0041 10.1156 17.9586 10.1205 17.8031 10.1215C17.6942 10.1222 17.5904 10.1162 17.5468 10.1068C17.3631 10.067 17.1877 9.99146 17.0415 9.88917C16.99 9.85316 16.2852 9.15685 15.0919 7.96284C13.637 6.50724 13.2107 6.07396 13.1677 6.00723C13.0025 5.75083 12.9421 5.53163 12.9534 5.22935C12.9607 5.0349 12.9903 4.90845 13.0659 4.74808C13.1379 4.59541 13.2058 4.49846 13.322 4.38226C13.5109 4.19323 13.7335 4.07413 13.9808 4.02975C14.1159 4.00551 14.2578 3.99874 14.3631 4.01152ZM31.6344 7.41316C31.668 7.41556 31.7943 7.42346 31.9152 7.43069C33.7121 7.53839 35.4581 7.97734 37.134 8.74278C37.4013 8.86486 37.9642 9.1555 38.2388 9.31318C39.2704 9.9056 40.1784 10.5773 41.0272 11.3759C42.5257 12.786 43.699 14.4777 44.5073 16.394C44.8064 17.1031 45.0776 17.9477 45.2571 18.7295C45.4971 19.775 45.6101 20.7214 45.6264 21.8224C45.6492 23.3613 45.4545 24.7675 45.0135 26.2507C44.8528 26.791 44.5807 27.5263 44.3766 27.9713C44.3596 28.0082 44.3132 28.1099 44.2735 28.1972C44.174 28.4153 43.8862 28.9765 43.7598 29.1986C42.9985 30.5359 42.1148 31.6617 41.0079 32.7041C40.1664 33.4965 39.2189 34.1935 38.19 34.7768C35.585 36.2536 32.5262 36.8927 29.5286 36.5863C26.7002 36.2971 24.066 35.219 21.8561 33.4459C21.4051 33.0841 21.0408 32.7532 20.5799 32.2865C20.1555 31.8568 19.8258 31.4827 19.4676 31.0243C18.2242 29.4334 17.3063 27.5584 16.822 25.6204C16.4323 24.0609 16.3 22.483 16.4243 20.8759C16.5687 19.0079 17.0769 17.1732 17.9128 15.5025C18.4983 14.3321 19.2041 13.2926 20.1018 12.2785C20.3249 12.0265 20.962 11.387 21.2213 11.1548C23.0167 9.54743 25.1378 8.41646 27.4365 7.84097C28.2994 7.62497 29.0357 7.50986 30.0718 7.42909C30.2324 7.41661 31.5016 7.40366 31.6344 7.41316ZM54.9616 20.785C55.4512 20.8822 55.8317 21.2371 55.9649 21.7199C56.0117 21.8891 56.019 22.1186 55.983 22.2916C55.9689 22.3616 55.9408 22.4605 55.9212 22.5115C55.8194 22.7749 55.6085 23.0201 55.3626 23.1609C55.2448 23.2284 55.0284 23.3014 54.8962 23.3183C54.8234 23.3275 53.992 23.3305 52.131 23.328L49.4699 23.3245L49.3661 23.2955C48.894 23.1636 48.5565 22.8319 48.432 22.3776C48.3925 22.2335 48.3792 22.0138 48.401 21.8643C48.481 21.3177 48.9068 20.8791 49.4501 20.7839C49.5976 20.7581 54.8316 20.7591 54.9616 20.785ZM12.568 20.7841C13.0545 20.8724 13.4515 21.2411 13.5816 21.7255C13.6108 21.8342 13.6141 21.8678 13.6139 22.0483C13.6136 22.2129 13.6089 22.2667 13.5884 22.3418C13.5199 22.593 13.408 22.7914 13.2423 22.9551C13.0793 23.1164 12.8834 23.2271 12.6372 23.2973L12.5416 23.3245L9.88035 23.328C8.01767 23.3305 7.18793 23.3276 7.11531 23.3183C6.98322 23.3014 6.76678 23.2284 6.64887 23.1609C6.40289 23.0201 6.19206 22.7749 6.0903 22.5115C6.07065 22.4605 6.04271 22.3616 6.02825 22.2916C5.99248 22.1186 5.99981 21.8891 6.04648 21.7199C6.18057 21.2337 6.56508 20.8779 7.05732 20.7845C7.14241 20.7684 7.48902 20.7662 9.8176 20.7671C11.9461 20.768 12.4981 20.7714 12.568 20.7841ZM18.0534 33.9728C18.525 34.0719 18.9037 34.4194 19.0348 34.8736C19.1396 35.2367 19.0809 35.619 18.8701 35.9459C18.8326 36.0041 18.3204 36.5246 16.9499 37.8974C15.9219 38.927 15.0534 39.7908 15.0198 39.8169C14.8728 39.9308 14.7083 40.0106 14.5254 40.0568C14.3826 40.0926 14.0438 40.09 13.9028 40.0514C13.6292 39.977 13.3677 39.8022 13.2084 39.587C13.0345 39.3525 12.9506 39.0995 12.9506 38.8097C12.9506 38.5162 13.0377 38.2571 13.2133 38.0281C13.2494 37.9811 14.1155 37.1068 15.1381 36.0852C17.0938 34.1314 17.0532 34.17 17.2612 34.072C17.4373 33.9891 17.5473 33.9651 17.7726 33.9604C17.9111 33.9574 17.9988 33.9613 18.0534 33.9728ZM44.4043 33.9854C44.5875 34.0186 44.7461 34.0824 44.9103 34.1886C45.0117 34.2542 48.6827 37.9169 48.7939 38.0633C48.9644 38.288 49.0487 38.5431 49.0487 38.8341C49.0487 39.5458 48.4874 40.1094 47.7774 40.1102C47.4829 40.1106 47.2322 40.0283 47.0035 39.8564C46.87 39.7559 43.1975 36.0763 43.1312 35.9765C42.9922 35.7671 42.9242 35.5623 42.9121 35.3159C42.8942 34.9505 43.0104 34.6316 43.2561 34.3718C43.5098 34.1037 43.8366 33.965 44.2062 33.9686C44.2678 33.9692 44.357 33.9768 44.4043 33.9854ZM31.1909 39.4332C31.4553 39.4744 31.6789 39.5883 31.8828 39.7858C32.102 39.998 32.2308 40.2628 32.2632 40.5683C32.2792 40.7183 32.2791 45.7478 32.2632 45.8873C32.2291 46.1849 32.1072 46.4417 31.8992 46.6535C31.7365 46.819 31.5379 46.9321 31.2869 47.0014C31.1516 47.0388 30.8215 47.038 30.6843 47.0006C30.4417 46.9338 30.2415 46.8199 30.0801 46.6572C29.8598 46.4349 29.7372 46.1634 29.7107 45.8382C29.7026 45.7382 29.6996 44.796 29.7024 43.1146C29.7065 40.5557 29.7066 40.5435 29.7321 40.4338C29.7896 40.1863 29.8949 39.9896 30.0629 39.8152C30.3633 39.5034 30.7664 39.3668 31.1909 39.4332Z" fill="#FFE23D"/>
    <path fill-rule="evenodd" clip-rule="evenodd" d="M31.8703 -2.61687C31.6692 -2.80797 31.4224 -2.9249 31.1467 -2.95982C31.0431 -2.97293 30.8364 -2.96363 30.7289 -2.941C30.2247 -2.83491 29.8323 -2.43218 29.7354 -1.92131C29.7186 -1.83245 29.7164 -1.51807 29.7166 0.842969C29.7167 3.39617 29.7177 3.51157 29.7396 3.61689C29.821 4.00978 30.071 4.33262 30.4306 4.50929C30.5832 4.58426 30.7023 4.61826 30.8735 4.63566C31.0998 4.65873 31.3225 4.62003 31.5309 4.5214C31.8771 4.35754 32.1103 4.08358 32.228 3.70241L32.262 3.59247V0.838573V-1.91533L32.228 -2.02525C32.1532 -2.26766 32.0389 -2.45668 31.8703 -2.61687ZM32.2818 20.7695L31.6553 20.7659C30.8343 20.7611 30.8045 20.7628 30.6021 20.8267C30.164 20.9649 29.8341 21.331 29.7337 21.7904C29.7053 21.92 29.7056 22.1811 29.7341 22.3141C29.787 22.5607 29.8993 22.7686 30.0766 22.9483C30.2027 23.0762 30.3197 23.1581 30.4727 23.2256C30.6678 23.3118 30.7432 23.3264 30.9922 23.3264C31.1809 23.3264 31.2257 23.3226 31.3086 23.2996C31.6642 23.201 31.9414 22.9861 32.1149 22.6744C32.1819 22.554 32.2185 22.46 32.2521 22.3218C32.2687 22.2533 32.2725 22.1281 32.2768 21.5052L32.2818 20.7695ZM54.9639 20.7941C54.9139 20.7859 54.8644 20.7777 54.8544 20.7757C54.7998 20.7651 49.5884 20.7712 49.5129 20.782C49.3055 20.8118 49.1449 20.8716 48.9742 20.9829C48.6904 21.1678 48.4931 21.4625 48.4183 21.8135C48.4094 21.8556 48.4032 21.9619 48.4038 22.0638C48.4048 22.2135 48.4099 22.2598 48.437 22.363C48.5765 22.8946 49.0155 23.2683 49.5631 23.3215C49.7311 23.3379 54.6721 23.3378 54.8444 23.3215C55.1521 23.2923 55.3976 23.1791 55.6217 22.9624C56.0891 22.5106 56.1414 21.7947 55.7449 21.2719C55.5576 21.0251 55.2576 20.8415 54.9639 20.7941ZM12.9285 20.916C12.8017 20.8508 12.6411 20.7991 12.5149 20.7827C12.397 20.7674 7.25633 20.7664 7.13514 20.7816C6.70874 20.8351 6.34946 21.0857 6.15379 21.4663C5.89478 21.97 5.99327 22.5699 6.39944 22.9624C6.62366 23.1791 6.86877 23.2923 7.17682 23.3215C7.35509 23.3384 12.2773 23.3384 12.4556 23.3215C12.5998 23.3078 12.761 23.266 12.8773 23.212C13.2094 23.0578 13.4853 22.7328 13.575 22.3902C13.7304 21.7967 13.4652 21.1919 12.9285 20.916ZM31.8647 39.7674C31.6612 39.5787 31.3891 39.456 31.1204 39.4308C30.9381 39.414 30.7131 39.4409 30.5629 39.4972C30.2004 39.6338 29.9274 39.9048 29.7938 40.2604C29.784 40.2868 29.7754 40.307 29.7679 40.328C29.7129 40.4814 29.7164 40.6558 29.7164 43.2345C29.7164 45.5854 29.7186 45.8989 29.7354 45.988C29.8322 46.4982 30.2273 46.9037 30.7273 47.0067C31.1454 47.0928 31.564 46.9743 31.8703 46.6835C32.0389 46.5234 32.1532 46.3343 32.228 46.0918L32.262 45.9821V43.2282V40.4743L32.2276 40.3642C32.1535 40.1271 32.0252 39.9158 31.8647 39.7674Z" fill="#FFC53D"/>
</g>
<path fill-rule="evenodd" clip-rule="evenodd" d="M34.7065 21.5989C35.8679 21.6607 36.7264 21.789 37.6898 22.0447C38.8693 22.3577 39.8669 22.7536 40.8671 23.3057L41.1726 23.4743L50.347 23.4745L59.5214 23.4747L59.4544 23.528C58.8229 24.0304 58.0383 24.7763 57.4578 25.4261C56.6767 26.3007 55.9946 27.2671 55.4008 28.3404C55.1801 28.7392 54.7622 29.6019 54.7622 29.6586C54.7622 29.6676 54.8336 29.6902 54.9208 29.7087C55.4497 29.8211 56.2238 30.0416 56.8389 30.2553C58.1825 30.7219 59.6232 31.4798 60.8261 32.3529L61.1117 32.5601H72.7428H84.3739L84.3858 32.6136C84.3924 32.6431 84.405 32.6978 84.4138 32.7352C84.4227 32.7727 84.4648 32.9959 84.5074 33.2314C84.7368 34.498 84.8035 35.7338 84.719 37.1517C84.6154 38.8893 84.1732 40.7191 83.4527 42.3912C82.077 45.5836 79.6115 48.2986 76.5769 49.9625C74.4743 51.115 72.0936 51.786 69.8376 51.861C69.5362 51.871 68.5265 51.879 67.5938 51.879L65.898 51.88L65.6726 52.322C65.4 52.858 65.2297 53.166 65.0144 53.514C64.4788 54.38 63.9177 55.14 63.3225 55.807C63.0243 56.141 62.3106 56.854 61.9919 57.136C60.3488 58.589 58.4462 59.677 56.4063 60.331C55.1644 60.729 53.7323 60.991 52.5124 61.044C51.9363 61.068 17.7068 61.067 17.5928 61.042C17.5452 61.032 17.3722 61.006 17.2082 60.984C17.0443 60.963 16.7568 60.919 16.5694 60.887C13.2817 60.331 10.3272 58.461 8.36929 55.697C7.55016 54.541 6.88392 53.168 6.51828 51.883C6.12025 50.485 5.97315 49.3207 6.00395 47.8134C6.03703 46.1952 6.42699 44.4767 7.10765 42.9495C7.38988 42.3163 7.84333 41.4915 8.16545 41.0254C8.71574 40.2293 9.19804 39.6489 9.81657 39.0387C11.2543 37.6204 12.8508 36.6382 14.7528 36.0018C16.3899 35.4541 18.188 35.258 19.9835 35.4313C20.1615 35.4484 20.3124 35.4572 20.3188 35.4507C20.3252 35.4442 20.3377 35.2617 20.3466 35.0452C20.4106 33.4808 20.7231 31.9616 21.272 30.5465C21.4832 30.002 21.5706 29.8006 21.7745 29.3889C22.4625 27.999 23.2159 26.9358 24.3454 25.7606C24.7829 25.3054 25.146 24.98 25.7407 24.51C27.0242 23.4957 28.5619 22.6941 30.207 22.1817C30.4347 22.1108 31.2515 21.906 31.5241 21.8515C31.9569 21.7651 32.7435 21.6617 33.2259 21.6279C33.5243 21.607 34.4998 21.5879 34.7065 21.5989Z" fill="#B9E3F8"/>
<path fill-rule="evenodd" clip-rule="evenodd" d="M34.9034 20.0058C35.4738 20.0405 36.1993 20.1229 36.6243 20.2011C36.7671 20.2274 36.9493 20.2609 37.0293 20.2757C37.2328 20.3133 38.077 20.5379 38.4218 20.6463C39.2169 20.8962 40.0653 21.2587 40.8231 21.6724L41.1527 21.8524L50.3323 21.8621L59.5119 21.8718L59.2641 22.0756C58.6828 22.5536 57.8559 23.3581 57.3438 23.9439C56.5551 24.8459 55.8542 25.873 55.25 27.0119C55.0956 27.303 54.7994 27.9253 54.7688 28.0229C54.7565 28.0623 54.7675 28.0676 54.9439 28.1075C55.5846 28.2523 56.3554 28.4731 56.9021 28.6684C58.2791 29.1602 59.6697 29.8981 60.8815 30.7801L61.1122 30.9479H72.7483H84.3845L84.4633 31.3614C84.6744 32.4698 84.7541 33.2869 84.7542 34.345C84.7542 36.1149 84.5643 37.4375 84.0731 39.0863C83.6338 40.561 82.8906 42.1134 81.9989 43.4191C80.696 45.3268 78.9997 46.9195 77.0146 48.099C76.6656 48.3063 75.8649 48.7218 75.4955 48.8872C73.9832 49.5644 72.4816 49.9771 70.8283 50.17C70.3502 50.226 69.8521 50.247 69.033 50.248C68.6407 50.248 67.7726 50.254 67.1038 50.261L65.8877 50.274L65.7138 50.626C65.363 51.335 65.1387 51.726 64.6982 52.396C64.0418 53.394 63.4821 54.073 62.5715 54.976C61.803 55.738 60.9848 56.394 60.0717 56.981C57.8607 58.401 55.4954 59.187 52.7477 59.415C52.3304 59.449 17.6347 59.452 17.5666 59.417C17.5413 59.404 17.3993 59.38 17.2513 59.363C14.8328 59.08 12.5087 58.081 10.6426 56.519C10.1653 56.12 9.48646 55.451 9.11624 55.015L6.52896 50.22C6.29625 49.4065 6.0662 47.7577 6.0662 47.7577C6.0662 47.7577 6.03284 45.7417 6.06668 45.423C6.10779 45.0359 6.20134 44.384 6.25372 44.1195C6.32542 43.7574 6.51511 43.023 6.6272 42.6735C6.9578 41.6427 7.4082 40.6694 7.98582 39.7376C8.06358 39.6122 8.12719 39.5006 8.12719 39.4895C8.12719 39.4786 8.13457 39.4695 8.14359 39.4695C8.15262 39.4695 8.19995 39.4087 8.24879 39.3344C8.33813 39.1985 8.79048 38.5902 8.93687 38.4092C9.29691 37.9639 9.90527 37.3386 10.4211 36.8836C11.4451 35.9803 12.7414 35.1826 14.0167 34.6712C15.0867 34.2421 16.2289 33.9587 17.3763 33.8378C18.0988 33.7616 19.0124 33.7458 19.6356 33.7986C19.826 33.8148 20.0652 33.8335 20.1671 33.8402L20.3525 33.8525L20.3645 33.5821C20.4415 31.8425 20.7043 30.5085 21.2607 29.0315C21.8682 27.4192 22.748 25.9493 23.8458 24.7124C24.1298 24.3924 24.6484 23.8597 24.922 23.607C25.1579 23.389 25.747 22.9051 26.0742 22.6606C26.9238 22.0255 28.056 21.3967 29.1026 20.9786C29.8039 20.6984 30.2205 20.5648 30.9518 20.3854C31.6566 20.2126 32.1339 20.1327 32.9997 20.0424C33.273 20.014 34.6137 19.9881 34.9034 20.0058Z" fill="#EBF9FF"/>
<path fill-rule="evenodd" clip-rule="evenodd" d="M54.9156 12.9793C56.3281 13.0559 57.3724 13.2147 58.5441 13.5312C59.9788 13.9187 61.1922 14.4089 62.4087 15.0924L62.7803 15.3011L73.939 15.3014L85.0978 15.3017L85.0163 15.3676C84.2482 15.9895 83.2939 16.913 82.5879 17.7175C81.6378 18.8003 80.8082 19.9967 80.0859 21.3256C79.8176 21.8193 79.3092 22.8874 79.3092 22.9575C79.3092 22.9687 79.3961 22.9967 79.5022 23.0196C80.1455 23.1587 81.0869 23.4317 81.8351 23.6962C83.4694 24.2739 85.2216 25.2122 86.6847 26.2931L87.0321 26.5498H101.179H115.326L115.34 26.616C115.348 26.6524 115.364 26.7202 115.374 26.7665C115.385 26.8129 115.436 27.0893 115.488 27.3808C115.767 28.9489 115.848 30.4789 115.746 32.2343C115.62 34.3856 115.082 36.6509 114.205 38.7209C112.532 42.6734 109.533 46.0346 105.842 48.0946C103.285 49.5219 100.389 50.352 97.6454 50.4445C97.2788 50.4568 96.0507 50.4672 94.9163 50.4675L92.8536 50.4681L92.5795 51.0161C92.248 51.6789 92.0408 52.0606 91.779 52.4914C91.1274 53.5632 90.445 54.5047 89.721 55.3305C89.3583 55.7442 88.4903 56.6265 88.1027 56.9754C86.1041 58.7747 83.7901 60.1221 81.3089 60.9311C79.7984 61.4236 78.0565 61.7481 76.5729 61.8134C75.8721 61.8442 34.2389 61.8425 34.1003 61.8116C34.0424 61.7987 33.8319 61.7664 33.6325 61.7397C33.4331 61.7131 33.0835 61.6592 32.8555 61.6199C28.8567 60.9315 25.2631 58.6163 22.8818 55.1943C21.8855 53.7626 21.0751 52.0631 20.6304 50.4726C20.1463 48.7412 19.9673 47.3 20.0048 45.4339C20.045 43.4305 20.5193 41.3029 21.3472 39.4122C21.6905 38.6283 22.242 37.6071 22.6338 37.0301C23.3031 36.0444 23.8898 35.326 24.6421 34.5705C26.3907 32.8146 28.3326 31.5985 30.646 30.8107C32.6372 30.1326 34.8243 29.8898 37.0081 30.1043C37.2245 30.1256 37.4081 30.1364 37.4158 30.1284C37.4237 30.1203 37.4389 29.8944 37.4496 29.6264C37.5275 27.6896 37.9077 25.8087 38.5753 24.0568C38.8322 23.3826 38.9385 23.1333 39.1864 22.6236C40.0233 20.9029 40.9396 19.5866 42.3134 18.1316C42.8455 17.5681 43.2871 17.1652 44.0105 16.5833C45.5716 15.3276 47.4419 14.3352 49.4428 13.7008C49.7198 13.613 50.7132 13.3595 51.0449 13.2921C51.5712 13.185 52.528 13.057 53.1147 13.0152C53.4777 12.9893 54.6641 12.9657 54.9156 12.9793Z" fill="#B9E3F8"/>
<path fill-rule="evenodd" clip-rule="evenodd" d="M55.155 11.0071C55.8488 11.0502 56.7313 11.1521 57.2482 11.249C57.4219 11.2815 57.6435 11.3231 57.7407 11.3413C57.9883 11.3878 59.0151 11.666 59.4345 11.8001C60.4016 12.1095 61.4334 12.5583 62.3552 13.0705L62.7561 13.2933L73.9212 13.3054L85.0862 13.3174L84.7849 13.5697C84.0779 14.1615 83.0721 15.1574 82.4492 15.8827C81.4899 16.9994 80.6374 18.271 79.9026 19.681C79.7147 20.0414 79.3545 20.8119 79.3173 20.9327C79.3023 20.9815 79.3157 20.9881 79.5302 21.0374C80.3095 21.2167 81.247 21.49 81.912 21.7318C83.5868 22.3407 85.2781 23.2542 86.7521 24.3461L87.0327 24.554H101.186H115.339L115.435 25.0658C115.691 26.4381 115.788 27.4498 115.788 28.7596C115.788 30.9509 115.557 32.5884 114.96 34.6296C114.426 36.4554 113.522 38.3773 112.437 39.9937C110.852 42.3556 108.789 44.3274 106.375 45.7876C105.95 46.0444 104.976 46.5587 104.527 46.7635C102.688 47.6019 100.861 48.1129 98.8503 48.3518C98.2689 48.4209 97.6631 48.4476 96.6667 48.4479C96.1896 48.4481 95.1337 48.4555 94.3202 48.4643L92.8411 48.4803L92.6296 48.9159C92.203 49.7944 91.9301 50.2786 91.3943 51.1076C90.5959 52.3429 89.9152 53.1835 88.8077 54.3014C87.873 55.2449 86.8777 56.0573 85.7672 56.7834C83.0779 58.5416 80.2011 59.5148 76.8591 59.797C76.3514 59.8399 34.1512 59.8431 34.0684 59.8003C34.0376 59.7843 33.8649 59.7537 33.6849 59.7324C30.7433 59.3832 27.9165 58.1453 25.6467 56.2125C25.0662 55.7181 24.2405 54.8896 23.7902 54.3496L20.6433 48.4141C20.3603 47.4064 20.0805 45.3651 20.0805 45.3651C20.0805 45.3651 20.0399 42.8693 20.0811 42.4747C20.1311 41.9955 20.2449 41.1883 20.3086 40.8609C20.3958 40.4127 20.6265 39.5034 20.7628 39.0707C21.1649 37.7945 21.7128 36.5895 22.4153 35.4359C22.5099 35.2807 22.5873 35.1425 22.5873 35.1288C22.5873 35.1152 22.5962 35.1041 22.6072 35.1041C22.6182 35.1041 22.6758 35.0288 22.7352 34.9368C22.8438 34.7685 23.394 34.0155 23.5721 33.7913C24.01 33.2401 24.7499 32.4659 25.3773 31.9026C26.6228 30.7842 28.1996 29.7967 29.7507 29.1635C31.0521 28.6323 32.4413 28.2815 33.8369 28.1317C34.7157 28.0374 35.827 28.0178 36.585 28.0833C36.8165 28.1032 37.1074 28.1264 37.2314 28.1347L37.4569 28.1499L37.4714 27.8152C37.5652 25.6615 37.8847 24.01 38.5616 22.1814C39.3004 20.1852 40.3705 18.3654 41.7058 16.8341C42.0512 16.438 42.682 15.7785 43.0147 15.4656C43.3016 15.1958 44.0182 14.5966 44.4161 14.2939C45.4495 13.5077 46.8266 12.7291 48.0995 12.2115C48.9526 11.8646 49.4592 11.6992 50.3488 11.4772C51.2059 11.2632 51.7865 11.1642 52.8396 11.0525C53.172 11.0173 54.8027 10.9853 55.155 11.0071Z" fill="#EBF9FF"/>
</g>
<path d="M24.7484 91.4126C24.7139 90.5272 24.1383 91.0337 23.8427 91.6647C23.5471 92.2952 22.6153 91.8826 22.9792 91.2282C23.3423 90.5732 24.2817 90.0099 24.1287 89.616C24.0065 89.3011 23.8033 88.7762 23.7267 88.5789C23.5661 88.6002 23.3994 88.5983 23.2313 88.5709C23.0633 88.5435 22.9051 88.4923 22.7605 88.4211C22.6226 88.5834 22.2553 89.0151 22.0351 89.2742C21.7598 89.5981 22.4604 90.4292 22.5862 91.164C22.7121 91.8989 21.6938 91.9924 21.624 91.3023C21.5543 90.6117 21.179 89.9499 20.8512 90.7763C20.5245 91.6029 19.7706 92.2695 19.3226 91.9117C18.8746 91.554 19.4063 90.7101 20.1808 90.2405C20.955 89.7719 20.2125 89.5414 19.5001 89.6067C18.7873 89.6721 18.6878 88.6866 19.4561 88.6656C20.2246 88.6443 21.2011 89.1519 21.4762 88.8281C21.6969 88.5685 22.0643 88.1366 22.2022 87.9745C22.0005 87.7237 21.8768 87.4154 21.8572 87.0867C21.6433 87.0517 21.0719 86.9585 20.7292 86.9026C20.3013 86.8327 19.91 87.8332 19.3161 88.3045C18.7223 88.7752 18.1266 87.9683 18.7087 87.5662C19.2912 87.1643 19.6944 86.5208 18.7906 86.6571C17.8873 86.7934 16.9117 86.4934 17.0064 85.9394C17.101 85.386 18.1235 85.412 18.9323 85.828C19.7417 86.2441 19.5744 85.5074 19.1572 84.9425C18.7405 84.3773 19.5723 83.8035 19.9774 84.4372C20.3823 85.0715 20.4193 86.1421 20.8473 86.212C21.19 86.268 21.7614 86.3612 21.9753 86.3962C22.1031 86.0916 22.3226 85.8391 22.5968 85.6662C22.5203 85.4691 22.3167 84.9439 22.1943 84.6283C22.0419 84.2347 20.9495 84.4039 20.2298 84.1402C19.5102 83.8763 19.9322 82.9758 20.5845 83.2643C21.2366 83.5521 22.0153 83.5709 21.4392 82.8812C20.8629 82.191 20.6408 81.2241 21.1837 81.0279C21.7264 80.8318 22.2173 81.7023 22.2514 82.5874C22.2866 83.4726 22.8616 82.9659 23.1573 82.3353C23.4527 81.7053 24.3846 82.1171 24.0212 82.7718C23.6578 83.4267 22.7187 83.9902 22.8713 84.3839C22.9933 84.699 23.197 85.2239 23.2735 85.4208C23.4339 85.3997 23.6005 85.4017 23.7686 85.4292C23.9366 85.4566 24.0949 85.5076 24.2397 85.5785C24.3778 85.4168 24.7446 84.9849 24.9648 84.7257C25.2406 84.402 24.5397 83.5707 24.4141 82.8359C24.2878 82.1013 25.3061 82.0079 25.3759 82.6976C25.4456 83.3879 25.8214 84.0502 26.1486 83.2238C26.4754 82.3975 27.2292 81.7301 27.6772 82.0882C28.1255 82.4462 27.5936 83.29 26.819 83.7596C26.0448 84.2289 26.7873 84.4585 27.4998 84.3934C28.2126 84.3278 28.3122 85.3136 27.5438 85.3345C26.7757 85.3552 25.7994 84.8483 25.5237 85.1719C25.3029 85.4316 24.9356 85.8635 24.798 86.0256C24.9997 86.2762 25.1231 86.5847 25.1426 86.9134C25.3566 86.9483 25.9279 87.0415 26.2706 87.0975C26.6986 87.1674 27.0899 86.1667 27.6837 85.6955C28.2776 85.2249 28.8733 86.0318 28.2913 86.4339C27.7087 86.8356 27.3056 87.4791 28.2094 87.3428C29.1128 87.2064 30.0883 87.5065 29.9936 88.06C29.8989 88.614 28.8767 88.5876 28.0676 88.1719C27.2583 87.7558 27.4255 88.4925 27.8426 89.0576C28.2593 89.6229 27.4275 90.1966 27.0225 89.5628C26.6176 88.9285 26.5805 87.858 26.1526 87.7881C25.8099 87.7322 25.2386 87.6388 25.0246 87.6039C24.8967 87.9085 24.6775 88.1608 24.4032 88.334C24.4796 88.5309 24.6832 89.0561 24.8055 89.3718C24.9586 89.7655 26.0506 89.5956 26.77 89.8599C27.4896 90.1238 27.0677 91.0241 26.4154 90.7359C25.7632 90.4477 24.9845 90.4292 25.5606 91.119C26.1369 91.8088 26.3592 92.7764 25.8163 92.972C25.2734 93.1684 24.7825 92.2978 24.7484 91.4126ZM24.42 87.15C24.504 86.6587 24.1604 86.1928 23.6522 86.1099C23.1441 86.0269 22.6642 86.3583 22.5802 86.8496C22.4961 87.3414 22.8397 87.807 23.3477 87.89C23.856 87.973 24.3359 87.6418 24.42 87.15Z" fill="#CAEFFF"/>
<path d="M90.7484 73.4126C90.7139 72.5272 90.1383 73.0337 89.8427 73.6647C89.5471 74.2952 88.6153 73.8826 88.9792 73.2282C89.3423 72.5732 90.2817 72.0099 90.1287 71.616C90.0065 71.3011 89.8033 70.7762 89.7267 70.5789C89.5661 70.6002 89.3994 70.5983 89.2313 70.5709C89.0633 70.5435 88.9051 70.4923 88.7605 70.4211C88.6226 70.5834 88.2553 71.0151 88.0351 71.2742C87.7598 71.5981 88.4604 72.4292 88.5862 73.164C88.7121 73.8989 87.6938 73.9924 87.624 73.3023C87.5543 72.6117 87.179 71.9499 86.8512 72.7763C86.5245 73.6029 85.7706 74.2695 85.3226 73.9117C84.8746 73.554 85.4063 72.7101 86.1808 72.2405C86.955 71.7719 86.2125 71.5414 85.5001 71.6067C84.7873 71.6721 84.6878 70.6866 85.4561 70.6656C86.2246 70.6443 87.2011 71.1519 87.4762 70.8281C87.6969 70.5685 88.0643 70.1366 88.2022 69.9745C88.0005 69.7237 87.8768 69.4154 87.8572 69.0867C87.6433 69.0517 87.0719 68.9585 86.7292 68.9026C86.3013 68.8327 85.91 69.8332 85.3161 70.3045C84.7223 70.7752 84.1266 69.9683 84.7087 69.5662C85.2912 69.1643 85.6944 68.5208 84.7906 68.6571C83.8873 68.7934 82.9117 68.4934 83.0064 67.9394C83.101 67.386 84.1235 67.412 84.9323 67.828C85.7417 68.2441 85.5744 67.5074 85.1572 66.9425C84.7405 66.3773 85.5723 65.8035 85.9774 66.4372C86.3823 67.0715 86.4193 68.1421 86.8473 68.212C87.19 68.268 87.7614 68.3612 87.9753 68.3962C88.1031 68.0916 88.3226 67.8391 88.5968 67.6662C88.5203 67.4691 88.3167 66.9439 88.1943 66.6283C88.0419 66.2347 86.9495 66.4039 86.2298 66.1402C85.5102 65.8763 85.9322 64.9758 86.5845 65.2643C87.2366 65.5521 88.0153 65.5709 87.4392 64.8812C86.8629 64.191 86.6408 63.2241 87.1837 63.0279C87.7264 62.8318 88.2173 63.7023 88.2514 64.5874C88.2866 65.4726 88.8616 64.9659 89.1573 64.3353C89.4527 63.7053 90.3846 64.1171 90.0212 64.7718C89.6578 65.4267 88.7187 65.9902 88.8713 66.3839C88.9933 66.699 89.197 67.2239 89.2735 67.4208C89.4339 67.3997 89.6005 67.4017 89.7686 67.4292C89.9366 67.4566 90.0949 67.5076 90.2397 67.5785C90.3778 67.4168 90.7446 66.9849 90.9648 66.7257C91.2406 66.402 90.5397 65.5707 90.4141 64.8359C90.2878 64.1013 91.3061 64.0079 91.3759 64.6976C91.4456 65.3879 91.8214 66.0502 92.1486 65.2238C92.4754 64.3975 93.2292 63.7301 93.6772 64.0882C94.1255 64.4462 93.5936 65.29 92.819 65.7596C92.0448 66.2289 92.7873 66.4585 93.4998 66.3934C94.2126 66.3278 94.3122 67.3136 93.5438 67.3345C92.7757 67.3552 91.7994 66.8483 91.5237 67.1719C91.3029 67.4316 90.9356 67.8635 90.798 68.0256C90.9997 68.2762 91.1231 68.5847 91.1426 68.9134C91.3566 68.9483 91.9279 69.0415 92.2706 69.0975C92.6986 69.1674 93.0899 68.1667 93.6837 67.6955C94.2776 67.2249 94.8733 68.0318 94.2913 68.4339C93.7087 68.8356 93.3056 69.4791 94.2094 69.3428C95.1128 69.2064 96.0883 69.5065 95.9936 70.06C95.8989 70.614 94.8767 70.5876 94.0676 70.1719C93.2583 69.7558 93.4255 70.4925 93.8426 71.0576C94.2593 71.6229 93.4275 72.1966 93.0225 71.5628C92.6176 70.9285 92.5805 69.858 92.1526 69.7881C91.8099 69.7322 91.2386 69.6388 91.0246 69.6039C90.8967 69.9085 90.6775 70.1608 90.4032 70.334C90.4796 70.5309 90.6832 71.0561 90.8055 71.3718C90.9586 71.7655 92.0506 71.5956 92.77 71.8599C93.4896 72.1238 93.0677 73.0241 92.4154 72.7359C91.7632 72.4477 90.9845 72.4292 91.5606 73.119C92.1369 73.8088 92.3592 74.7764 91.8163 74.972C91.2734 75.1684 90.7825 74.2978 90.7484 73.4126ZM90.42 69.15C90.504 68.6587 90.1604 68.1928 89.6522 68.1099C89.1441 68.0269 88.6642 68.3583 88.5802 68.8496C88.4961 69.3414 88.8397 69.807 89.3477 69.89C89.856 69.973 90.3359 69.6418 90.42 69.15Z" fill="#CAEFFF"/>
<path d="M15.7484 73.4126C15.7139 72.5272 15.1383 73.0337 14.8427 73.6647C14.5471 74.2952 13.6153 73.8826 13.9792 73.2282C14.3423 72.5732 15.2817 72.0099 15.1287 71.616C15.0065 71.3011 14.8033 70.7762 14.7267 70.5789C14.5661 70.6002 14.3994 70.5983 14.2313 70.5709C14.0633 70.5435 13.9051 70.4923 13.7605 70.4211C13.6226 70.5834 13.2553 71.0151 13.0351 71.2742C12.7598 71.5981 13.4604 72.4292 13.5862 73.164C13.7121 73.8989 12.6938 73.9924 12.624 73.3023C12.5543 72.6117 12.179 71.9499 11.8512 72.7763C11.5245 73.6029 10.7706 74.2695 10.3226 73.9117C9.87456 73.554 10.4063 72.7101 11.1808 72.2405C11.955 71.7719 11.2125 71.5414 10.5001 71.6067C9.78731 71.6721 9.68776 70.6866 10.4561 70.6656C11.2246 70.6443 12.2011 71.1519 12.4762 70.8281C12.6969 70.5685 13.0643 70.1366 13.2022 69.9745C13.0005 69.7237 12.8768 69.4154 12.8572 69.0867C12.6433 69.0517 12.0719 68.9585 11.7292 68.9026C11.3013 68.8327 10.91 69.8332 10.3161 70.3045C9.72226 70.7752 9.12657 69.9683 9.70866 69.5662C10.2912 69.1643 10.6944 68.5208 9.79064 68.6571C8.88728 68.7934 7.91167 68.4934 8.00639 67.9394C8.10102 67.386 9.1235 67.412 9.93232 67.828C10.7417 68.2441 10.5744 67.5074 10.1572 66.9425C9.74052 66.3773 10.5723 65.8035 10.9774 66.4372C11.3823 67.0715 11.4193 68.1421 11.8473 68.212C12.19 68.268 12.7614 68.3612 12.9753 68.3962C13.1031 68.0916 13.3226 67.8391 13.5968 67.6662C13.5203 67.4691 13.3167 66.9439 13.1943 66.6283C13.0419 66.2347 11.9495 66.4039 11.2298 66.1402C10.5102 65.8763 10.9322 64.9758 11.5845 65.2643C12.2366 65.5521 13.0153 65.5709 12.4392 64.8812C11.8629 64.191 11.6408 63.2241 12.1837 63.0279C12.7264 62.8318 13.2173 63.7023 13.2514 64.5874C13.2866 65.4726 13.8616 64.9659 14.1573 64.3353C14.4527 63.7053 15.3846 64.1171 15.0212 64.7718C14.6578 65.4267 13.7187 65.9902 13.8713 66.3839C13.9933 66.699 14.197 67.2239 14.2735 67.4208C14.4339 67.3997 14.6005 67.4017 14.7686 67.4292C14.9366 67.4566 15.0949 67.5076 15.2397 67.5785C15.3778 67.4168 15.7446 66.9849 15.9648 66.7257C16.2406 66.402 15.5397 65.5707 15.4141 64.8359C15.2878 64.1013 16.3061 64.0079 16.3759 64.6976C16.4456 65.3879 16.8214 66.0502 17.1486 65.2238C17.4754 64.3975 18.2292 63.7301 18.6772 64.0882C19.1255 64.4462 18.5936 65.29 17.819 65.7596C17.0448 66.2289 17.7873 66.4585 18.4998 66.3934C19.2126 66.3278 19.3122 67.3136 18.5438 67.3345C17.7757 67.3552 16.7994 66.8483 16.5237 67.1719C16.3029 67.4316 15.9356 67.8635 15.798 68.0256C15.9997 68.2762 16.1231 68.5847 16.1426 68.9134C16.3566 68.9483 16.9279 69.0415 17.2706 69.0975C17.6986 69.1674 18.0899 68.1667 18.6837 67.6955C19.2776 67.2249 19.8733 68.0318 19.2913 68.4339C18.7087 68.8356 18.3056 69.4791 19.2094 69.3428C20.1128 69.2064 21.0883 69.5065 20.9936 70.06C20.8989 70.614 19.8767 70.5876 19.0676 70.1719C18.2583 69.7558 18.4255 70.4925 18.8426 71.0576C19.2593 71.6229 18.4275 72.1966 18.0225 71.5628C17.6176 70.9285 17.5805 69.858 17.1526 69.7881C16.8099 69.7322 16.2386 69.6388 16.0246 69.6039C15.8967 69.9085 15.6775 70.1608 15.4032 70.334C15.4796 70.5309 15.6832 71.0561 15.8055 71.3718C15.9586 71.7655 17.0506 71.5956 17.77 71.8599C18.4896 72.1238 18.0677 73.0241 17.4154 72.7359C16.7632 72.4477 15.9845 72.4292 16.5606 73.119C17.1369 73.8088 17.3592 74.7764 16.8163 74.972C16.2734 75.1684 15.7825 74.2978 15.7484 73.4126ZM15.42 69.15C15.504 68.6587 15.1604 68.1928 14.6522 68.1099C14.1441 68.0269 13.6642 68.3583 13.5802 68.8496C13.4961 69.3414 13.8397 69.807 14.3477 69.89C14.856 69.973 15.3359 69.6418 15.42 69.15Z" fill="#CAEFFF"/>
<path d="M62.7484 85.4126C62.7139 84.5272 62.1383 85.0337 61.8427 85.6647C61.5471 86.2952 60.6153 85.8826 60.9792 85.2282C61.3423 84.5732 62.2817 84.0099 62.1287 83.616C62.0065 83.3011 61.8033 82.7762 61.7267 82.5789C61.5661 82.6002 61.3994 82.5983 61.2313 82.5709C61.0633 82.5435 60.9051 82.4923 60.7605 82.4211C60.6226 82.5834 60.2553 83.0151 60.0351 83.2742C59.7598 83.5981 60.4604 84.4292 60.5862 85.164C60.7121 85.8989 59.6938 85.9924 59.624 85.3023C59.5543 84.6117 59.179 83.9499 58.8512 84.7763C58.5245 85.6029 57.7706 86.2695 57.3226 85.9117C56.8746 85.554 57.4063 84.7101 58.1808 84.2405C58.955 83.7719 58.2125 83.5414 57.5001 83.6067C56.7873 83.6721 56.6878 82.6866 57.4561 82.6656C58.2246 82.6443 59.2011 83.1519 59.4762 82.8281C59.6969 82.5685 60.0643 82.1366 60.2022 81.9745C60.0005 81.7237 59.8768 81.4154 59.8572 81.0867C59.6433 81.0517 59.0719 80.9585 58.7292 80.9026C58.3013 80.8327 57.91 81.8332 57.3161 82.3045C56.7223 82.7752 56.1266 81.9683 56.7087 81.5662C57.2912 81.1643 57.6944 80.5208 56.7906 80.6571C55.8873 80.7934 54.9117 80.4934 55.0064 79.9394C55.101 79.386 56.1235 79.412 56.9323 79.828C57.7417 80.2441 57.5744 79.5074 57.1572 78.9425C56.7405 78.3773 57.5723 77.8035 57.9774 78.4372C58.3823 79.0715 58.4193 80.1421 58.8473 80.212C59.19 80.268 59.7614 80.3612 59.9753 80.3962C60.1031 80.0916 60.3226 79.8391 60.5968 79.6662C60.5203 79.4691 60.3167 78.9439 60.1943 78.6283C60.0419 78.2347 58.9495 78.4039 58.2298 78.1402C57.5102 77.8763 57.9322 76.9758 58.5845 77.2643C59.2366 77.5521 60.0153 77.5709 59.4392 76.8812C58.8629 76.191 58.6408 75.2241 59.1837 75.0279C59.7264 74.8318 60.2173 75.7023 60.2514 76.5874C60.2866 77.4726 60.8616 76.9659 61.1573 76.3353C61.4527 75.7053 62.3846 76.1171 62.0212 76.7718C61.6578 77.4267 60.7187 77.9902 60.8713 78.3839C60.9933 78.699 61.197 79.2239 61.2735 79.4208C61.4339 79.3997 61.6005 79.4017 61.7686 79.4292C61.9366 79.4566 62.0949 79.5076 62.2397 79.5785C62.3778 79.4168 62.7446 78.9849 62.9648 78.7257C63.2406 78.402 62.5397 77.5707 62.4141 76.8359C62.2878 76.1013 63.3061 76.0079 63.3759 76.6976C63.4456 77.3879 63.8214 78.0502 64.1486 77.2238C64.4754 76.3975 65.2292 75.7301 65.6772 76.0882C66.1255 76.4462 65.5936 77.29 64.819 77.7596C64.0448 78.2289 64.7873 78.4585 65.4998 78.3934C66.2126 78.3278 66.3122 79.3136 65.5438 79.3345C64.7757 79.3552 63.7994 78.8483 63.5237 79.1719C63.3029 79.4316 62.9356 79.8635 62.798 80.0256C62.9997 80.2762 63.1231 80.5847 63.1426 80.9134C63.3566 80.9483 63.9279 81.0415 64.2706 81.0975C64.6986 81.1674 65.0899 80.1667 65.6837 79.6955C66.2776 79.2249 66.8733 80.0318 66.2913 80.4339C65.7087 80.8356 65.3056 81.4791 66.2094 81.3428C67.1128 81.2064 68.0883 81.5065 67.9936 82.06C67.8989 82.614 66.8767 82.5876 66.0676 82.1719C65.2583 81.7558 65.4255 82.4925 65.8426 83.0576C66.2593 83.6229 65.4275 84.1966 65.0225 83.5628C64.6176 82.9285 64.5805 81.858 64.1526 81.7881C63.8099 81.7322 63.2386 81.6388 63.0246 81.6039C62.8967 81.9085 62.6775 82.1608 62.4032 82.334C62.4796 82.5309 62.6832 83.0561 62.8055 83.3718C62.9586 83.7655 64.0506 83.5956 64.77 83.8599C65.4896 84.1238 65.0677 85.0241 64.4154 84.7359C63.7632 84.4477 62.9845 84.4292 63.5606 85.119C64.1369 85.8088 64.3592 86.7764 63.8163 86.972C63.2734 87.1684 62.7825 86.2978 62.7484 85.4126ZM62.42 81.15C62.504 80.6587 62.1604 80.1928 61.6522 80.1099C61.1441 80.0269 60.6642 80.3583 60.5802 80.8496C60.4961 81.3414 60.8397 81.807 61.3477 81.89C61.856 81.973 62.3359 81.6418 62.42 81.15Z" fill="#CAEFFF"/>
<path d="M24.7484 91.4126C24.7139 90.5272 24.1383 91.0337 23.8427 91.6647C23.5471 92.2952 22.6153 91.8826 22.9792 91.2282C23.3423 90.5732 24.2817 90.0099 24.1287 89.616C24.0065 89.3011 23.8033 88.7762 23.7267 88.5789C23.5661 88.6002 23.3994 88.5983 23.2313 88.5709C23.0633 88.5435 22.9051 88.4923 22.7605 88.4211C22.6226 88.5834 22.2553 89.0151 22.0351 89.2742C21.7598 89.5981 22.4604 90.4292 22.5862 91.164C22.7121 91.8989 21.6938 91.9924 21.624 91.3023C21.5543 90.6117 21.179 89.9499 20.8512 90.7763C20.5245 91.6029 19.7706 92.2695 19.3226 91.9117C18.8746 91.554 19.4063 90.7101 20.1808 90.2405C20.955 89.7719 20.2125 89.5414 19.5001 89.6067C18.7873 89.6721 18.6878 88.6866 19.4561 88.6656C20.2246 88.6443 21.2011 89.1519 21.4762 88.8281C21.6969 88.5685 22.0643 88.1366 22.2022 87.9745C22.0005 87.7237 21.8768 87.4154 21.8572 87.0867C21.6433 87.0517 21.0719 86.9585 20.7292 86.9026C20.3013 86.8327 19.91 87.8332 19.3161 88.3045C18.7223 88.7752 18.1266 87.9683 18.7087 87.5662C19.2912 87.1643 19.6944 86.5208 18.7906 86.6571C17.8873 86.7934 16.9117 86.4934 17.0064 85.9394C17.101 85.386 18.1235 85.412 18.9323 85.828C19.7417 86.2441 19.5744 85.5074 19.1572 84.9425C18.7405 84.3773 19.5723 83.8035 19.9774 84.4372C20.3823 85.0715 20.4193 86.1421 20.8473 86.212C21.19 86.268 21.7614 86.3612 21.9753 86.3962C22.1031 86.0916 22.3226 85.8391 22.5968 85.6662C22.5203 85.4691 22.3167 84.9439 22.1943 84.6283C22.0419 84.2347 20.9495 84.4039 20.2298 84.1402C19.5102 83.8763 19.9322 82.9758 20.5845 83.2643C21.2366 83.5521 22.0153 83.5709 21.4392 82.8812C20.8629 82.191 20.6408 81.2241 21.1837 81.0279C21.7264 80.8318 22.2173 81.7023 22.2514 82.5874C22.2866 83.4726 22.8616 82.9659 23.1573 82.3353C23.4527 81.7053 24.3846 82.1171 24.0212 82.7718C23.6578 83.4267 22.7187 83.9902 22.8713 84.3839C22.9933 84.699 23.197 85.2239 23.2735 85.4208C23.4339 85.3997 23.6005 85.4017 23.7686 85.4292C23.9366 85.4566 24.0949 85.5076 24.2397 85.5785C24.3778 85.4168 24.7446 84.9849 24.9648 84.7257C25.2406 84.402 24.5397 83.5707 24.4141 82.8359C24.2878 82.1013 25.3061 82.0079 25.3759 82.6976C25.4456 83.3879 25.8214 84.0502 26.1486 83.2238C26.4754 82.3975 27.2292 81.7301 27.6772 82.0882C28.1255 82.4462 27.5936 83.29 26.819 83.7596C26.0448 84.2289 26.7873 84.4585 27.4998 84.3934C28.2126 84.3278 28.3122 85.3136 27.5438 85.3345C26.7757 85.3552 25.7994 84.8483 25.5237 85.1719C25.3029 85.4316 24.9356 85.8635 24.798 86.0256C24.9997 86.2762 25.1231 86.5847 25.1426 86.9134C25.3566 86.9483 25.9279 87.0415 26.2706 87.0975C26.6986 87.1674 27.0899 86.1667 27.6837 85.6955C28.2776 85.2249 28.8733 86.0318 28.2913 86.4339C27.7087 86.8356 27.3056 87.4791 28.2094 87.3428C29.1128 87.2064 30.0883 87.5065 29.9936 88.06C29.8989 88.614 28.8767 88.5876 28.0676 88.1719C27.2583 87.7558 27.4255 88.4925 27.8426 89.0576C28.2593 89.6229 27.4275 90.1966 27.0225 89.5628C26.6176 88.9285 26.5805 87.858 26.1526 87.7881C25.8099 87.7322 25.2386 87.6388 25.0246 87.6039C24.8967 87.9085 24.6775 88.1608 24.4032 88.334C24.4796 88.5309 24.6832 89.0561 24.8055 89.3718C24.9586 89.7655 26.0506 89.5956 26.77 89.8599C27.4896 90.1238 27.0677 91.0241 26.4154 90.7359C25.7632 90.4477 24.9845 90.4292 25.5606 91.119C26.1369 91.8088 26.3592 92.7764 25.8163 92.972C25.2734 93.1684 24.7825 92.2978 24.7484 91.4126ZM24.42 87.15C24.504 86.6587 24.1604 86.1928 23.6522 86.1099C23.1441 86.0269 22.6642 86.3583 22.5802 86.8496C22.4961 87.3414 22.8397 87.807 23.3477 87.89C23.856 87.973 24.3359 87.6418 24.42 87.15Z" fill="#CAEFFF"/>
</g>
</svg>
