<svg width="110" height="119" viewBox="0 0 110 119" fill="none" xmlns="http://www.w3.org/2000/svg">
<g clip-path="url(#clip0_41_319)">
<g mask="url(#mask0_41_319)">
<path fill-rule="evenodd" clip-rule="evenodd" d="M31.2139 -2.95661C31.7227 -2.85999 32.1157 -2.48493 32.242 -1.97544L32.2683 -1.86948L32.2722 0.743949C32.2748 2.43693 32.2719 3.40039 32.2639 3.47952C32.2329 3.78849 32.121 4.02904 31.9049 4.25185C31.5221 4.64647 30.9409 4.75489 30.4475 4.52371C30.0847 4.35368 29.8258 4.02887 29.7321 3.62607C29.7066 3.51663 29.7065 3.50428 29.7024 0.945453C29.6996 -0.736109 29.7026 -1.67818 29.7107 -1.77832C29.7574 -2.35058 30.1277 -2.7922 30.6843 -2.93941C30.8103 -2.97274 31.0824 -2.98157 31.2139 -2.95661ZM47.9134 3.98685C48.4078 4.04375 48.8239 4.37789 48.9832 4.84596C49.0277 4.97695 49.0487 5.11206 49.0485 5.26688C49.0483 5.51533 48.9866 5.72965 48.8526 5.94822C48.7914 6.04795 48.6467 6.19625 46.9795 7.86808C45.9858 8.86453 45.1263 9.7209 45.0695 9.77108C44.8102 10.0002 44.5381 10.1049 44.2022 10.1048C43.8599 10.1047 43.5752 9.99234 43.3298 9.76041C43.092 9.5357 42.9672 9.28154 42.9301 8.9466C42.8985 8.6602 42.9806 8.34502 43.151 8.09909C43.195 8.03563 43.7537 7.46985 45.1083 6.11691C46.8931 4.33422 47.01 4.22004 47.1077 4.16327C47.3534 4.02042 47.6468 3.95617 47.9134 3.98685ZM14.3631 4.01152C14.6109 4.0416 14.8247 4.12797 15.0137 4.27438C15.0506 4.303 15.9165 5.1635 16.9379 6.18663C18.2075 7.45834 18.8115 8.07156 18.8469 8.12477C18.9204 8.23521 18.9987 8.40801 19.0302 8.52929C19.0716 8.68886 19.0769 8.9363 19.0426 9.10297C18.9432 9.58542 18.5855 9.96145 18.1048 10.0889C18.0041 10.1156 17.9586 10.1205 17.8031 10.1215C17.6942 10.1222 17.5904 10.1162 17.5468 10.1068C17.3631 10.067 17.1877 9.99146 17.0415 9.88917C16.99 9.85316 16.2852 9.15685 15.0919 7.96284C13.637 6.50724 13.2107 6.07396 13.1677 6.00723C13.0025 5.75083 12.9421 5.53163 12.9534 5.22935C12.9607 5.0349 12.9903 4.90845 13.0659 4.74808C13.1379 4.59541 13.2058 4.49846 13.322 4.38226C13.5109 4.19323 13.7335 4.07413 13.9808 4.02975C14.1159 4.00551 14.2578 3.99874 14.3631 4.01152ZM31.6344 7.41316C31.668 7.41556 31.7943 7.42346 31.9152 7.43069C33.7121 7.53839 35.4581 7.97734 37.134 8.74278C37.4013 8.86486 37.9642 9.1555 38.2388 9.31318C39.2704 9.9056 40.1784 10.5773 41.0272 11.3759C42.5257 12.786 43.699 14.4777 44.5073 16.394C44.8064 17.1031 45.0776 17.9477 45.2571 18.7295C45.4971 19.775 45.6101 20.7214 45.6264 21.8224C45.6492 23.3613 45.4545 24.7675 45.0135 26.2507C44.8528 26.791 44.5807 27.5263 44.3766 27.9713C44.3596 28.0082 44.3132 28.1099 44.2735 28.1972C44.174 28.4153 43.8862 28.9765 43.7598 29.1986C42.9985 30.5359 42.1148 31.6617 41.0079 32.7041C40.1664 33.4965 39.2189 34.1935 38.19 34.7768C35.585 36.2536 32.5262 36.8927 29.5286 36.5863C26.7002 36.2971 24.066 35.219 21.8561 33.4459C21.4051 33.0841 21.0408 32.7532 20.5799 32.2865C20.1555 31.8568 19.8258 31.4827 19.4676 31.0243C18.2242 29.4334 17.3063 27.5584 16.822 25.6204C16.4323 24.0609 16.3 22.483 16.4243 20.8759C16.5687 19.0079 17.0769 17.1732 17.9128 15.5025C18.4983 14.3321 19.2041 13.2926 20.1018 12.2785C20.3249 12.0265 20.962 11.387 21.2213 11.1548C23.0167 9.54743 25.1378 8.41646 27.4365 7.84097C28.2994 7.62497 29.0357 7.50986 30.0718 7.42909C30.2324 7.41661 31.5016 7.40366 31.6344 7.41316ZM54.9616 20.785C55.4512 20.8822 55.8317 21.2371 55.9649 21.7199C56.0117 21.8891 56.019 22.1186 55.983 22.2916C55.9689 22.3616 55.9408 22.4605 55.9212 22.5115C55.8194 22.7749 55.6085 23.0201 55.3626 23.1609C55.2448 23.2284 55.0284 23.3014 54.8962 23.3183C54.8234 23.3275 53.992 23.3305 52.131 23.328L49.4699 23.3245L49.3661 23.2955C48.894 23.1636 48.5565 22.8319 48.432 22.3776C48.3925 22.2335 48.3792 22.0138 48.401 21.8643C48.481 21.3177 48.9068 20.8791 49.4501 20.7839C49.5976 20.7581 54.8316 20.7591 54.9616 20.785ZM12.568 20.7841C13.0545 20.8724 13.4515 21.2411 13.5816 21.7255C13.6108 21.8342 13.6141 21.8678 13.6139 22.0483C13.6136 22.2129 13.6089 22.2667 13.5884 22.3418C13.5199 22.593 13.408 22.7914 13.2423 22.9551C13.0793 23.1164 12.8834 23.2271 12.6372 23.2973L12.5416 23.3245L9.88035 23.328C8.01767 23.3305 7.18793 23.3276 7.11531 23.3183C6.98322 23.3014 6.76678 23.2284 6.64887 23.1609C6.40289 23.0201 6.19206 22.7749 6.0903 22.5115C6.07065 22.4605 6.04271 22.3616 6.02825 22.2916C5.99248 22.1186 5.99981 21.8891 6.04648 21.7199C6.18057 21.2337 6.56508 20.8779 7.05732 20.7845C7.14241 20.7684 7.48902 20.7662 9.8176 20.7671C11.9461 20.768 12.4981 20.7714 12.568 20.7841ZM18.0534 33.9728C18.525 34.0719 18.9037 34.4194 19.0348 34.8736C19.1396 35.2367 19.0809 35.619 18.8701 35.9459C18.8326 36.0041 18.3204 36.5246 16.9499 37.8974C15.9219 38.927 15.0534 39.7908 15.0198 39.8169C14.8728 39.9308 14.7083 40.0106 14.5254 40.0568C14.3826 40.0926 14.0438 40.09 13.9028 40.0514C13.6292 39.977 13.3677 39.8022 13.2084 39.587C13.0345 39.3525 12.9506 39.0995 12.9506 38.8097C12.9506 38.5162 13.0377 38.2571 13.2133 38.0281C13.2494 37.9811 14.1155 37.1068 15.1381 36.0852C17.0938 34.1314 17.0532 34.17 17.2612 34.072C17.4373 33.9891 17.5473 33.9651 17.7726 33.9604C17.9111 33.9574 17.9988 33.9613 18.0534 33.9728ZM44.4043 33.9854C44.5875 34.0186 44.7461 34.0824 44.9103 34.1886C45.0117 34.2542 48.6827 37.9169 48.7939 38.0633C48.9644 38.288 49.0487 38.5431 49.0487 38.8341C49.0487 39.5458 48.4874 40.1094 47.7774 40.1102C47.4829 40.1106 47.2322 40.0283 47.0035 39.8564C46.87 39.7559 43.1975 36.0763 43.1312 35.9765C42.9922 35.7671 42.9242 35.5623 42.9121 35.3159C42.8942 34.9505 43.0104 34.6316 43.2561 34.3718C43.5098 34.1037 43.8366 33.965 44.2062 33.9686C44.2678 33.9692 44.357 33.9768 44.4043 33.9854ZM31.1909 39.4332C31.4553 39.4744 31.6789 39.5883 31.8828 39.7858C32.102 39.998 32.2308 40.2628 32.2632 40.5683C32.2792 40.7183 32.2791 45.7478 32.2632 45.8873C32.2291 46.1849 32.1072 46.4417 31.8992 46.6535C31.7365 46.819 31.5379 46.9321 31.2869 47.0014C31.1516 47.0388 30.8215 47.038 30.6843 47.0006C30.4417 46.9338 30.2415 46.8199 30.0801 46.6572C29.8598 46.4349 29.7372 46.1634 29.7107 45.8382C29.7026 45.7382 29.6996 44.796 29.7024 43.1146C29.7065 40.5557 29.7066 40.5435 29.7321 40.4338C29.7896 40.1863 29.8949 39.9896 30.0629 39.8152C30.3633 39.5034 30.7664 39.3668 31.1909 39.4332Z" fill="#FFE23D"/>
<path fill-rule="evenodd" clip-rule="evenodd" d="M31.8703 -2.61687C31.6692 -2.80797 31.4224 -2.9249 31.1467 -2.95982C31.0431 -2.97293 30.8364 -2.96363 30.7289 -2.941C30.2247 -2.83491 29.8323 -2.43218 29.7354 -1.92131C29.7186 -1.83245 29.7164 -1.51807 29.7166 0.842969C29.7167 3.39617 29.7177 3.51157 29.7396 3.61689C29.821 4.00978 30.071 4.33262 30.4306 4.50929C30.5832 4.58426 30.7023 4.61826 30.8735 4.63566C31.0998 4.65873 31.3225 4.62003 31.5309 4.5214C31.8771 4.35754 32.1103 4.08358 32.228 3.70241L32.262 3.59247V0.838573V-1.91533L32.228 -2.02525C32.1532 -2.26766 32.0389 -2.45668 31.8703 -2.61687ZM32.2818 20.7695L31.6553 20.7659C30.8343 20.7611 30.8045 20.7628 30.6021 20.8267C30.164 20.9649 29.8341 21.331 29.7337 21.7904C29.7053 21.92 29.7056 22.1811 29.7341 22.3141C29.787 22.5607 29.8993 22.7686 30.0766 22.9483C30.2027 23.0762 30.3197 23.1581 30.4727 23.2256C30.6678 23.3118 30.7432 23.3264 30.9922 23.3264C31.1809 23.3264 31.2257 23.3226 31.3086 23.2996C31.6642 23.201 31.9414 22.9861 32.1149 22.6744C32.1819 22.554 32.2185 22.46 32.2521 22.3218C32.2687 22.2533 32.2725 22.1281 32.2768 21.5052L32.2818 20.7695ZM54.9639 20.7941C54.9139 20.7859 54.8644 20.7777 54.8544 20.7757C54.7998 20.7651 49.5884 20.7712 49.5129 20.782C49.3055 20.8118 49.1449 20.8716 48.9742 20.9829C48.6904 21.1678 48.4931 21.4625 48.4183 21.8135C48.4094 21.8556 48.4032 21.9619 48.4038 22.0638C48.4048 22.2135 48.4099 22.2598 48.437 22.363C48.5765 22.8946 49.0155 23.2683 49.5631 23.3215C49.7311 23.3379 54.6721 23.3378 54.8444 23.3215C55.1521 23.2923 55.3976 23.1791 55.6217 22.9624C56.0891 22.5106 56.1414 21.7947 55.7449 21.2719C55.5576 21.0251 55.2576 20.8415 54.9639 20.7941ZM12.9285 20.916C12.8017 20.8508 12.6411 20.7991 12.5149 20.7827C12.397 20.7674 7.25633 20.7664 7.13514 20.7816C6.70874 20.8351 6.34946 21.0857 6.15379 21.4663C5.89478 21.97 5.99327 22.5699 6.39944 22.9624C6.62366 23.1791 6.86877 23.2923 7.17682 23.3215C7.35509 23.3384 12.2773 23.3384 12.4556 23.3215C12.5998 23.3078 12.761 23.266 12.8773 23.212C13.2094 23.0578 13.4853 22.7328 13.575 22.3902C13.7304 21.7967 13.4652 21.1919 12.9285 20.916ZM31.8647 39.7674C31.6612 39.5787 31.3891 39.456 31.1204 39.4308C30.9381 39.414 30.7131 39.4409 30.5629 39.4972C30.2004 39.6338 29.9274 39.9048 29.7938 40.2604C29.784 40.2868 29.7754 40.307 29.7679 40.328C29.7129 40.4814 29.7164 40.6558 29.7164 43.2345C29.7164 45.5854 29.7186 45.8989 29.7354 45.988C29.8322 46.4982 30.2273 46.9037 30.7273 47.0067C31.1454 47.0928 31.564 46.9743 31.8703 46.6835C32.0389 46.5234 32.1532 46.3343 32.228 46.0918L32.262 45.9821V43.2282V40.4743L32.2276 40.3642C32.1535 40.1271 32.0252 39.9158 31.8647 39.7674Z" fill="#FFC53D"/>
<path fill-rule="evenodd" clip-rule="evenodd" d="M34.7065 21.5989C35.8679 21.6607 36.7264 21.789 37.6898 22.0447C38.8693 22.3577 39.8669 22.7536 40.8671 23.3057L41.1726 23.4743L50.347 23.4745L59.5214 23.4747L59.4544 23.528C58.8229 24.0304 58.0383 24.7763 57.4578 25.4261C56.6767 26.3007 55.9946 27.2671 55.4008 28.3404C55.1801 28.7392 54.7622 29.6019 54.7622 29.6586C54.7622 29.6676 54.8336 29.6902 54.9208 29.7087C55.4497 29.8211 56.2238 30.0416 56.8389 30.2553C58.1825 30.7219 59.6232 31.4798 60.8261 32.3529L61.1117 32.5601H72.7428H84.3739L84.3858 32.6136C84.3924 32.6431 84.405 32.6978 84.4138 32.7352C84.4227 32.7727 84.4648 32.9959 84.5074 33.2314C84.7368 34.498 84.8035 35.7338 84.719 37.1517C84.6154 38.8893 84.1732 40.7191 83.4527 42.3912C82.077 45.5836 79.6115 48.2986 76.5769 49.9625C74.4743 51.115 72.0936 51.786 69.8376 51.861C69.5362 51.871 68.5265 51.879 67.5938 51.879L65.898 51.88L65.6726 52.322C65.4 52.858 65.2297 53.166 65.0144 53.514C64.4788 54.38 63.9177 55.14 63.3225 55.807C63.0243 56.141 62.3106 56.854 61.9919 57.136C60.3488 58.589 58.4462 59.677 56.4063 60.331C55.1644 60.729 53.7323 60.991 52.5124 61.044C51.9363 61.068 17.7068 61.067 17.5928 61.042C17.5452 61.032 17.3722 61.006 17.2082 60.984C17.0443 60.963 16.7568 60.919 16.5694 60.887C13.2817 60.331 10.3272 58.461 8.36929 55.697C7.55016 54.541 6.88392 53.168 6.51828 51.883C6.12025 50.485 5.97315 49.3207 6.00395 47.8134C6.03703 46.1952 6.42699 44.4767 7.10765 42.9495C7.38988 42.3163 7.84333 41.4915 8.16545 41.0254C8.71574 40.2293 9.19804 39.6489 9.81657 39.0387C11.2543 37.6204 12.8508 36.6382 14.7528 36.0018C16.3899 35.4541 18.188 35.258 19.9835 35.4313C20.1615 35.4484 20.3124 35.4572 20.3188 35.4507C20.3252 35.4442 20.3377 35.2617 20.3466 35.0452C20.4106 33.4808 20.7231 31.9616 21.272 30.5465C21.4832 30.002 21.5706 29.8006 21.7745 29.3889C22.4625 27.999 23.2159 26.9358 24.3454 25.7606C24.7829 25.3054 25.146 24.98 25.7407 24.51C27.0242 23.4957 28.5619 22.6941 30.207 22.1817C30.4347 22.1108 31.2515 21.906 31.5241 21.8515C31.9569 21.7651 32.7435 21.6617 33.2259 21.6279C33.5243 21.607 34.4998 21.5879 34.7065 21.5989Z" fill="#B9E3F8"/>
<path fill-rule="evenodd" clip-rule="evenodd" d="M34.9034 20.0058C35.4738 20.0405 36.1993 20.1229 36.6243 20.2011C36.7671 20.2274 36.9493 20.2609 37.0293 20.2757C37.2328 20.3133 38.077 20.5379 38.4218 20.6463C39.2169 20.8962 40.0653 21.2587 40.8231 21.6724L41.1527 21.8524L50.3323 21.8621L59.5119 21.8718L59.2641 22.0756C58.6828 22.5536 57.8559 23.3581 57.3438 23.9439C56.5551 24.8459 55.8542 25.873 55.25 27.0119C55.0956 27.303 54.7994 27.9253 54.7688 28.0229C54.7565 28.0623 54.7675 28.0676 54.9439 28.1075C55.5846 28.2523 56.3554 28.4731 56.9021 28.6684C58.2791 29.1602 59.6697 29.8981 60.8815 30.7801L61.1122 30.9479H72.7483H84.3845L84.4633 31.3614C84.6744 32.4698 84.7541 33.2869 84.7542 34.345C84.7542 36.1149 84.5643 37.4375 84.0731 39.0863C83.6338 40.561 82.8906 42.1134 81.9989 43.4191C80.696 45.3268 78.9997 46.9195 77.0146 48.099C76.6656 48.3063 75.8649 48.7218 75.4955 48.8872C73.9832 49.5644 72.4816 49.9771 70.8283 50.17C70.3502 50.226 69.8521 50.247 69.033 50.248C68.6407 50.248 67.7726 50.254 67.1038 50.261L65.8877 50.274L65.7138 50.626C65.363 51.335 65.1387 51.726 64.6982 52.396C64.0418 53.394 63.4821 54.073 62.5715 54.976C61.803 55.738 60.9848 56.394 60.0717 56.981C57.8607 58.401 55.4954 59.187 52.7477 59.415C52.3304 59.449 17.6347 59.452 17.5666 59.417C17.5413 59.404 17.3993 59.38 17.2513 59.363C14.8328 59.08 12.5087 58.081 10.6426 56.519C10.1653 56.12 9.48646 55.451 9.11624 55.015L6.52896 50.22C6.29625 49.4065 6.0662 47.7577 6.0662 47.7577C6.0662 47.7577 6.03284 45.7417 6.06668 45.423C6.10779 45.0359 6.20134 44.384 6.25372 44.1195C6.32542 43.7574 6.51511 43.023 6.6272 42.6735C6.9578 41.6427 7.4082 40.6694 7.98582 39.7376C8.06358 39.6122 8.12719 39.5006 8.12719 39.4895C8.12719 39.4786 8.13457 39.4695 8.14359 39.4695C8.15262 39.4695 8.19995 39.4087 8.24879 39.3344C8.33813 39.1985 8.79048 38.5902 8.93687 38.4092C9.29691 37.9639 9.90527 37.3386 10.4211 36.8836C11.4451 35.9803 12.7414 35.1826 14.0167 34.6712C15.0867 34.2421 16.2289 33.9587 17.3763 33.8378C18.0988 33.7616 19.0124 33.7458 19.6356 33.7986C19.826 33.8148 20.0652 33.8335 20.1671 33.8402L20.3525 33.8525L20.3645 33.5821C20.4415 31.8425 20.7043 30.5085 21.2607 29.0315C21.8682 27.4192 22.748 25.9493 23.8458 24.7124C24.1298 24.3924 24.6484 23.8597 24.922 23.607C25.1579 23.389 25.747 22.9051 26.0742 22.6606C26.9238 22.0255 28.056 21.3967 29.1026 20.9786C29.8039 20.6984 30.2205 20.5648 30.9518 20.3854C31.6566 20.2126 32.1339 20.1327 32.9997 20.0424C33.273 20.014 34.6137 19.9881 34.9034 20.0058Z" fill="#EBF9FF"/>
<path fill-rule="evenodd" clip-rule="evenodd" d="M54.9156 12.9793C56.3281 13.0559 57.3724 13.2147 58.5441 13.5312C59.9788 13.9187 61.1922 14.4089 62.4087 15.0924L62.7803 15.3011L73.939 15.3014L85.0978 15.3017L85.0163 15.3676C84.2482 15.9895 83.2939 16.913 82.5879 17.7175C81.6378 18.8003 80.8082 19.9967 80.0859 21.3256C79.8176 21.8193 79.3092 22.8874 79.3092 22.9575C79.3092 22.9687 79.3961 22.9967 79.5022 23.0196C80.1455 23.1587 81.0869 23.4317 81.8351 23.6962C83.4694 24.2739 85.2216 25.2122 86.6847 26.2931L87.0321 26.5498H101.179H115.326L115.34 26.616C115.348 26.6524 115.364 26.7202 115.374 26.7665C115.385 26.8129 115.436 27.0893 115.488 27.3808C115.767 28.9489 115.848 30.4789 115.746 32.2343C115.62 34.3856 115.082 36.6509 114.205 38.7209C112.532 42.6734 109.533 46.0346 105.842 48.0946C103.285 49.5219 100.389 50.352 97.6454 50.4445C97.2788 50.4568 96.0507 50.4672 94.9163 50.4675L92.8536 50.4681L92.5795 51.0161C92.248 51.6789 92.0408 52.0606 91.779 52.4914C91.1274 53.5632 90.445 54.5047 89.721 55.3305C89.3583 55.7442 88.4903 56.6265 88.1027 56.9754C86.1041 58.7747 83.7901 60.1221 81.3089 60.9311C79.7984 61.4236 78.0565 61.7481 76.5729 61.8134C75.8721 61.8442 34.2389 61.8425 34.1003 61.8116C34.0424 61.7987 33.8319 61.7664 33.6325 61.7397C33.4331 61.7131 33.0835 61.6592 32.8555 61.6199C28.8567 60.9315 25.2631 58.6163 22.8818 55.1943C21.8855 53.7626 21.0751 52.0631 20.6304 50.4726C20.1463 48.7412 19.9673 47.3 20.0048 45.4339C20.045 43.4305 20.5193 41.3029 21.3472 39.4122C21.6905 38.6283 22.242 37.6071 22.6338 37.0301C23.3031 36.0444 23.8898 35.326 24.6421 34.5705C26.3907 32.8146 28.3326 31.5985 30.646 30.8107C32.6372 30.1326 34.8243 29.8898 37.0081 30.1043C37.2245 30.1256 37.4081 30.1364 37.4158 30.1284C37.4237 30.1203 37.4389 29.8944 37.4496 29.6264C37.5275 27.6896 37.9077 25.8087 38.5753 24.0568C38.8322 23.3826 38.9385 23.1333 39.1864 22.6236C40.0233 20.9029 40.9396 19.5866 42.3134 18.1316C42.8455 17.5681 43.2871 17.1652 44.0105 16.5833C45.5716 15.3276 47.4419 14.3352 49.4428 13.7008C49.7198 13.613 50.7132 13.3595 51.0449 13.2921C51.5712 13.185 52.528 13.057 53.1147 13.0152C53.4777 12.9893 54.6641 12.9657 54.9156 12.9793Z" fill="#B9E3F8"/>
<path fill-rule="evenodd" clip-rule="evenodd" d="M55.155 11.0071C55.8488 11.0502 56.7313 11.1521 57.2482 11.249C57.4219 11.2815 57.6435 11.3231 57.7407 11.3413C57.9883 11.3878 59.0151 11.666 59.4345 11.8001C60.4016 12.1095 61.4334 12.5583 62.3552 13.0705L62.7561 13.2933L73.9212 13.3054L85.0862 13.3174L84.7849 13.5697C84.0779 14.1615 83.0721 15.1574 82.4492 15.8827C81.4899 16.9994 80.6374 18.271 79.9026 19.681C79.7147 20.0414 79.3545 20.8119 79.3173 20.9327C79.3023 20.9815 79.3157 20.9881 79.5302 21.0374C80.3095 21.2167 81.247 21.49 81.912 21.7318C83.5868 22.3407 85.2781 23.2542 86.7521 24.3461L87.0327 24.554H101.186H115.339L115.435 25.0658C115.691 26.4381 115.788 27.4498 115.788 28.7596C115.788 30.9509 115.557 32.5884 114.96 34.6296C114.426 36.4554 113.522 38.3773 112.437 39.9937C110.852 42.3556 108.789 44.3274 106.375 45.7876C105.95 46.0444 104.976 46.5587 104.527 46.7635C102.688 47.6019 100.861 48.1129 98.8503 48.3518C98.2689 48.4209 97.6631 48.4476 96.6667 48.4479C96.1896 48.4481 95.1337 48.4555 94.3202 48.4643L92.8411 48.4803L92.6296 48.9159C92.203 49.7944 91.9301 50.2786 91.3943 51.1076C90.5959 52.3429 89.9152 53.1835 88.8077 54.3014C87.873 55.2449 86.8777 56.0573 85.7672 56.7834C83.0779 58.5416 80.2011 59.5148 76.8591 59.797C76.3514 59.8399 34.1512 59.8431 34.0684 59.8003C34.0376 59.7843 33.8649 59.7537 33.6849 59.7324C30.7433 59.3832 27.9165 58.1453 25.6467 56.2125C25.0662 55.7181 24.2405 54.8896 23.7902 54.3496L20.6433 48.4141C20.3603 47.4064 20.0805 45.3651 20.0805 45.3651C20.0805 45.3651 20.0399 42.8693 20.0811 42.4747C20.1311 41.9955 20.2449 41.1883 20.3086 40.8609C20.3958 40.4127 20.6265 39.5034 20.7628 39.0707C21.1649 37.7945 21.7128 36.5895 22.4153 35.4359C22.5099 35.2807 22.5873 35.1425 22.5873 35.1288C22.5873 35.1152 22.5962 35.1041 22.6072 35.1041C22.6182 35.1041 22.6758 35.0288 22.7352 34.9368C22.8438 34.7685 23.394 34.0155 23.5721 33.7913C24.01 33.2401 24.7499 32.4659 25.3773 31.9026C26.6228 30.7842 28.1996 29.7967 29.7507 29.1635C31.0521 28.6323 32.4413 28.2815 33.8369 28.1317C34.7157 28.0374 35.827 28.0178 36.585 28.0833C36.8165 28.1032 37.1074 28.1264 37.2314 28.1347L37.4569 28.1499L37.4714 27.8152C37.5652 25.6615 37.8847 24.01 38.5616 22.1814C39.3004 20.1852 40.3705 18.3654 41.7058 16.8341C42.0512 16.438 42.682 15.7785 43.0147 15.4656C43.3016 15.1958 44.0182 14.5966 44.4161 14.2939C45.4495 13.5077 46.8266 12.7291 48.0995 12.2115C48.9526 11.8646 49.4592 11.6992 50.3488 11.4772C51.2059 11.2632 51.7865 11.1642 52.8396 11.0525C53.172 11.0173 54.8027 10.9853 55.155 11.0071Z" fill="#EBF9FF"/>
</g>
<path d="M24.7484 91.4126C24.7139 90.5272 24.1383 91.0337 23.8427 91.6647C23.5471 92.2952 22.6153 91.8826 22.9792 91.2282C23.3423 90.5732 24.2817 90.0099 24.1287 89.616C24.0065 89.3011 23.8033 88.7762 23.7267 88.5789C23.5661 88.6002 23.3994 88.5983 23.2313 88.5709C23.0633 88.5435 22.9051 88.4923 22.7605 88.4211C22.6226 88.5834 22.2553 89.0151 22.0351 89.2742C21.7598 89.5981 22.4604 90.4292 22.5862 91.164C22.7121 91.8989 21.6938 91.9924 21.624 91.3023C21.5543 90.6117 21.179 89.9499 20.8512 90.7763C20.5245 91.6029 19.7706 92.2695 19.3226 91.9117C18.8746 91.554 19.4063 90.7101 20.1808 90.2405C20.955 89.7719 20.2125 89.5414 19.5001 89.6067C18.7873 89.6721 18.6878 88.6866 19.4561 88.6656C20.2246 88.6443 21.2011 89.1519 21.4762 88.8281C21.6969 88.5685 22.0643 88.1366 22.2022 87.9745C22.0005 87.7237 21.8768 87.4154 21.8572 87.0867C21.6433 87.0517 21.0719 86.9585 20.7292 86.9026C20.3013 86.8327 19.91 87.8332 19.3161 88.3045C18.7223 88.7752 18.1266 87.9683 18.7087 87.5662C19.2912 87.1643 19.6944 86.5208 18.7906 86.6571C17.8873 86.7934 16.9117 86.4934 17.0064 85.9394C17.101 85.386 18.1235 85.412 18.9323 85.828C19.7417 86.2441 19.5744 85.5074 19.1572 84.9425C18.7405 84.3773 19.5723 83.8035 19.9774 84.4372C20.3823 85.0715 20.4193 86.1421 20.8473 86.212C21.19 86.268 21.7614 86.3612 21.9753 86.3962C22.1031 86.0916 22.3226 85.8391 22.5968 85.6662C22.5203 85.4691 22.3167 84.9439 22.1943 84.6283C22.0419 84.2347 20.9495 84.4039 20.2298 84.1402C19.5102 83.8763 19.9322 82.9758 20.5845 83.2643C21.2366 83.5521 22.0153 83.5709 21.4392 82.8812C20.8629 82.191 20.6408 81.2241 21.1837 81.0279C21.7264 80.8318 22.2173 81.7023 22.2514 82.5874C22.2866 83.4726 22.8616 82.9659 23.1573 82.3353C23.4527 81.7053 24.3846 82.1171 24.0212 82.7718C23.6578 83.4267 22.7187 83.9902 22.8713 84.3839C22.9933 84.699 23.197 85.2239 23.2735 85.4208C23.4339 85.3997 23.6005 85.4017 23.7686 85.4292C23.9366 85.4566 24.0949 85.5076 24.2397 85.5785C24.3778 85.4168 24.7446 84.9849 24.9648 84.7257C25.2406 84.402 24.5397 83.5707 24.4141 82.8359C24.2878 82.1013 25.3061 82.0079 25.3759 82.6976C25.4456 83.3879 25.8214 84.0502 26.1486 83.2238C26.4754 82.3975 27.2292 81.7301 27.6772 82.0882C28.1255 82.4462 27.5936 83.29 26.819 83.7596C26.0448 84.2289 26.7873 84.4585 27.4998 84.3934C28.2126 84.3278 28.3122 85.3136 27.5438 85.3345C26.7757 85.3552 25.7994 84.8483 25.5237 85.1719C25.3029 85.4316 24.9356 85.8635 24.798 86.0256C24.9997 86.2762 25.1231 86.5847 25.1426 86.9134C25.3566 86.9483 25.9279 87.0415 26.2706 87.0975C26.6986 87.1674 27.0899 86.1667 27.6837 85.6955C28.2776 85.2249 28.8733 86.0318 28.2913 86.4339C27.7087 86.8356 27.3056 87.4791 28.2094 87.3428C29.1128 87.2064 30.0883 87.5065 29.9936 88.06C29.8989 88.614 28.8767 88.5876 28.0676 88.1719C27.2583 87.7558 27.4255 88.4925 27.8426 89.0576C28.2593 89.6229 27.4275 90.1966 27.0225 89.5628C26.6176 88.9285 26.5805 87.858 26.1526 87.7881C25.8099 87.7322 25.2386 87.6388 25.0246 87.6039C24.8967 87.9085 24.6775 88.1608 24.4032 88.334C24.4796 88.5309 24.6832 89.0561 24.8055 89.3718C24.9586 89.7655 26.0506 89.5956 26.77 89.8599C27.4896 90.1238 27.0677 91.0241 26.4154 90.7359C25.7632 90.4477 24.9845 90.4292 25.5606 91.119C26.1369 91.8088 26.3592 92.7764 25.8163 92.972C25.2734 93.1684 24.7825 92.2978 24.7484 91.4126ZM24.42 87.15C24.504 86.6587 24.1604 86.1928 23.6522 86.1099C23.1441 86.0269 22.6642 86.3583 22.5802 86.8496C22.4961 87.3414 22.8397 87.807 23.3477 87.89C23.856 87.973 24.3359 87.6418 24.42 87.15Z" fill="#CAEFFF"/>
<path d="M103.748 63.4126C103.714 62.5272 103.138 63.0337 102.843 63.6647C102.547 64.2952 101.615 63.8826 101.979 63.2282C102.342 62.5732 103.282 62.0099 103.129 61.616C103.007 61.3011 102.803 60.7762 102.727 60.5789C102.566 60.6002 102.399 60.5983 102.231 60.5709C102.063 60.5435 101.905 60.4923 101.76 60.4211C101.623 60.5834 101.255 61.0151 101.035 61.2742C100.76 61.5981 101.46 62.4292 101.586 63.164C101.712 63.8989 100.694 63.9924 100.624 63.3023C100.554 62.6117 100.179 61.9499 99.8512 62.7763C99.5245 63.6029 98.7706 64.2695 98.3226 63.9117C97.8746 63.554 98.4063 62.7101 99.1808 62.2405C99.955 61.7719 99.2125 61.5414 98.5001 61.6067C97.7873 61.6721 97.6878 60.6866 98.4561 60.6656C99.2246 60.6443 100.201 61.1519 100.476 60.8281C100.697 60.5685 101.064 60.1366 101.202 59.9745C101 59.7237 100.877 59.4154 100.857 59.0867C100.643 59.0517 100.072 58.9585 99.7292 58.9026C99.3013 58.8327 98.91 59.8332 98.3161 60.3045C97.7223 60.7752 97.1266 59.9683 97.7087 59.5662C98.2912 59.1643 98.6944 58.5208 97.7906 58.6571C96.8873 58.7934 95.9117 58.4934 96.0064 57.9394C96.101 57.386 97.1235 57.412 97.9323 57.828C98.7417 58.2441 98.5744 57.5074 98.1572 56.9425C97.7405 56.3773 98.5723 55.8035 98.9774 56.4372C99.3823 57.0715 99.4193 58.1421 99.8473 58.212C100.19 58.268 100.761 58.3612 100.975 58.3962C101.103 58.0916 101.323 57.8391 101.597 57.6662C101.52 57.4691 101.317 56.9439 101.194 56.6283C101.042 56.2347 99.9495 56.4039 99.2298 56.1402C98.5102 55.8763 98.9322 54.9758 99.5845 55.2643C100.237 55.5521 101.015 55.5709 100.439 54.8812C99.8629 54.191 99.6408 53.2241 100.184 53.0279C100.726 52.8318 101.217 53.7023 101.251 54.5874C101.287 55.4726 101.862 54.9659 102.157 54.3353C102.453 53.7053 103.385 54.1171 103.021 54.7718C102.658 55.4267 101.719 55.9902 101.871 56.3839C101.993 56.699 102.197 57.2239 102.273 57.4208C102.434 57.3997 102.6 57.4017 102.769 57.4292C102.937 57.4566 103.095 57.5076 103.24 57.5785C103.378 57.4168 103.745 56.9849 103.965 56.7257C104.241 56.402 103.54 55.5707 103.414 54.8359C103.288 54.1013 104.306 54.0079 104.376 54.6976C104.446 55.3879 104.821 56.0502 105.149 55.2238C105.475 54.3975 106.229 53.7301 106.677 54.0882C107.126 54.4462 106.594 55.29 105.819 55.7596C105.045 56.2289 105.787 56.4585 106.5 56.3934C107.213 56.3278 107.312 57.3136 106.544 57.3345C105.776 57.3552 104.799 56.8483 104.524 57.1719C104.303 57.4316 103.936 57.8635 103.798 58.0256C104 58.2762 104.123 58.5847 104.143 58.9134C104.357 58.9483 104.928 59.0415 105.271 59.0975C105.699 59.1674 106.09 58.1667 106.684 57.6955C107.278 57.2249 107.873 58.0318 107.291 58.4339C106.709 58.8356 106.306 59.4791 107.209 59.3428C108.113 59.2064 109.088 59.5065 108.994 60.06C108.899 60.614 107.877 60.5876 107.068 60.1719C106.258 59.7558 106.425 60.4925 106.843 61.0576C107.259 61.6229 106.427 62.1966 106.022 61.5628C105.618 60.9285 105.58 59.858 105.153 59.7881C104.81 59.7322 104.239 59.6388 104.025 59.6039C103.897 59.9085 103.677 60.1608 103.403 60.334C103.48 60.5309 103.683 61.0561 103.806 61.3718C103.959 61.7655 105.051 61.5956 105.77 61.8599C106.49 62.1238 106.068 63.0241 105.415 62.7359C104.763 62.4477 103.985 62.4292 104.561 63.119C105.137 63.8088 105.359 64.7764 104.816 64.972C104.273 65.1684 103.783 64.2978 103.748 63.4126ZM103.42 59.15C103.504 58.6587 103.16 58.1928 102.652 58.1099C102.144 58.0269 101.664 58.3583 101.58 58.8496C101.496 59.3414 101.84 59.807 102.348 59.89C102.856 59.973 103.336 59.6418 103.42 59.15Z" fill="#CAEFFF"/>
<path d="M15.7484 73.4126C15.7139 72.5272 15.1383 73.0337 14.8427 73.6647C14.5471 74.2952 13.6153 73.8826 13.9792 73.2282C14.3423 72.5732 15.2817 72.0099 15.1287 71.616C15.0065 71.3011 14.8033 70.7762 14.7267 70.5789C14.5661 70.6002 14.3994 70.5983 14.2313 70.5709C14.0633 70.5435 13.9051 70.4923 13.7605 70.4211C13.6226 70.5834 13.2553 71.0151 13.0351 71.2742C12.7598 71.5981 13.4604 72.4292 13.5862 73.164C13.7121 73.8989 12.6938 73.9924 12.624 73.3023C12.5543 72.6117 12.179 71.9499 11.8512 72.7763C11.5245 73.6029 10.7706 74.2695 10.3226 73.9117C9.87456 73.554 10.4063 72.7101 11.1808 72.2405C11.955 71.7719 11.2125 71.5414 10.5001 71.6067C9.78731 71.6721 9.68776 70.6866 10.4561 70.6656C11.2246 70.6443 12.2011 71.1519 12.4762 70.8281C12.6969 70.5685 13.0643 70.1366 13.2022 69.9745C13.0005 69.7237 12.8768 69.4154 12.8572 69.0867C12.6433 69.0517 12.0719 68.9585 11.7292 68.9026C11.3013 68.8327 10.91 69.8332 10.3161 70.3045C9.72226 70.7752 9.12657 69.9683 9.70866 69.5662C10.2912 69.1643 10.6944 68.5208 9.79064 68.6571C8.88728 68.7934 7.91167 68.4934 8.00639 67.9394C8.10102 67.386 9.1235 67.412 9.93232 67.828C10.7417 68.2441 10.5744 67.5074 10.1572 66.9425C9.74052 66.3773 10.5723 65.8035 10.9774 66.4372C11.3823 67.0715 11.4193 68.1421 11.8473 68.212C12.19 68.268 12.7614 68.3612 12.9753 68.3962C13.1031 68.0916 13.3226 67.8391 13.5968 67.6662C13.5203 67.4691 13.3167 66.9439 13.1943 66.6283C13.0419 66.2347 11.9495 66.4039 11.2298 66.1402C10.5102 65.8763 10.9322 64.9758 11.5845 65.2643C12.2366 65.5521 13.0153 65.5709 12.4392 64.8812C11.8629 64.191 11.6408 63.2241 12.1837 63.0279C12.7264 62.8318 13.2173 63.7023 13.2514 64.5874C13.2866 65.4726 13.8616 64.9659 14.1573 64.3353C14.4527 63.7053 15.3846 64.1171 15.0212 64.7718C14.6578 65.4267 13.7187 65.9902 13.8713 66.3839C13.9933 66.699 14.197 67.2239 14.2735 67.4208C14.4339 67.3997 14.6005 67.4017 14.7686 67.4292C14.9366 67.4566 15.0949 67.5076 15.2397 67.5785C15.3778 67.4168 15.7446 66.9849 15.9648 66.7257C16.2406 66.402 15.5397 65.5707 15.4141 64.8359C15.2878 64.1013 16.3061 64.0079 16.3759 64.6976C16.4456 65.3879 16.8214 66.0502 17.1486 65.2238C17.4754 64.3975 18.2292 63.7301 18.6772 64.0882C19.1255 64.4462 18.5936 65.29 17.819 65.7596C17.0448 66.2289 17.7873 66.4585 18.4998 66.3934C19.2126 66.3278 19.3122 67.3136 18.5438 67.3345C17.7757 67.3552 16.7994 66.8483 16.5237 67.1719C16.3029 67.4316 15.9356 67.8635 15.798 68.0256C15.9997 68.2762 16.1231 68.5847 16.1426 68.9134C16.3566 68.9483 16.9279 69.0415 17.2706 69.0975C17.6986 69.1674 18.0899 68.1667 18.6837 67.6955C19.2776 67.2249 19.8733 68.0318 19.2913 68.4339C18.7087 68.8356 18.3056 69.4791 19.2094 69.3428C20.1128 69.2064 21.0883 69.5065 20.9936 70.06C20.8989 70.614 19.8767 70.5876 19.0676 70.1719C18.2583 69.7558 18.4255 70.4925 18.8426 71.0576C19.2593 71.6229 18.4275 72.1966 18.0225 71.5628C17.6176 70.9285 17.5805 69.858 17.1526 69.7881C16.8099 69.7322 16.2386 69.6388 16.0246 69.6039C15.8967 69.9085 15.6775 70.1608 15.4032 70.334C15.4796 70.5309 15.6832 71.0561 15.8055 71.3718C15.9586 71.7655 17.0506 71.5956 17.77 71.8599C18.4896 72.1238 18.0677 73.0241 17.4154 72.7359C16.7632 72.4477 15.9845 72.4292 16.5606 73.119C17.1369 73.8088 17.3592 74.7764 16.8163 74.972C16.2734 75.1684 15.7825 74.2978 15.7484 73.4126ZM15.42 69.15C15.504 68.6587 15.1604 68.1928 14.6522 68.1099C14.1441 68.0269 13.6642 68.3583 13.5802 68.8496C13.4961 69.3414 13.8397 69.807 14.3477 69.89C14.856 69.973 15.3359 69.6418 15.42 69.15Z" fill="#CAEFFF"/>
<path d="M74.7484 83.4126C74.7139 82.5272 74.1383 83.0337 73.8427 83.6647C73.5471 84.2952 72.6153 83.8826 72.9792 83.2282C73.3423 82.5732 74.2817 82.0099 74.1287 81.616C74.0065 81.3011 73.8033 80.7762 73.7267 80.5789C73.5661 80.6002 73.3994 80.5983 73.2313 80.5709C73.0633 80.5435 72.9051 80.4923 72.7605 80.4211C72.6226 80.5834 72.2553 81.0151 72.0351 81.2742C71.7598 81.5981 72.4604 82.4292 72.5862 83.164C72.7121 83.8989 71.6938 83.9924 71.624 83.3023C71.5543 82.6117 71.179 81.9499 70.8512 82.7763C70.5245 83.6029 69.7706 84.2695 69.3226 83.9117C68.8746 83.554 69.4063 82.7101 70.1808 82.2405C70.955 81.7719 70.2125 81.5414 69.5001 81.6067C68.7873 81.6721 68.6878 80.6866 69.4561 80.6656C70.2246 80.6443 71.2011 81.1519 71.4762 80.8281C71.6969 80.5685 72.0643 80.1366 72.2022 79.9745C72.0005 79.7237 71.8768 79.4154 71.8572 79.0867C71.6433 79.0517 71.0719 78.9585 70.7292 78.9026C70.3013 78.8327 69.91 79.8332 69.3161 80.3045C68.7223 80.7752 68.1266 79.9683 68.7087 79.5662C69.2912 79.1643 69.6944 78.5208 68.7906 78.6571C67.8873 78.7934 66.9117 78.4934 67.0064 77.9394C67.101 77.386 68.1235 77.412 68.9323 77.828C69.7417 78.2441 69.5744 77.5074 69.1572 76.9425C68.7405 76.3773 69.5723 75.8035 69.9774 76.4372C70.3823 77.0715 70.4193 78.1421 70.8473 78.212C71.19 78.268 71.7614 78.3612 71.9753 78.3962C72.1031 78.0916 72.3226 77.8391 72.5968 77.6662C72.5203 77.4691 72.3167 76.9439 72.1943 76.6283C72.0419 76.2347 70.9495 76.4039 70.2298 76.1402C69.5102 75.8763 69.9322 74.9758 70.5845 75.2643C71.2366 75.5521 72.0153 75.5709 71.4392 74.8812C70.8629 74.191 70.6408 73.2241 71.1837 73.0279C71.7264 72.8318 72.2173 73.7023 72.2514 74.5874C72.2866 75.4726 72.8616 74.9659 73.1573 74.3353C73.4527 73.7053 74.3846 74.1171 74.0212 74.7718C73.6578 75.4267 72.7187 75.9902 72.8713 76.3839C72.9933 76.699 73.197 77.2239 73.2735 77.4208C73.4339 77.3997 73.6005 77.4017 73.7686 77.4292C73.9366 77.4566 74.0949 77.5076 74.2397 77.5785C74.3778 77.4168 74.7446 76.9849 74.9648 76.7257C75.2406 76.402 74.5397 75.5707 74.4141 74.8359C74.2878 74.1013 75.3061 74.0079 75.3759 74.6976C75.4456 75.3879 75.8214 76.0502 76.1486 75.2238C76.4754 74.3975 77.2292 73.7301 77.6772 74.0882C78.1255 74.4462 77.5936 75.29 76.819 75.7596C76.0448 76.2289 76.7873 76.4585 77.4998 76.3934C78.2126 76.3278 78.3122 77.3136 77.5438 77.3345C76.7757 77.3552 75.7994 76.8483 75.5237 77.1719C75.3029 77.4316 74.9356 77.8635 74.798 78.0256C74.9997 78.2762 75.1231 78.5847 75.1426 78.9134C75.3566 78.9483 75.9279 79.0415 76.2706 79.0975C76.6986 79.1674 77.0899 78.1667 77.6837 77.6955C78.2776 77.2249 78.8733 78.0318 78.2913 78.4339C77.7087 78.8356 77.3056 79.4791 78.2094 79.3428C79.1128 79.2064 80.0883 79.5065 79.9936 80.06C79.8989 80.614 78.8767 80.5876 78.0676 80.1719C77.2583 79.7558 77.4255 80.4925 77.8426 81.0576C78.2593 81.6229 77.4275 82.1966 77.0225 81.5628C76.6176 80.9285 76.5805 79.858 76.1526 79.7881C75.8099 79.7322 75.2386 79.6388 75.0246 79.6039C74.8967 79.9085 74.6775 80.1608 74.4032 80.334C74.4796 80.5309 74.6832 81.0561 74.8055 81.3718C74.9586 81.7655 76.0506 81.5956 76.77 81.8599C77.4896 82.1238 77.0677 83.0241 76.4154 82.7359C75.7632 82.4477 74.9845 82.4292 75.5606 83.119C76.1369 83.8088 76.3592 84.7764 75.8163 84.972C75.2734 85.1684 74.7825 84.2978 74.7484 83.4126ZM74.42 79.15C74.504 78.6587 74.1604 78.1928 73.6522 78.1099C73.1441 78.0269 72.6642 78.3583 72.5802 78.8496C72.4961 79.3414 72.8397 79.807 73.3477 79.89C73.856 79.973 74.3359 79.6418 74.42 79.15Z" fill="#CAEFFF"/>
<path d="M70.7484 97.4126C70.7139 96.5272 70.1383 97.0337 69.8427 97.6647C69.5471 98.2952 68.6153 97.8826 68.9792 97.2282C69.3423 96.5732 70.2817 96.0099 70.1287 95.616C70.0065 95.3011 69.8033 94.7762 69.7267 94.5789C69.5661 94.6002 69.3994 94.5983 69.2313 94.5709C69.0633 94.5435 68.9051 94.4923 68.7605 94.4211C68.6226 94.5834 68.2553 95.0151 68.0351 95.2742C67.7598 95.5981 68.4604 96.4292 68.5862 97.164C68.7121 97.8989 67.6938 97.9924 67.624 97.3023C67.5543 96.6117 67.179 95.9499 66.8512 96.7763C66.5245 97.6029 65.7706 98.2695 65.3226 97.9117C64.8746 97.554 65.4063 96.7101 66.1808 96.2405C66.955 95.7719 66.2125 95.5414 65.5001 95.6067C64.7873 95.6721 64.6878 94.6866 65.4561 94.6656C66.2246 94.6443 67.2011 95.1519 67.4762 94.8281C67.6969 94.5685 68.0643 94.1366 68.2022 93.9745C68.0005 93.7237 67.8768 93.4154 67.8572 93.0867C67.6433 93.0517 67.0719 92.9585 66.7292 92.9026C66.3013 92.8327 65.91 93.8332 65.3161 94.3045C64.7223 94.7752 64.1266 93.9683 64.7087 93.5662C65.2912 93.1643 65.6944 92.5208 64.7906 92.6571C63.8873 92.7934 62.9117 92.4934 63.0064 91.9394C63.101 91.386 64.1235 91.412 64.9323 91.828C65.7417 92.2441 65.5744 91.5074 65.1572 90.9425C64.7405 90.3773 65.5723 89.8035 65.9774 90.4372C66.3823 91.0715 66.4193 92.1421 66.8473 92.212C67.19 92.268 67.7614 92.3612 67.9753 92.3962C68.1031 92.0916 68.3226 91.8391 68.5968 91.6662C68.5203 91.4691 68.3167 90.9439 68.1943 90.6283C68.0419 90.2347 66.9495 90.4039 66.2298 90.1402C65.5102 89.8763 65.9322 88.9758 66.5845 89.2643C67.2366 89.5521 68.0153 89.5709 67.4392 88.8812C66.8629 88.191 66.6408 87.2241 67.1837 87.0279C67.7264 86.8318 68.2173 87.7023 68.2514 88.5874C68.2866 89.4726 68.8616 88.9659 69.1573 88.3353C69.4527 87.7053 70.3846 88.1171 70.0212 88.7718C69.6578 89.4267 68.7187 89.9902 68.8713 90.3839C68.9933 90.699 69.197 91.2239 69.2735 91.4208C69.4339 91.3997 69.6005 91.4017 69.7686 91.4292C69.9366 91.4566 70.0949 91.5076 70.2397 91.5785C70.3778 91.4168 70.7446 90.9849 70.9648 90.7257C71.2406 90.402 70.5397 89.5707 70.4141 88.8359C70.2878 88.1013 71.3061 88.0079 71.3759 88.6976C71.4456 89.3879 71.8214 90.0502 72.1486 89.2238C72.4754 88.3975 73.2292 87.7301 73.6772 88.0882C74.1255 88.4462 73.5936 89.29 72.819 89.7596C72.0448 90.2289 72.7873 90.4585 73.4998 90.3934C74.2126 90.3278 74.3122 91.3136 73.5438 91.3345C72.7757 91.3552 71.7994 90.8483 71.5237 91.1719C71.3029 91.4316 70.9356 91.8635 70.798 92.0256C70.9997 92.2762 71.1231 92.5847 71.1426 92.9134C71.3566 92.9483 71.9279 93.0415 72.2706 93.0975C72.6986 93.1674 73.0899 92.1667 73.6837 91.6955C74.2776 91.2249 74.8733 92.0318 74.2913 92.4339C73.7087 92.8356 73.3056 93.4791 74.2094 93.3428C75.1128 93.2064 76.0883 93.5065 75.9936 94.06C75.8989 94.614 74.8767 94.5876 74.0676 94.1719C73.2583 93.7558 73.4255 94.4925 73.8426 95.0576C74.2593 95.6229 73.4275 96.1966 73.0225 95.5628C72.6176 94.9285 72.5805 93.858 72.1526 93.7881C71.8099 93.7322 71.2386 93.6388 71.0246 93.6039C70.8967 93.9085 70.6775 94.1608 70.4032 94.334C70.4796 94.5309 70.6832 95.0561 70.8055 95.3718C70.9586 95.7655 72.0506 95.5956 72.77 95.8599C73.4896 96.1238 73.0677 97.0241 72.4154 96.7359C71.7632 96.4477 70.9845 96.4292 71.5606 97.119C72.1369 97.8088 72.3592 98.7764 71.8163 98.972C71.2734 99.1684 70.7825 98.2978 70.7484 97.4126ZM70.42 93.15C70.504 92.6587 70.1604 92.1928 69.6522 92.1099C69.1441 92.0269 68.6642 92.3583 68.5802 92.8496C68.4961 93.3414 68.8397 93.807 69.3477 93.89C69.856 93.973 70.3359 93.6418 70.42 93.15Z" fill="#CAEFFF"/>
<path d="M43.7484 105.413C43.7139 104.527 43.1383 105.034 42.8427 105.665C42.5471 106.295 41.6153 105.883 41.9792 105.228C42.3423 104.573 43.2817 104.01 43.1287 103.616C43.0065 103.301 42.8033 102.776 42.7267 102.579C42.5661 102.6 42.3994 102.598 42.2313 102.571C42.0633 102.543 41.9051 102.492 41.7605 102.421C41.6226 102.583 41.2553 103.015 41.0351 103.274C40.7598 103.598 41.4604 104.429 41.5862 105.164C41.7121 105.899 40.6938 105.992 40.624 105.302C40.5543 104.612 40.179 103.95 39.8512 104.776C39.5245 105.603 38.7706 106.269 38.3226 105.912C37.8746 105.554 38.4063 104.71 39.1808 104.24C39.955 103.772 39.2125 103.541 38.5001 103.607C37.7873 103.672 37.6878 102.687 38.4561 102.666C39.2246 102.644 40.2011 103.152 40.4762 102.828C40.6969 102.569 41.0643 102.137 41.2022 101.974C41.0005 101.724 40.8768 101.415 40.8572 101.087C40.6433 101.052 40.0719 100.958 39.7292 100.903C39.3013 100.833 38.91 101.833 38.3161 102.304C37.7223 102.775 37.1266 101.968 37.7087 101.566C38.2912 101.164 38.6944 100.521 37.7906 100.657C36.8873 100.793 35.9117 100.493 36.0064 99.9394C36.101 99.386 37.1235 99.412 37.9323 99.828C38.7417 100.244 38.5744 99.5074 38.1572 98.9425C37.7405 98.3773 38.5723 97.8035 38.9774 98.4372C39.3823 99.0715 39.4193 100.142 39.8473 100.212C40.19 100.268 40.7614 100.361 40.9753 100.396C41.1031 100.092 41.3226 99.8391 41.5968 99.6662C41.5203 99.4691 41.3167 98.9439 41.1943 98.6283C41.0419 98.2347 39.9495 98.4039 39.2298 98.1402C38.5102 97.8763 38.9322 96.9758 39.5845 97.2643C40.2366 97.5521 41.0153 97.5709 40.4392 96.8812C39.8629 96.191 39.6408 95.2241 40.1837 95.0279C40.7264 94.8318 41.2173 95.7023 41.2514 96.5874C41.2866 97.4726 41.8616 96.9659 42.1573 96.3353C42.4527 95.7053 43.3846 96.1171 43.0212 96.7718C42.6578 97.4267 41.7187 97.9902 41.8713 98.3839C41.9933 98.699 42.197 99.2239 42.2735 99.4208C42.4339 99.3997 42.6005 99.4017 42.7686 99.4292C42.9366 99.4566 43.0949 99.5076 43.2397 99.5785C43.3778 99.4168 43.7446 98.9849 43.9648 98.7257C44.2406 98.402 43.5397 97.5707 43.4141 96.8359C43.2878 96.1013 44.3061 96.0079 44.3759 96.6976C44.4456 97.3879 44.8214 98.0502 45.1486 97.2238C45.4754 96.3975 46.2292 95.7301 46.6772 96.0882C47.1255 96.4462 46.5936 97.29 45.819 97.7596C45.0448 98.2289 45.7873 98.4585 46.4998 98.3934C47.2126 98.3278 47.3122 99.3136 46.5438 99.3345C45.7757 99.3552 44.7994 98.8483 44.5237 99.1719C44.3029 99.4316 43.9356 99.8635 43.798 100.026C43.9997 100.276 44.1231 100.585 44.1426 100.913C44.3566 100.948 44.9279 101.042 45.2706 101.098C45.6986 101.167 46.0899 100.167 46.6837 99.6955C47.2776 99.2249 47.8733 100.032 47.2913 100.434C46.7087 100.836 46.3056 101.479 47.2094 101.343C48.1128 101.206 49.0883 101.506 48.9936 102.06C48.8989 102.614 47.8767 102.588 47.0676 102.172C46.2583 101.756 46.4255 102.493 46.8426 103.058C47.2593 103.623 46.4275 104.197 46.0225 103.563C45.6176 102.928 45.5805 101.858 45.1526 101.788C44.8099 101.732 44.2386 101.639 44.0246 101.604C43.8967 101.909 43.6775 102.161 43.4032 102.334C43.4796 102.531 43.6832 103.056 43.8055 103.372C43.9586 103.766 45.0506 103.596 45.77 103.86C46.4896 104.124 46.0677 105.024 45.4154 104.736C44.7632 104.448 43.9845 104.429 44.5606 105.119C45.1369 105.809 45.3592 106.776 44.8163 106.972C44.2734 107.168 43.7825 106.298 43.7484 105.413ZM43.42 101.15C43.504 100.659 43.1604 100.193 42.6522 100.11C42.1441 100.027 41.6642 100.358 41.5802 100.85C41.4961 101.341 41.8397 101.807 42.3477 101.89C42.856 101.973 43.3359 101.642 43.42 101.15Z" fill="#CAEFFF"/>
<path d="M24.7484 91.4126C24.7139 90.5272 24.1383 91.0337 23.8427 91.6647C23.5471 92.2952 22.6153 91.8826 22.9792 91.2282C23.3423 90.5732 24.2817 90.0099 24.1287 89.616C24.0065 89.3011 23.8033 88.7762 23.7267 88.5789C23.5661 88.6002 23.3994 88.5983 23.2313 88.5709C23.0633 88.5435 22.9051 88.4923 22.7605 88.4211C22.6226 88.5834 22.2553 89.0151 22.0351 89.2742C21.7598 89.5981 22.4604 90.4292 22.5862 91.164C22.7121 91.8989 21.6938 91.9924 21.624 91.3023C21.5543 90.6117 21.179 89.9499 20.8512 90.7763C20.5245 91.6029 19.7706 92.2695 19.3226 91.9117C18.8746 91.554 19.4063 90.7101 20.1808 90.2405C20.955 89.7719 20.2125 89.5414 19.5001 89.6067C18.7873 89.6721 18.6878 88.6866 19.4561 88.6656C20.2246 88.6443 21.2011 89.1519 21.4762 88.8281C21.6969 88.5685 22.0643 88.1366 22.2022 87.9745C22.0005 87.7237 21.8768 87.4154 21.8572 87.0867C21.6433 87.0517 21.0719 86.9585 20.7292 86.9026C20.3013 86.8327 19.91 87.8332 19.3161 88.3045C18.7223 88.7752 18.1266 87.9683 18.7087 87.5662C19.2912 87.1643 19.6944 86.5208 18.7906 86.6571C17.8873 86.7934 16.9117 86.4934 17.0064 85.9394C17.101 85.386 18.1235 85.412 18.9323 85.828C19.7417 86.2441 19.5744 85.5074 19.1572 84.9425C18.7405 84.3773 19.5723 83.8035 19.9774 84.4372C20.3823 85.0715 20.4193 86.1421 20.8473 86.212C21.19 86.268 21.7614 86.3612 21.9753 86.3962C22.1031 86.0916 22.3226 85.8391 22.5968 85.6662C22.5203 85.4691 22.3167 84.9439 22.1943 84.6283C22.0419 84.2347 20.9495 84.4039 20.2298 84.1402C19.5102 83.8763 19.9322 82.9758 20.5845 83.2643C21.2366 83.5521 22.0153 83.5709 21.4392 82.8812C20.8629 82.191 20.6408 81.2241 21.1837 81.0279C21.7264 80.8318 22.2173 81.7023 22.2514 82.5874C22.2866 83.4726 22.8616 82.9659 23.1573 82.3353C23.4527 81.7053 24.3846 82.1171 24.0212 82.7718C23.6578 83.4267 22.7187 83.9902 22.8713 84.3839C22.9933 84.699 23.197 85.2239 23.2735 85.4208C23.4339 85.3997 23.6005 85.4017 23.7686 85.4292C23.9366 85.4566 24.0949 85.5076 24.2397 85.5785C24.3778 85.4168 24.7446 84.9849 24.9648 84.7257C25.2406 84.402 24.5397 83.5707 24.4141 82.8359C24.2878 82.1013 25.3061 82.0079 25.3759 82.6976C25.4456 83.3879 25.8214 84.0502 26.1486 83.2238C26.4754 82.3975 27.2292 81.7301 27.6772 82.0882C28.1255 82.4462 27.5936 83.29 26.819 83.7596C26.0448 84.2289 26.7873 84.4585 27.4998 84.3934C28.2126 84.3278 28.3122 85.3136 27.5438 85.3345C26.7757 85.3552 25.7994 84.8483 25.5237 85.1719C25.3029 85.4316 24.9356 85.8635 24.798 86.0256C24.9997 86.2762 25.1231 86.5847 25.1426 86.9134C25.3566 86.9483 25.9279 87.0415 26.2706 87.0975C26.6986 87.1674 27.0899 86.1667 27.6837 85.6955C28.2776 85.2249 28.8733 86.0318 28.2913 86.4339C27.7087 86.8356 27.3056 87.4791 28.2094 87.3428C29.1128 87.2064 30.0883 87.5065 29.9936 88.06C29.8989 88.614 28.8767 88.5876 28.0676 88.1719C27.2583 87.7558 27.4255 88.4925 27.8426 89.0576C28.2593 89.6229 27.4275 90.1966 27.0225 89.5628C26.6176 88.9285 26.5805 87.858 26.1526 87.7881C25.8099 87.7322 25.2386 87.6388 25.0246 87.6039C24.8967 87.9085 24.6775 88.1608 24.4032 88.334C24.4796 88.5309 24.6832 89.0561 24.8055 89.3718C24.9586 89.7655 26.0506 89.5956 26.77 89.8599C27.4896 90.1238 27.0677 91.0241 26.4154 90.7359C25.7632 90.4477 24.9845 90.4292 25.5606 91.119C26.1369 91.8088 26.3592 92.7764 25.8163 92.972C25.2734 93.1684 24.7825 92.2978 24.7484 91.4126ZM24.42 87.15C24.504 86.6587 24.1604 86.1928 23.6522 86.1099C23.1441 86.0269 22.6642 86.3583 22.5802 86.8496C22.4961 87.3414 22.8397 87.807 23.3477 87.89C23.856 87.973 24.3359 87.6418 24.42 87.15Z" fill="#CAEFFF"/>
<path d="M50.7484 89.4126C50.7139 88.5272 50.1383 89.0337 49.8427 89.6647C49.5471 90.2952 48.6153 89.8826 48.9792 89.2282C49.3423 88.5732 50.2817 88.0099 50.1287 87.616C50.0065 87.3011 49.8033 86.7762 49.7267 86.5789C49.5661 86.6002 49.3994 86.5983 49.2313 86.5709C49.0633 86.5435 48.9051 86.4923 48.7605 86.4211C48.6226 86.5834 48.2553 87.0151 48.0351 87.2742C47.7598 87.5981 48.4604 88.4292 48.5862 89.164C48.7121 89.8989 47.6938 89.9924 47.624 89.3023C47.5543 88.6117 47.179 87.9499 46.8512 88.7763C46.5245 89.6029 45.7706 90.2695 45.3226 89.9117C44.8746 89.554 45.4063 88.7101 46.1808 88.2405C46.955 87.7719 46.2125 87.5414 45.5001 87.6067C44.7873 87.6721 44.6878 86.6866 45.4561 86.6656C46.2246 86.6443 47.2011 87.1519 47.4762 86.8281C47.6969 86.5685 48.0643 86.1366 48.2022 85.9745C48.0005 85.7237 47.8768 85.4154 47.8572 85.0867C47.6433 85.0517 47.0719 84.9585 46.7292 84.9026C46.3013 84.8327 45.91 85.8332 45.3161 86.3045C44.7223 86.7752 44.1266 85.9683 44.7087 85.5662C45.2912 85.1643 45.6944 84.5208 44.7906 84.6571C43.8873 84.7934 42.9117 84.4934 43.0064 83.9394C43.101 83.386 44.1235 83.412 44.9323 83.828C45.7417 84.2441 45.5744 83.5074 45.1572 82.9425C44.7405 82.3773 45.5723 81.8035 45.9774 82.4372C46.3823 83.0715 46.4193 84.1421 46.8473 84.212C47.19 84.268 47.7614 84.3612 47.9753 84.3962C48.1031 84.0916 48.3226 83.8391 48.5968 83.6662C48.5203 83.4691 48.3167 82.9439 48.1943 82.6283C48.0419 82.2347 46.9495 82.4039 46.2298 82.1402C45.5102 81.8763 45.9322 80.9758 46.5845 81.2643C47.2366 81.5521 48.0153 81.5709 47.4392 80.8812C46.8629 80.191 46.6408 79.2241 47.1837 79.0279C47.7264 78.8318 48.2173 79.7023 48.2514 80.5874C48.2866 81.4726 48.8616 80.9659 49.1573 80.3353C49.4527 79.7053 50.3846 80.1171 50.0212 80.7718C49.6578 81.4267 48.7187 81.9902 48.8713 82.3839C48.9933 82.699 49.197 83.2239 49.2735 83.4208C49.4339 83.3997 49.6005 83.4017 49.7686 83.4292C49.9366 83.4566 50.0949 83.5076 50.2397 83.5785C50.3778 83.4168 50.7446 82.9849 50.9648 82.7257C51.2406 82.402 50.5397 81.5707 50.4141 80.8359C50.2878 80.1013 51.3061 80.0079 51.3759 80.6976C51.4456 81.3879 51.8214 82.0502 52.1486 81.2238C52.4754 80.3975 53.2292 79.7301 53.6772 80.0882C54.1255 80.4462 53.5936 81.29 52.819 81.7596C52.0448 82.2289 52.7873 82.4585 53.4998 82.3934C54.2126 82.3278 54.3122 83.3136 53.5438 83.3345C52.7757 83.3552 51.7994 82.8483 51.5237 83.1719C51.3029 83.4316 50.9356 83.8635 50.798 84.0256C50.9997 84.2762 51.1231 84.5847 51.1426 84.9134C51.3566 84.9483 51.9279 85.0415 52.2706 85.0975C52.6986 85.1674 53.0899 84.1667 53.6837 83.6955C54.2776 83.2249 54.8733 84.0318 54.2913 84.4339C53.7087 84.8356 53.3056 85.4791 54.2094 85.3428C55.1128 85.2064 56.0883 85.5065 55.9936 86.06C55.8989 86.614 54.8767 86.5876 54.0676 86.1719C53.2583 85.7558 53.4255 86.4925 53.8426 87.0576C54.2593 87.6229 53.4275 88.1966 53.0225 87.5628C52.6176 86.9285 52.5805 85.858 52.1526 85.7881C51.8099 85.7322 51.2386 85.6388 51.0246 85.6039C50.8967 85.9085 50.6775 86.1608 50.4032 86.334C50.4796 86.5309 50.6832 87.0561 50.8055 87.3718C50.9586 87.7655 52.0506 87.5956 52.77 87.8599C53.4896 88.1238 53.0677 89.0241 52.4154 88.7359C51.7632 88.4477 50.9845 88.4292 51.5606 89.119C52.1369 89.8088 52.3592 90.7764 51.8163 90.972C51.2734 91.1684 50.7825 90.2978 50.7484 89.4126ZM50.42 85.15C50.504 84.6587 50.1604 84.1928 49.6522 84.1099C49.1441 84.0269 48.6642 84.3583 48.5802 84.8496C48.4961 85.3414 48.8397 85.807 49.3477 85.89C49.856 85.973 50.3359 85.6418 50.42 85.15Z" fill="#CAEFFF"/>
<path d="M97.7484 95.4126C97.7139 94.5272 97.1383 95.0337 96.8427 95.6647C96.5471 96.2952 95.6153 95.8826 95.9792 95.2282C96.3423 94.5732 97.2817 94.0099 97.1287 93.616C97.0065 93.3011 96.8033 92.7762 96.7267 92.5789C96.5661 92.6002 96.3994 92.5983 96.2313 92.5709C96.0633 92.5435 95.9051 92.4923 95.7605 92.4211C95.6226 92.5834 95.2553 93.0151 95.0351 93.2742C94.7598 93.5981 95.4604 94.4292 95.5862 95.164C95.7121 95.8989 94.6938 95.9924 94.624 95.3023C94.5543 94.6117 94.179 93.9499 93.8512 94.7763C93.5245 95.6029 92.7706 96.2695 92.3226 95.9117C91.8746 95.554 92.4063 94.7101 93.1808 94.2405C93.955 93.7719 93.2125 93.5414 92.5001 93.6067C91.7873 93.6721 91.6878 92.6866 92.4561 92.6656C93.2246 92.6443 94.2011 93.1519 94.4762 92.8281C94.6969 92.5685 95.0643 92.1366 95.2022 91.9745C95.0005 91.7237 94.8768 91.4154 94.8572 91.0867C94.6433 91.0517 94.0719 90.9585 93.7292 90.9026C93.3013 90.8327 92.91 91.8332 92.3161 92.3045C91.7223 92.7752 91.1266 91.9683 91.7087 91.5662C92.2912 91.1643 92.6944 90.5208 91.7906 90.6571C90.8873 90.7934 89.9117 90.4934 90.0064 89.9394C90.101 89.386 91.1235 89.412 91.9323 89.828C92.7417 90.2441 92.5744 89.5074 92.1572 88.9425C91.7405 88.3773 92.5723 87.8035 92.9774 88.4372C93.3823 89.0715 93.4193 90.1421 93.8473 90.212C94.19 90.268 94.7614 90.3612 94.9753 90.3962C95.1031 90.0916 95.3226 89.8391 95.5968 89.6662C95.5203 89.4691 95.3167 88.9439 95.1943 88.6283C95.0419 88.2347 93.9495 88.4039 93.2298 88.1402C92.5102 87.8763 92.9322 86.9758 93.5845 87.2643C94.2366 87.5521 95.0153 87.5709 94.4392 86.8812C93.8629 86.191 93.6408 85.2241 94.1837 85.0279C94.7264 84.8318 95.2173 85.7023 95.2514 86.5874C95.2866 87.4726 95.8616 86.9659 96.1573 86.3353C96.4527 85.7053 97.3846 86.1171 97.0212 86.7718C96.6578 87.4267 95.7187 87.9902 95.8713 88.3839C95.9933 88.699 96.197 89.2239 96.2735 89.4208C96.4339 89.3997 96.6005 89.4017 96.7686 89.4292C96.9366 89.4566 97.0949 89.5076 97.2397 89.5785C97.3778 89.4168 97.7446 88.9849 97.9648 88.7257C98.2406 88.402 97.5397 87.5707 97.4141 86.8359C97.2878 86.1013 98.3061 86.0079 98.3759 86.6976C98.4456 87.3879 98.8214 88.0502 99.1486 87.2238C99.4754 86.3975 100.229 85.7301 100.677 86.0882C101.126 86.4462 100.594 87.29 99.819 87.7596C99.0448 88.2289 99.7873 88.4585 100.5 88.3934C101.213 88.3278 101.312 89.3136 100.544 89.3345C99.7757 89.3552 98.7994 88.8483 98.5237 89.1719C98.3029 89.4316 97.9356 89.8635 97.798 90.0256C97.9997 90.2762 98.1231 90.5847 98.1426 90.9134C98.3566 90.9483 98.9279 91.0415 99.2706 91.0975C99.6986 91.1674 100.09 90.1667 100.684 89.6955C101.278 89.2249 101.873 90.0318 101.291 90.4339C100.709 90.8356 100.306 91.4791 101.209 91.3428C102.113 91.2064 103.088 91.5065 102.994 92.06C102.899 92.614 101.877 92.5876 101.068 92.1719C100.258 91.7558 100.425 92.4925 100.843 93.0576C101.259 93.6229 100.427 94.1966 100.022 93.5628C99.6176 92.9285 99.5805 91.858 99.1526 91.7881C98.8099 91.7322 98.2386 91.6388 98.0246 91.6039C97.8967 91.9085 97.6775 92.1608 97.4032 92.334C97.4796 92.5309 97.6832 93.0561 97.8055 93.3718C97.9586 93.7655 99.0506 93.5956 99.77 93.8599C100.49 94.1238 100.068 95.0241 99.4154 94.7359C98.7632 94.4477 97.9845 94.4292 98.5606 95.119C99.1369 95.8088 99.3592 96.7764 98.8163 96.972C98.2734 97.1684 97.7825 96.2978 97.7484 95.4126ZM97.42 91.15C97.504 90.6587 97.1604 90.1928 96.6522 90.1099C96.1441 90.0269 95.6642 90.3583 95.5802 90.8496C95.4961 91.3414 95.8397 91.807 96.3477 91.89C96.856 91.973 97.3359 91.6418 97.42 91.15Z" fill="#CAEFFF"/>
<path d="M31.7484 79.4126C31.7139 78.5272 31.1383 79.0337 30.8427 79.6647C30.5471 80.2952 29.6153 79.8826 29.9792 79.2282C30.3423 78.5732 31.2817 78.0099 31.1287 77.616C31.0065 77.3011 30.8033 76.7762 30.7267 76.5789C30.5661 76.6002 30.3994 76.5983 30.2313 76.5709C30.0633 76.5435 29.9051 76.4923 29.7605 76.4211C29.6226 76.5834 29.2553 77.0151 29.0351 77.2742C28.7598 77.5981 29.4604 78.4292 29.5862 79.164C29.7121 79.8989 28.6938 79.9924 28.624 79.3023C28.5543 78.6117 28.179 77.9499 27.8512 78.7763C27.5245 79.6029 26.7706 80.2695 26.3226 79.9117C25.8746 79.554 26.4063 78.7101 27.1808 78.2405C27.955 77.7719 27.2125 77.5414 26.5001 77.6067C25.7873 77.6721 25.6878 76.6866 26.4561 76.6656C27.2246 76.6443 28.2011 77.1519 28.4762 76.8281C28.6969 76.5685 29.0643 76.1366 29.2022 75.9745C29.0005 75.7237 28.8768 75.4154 28.8572 75.0867C28.6433 75.0517 28.0719 74.9585 27.7292 74.9026C27.3013 74.8327 26.91 75.8332 26.3161 76.3045C25.7223 76.7752 25.1266 75.9683 25.7087 75.5662C26.2912 75.1643 26.6944 74.5208 25.7906 74.6571C24.8873 74.7934 23.9117 74.4934 24.0064 73.9394C24.101 73.386 25.1235 73.412 25.9323 73.828C26.7417 74.2441 26.5744 73.5074 26.1572 72.9425C25.7405 72.3773 26.5723 71.8035 26.9774 72.4372C27.3823 73.0715 27.4193 74.1421 27.8473 74.212C28.19 74.268 28.7614 74.3612 28.9753 74.3962C29.1031 74.0916 29.3226 73.8391 29.5968 73.6662C29.5203 73.4691 29.3167 72.9439 29.1943 72.6283C29.0419 72.2347 27.9495 72.4039 27.2298 72.1402C26.5102 71.8763 26.9322 70.9758 27.5845 71.2643C28.2366 71.5521 29.0153 71.5709 28.4392 70.8812C27.8629 70.191 27.6408 69.2241 28.1837 69.0279C28.7264 68.8318 29.2173 69.7023 29.2514 70.5874C29.2866 71.4726 29.8616 70.9659 30.1573 70.3353C30.4527 69.7053 31.3846 70.1171 31.0212 70.7718C30.6578 71.4267 29.7187 71.9902 29.8713 72.3839C29.9933 72.699 30.197 73.2239 30.2735 73.4208C30.4339 73.3997 30.6005 73.4017 30.7686 73.4292C30.9366 73.4566 31.0949 73.5076 31.2397 73.5785C31.3778 73.4168 31.7446 72.9849 31.9648 72.7257C32.2406 72.402 31.5397 71.5707 31.4141 70.8359C31.2878 70.1013 32.3061 70.0079 32.3759 70.6976C32.4456 71.3879 32.8214 72.0502 33.1486 71.2238C33.4754 70.3975 34.2292 69.7301 34.6772 70.0882C35.1255 70.4462 34.5936 71.29 33.819 71.7596C33.0448 72.2289 33.7873 72.4585 34.4998 72.3934C35.2126 72.3278 35.3122 73.3136 34.5438 73.3345C33.7757 73.3552 32.7994 72.8483 32.5237 73.1719C32.3029 73.4316 31.9356 73.8635 31.798 74.0256C31.9997 74.2762 32.1231 74.5847 32.1426 74.9134C32.3566 74.9483 32.9279 75.0415 33.2706 75.0975C33.6986 75.1674 34.0899 74.1667 34.6837 73.6955C35.2776 73.2249 35.8733 74.0318 35.2913 74.4339C34.7087 74.8356 34.3056 75.4791 35.2094 75.3428C36.1128 75.2064 37.0883 75.5065 36.9936 76.06C36.8989 76.614 35.8767 76.5876 35.0676 76.1719C34.2583 75.7558 34.4255 76.4925 34.8426 77.0576C35.2593 77.6229 34.4275 78.1966 34.0225 77.5628C33.6176 76.9285 33.5805 75.858 33.1526 75.7881C32.8099 75.7322 32.2386 75.6388 32.0246 75.6039C31.8967 75.9085 31.6775 76.1608 31.4032 76.334C31.4796 76.5309 31.6832 77.0561 31.8055 77.3718C31.9586 77.7655 33.0506 77.5956 33.77 77.8599C34.4896 78.1238 34.0677 79.0241 33.4154 78.7359C32.7632 78.4477 31.9845 78.4292 32.5606 79.119C33.1369 79.8088 33.3592 80.7764 32.8163 80.972C32.2734 81.1684 31.7825 80.2978 31.7484 79.4126ZM31.42 75.15C31.504 74.6587 31.1604 74.1928 30.6522 74.1099C30.1441 74.0269 29.6642 74.3583 29.5802 74.8496C29.4961 75.3414 29.8397 75.807 30.3477 75.89C30.856 75.973 31.3359 75.6418 31.42 75.15Z" fill="#CAEFFF"/>
<path d="M83.7484 73.4126C83.7139 72.5272 83.1383 73.0337 82.8427 73.6647C82.5471 74.2952 81.6153 73.8826 81.9792 73.2282C82.3423 72.5732 83.2817 72.0099 83.1287 71.616C83.0065 71.3011 82.8033 70.7762 82.7267 70.5789C82.5661 70.6002 82.3994 70.5983 82.2313 70.5709C82.0633 70.5435 81.9051 70.4923 81.7605 70.4211C81.6226 70.5834 81.2553 71.0151 81.0351 71.2742C80.7598 71.5981 81.4604 72.4292 81.5862 73.164C81.7121 73.8989 80.6938 73.9924 80.624 73.3023C80.5543 72.6117 80.179 71.9499 79.8512 72.7763C79.5245 73.6029 78.7706 74.2695 78.3226 73.9117C77.8746 73.554 78.4063 72.7101 79.1808 72.2405C79.955 71.7719 79.2125 71.5414 78.5001 71.6067C77.7873 71.6721 77.6878 70.6866 78.4561 70.6656C79.2246 70.6443 80.2011 71.1519 80.4762 70.8281C80.6969 70.5685 81.0643 70.1366 81.2022 69.9745C81.0005 69.7237 80.8768 69.4154 80.8572 69.0867C80.6433 69.0517 80.0719 68.9585 79.7292 68.9026C79.3013 68.8327 78.91 69.8332 78.3161 70.3045C77.7223 70.7752 77.1266 69.9683 77.7087 69.5662C78.2912 69.1643 78.6944 68.5208 77.7906 68.6571C76.8873 68.7934 75.9117 68.4934 76.0064 67.9394C76.101 67.386 77.1235 67.412 77.9323 67.828C78.7417 68.2441 78.5744 67.5074 78.1572 66.9425C77.7405 66.3773 78.5723 65.8035 78.9774 66.4372C79.3823 67.0715 79.4193 68.1421 79.8473 68.212C80.19 68.268 80.7614 68.3612 80.9753 68.3962C81.1031 68.0916 81.3226 67.8391 81.5968 67.6662C81.5203 67.4691 81.3167 66.9439 81.1943 66.6283C81.0419 66.2347 79.9495 66.4039 79.2298 66.1402C78.5102 65.8763 78.9322 64.9758 79.5845 65.2643C80.2366 65.5521 81.0153 65.5709 80.4392 64.8812C79.8629 64.191 79.6408 63.2241 80.1837 63.0279C80.7264 62.8318 81.2173 63.7023 81.2514 64.5874C81.2866 65.4726 81.8616 64.9659 82.1573 64.3353C82.4527 63.7053 83.3846 64.1171 83.0212 64.7718C82.6578 65.4267 81.7187 65.9902 81.8713 66.3839C81.9933 66.699 82.197 67.2239 82.2735 67.4208C82.4339 67.3997 82.6005 67.4017 82.7686 67.4292C82.9366 67.4566 83.0949 67.5076 83.2397 67.5785C83.3778 67.4168 83.7446 66.9849 83.9648 66.7257C84.2406 66.402 83.5397 65.5707 83.4141 64.8359C83.2878 64.1013 84.3061 64.0079 84.3759 64.6976C84.4456 65.3879 84.8214 66.0502 85.1486 65.2238C85.4754 64.3975 86.2292 63.7301 86.6772 64.0882C87.1255 64.4462 86.5936 65.29 85.819 65.7596C85.0448 66.2289 85.7873 66.4585 86.4998 66.3934C87.2126 66.3278 87.3122 67.3136 86.5438 67.3345C85.7757 67.3552 84.7994 66.8483 84.5237 67.1719C84.3029 67.4316 83.9356 67.8635 83.798 68.0256C83.9997 68.2762 84.1231 68.5847 84.1426 68.9134C84.3566 68.9483 84.9279 69.0415 85.2706 69.0975C85.6986 69.1674 86.0899 68.1667 86.6837 67.6955C87.2776 67.2249 87.8733 68.0318 87.2913 68.4339C86.7087 68.8356 86.3056 69.4791 87.2094 69.3428C88.1128 69.2064 89.0883 69.5065 88.9936 70.06C88.8989 70.614 87.8767 70.5876 87.0676 70.1719C86.2583 69.7558 86.4255 70.4925 86.8426 71.0576C87.2593 71.6229 86.4275 72.1966 86.0225 71.5628C85.6176 70.9285 85.5805 69.858 85.1526 69.7881C84.8099 69.7322 84.2386 69.6388 84.0246 69.6039C83.8967 69.9085 83.6775 70.1608 83.4032 70.334C83.4796 70.5309 83.6832 71.0561 83.8055 71.3718C83.9586 71.7655 85.0506 71.5956 85.77 71.8599C86.4896 72.1238 86.0677 73.0241 85.4154 72.7359C84.7632 72.4477 83.9845 72.4292 84.5606 73.119C85.1369 73.8088 85.3592 74.7764 84.8163 74.972C84.2734 75.1684 83.7825 74.2978 83.7484 73.4126ZM83.42 69.15C83.504 68.6587 83.1604 68.1928 82.6522 68.1099C82.1441 68.0269 81.6642 68.3583 81.5802 68.8496C81.4961 69.3414 81.8397 69.807 82.3477 69.89C82.856 69.973 83.3359 69.6418 83.42 69.15Z" fill="#CAEFFF"/>
<path d="M49.7484 73.4126C49.7139 72.5272 49.1383 73.0337 48.8427 73.6647C48.5471 74.2952 47.6153 73.8826 47.9792 73.2282C48.3423 72.5732 49.2817 72.0099 49.1287 71.616C49.0065 71.3011 48.8033 70.7762 48.7267 70.5789C48.5661 70.6002 48.3994 70.5983 48.2313 70.5709C48.0633 70.5435 47.9051 70.4923 47.7605 70.4211C47.6226 70.5834 47.2553 71.0151 47.0351 71.2742C46.7598 71.5981 47.4604 72.4292 47.5862 73.164C47.7121 73.8989 46.6938 73.9924 46.624 73.3023C46.5543 72.6117 46.179 71.9499 45.8512 72.7763C45.5245 73.6029 44.7706 74.2695 44.3226 73.9117C43.8746 73.554 44.4063 72.7101 45.1808 72.2405C45.955 71.7719 45.2125 71.5414 44.5001 71.6067C43.7873 71.6721 43.6878 70.6866 44.4561 70.6656C45.2246 70.6443 46.2011 71.1519 46.4762 70.8281C46.6969 70.5685 47.0643 70.1366 47.2022 69.9745C47.0005 69.7237 46.8768 69.4154 46.8572 69.0867C46.6433 69.0517 46.0719 68.9585 45.7292 68.9026C45.3013 68.8327 44.91 69.8332 44.3161 70.3045C43.7223 70.7752 43.1266 69.9683 43.7087 69.5662C44.2912 69.1643 44.6944 68.5208 43.7906 68.6571C42.8873 68.7934 41.9117 68.4934 42.0064 67.9394C42.101 67.386 43.1235 67.412 43.9323 67.828C44.7417 68.2441 44.5744 67.5074 44.1572 66.9425C43.7405 66.3773 44.5723 65.8035 44.9774 66.4372C45.3823 67.0715 45.4193 68.1421 45.8473 68.212C46.19 68.268 46.7614 68.3612 46.9753 68.3962C47.1031 68.0916 47.3226 67.8391 47.5968 67.6662C47.5203 67.4691 47.3167 66.9439 47.1943 66.6283C47.0419 66.2347 45.9495 66.4039 45.2298 66.1402C44.5102 65.8763 44.9322 64.9758 45.5845 65.2643C46.2366 65.5521 47.0153 65.5709 46.4392 64.8812C45.8629 64.191 45.6408 63.2241 46.1837 63.0279C46.7264 62.8318 47.2173 63.7023 47.2514 64.5874C47.2866 65.4726 47.8616 64.9659 48.1573 64.3353C48.4527 63.7053 49.3846 64.1171 49.0212 64.7718C48.6578 65.4267 47.7187 65.9902 47.8713 66.3839C47.9933 66.699 48.197 67.2239 48.2735 67.4208C48.4339 67.3997 48.6005 67.4017 48.7686 67.4292C48.9366 67.4566 49.0949 67.5076 49.2397 67.5785C49.3778 67.4168 49.7446 66.9849 49.9648 66.7257C50.2406 66.402 49.5397 65.5707 49.4141 64.8359C49.2878 64.1013 50.3061 64.0079 50.3759 64.6976C50.4456 65.3879 50.8214 66.0502 51.1486 65.2238C51.4754 64.3975 52.2292 63.7301 52.6772 64.0882C53.1255 64.4462 52.5936 65.29 51.819 65.7596C51.0448 66.2289 51.7873 66.4585 52.4998 66.3934C53.2126 66.3278 53.3122 67.3136 52.5438 67.3345C51.7757 67.3552 50.7994 66.8483 50.5237 67.1719C50.3029 67.4316 49.9356 67.8635 49.798 68.0256C49.9997 68.2762 50.1231 68.5847 50.1426 68.9134C50.3566 68.9483 50.9279 69.0415 51.2706 69.0975C51.6986 69.1674 52.0899 68.1667 52.6837 67.6955C53.2776 67.2249 53.8733 68.0318 53.2913 68.4339C52.7087 68.8356 52.3056 69.4791 53.2094 69.3428C54.1128 69.2064 55.0883 69.5065 54.9936 70.06C54.8989 70.614 53.8767 70.5876 53.0676 70.1719C52.2583 69.7558 52.4255 70.4925 52.8426 71.0576C53.2593 71.6229 52.4275 72.1966 52.0225 71.5628C51.6176 70.9285 51.5805 69.858 51.1526 69.7881C50.8099 69.7322 50.2386 69.6388 50.0246 69.6039C49.8967 69.9085 49.6775 70.1608 49.4032 70.334C49.4796 70.5309 49.6832 71.0561 49.8055 71.3718C49.9586 71.7655 51.0506 71.5956 51.77 71.8599C52.4896 72.1238 52.0677 73.0241 51.4154 72.7359C50.7632 72.4477 49.9845 72.4292 50.5606 73.119C51.1369 73.8088 51.3592 74.7764 50.8163 74.972C50.2734 75.1684 49.7825 74.2978 49.7484 73.4126ZM49.42 69.15C49.504 68.6587 49.1604 68.1928 48.6522 68.1099C48.1441 68.0269 47.6642 68.3583 47.5802 68.8496C47.4961 69.3414 47.8397 69.807 48.3477 69.89C48.856 69.973 49.3359 69.6418 49.42 69.15Z" fill="#CAEFFF"/>
</g>
</svg>
