<svg width="100" height="100" viewBox="0 0 153 153" fill="none" xmlns="http://www.w3.org/2000/svg">
<g clip-path="url(#clip0_44_418)">
<path d="M105.188 3.18555C91.4042 3.18555 78.9887 9.01975 70.2621 18.3512C65.5883 12.9653 58.6917 9.56124 51.0017 9.56124C36.9145 9.56124 25.5034 20.9774 25.5034 35.0619C25.5034 35.2744 25.5034 35.4869 25.5127 35.697C10.9539 38.648 0 51.5114 0 66.9362C0 84.539 14.2692 98.8079 31.8767 98.8079H105.188C131.596 98.8079 153 77.4045 153 50.9977C153 24.5937 131.596 3.18555 105.188 3.18555Z" fill="#EBF9FF"/>
<path d="M135.658 14.1533C142.508 22.4272 146.627 33.0449 146.627 44.6246C146.627 71.0287 125.219 92.4392 98.8142 92.4392H25.5034C18.3221 92.4392 11.701 90.0673 6.37842 86.0611C12.1914 93.8025 21.4506 98.8077 31.8767 98.8077H105.188C131.596 98.8077 153 77.4044 153 50.9976C153 36.1732 146.253 22.9221 135.658 14.1533Z" fill="#B9E3F8"/>
<path d="M76.5 92.4535V54.187L51.0017 111.578H70.1267V149.814L95.6253 92.4535H76.5Z" fill="#F6BB42"/>
</g>
<defs>
<clipPath id="clip0_44_418">
<rect width="153" height="153" fill="white"/>
</clipPath>
</defs>
</svg>
